%TF.GenerationSoftware,KiCad,Pcbnew,(6.0.2)*%
%TF.CreationDate,2022-11-21T22:20:46+01:00*%
%TF.ProjectId,CANap_,43414e61-70e9-42e6-9b69-6361645f7063,rev?*%
%TF.SameCoordinates,Original*%
%TF.FileFunction,Soldermask,Bot*%
%TF.FilePolarity,Negative*%
%FSLAX46Y46*%
G04 Gerber Fmt 4.6, Leading zero omitted, Abs format (unit mm)*
G04 Created by KiCad (PCBNEW (6.0.2)) date 2022-11-21 22:20:46*
%MOMM*%
%LPD*%
G01*
G04 APERTURE LIST*
G04 Aperture macros list*
%AMRoundRect*
0 Rectangle with rounded corners*
0 $1 Rounding radius*
0 $2 $3 $4 $5 $6 $7 $8 $9 X,Y pos of 4 corners*
0 Add a 4 corners polygon primitive as box body*
4,1,4,$2,$3,$4,$5,$6,$7,$8,$9,$2,$3,0*
0 Add four circle primitives for the rounded corners*
1,1,$1+$1,$2,$3*
1,1,$1+$1,$4,$5*
1,1,$1+$1,$6,$7*
1,1,$1+$1,$8,$9*
0 Add four rect primitives between the rounded corners*
20,1,$1+$1,$2,$3,$4,$5,0*
20,1,$1+$1,$4,$5,$6,$7,0*
20,1,$1+$1,$6,$7,$8,$9,0*
20,1,$1+$1,$8,$9,$2,$3,0*%
G04 Aperture macros list end*
%ADD10C,0.800000*%
%ADD11C,6.400000*%
%ADD12C,4.000000*%
%ADD13R,1.600000X1.600000*%
%ADD14C,1.600000*%
%ADD15RoundRect,0.250000X-0.475000X0.250000X-0.475000X-0.250000X0.475000X-0.250000X0.475000X0.250000X0*%
%ADD16RoundRect,0.250000X0.475000X-0.250000X0.475000X0.250000X-0.475000X0.250000X-0.475000X-0.250000X0*%
%ADD17RoundRect,0.400000X-0.400000X0.400000X-0.400000X-0.400000X0.400000X-0.400000X0.400000X0.400000X0*%
%ADD18C,0.700000*%
%ADD19O,2.400000X0.900000*%
%ADD20O,1.700000X0.900000*%
%ADD21R,2.000000X1.500000*%
%ADD22R,2.000000X3.800000*%
G04 APERTURE END LIST*
D10*
%TO.C,REF\u002A\u002A*%
X184600000Y-96750000D03*
X186297056Y-96047056D03*
X187000000Y-94350000D03*
D11*
X184600000Y-94350000D03*
D10*
X182902944Y-92652944D03*
X182902944Y-96047056D03*
X186297056Y-92652944D03*
X184600000Y-91950000D03*
X182200000Y-94350000D03*
%TD*%
%TO.C,REF\u002A\u002A*%
X146700000Y-80600000D03*
X148397056Y-84697056D03*
X148397056Y-81302944D03*
X149100000Y-83000000D03*
D11*
X146700000Y-83000000D03*
D10*
X146700000Y-85400000D03*
X145002944Y-81302944D03*
X145002944Y-84697056D03*
X144300000Y-83000000D03*
%TD*%
D12*
%TO.C,J2*%
X138460331Y-95490000D03*
X138460331Y-70490000D03*
D13*
X139880331Y-77450000D03*
D14*
X139880331Y-80220000D03*
X139880331Y-82990000D03*
X139880331Y-85760000D03*
X139880331Y-88530000D03*
X137040331Y-78835000D03*
X137040331Y-81605000D03*
X137040331Y-84375000D03*
X137040331Y-87145000D03*
%TD*%
D15*
%TO.C,C2*%
X177900000Y-79250000D03*
X177900000Y-81150000D03*
%TD*%
D16*
%TO.C,C1*%
X177900000Y-85050000D03*
X177900000Y-83150000D03*
%TD*%
D14*
%TO.C,SW2*%
X144510000Y-70460000D03*
X149590000Y-70460000D03*
D17*
X144510000Y-75540000D03*
D14*
X147050000Y-75540000D03*
X149590000Y-75540000D03*
%TD*%
D18*
%TO.C,J1*%
X181600000Y-80200000D03*
X181600000Y-81050000D03*
X181600000Y-81900000D03*
X181600000Y-82750000D03*
X181600000Y-83600000D03*
X181600000Y-84450000D03*
X181600000Y-85300000D03*
X181600000Y-86150000D03*
X182950000Y-86150000D03*
X182950000Y-85300000D03*
X182950000Y-84450000D03*
X182950000Y-83600000D03*
X182950000Y-82750000D03*
X182950000Y-81900000D03*
X182950000Y-81050000D03*
X182950000Y-80200000D03*
D19*
X182580000Y-78850000D03*
D20*
X185960000Y-87500000D03*
X185960000Y-78850000D03*
D19*
X182580000Y-87500000D03*
%TD*%
D21*
%TO.C,U1*%
X175650000Y-79600000D03*
X175650000Y-81900000D03*
D22*
X169350000Y-81900000D03*
D21*
X175650000Y-84200000D03*
%TD*%
M02*
