%TF.GenerationSoftware,KiCad,Pcbnew,(6.0.2)*%
%TF.CreationDate,2022-11-22T23:48:31+01:00*%
%TF.ProjectId,CANap_,43414e61-70e9-42e6-9b69-6361645f7063,rev?*%
%TF.SameCoordinates,Original*%
%TF.FileFunction,Copper,L3,Inr*%
%TF.FilePolarity,Positive*%
%FSLAX46Y46*%
G04 Gerber Fmt 4.6, Leading zero omitted, Abs format (unit mm)*
G04 Created by KiCad (PCBNEW (6.0.2)) date 2022-11-22 23:48:31*
%MOMM*%
%LPD*%
G01*
G04 APERTURE LIST*
G04 Aperture macros list*
%AMRoundRect*
0 Rectangle with rounded corners*
0 $1 Rounding radius*
0 $2 $3 $4 $5 $6 $7 $8 $9 X,Y pos of 4 corners*
0 Add a 4 corners polygon primitive as box body*
4,1,4,$2,$3,$4,$5,$6,$7,$8,$9,$2,$3,0*
0 Add four circle primitives for the rounded corners*
1,1,$1+$1,$2,$3*
1,1,$1+$1,$4,$5*
1,1,$1+$1,$6,$7*
1,1,$1+$1,$8,$9*
0 Add four rect primitives between the rounded corners*
20,1,$1+$1,$2,$3,$4,$5,0*
20,1,$1+$1,$4,$5,$6,$7,0*
20,1,$1+$1,$6,$7,$8,$9,0*
20,1,$1+$1,$8,$9,$2,$3,0*%
G04 Aperture macros list end*
%TA.AperFunction,ComponentPad*%
%ADD10C,4.000000*%
%TD*%
%TA.AperFunction,ComponentPad*%
%ADD11R,1.600000X1.600000*%
%TD*%
%TA.AperFunction,ComponentPad*%
%ADD12C,1.600000*%
%TD*%
%TA.AperFunction,ComponentPad*%
%ADD13RoundRect,0.400000X-0.400000X0.400000X-0.400000X-0.400000X0.400000X-0.400000X0.400000X0.400000X0*%
%TD*%
%TA.AperFunction,ComponentPad*%
%ADD14C,0.700000*%
%TD*%
%TA.AperFunction,ComponentPad*%
%ADD15O,2.400000X0.900000*%
%TD*%
%TA.AperFunction,ComponentPad*%
%ADD16O,1.700000X0.900000*%
%TD*%
%TA.AperFunction,ViaPad*%
%ADD17C,0.600000*%
%TD*%
%TA.AperFunction,ViaPad*%
%ADD18C,0.900000*%
%TD*%
G04 APERTURE END LIST*
D10*
%TO.N,GND*%
%TO.C,J2*%
X138460331Y-70490000D03*
X138460331Y-95490000D03*
D11*
%TO.N,unconnected-(J2-Pad1)*%
X139880331Y-77450000D03*
D12*
%TO.N,CANL*%
X139880331Y-80220000D03*
%TO.N,GND*%
X139880331Y-82990000D03*
%TO.N,unconnected-(J2-Pad4)*%
X139880331Y-85760000D03*
%TO.N,GND*%
X139880331Y-88530000D03*
X137040331Y-78835000D03*
%TO.N,CANH*%
X137040331Y-81605000D03*
%TO.N,unconnected-(J2-Pad8)*%
X137040331Y-84375000D03*
%TO.N,unconnected-(J2-Pad9)*%
X137040331Y-87145000D03*
%TD*%
%TO.N,*%
%TO.C,SW2*%
X143560000Y-70410000D03*
X148640000Y-70410000D03*
D13*
%TO.N,CANL*%
X143560000Y-75490000D03*
D12*
%TO.N,Net-(R1-Pad2)*%
X146100000Y-75490000D03*
%TO.N,unconnected-(SW2-Pad3)*%
X148640000Y-75490000D03*
%TD*%
D14*
%TO.N,GND*%
%TO.C,J1*%
X173850000Y-80350000D03*
%TO.N,+5V*%
X173850000Y-81200000D03*
%TO.N,Net-(J1-PadA5)*%
X173850000Y-82050000D03*
%TO.N,/USB+*%
X173850000Y-82900000D03*
%TO.N,/USB-*%
X173850000Y-83750000D03*
%TO.N,unconnected-(J1-PadA8)*%
X173850000Y-84600000D03*
%TO.N,+5V*%
X173850000Y-85450000D03*
%TO.N,GND*%
X173850000Y-86300000D03*
X175200000Y-86300000D03*
%TO.N,+5V*%
X175200000Y-85450000D03*
%TO.N,Net-(J1-PadB5)*%
X175200000Y-84600000D03*
%TO.N,/USB+*%
X175200000Y-83750000D03*
%TO.N,/USB-*%
X175200000Y-82900000D03*
%TO.N,unconnected-(J1-PadB8)*%
X175200000Y-82050000D03*
%TO.N,+5V*%
X175200000Y-81200000D03*
%TO.N,GND*%
X175200000Y-80350000D03*
D15*
%TO.N,unconnected-(J1-PadS1)*%
X174830000Y-79000000D03*
D16*
X178210000Y-87650000D03*
X178210000Y-79000000D03*
D15*
X174830000Y-87650000D03*
%TD*%
D17*
%TO.N,GND*%
X166250000Y-81300000D03*
X171600000Y-92200000D03*
X143300000Y-92350000D03*
X147050000Y-92350000D03*
X147050000Y-89250000D03*
X143300000Y-89100000D03*
X166350000Y-76200000D03*
X166350000Y-74250000D03*
X168750000Y-74300000D03*
X168750000Y-76150000D03*
X170250000Y-78100000D03*
%TO.N,+3V3*%
X176850000Y-72350000D03*
X167300000Y-80050000D03*
%TO.N,GND*%
X155750000Y-96450000D03*
D18*
X155925000Y-78675000D03*
D17*
X172768750Y-79018750D03*
X171175000Y-88925000D03*
X172500000Y-86300000D03*
D18*
X165925000Y-90075000D03*
X158175000Y-80525000D03*
X158175000Y-93275000D03*
D17*
X157684114Y-85128237D03*
D18*
X151300000Y-76350000D03*
D17*
X176950000Y-69350000D03*
X160871925Y-81737669D03*
X176875000Y-76975000D03*
D18*
X155875000Y-76575000D03*
D17*
X145400000Y-83200000D03*
D18*
%TO.N,+3V3*%
X171000000Y-73050000D03*
X162018750Y-83518750D03*
X167525000Y-90325000D03*
X150050000Y-76200000D03*
X158275000Y-90375000D03*
X159667657Y-75324500D03*
X164050000Y-82093750D03*
D17*
%TO.N,Net-(D4-Pad2)*%
X158175000Y-92175000D03*
X162925000Y-90375000D03*
%TD*%
%TA.AperFunction,Conductor*%
%TO.N,+3V3*%
G36*
X175614695Y-70300525D02*
G01*
X175779046Y-70315571D01*
X175801629Y-70319740D01*
X175954960Y-70362815D01*
X175976413Y-70371017D01*
X176119368Y-70441214D01*
X176138978Y-70453175D01*
X176266820Y-70548168D01*
X176283925Y-70563486D01*
X176396326Y-70684338D01*
X176403757Y-70693098D01*
X178875999Y-73892469D01*
X179015702Y-74073261D01*
X179041527Y-74139394D01*
X179042000Y-74150303D01*
X179042000Y-77956003D01*
X179021998Y-78024124D01*
X178968342Y-78070617D01*
X178898068Y-78080721D01*
X178890238Y-78079341D01*
X178846104Y-78070121D01*
X178715443Y-78042824D01*
X178715438Y-78042823D01*
X178710707Y-78041835D01*
X178704315Y-78041500D01*
X177761337Y-78041500D01*
X177692049Y-78048538D01*
X177622622Y-78055590D01*
X177622621Y-78055590D01*
X177616273Y-78056235D01*
X177570380Y-78070617D01*
X177436549Y-78112556D01*
X177436544Y-78112558D01*
X177430459Y-78114465D01*
X177380771Y-78142008D01*
X177265729Y-78205777D01*
X177265726Y-78205779D01*
X177260150Y-78208870D01*
X177255309Y-78213019D01*
X177255305Y-78213022D01*
X177137636Y-78313877D01*
X177112302Y-78335591D01*
X177108391Y-78340633D01*
X177108390Y-78340634D01*
X177074234Y-78384668D01*
X176992954Y-78489453D01*
X176990138Y-78495176D01*
X176990136Y-78495179D01*
X176913432Y-78651062D01*
X176906982Y-78664171D01*
X176905373Y-78670349D01*
X176905372Y-78670351D01*
X176861875Y-78837340D01*
X176857898Y-78852607D01*
X176854710Y-78913438D01*
X176848625Y-79029555D01*
X176847707Y-79047064D01*
X176861916Y-79141014D01*
X176874591Y-79224824D01*
X176876825Y-79239599D01*
X176879028Y-79245585D01*
X176879029Y-79245591D01*
X176941860Y-79416360D01*
X176941862Y-79416365D01*
X176944063Y-79422346D01*
X176947425Y-79427768D01*
X177041145Y-79578922D01*
X177046674Y-79587840D01*
X177051055Y-79592473D01*
X177051056Y-79592474D01*
X177093349Y-79637198D01*
X177180466Y-79729322D01*
X177185696Y-79732984D01*
X177185697Y-79732985D01*
X177223846Y-79759697D01*
X177339975Y-79841011D01*
X177387987Y-79861788D01*
X177512825Y-79915810D01*
X177512829Y-79915811D01*
X177518684Y-79918345D01*
X177524931Y-79919650D01*
X177524934Y-79919651D01*
X177704557Y-79957176D01*
X177704562Y-79957177D01*
X177709293Y-79958165D01*
X177715685Y-79958500D01*
X178658663Y-79958500D01*
X178727951Y-79951462D01*
X178797378Y-79944410D01*
X178797379Y-79944410D01*
X178803727Y-79943765D01*
X178878321Y-79920389D01*
X178949306Y-79919105D01*
X179009717Y-79956402D01*
X179040373Y-80020439D01*
X179042000Y-80040623D01*
X179042000Y-82510699D01*
X179021998Y-82578820D01*
X178995405Y-82608529D01*
X178973545Y-82626272D01*
X178953107Y-82639792D01*
X178802979Y-82719294D01*
X178780308Y-82728603D01*
X178617635Y-82777538D01*
X178593593Y-82782282D01*
X178472562Y-82794109D01*
X178418377Y-82799403D01*
X178406126Y-82800000D01*
X176161732Y-82800000D01*
X176093611Y-82779998D01*
X176047118Y-82726342D01*
X176041899Y-82712936D01*
X175990641Y-82555177D01*
X175990640Y-82555175D01*
X175988599Y-82548893D01*
X175982309Y-82537998D01*
X175965572Y-82469004D01*
X175982309Y-82412001D01*
X175988599Y-82401107D01*
X176032657Y-82265510D01*
X176042325Y-82235754D01*
X176042325Y-82235753D01*
X176044365Y-82229475D01*
X176063229Y-82050000D01*
X176044365Y-81870525D01*
X175988599Y-81698893D01*
X175982309Y-81687998D01*
X175965572Y-81619004D01*
X175982309Y-81562001D01*
X175988599Y-81551107D01*
X176016359Y-81465670D01*
X176042325Y-81385754D01*
X176042325Y-81385753D01*
X176044365Y-81379475D01*
X176054648Y-81281646D01*
X176062539Y-81206565D01*
X176063229Y-81200000D01*
X176053095Y-81103587D01*
X176045055Y-81027089D01*
X176045055Y-81027088D01*
X176044365Y-81020525D01*
X176039380Y-81005181D01*
X175990641Y-80855178D01*
X175988599Y-80848893D01*
X175982309Y-80837998D01*
X175965572Y-80769004D01*
X175982309Y-80712001D01*
X175988599Y-80701107D01*
X176032380Y-80566362D01*
X176042325Y-80535754D01*
X176042325Y-80535753D01*
X176044365Y-80529475D01*
X176063229Y-80350000D01*
X176061960Y-80337926D01*
X176045055Y-80177089D01*
X176045055Y-80177088D01*
X176044365Y-80170525D01*
X175988599Y-79998893D01*
X175988414Y-79998572D01*
X175979288Y-79930498D01*
X176009396Y-79866201D01*
X176042742Y-79839417D01*
X176124263Y-79794228D01*
X176124270Y-79794223D01*
X176129850Y-79791130D01*
X176134691Y-79786981D01*
X176134695Y-79786978D01*
X176272855Y-79668560D01*
X176277698Y-79664409D01*
X176292248Y-79645652D01*
X176393131Y-79515594D01*
X176397046Y-79510547D01*
X176408041Y-79488204D01*
X176480200Y-79341556D01*
X176483018Y-79335829D01*
X176484628Y-79329649D01*
X176530492Y-79153575D01*
X176530492Y-79153572D01*
X176532102Y-79147393D01*
X176537694Y-79040683D01*
X176541959Y-78959317D01*
X176541959Y-78959313D01*
X176542293Y-78952936D01*
X176513175Y-78760401D01*
X176510972Y-78754415D01*
X176510971Y-78754409D01*
X176448140Y-78583640D01*
X176448138Y-78583635D01*
X176445937Y-78577654D01*
X176343326Y-78412160D01*
X176239660Y-78302535D01*
X176213919Y-78275315D01*
X176209534Y-78270678D01*
X176150002Y-78228993D01*
X176055259Y-78162654D01*
X176050025Y-78158989D01*
X175975268Y-78126639D01*
X175877175Y-78084190D01*
X175877171Y-78084189D01*
X175871316Y-78081655D01*
X175865069Y-78080350D01*
X175865066Y-78080349D01*
X175685443Y-78042824D01*
X175685438Y-78042823D01*
X175680707Y-78041835D01*
X175674315Y-78041500D01*
X174031337Y-78041500D01*
X173962049Y-78048538D01*
X173892622Y-78055590D01*
X173892621Y-78055590D01*
X173886273Y-78056235D01*
X173840380Y-78070617D01*
X173706549Y-78112556D01*
X173706544Y-78112558D01*
X173700459Y-78114465D01*
X173650771Y-78142008D01*
X173535729Y-78205777D01*
X173535726Y-78205779D01*
X173530150Y-78208870D01*
X173525309Y-78213019D01*
X173525305Y-78213022D01*
X173387149Y-78331436D01*
X173387146Y-78331439D01*
X173382302Y-78335591D01*
X173381831Y-78335042D01*
X173324563Y-78368155D01*
X173253644Y-78364823D01*
X173227267Y-78352114D01*
X173125416Y-78287477D01*
X173067952Y-78267015D01*
X172961175Y-78228993D01*
X172961170Y-78228992D01*
X172954540Y-78226631D01*
X172947552Y-78225798D01*
X172947549Y-78225797D01*
X172805593Y-78208870D01*
X172774430Y-78205154D01*
X172767427Y-78205890D01*
X172767426Y-78205890D01*
X172601038Y-78223378D01*
X172601036Y-78223379D01*
X172594038Y-78224114D01*
X172422329Y-78282568D01*
X172379495Y-78308920D01*
X172273845Y-78373916D01*
X172273842Y-78373918D01*
X172267838Y-78377612D01*
X172262803Y-78382543D01*
X172262800Y-78382545D01*
X172143275Y-78499593D01*
X172138243Y-78504521D01*
X172039985Y-78656988D01*
X172037576Y-78663608D01*
X172037574Y-78663611D01*
X172000047Y-78766715D01*
X171977947Y-78827435D01*
X171955213Y-79007390D01*
X171972913Y-79187910D01*
X172030168Y-79360023D01*
X172033815Y-79366045D01*
X172033816Y-79366047D01*
X172109480Y-79490983D01*
X172124130Y-79515174D01*
X172129019Y-79520237D01*
X172129020Y-79520238D01*
X172189067Y-79582418D01*
X172250132Y-79645652D01*
X172256028Y-79649510D01*
X172368244Y-79722942D01*
X172401909Y-79744972D01*
X172408513Y-79747428D01*
X172408515Y-79747429D01*
X172565308Y-79805740D01*
X172565310Y-79805740D01*
X172571918Y-79808198D01*
X172655745Y-79819383D01*
X172744730Y-79831257D01*
X172744734Y-79831257D01*
X172751711Y-79832188D01*
X172758722Y-79831550D01*
X172758726Y-79831550D01*
X172932350Y-79815748D01*
X172932466Y-79817022D01*
X172995942Y-79822314D01*
X173052273Y-79865526D01*
X173076299Y-79932334D01*
X173065630Y-79991090D01*
X173064700Y-79993179D01*
X173061401Y-79998893D01*
X173005635Y-80170525D01*
X173004945Y-80177088D01*
X173004945Y-80177089D01*
X172988040Y-80337926D01*
X172986771Y-80350000D01*
X173005635Y-80529475D01*
X173007675Y-80535753D01*
X173007675Y-80535754D01*
X173017620Y-80566362D01*
X173061401Y-80701107D01*
X173067691Y-80712001D01*
X173084428Y-80780996D01*
X173067691Y-80837998D01*
X173061401Y-80848893D01*
X173059359Y-80855178D01*
X173010621Y-81005181D01*
X173005635Y-81020525D01*
X173004945Y-81027088D01*
X173004945Y-81027089D01*
X172996905Y-81103587D01*
X172986771Y-81200000D01*
X172987461Y-81206565D01*
X172995353Y-81281646D01*
X173005635Y-81379475D01*
X173007675Y-81385753D01*
X173007675Y-81385754D01*
X173033641Y-81465670D01*
X173061401Y-81551107D01*
X173067691Y-81562001D01*
X173084428Y-81630996D01*
X173067691Y-81687998D01*
X173061401Y-81698893D01*
X173005635Y-81870525D01*
X172986771Y-82050000D01*
X173005635Y-82229475D01*
X173007675Y-82235753D01*
X173007675Y-82235754D01*
X173017343Y-82265510D01*
X173061401Y-82401107D01*
X173067691Y-82412001D01*
X173084428Y-82480996D01*
X173067691Y-82537998D01*
X173061401Y-82548893D01*
X173005635Y-82720525D01*
X173004945Y-82727088D01*
X173004945Y-82727089D01*
X172999384Y-82779998D01*
X172986771Y-82900000D01*
X173005635Y-83079475D01*
X173061401Y-83251107D01*
X173067691Y-83262001D01*
X173084428Y-83330996D01*
X173067691Y-83387998D01*
X173061401Y-83398893D01*
X173005635Y-83570525D01*
X172986771Y-83750000D01*
X173005635Y-83929475D01*
X173061401Y-84101107D01*
X173067691Y-84112001D01*
X173084428Y-84180996D01*
X173067691Y-84237998D01*
X173061401Y-84248893D01*
X173005635Y-84420525D01*
X172986771Y-84600000D01*
X173005635Y-84779475D01*
X173061401Y-84951107D01*
X173067691Y-84962001D01*
X173084428Y-85030996D01*
X173067691Y-85087998D01*
X173061401Y-85098893D01*
X173005635Y-85270525D01*
X173004945Y-85277088D01*
X173004945Y-85277089D01*
X172986786Y-85449861D01*
X172959773Y-85515517D01*
X172901551Y-85556147D01*
X172830606Y-85558850D01*
X172819209Y-85555389D01*
X172692425Y-85510243D01*
X172692420Y-85510242D01*
X172685790Y-85507881D01*
X172678802Y-85507048D01*
X172678799Y-85507047D01*
X172555698Y-85492368D01*
X172505680Y-85486404D01*
X172498677Y-85487140D01*
X172498676Y-85487140D01*
X172332288Y-85504628D01*
X172332286Y-85504629D01*
X172325288Y-85505364D01*
X172153579Y-85563818D01*
X172147575Y-85567512D01*
X172005095Y-85655166D01*
X172005092Y-85655168D01*
X171999088Y-85658862D01*
X171994053Y-85663793D01*
X171994050Y-85663795D01*
X171884119Y-85771448D01*
X171869493Y-85785771D01*
X171771235Y-85938238D01*
X171768826Y-85944858D01*
X171768824Y-85944861D01*
X171750506Y-85995190D01*
X171709197Y-86108685D01*
X171686463Y-86288640D01*
X171704163Y-86469160D01*
X171761418Y-86641273D01*
X171765065Y-86647295D01*
X171765066Y-86647297D01*
X171767374Y-86651107D01*
X171855380Y-86796424D01*
X171860269Y-86801487D01*
X171860270Y-86801488D01*
X171867514Y-86808989D01*
X171981382Y-86926902D01*
X171987278Y-86930760D01*
X172106030Y-87008469D01*
X172133159Y-87026222D01*
X172139763Y-87028678D01*
X172139765Y-87028679D01*
X172296558Y-87086990D01*
X172296560Y-87086990D01*
X172303168Y-87089448D01*
X172386995Y-87100633D01*
X172475980Y-87112507D01*
X172475984Y-87112507D01*
X172482961Y-87113438D01*
X172489972Y-87112800D01*
X172489976Y-87112800D01*
X172632459Y-87099832D01*
X172663600Y-87096998D01*
X172670302Y-87094820D01*
X172670304Y-87094820D01*
X172829409Y-87043124D01*
X172829412Y-87043123D01*
X172836108Y-87040947D01*
X172991912Y-86948069D01*
X173052266Y-86890595D01*
X173115391Y-86858103D01*
X173186062Y-86864897D01*
X173232791Y-86897528D01*
X173272387Y-86941504D01*
X173272388Y-86941504D01*
X173272258Y-86941621D01*
X173307890Y-86999455D01*
X173306539Y-87070439D01*
X173285901Y-87109870D01*
X173262954Y-87139453D01*
X173260138Y-87145176D01*
X173260136Y-87145179D01*
X173211444Y-87244135D01*
X173176982Y-87314171D01*
X173127898Y-87502607D01*
X173117707Y-87697064D01*
X173146825Y-87889599D01*
X173149028Y-87895585D01*
X173149029Y-87895591D01*
X173211860Y-88066360D01*
X173211862Y-88066365D01*
X173214063Y-88072346D01*
X173316674Y-88237840D01*
X173321055Y-88242473D01*
X173321056Y-88242474D01*
X173363297Y-88287143D01*
X173450466Y-88379322D01*
X173576001Y-88467222D01*
X173620328Y-88522678D01*
X173629717Y-88572146D01*
X173609852Y-90034049D01*
X173609094Y-90046246D01*
X173593053Y-90190675D01*
X173589733Y-90220562D01*
X173584700Y-90244446D01*
X173533929Y-90405892D01*
X173524386Y-90428355D01*
X173506664Y-90460891D01*
X173443434Y-90576976D01*
X173429739Y-90597176D01*
X173321642Y-90727400D01*
X173304306Y-90744582D01*
X173173127Y-90851511D01*
X173152798Y-90865030D01*
X173003470Y-90944649D01*
X172980916Y-90953995D01*
X172819027Y-91003324D01*
X172795095Y-91008144D01*
X172737183Y-91014055D01*
X172620614Y-91025951D01*
X172608428Y-91026601D01*
X171901446Y-91029904D01*
X169752496Y-91039945D01*
X166594486Y-91054701D01*
X166526272Y-91035017D01*
X166479529Y-90981579D01*
X166469097Y-90911353D01*
X166498288Y-90846635D01*
X166516324Y-90829413D01*
X166584343Y-90776271D01*
X166589199Y-90772477D01*
X166606207Y-90752773D01*
X166707994Y-90634852D01*
X166707995Y-90634850D01*
X166712023Y-90630184D01*
X166804870Y-90466744D01*
X166864203Y-90288382D01*
X166887762Y-90101892D01*
X166888138Y-90075000D01*
X166869795Y-89887926D01*
X166863385Y-89866693D01*
X166826919Y-89745915D01*
X166815465Y-89707977D01*
X166727218Y-89542008D01*
X166608415Y-89396340D01*
X166554603Y-89351823D01*
X166468329Y-89280450D01*
X166468324Y-89280447D01*
X166463580Y-89276522D01*
X166458161Y-89273592D01*
X166458158Y-89273590D01*
X166388671Y-89236019D01*
X166298231Y-89187119D01*
X166118666Y-89131534D01*
X166112541Y-89130890D01*
X166112540Y-89130890D01*
X165937852Y-89112529D01*
X165937851Y-89112529D01*
X165931724Y-89111885D01*
X165854673Y-89118897D01*
X165750665Y-89128363D01*
X165750662Y-89128364D01*
X165744526Y-89128922D01*
X165738620Y-89130660D01*
X165738616Y-89130661D01*
X165605278Y-89169905D01*
X165564202Y-89181994D01*
X165397621Y-89269080D01*
X165251128Y-89386864D01*
X165247170Y-89391582D01*
X165247167Y-89391584D01*
X165204770Y-89442111D01*
X165130302Y-89530859D01*
X165127338Y-89536251D01*
X165127335Y-89536255D01*
X165068920Y-89642512D01*
X165039746Y-89695580D01*
X165037885Y-89701447D01*
X165037884Y-89701449D01*
X165026037Y-89738795D01*
X164982909Y-89874752D01*
X164961956Y-90061552D01*
X164962472Y-90067696D01*
X164972799Y-90190675D01*
X164977685Y-90248865D01*
X165003591Y-90339210D01*
X165022712Y-90405892D01*
X165029497Y-90429555D01*
X165032312Y-90435032D01*
X165032313Y-90435035D01*
X165105261Y-90576976D01*
X165115418Y-90596740D01*
X165119241Y-90601564D01*
X165119244Y-90601568D01*
X165210159Y-90716273D01*
X165232177Y-90744052D01*
X165343708Y-90838973D01*
X165382620Y-90898354D01*
X165383251Y-90969347D01*
X165345400Y-91029412D01*
X165281083Y-91059478D01*
X165262633Y-91060924D01*
X163670642Y-91068363D01*
X163602428Y-91048679D01*
X163555685Y-90995241D01*
X163545253Y-90925015D01*
X163565105Y-90872637D01*
X163644742Y-90752773D01*
X163648643Y-90746902D01*
X163691207Y-90634852D01*
X163710555Y-90583920D01*
X163710556Y-90583918D01*
X163713055Y-90577338D01*
X163714035Y-90570366D01*
X163737748Y-90401639D01*
X163737748Y-90401636D01*
X163738299Y-90397717D01*
X163738616Y-90375000D01*
X163718397Y-90194745D01*
X163716080Y-90188091D01*
X163661064Y-90030106D01*
X163661062Y-90030103D01*
X163658745Y-90023448D01*
X163562626Y-89869624D01*
X163548941Y-89855843D01*
X163439778Y-89745915D01*
X163439774Y-89745912D01*
X163434815Y-89740918D01*
X163423697Y-89733862D01*
X163372622Y-89701449D01*
X163281666Y-89643727D01*
X163252463Y-89633328D01*
X163117425Y-89585243D01*
X163117420Y-89585242D01*
X163110790Y-89582881D01*
X163103802Y-89582048D01*
X163103799Y-89582047D01*
X162980698Y-89567368D01*
X162930680Y-89561404D01*
X162923677Y-89562140D01*
X162923676Y-89562140D01*
X162757288Y-89579628D01*
X162757286Y-89579629D01*
X162750288Y-89580364D01*
X162578579Y-89638818D01*
X162572575Y-89642512D01*
X162430095Y-89730166D01*
X162430092Y-89730168D01*
X162424088Y-89733862D01*
X162419053Y-89738793D01*
X162419050Y-89738795D01*
X162299525Y-89855843D01*
X162294493Y-89860771D01*
X162196235Y-90013238D01*
X162193826Y-90019858D01*
X162193824Y-90019861D01*
X162175031Y-90071495D01*
X162134197Y-90183685D01*
X162111463Y-90363640D01*
X162129163Y-90544160D01*
X162186418Y-90716273D01*
X162190065Y-90722295D01*
X162190066Y-90722297D01*
X162203241Y-90744052D01*
X162280380Y-90871424D01*
X162282686Y-90873812D01*
X162307868Y-90938616D01*
X162293723Y-91008189D01*
X162244209Y-91059071D01*
X162182912Y-91075315D01*
X157301048Y-91098126D01*
X157289209Y-91097624D01*
X157119838Y-91082441D01*
X157096565Y-91078122D01*
X156938750Y-91033161D01*
X156916694Y-91024565D01*
X156884020Y-91008144D01*
X156770079Y-90950882D01*
X156750020Y-90938313D01*
X156615043Y-90834882D01*
X156605987Y-90827241D01*
X154930574Y-89272942D01*
X154543274Y-88913640D01*
X170361463Y-88913640D01*
X170379163Y-89094160D01*
X170436418Y-89266273D01*
X170440065Y-89272295D01*
X170440066Y-89272297D01*
X170515189Y-89396340D01*
X170530380Y-89421424D01*
X170656382Y-89551902D01*
X170732270Y-89601562D01*
X170794849Y-89642512D01*
X170808159Y-89651222D01*
X170814763Y-89653678D01*
X170814765Y-89653679D01*
X170971558Y-89711990D01*
X170971560Y-89711990D01*
X170978168Y-89714448D01*
X171061995Y-89725633D01*
X171150980Y-89737507D01*
X171150984Y-89737507D01*
X171157961Y-89738438D01*
X171164972Y-89737800D01*
X171164976Y-89737800D01*
X171307459Y-89724832D01*
X171338600Y-89721998D01*
X171345302Y-89719820D01*
X171345304Y-89719820D01*
X171504409Y-89668124D01*
X171504412Y-89668123D01*
X171511108Y-89665947D01*
X171646490Y-89585243D01*
X171660860Y-89576677D01*
X171660862Y-89576676D01*
X171666912Y-89573069D01*
X171798266Y-89447982D01*
X171898643Y-89296902D01*
X171963055Y-89127338D01*
X171965227Y-89111885D01*
X171987748Y-88951639D01*
X171987748Y-88951636D01*
X171988299Y-88947717D01*
X171988616Y-88925000D01*
X171968397Y-88744745D01*
X171966080Y-88738091D01*
X171911064Y-88580106D01*
X171911062Y-88580103D01*
X171908745Y-88573448D01*
X171812626Y-88419624D01*
X171776238Y-88382981D01*
X171689778Y-88295915D01*
X171689774Y-88295912D01*
X171684815Y-88290918D01*
X171673697Y-88283862D01*
X171592633Y-88232418D01*
X171531666Y-88193727D01*
X171502463Y-88183328D01*
X171367425Y-88135243D01*
X171367420Y-88135242D01*
X171360790Y-88132881D01*
X171353802Y-88132048D01*
X171353799Y-88132047D01*
X171230698Y-88117368D01*
X171180680Y-88111404D01*
X171173677Y-88112140D01*
X171173676Y-88112140D01*
X171007288Y-88129628D01*
X171007286Y-88129629D01*
X171000288Y-88130364D01*
X170828579Y-88188818D01*
X170822575Y-88192512D01*
X170680095Y-88280166D01*
X170680092Y-88280168D01*
X170674088Y-88283862D01*
X170669053Y-88288793D01*
X170669050Y-88288795D01*
X170572871Y-88382981D01*
X170544493Y-88410771D01*
X170446235Y-88563238D01*
X170443826Y-88569858D01*
X170443824Y-88569861D01*
X170429761Y-88608500D01*
X170384197Y-88733685D01*
X170361463Y-88913640D01*
X154543274Y-88913640D01*
X152750000Y-87250000D01*
X153700000Y-87250000D01*
X157500000Y-87250000D01*
X157500000Y-86063311D01*
X157520002Y-85995190D01*
X157573658Y-85948697D01*
X157642664Y-85938418D01*
X157660093Y-85940744D01*
X157660098Y-85940744D01*
X157667075Y-85941675D01*
X157674086Y-85941037D01*
X157674090Y-85941037D01*
X157816573Y-85928069D01*
X157847714Y-85925235D01*
X157854416Y-85923057D01*
X157854418Y-85923057D01*
X158013523Y-85871361D01*
X158013526Y-85871360D01*
X158020222Y-85869184D01*
X158150214Y-85791693D01*
X158169974Y-85779914D01*
X158169976Y-85779913D01*
X158176026Y-85776306D01*
X158307380Y-85651219D01*
X158407757Y-85500139D01*
X158472169Y-85330575D01*
X158479686Y-85277089D01*
X158496862Y-85154876D01*
X158496862Y-85154873D01*
X158497413Y-85150954D01*
X158497730Y-85128237D01*
X158477511Y-84947982D01*
X158475194Y-84941328D01*
X158420178Y-84783343D01*
X158420176Y-84783340D01*
X158417859Y-84776685D01*
X158321740Y-84622861D01*
X158316778Y-84617864D01*
X158198892Y-84499152D01*
X158198888Y-84499149D01*
X158193929Y-84494155D01*
X158040780Y-84396964D01*
X158011577Y-84386565D01*
X157876539Y-84338480D01*
X157876534Y-84338479D01*
X157869904Y-84336118D01*
X157862916Y-84335285D01*
X157862913Y-84335284D01*
X157734417Y-84319962D01*
X157689794Y-84314641D01*
X157682791Y-84315377D01*
X157682790Y-84315377D01*
X157668088Y-84316922D01*
X157639170Y-84319962D01*
X157569333Y-84307190D01*
X157517486Y-84258689D01*
X157500000Y-84194652D01*
X157500000Y-81750000D01*
X153700000Y-81750000D01*
X153700000Y-87250000D01*
X152750000Y-87250000D01*
X148924636Y-83701168D01*
X148915613Y-83691889D01*
X148793050Y-83552152D01*
X148778076Y-83531051D01*
X148689854Y-83374912D01*
X148679506Y-83351196D01*
X148625036Y-83180318D01*
X148619750Y-83154988D01*
X148612604Y-83085754D01*
X148600666Y-82970106D01*
X148600000Y-82957169D01*
X148600000Y-81726309D01*
X160058388Y-81726309D01*
X160076088Y-81906829D01*
X160133343Y-82078942D01*
X160136990Y-82084964D01*
X160136991Y-82084966D01*
X160153671Y-82112507D01*
X160227305Y-82234093D01*
X160353307Y-82364571D01*
X160505084Y-82463891D01*
X160511688Y-82466347D01*
X160511690Y-82466348D01*
X160668483Y-82524659D01*
X160668485Y-82524659D01*
X160675093Y-82527117D01*
X160756648Y-82537999D01*
X160847905Y-82550176D01*
X160847909Y-82550176D01*
X160854886Y-82551107D01*
X160861897Y-82550469D01*
X160861901Y-82550469D01*
X161004384Y-82537501D01*
X161035525Y-82534667D01*
X161042227Y-82532489D01*
X161042229Y-82532489D01*
X161201334Y-82480793D01*
X161201337Y-82480792D01*
X161208033Y-82478616D01*
X161304438Y-82421147D01*
X161357785Y-82389346D01*
X161357787Y-82389345D01*
X161363837Y-82385738D01*
X161495191Y-82260651D01*
X161595568Y-82109571D01*
X161659980Y-81940007D01*
X161662534Y-81921834D01*
X161684673Y-81764308D01*
X161684673Y-81764305D01*
X161685224Y-81760386D01*
X161685541Y-81737669D01*
X161665322Y-81557414D01*
X161663005Y-81550760D01*
X161607989Y-81392775D01*
X161607987Y-81392772D01*
X161605670Y-81386117D01*
X161563579Y-81318757D01*
X161544760Y-81288640D01*
X165436463Y-81288640D01*
X165454163Y-81469160D01*
X165511418Y-81641273D01*
X165515065Y-81647295D01*
X165515066Y-81647297D01*
X165588236Y-81768115D01*
X165605380Y-81796424D01*
X165731382Y-81926902D01*
X165883159Y-82026222D01*
X165889763Y-82028678D01*
X165889765Y-82028679D01*
X166046558Y-82086990D01*
X166046560Y-82086990D01*
X166053168Y-82089448D01*
X166136995Y-82100633D01*
X166225980Y-82112507D01*
X166225984Y-82112507D01*
X166232961Y-82113438D01*
X166239972Y-82112800D01*
X166239976Y-82112800D01*
X166382459Y-82099832D01*
X166413600Y-82096998D01*
X166420302Y-82094820D01*
X166420304Y-82094820D01*
X166579409Y-82043124D01*
X166579412Y-82043123D01*
X166586108Y-82040947D01*
X166741912Y-81948069D01*
X166873266Y-81822982D01*
X166973643Y-81671902D01*
X167038055Y-81502338D01*
X167040183Y-81487198D01*
X167062748Y-81326639D01*
X167062748Y-81326636D01*
X167063299Y-81322717D01*
X167063616Y-81300000D01*
X167043397Y-81119745D01*
X167041080Y-81113091D01*
X166986064Y-80955106D01*
X166986062Y-80955103D01*
X166983745Y-80948448D01*
X166980009Y-80942469D01*
X166891359Y-80800598D01*
X166887626Y-80794624D01*
X166873941Y-80780843D01*
X166764778Y-80670915D01*
X166764774Y-80670912D01*
X166759815Y-80665918D01*
X166748697Y-80658862D01*
X166700538Y-80628300D01*
X166606666Y-80568727D01*
X166549536Y-80548384D01*
X166442425Y-80510243D01*
X166442420Y-80510242D01*
X166435790Y-80507881D01*
X166428802Y-80507048D01*
X166428799Y-80507047D01*
X166305698Y-80492368D01*
X166255680Y-80486404D01*
X166248677Y-80487140D01*
X166248676Y-80487140D01*
X166082288Y-80504628D01*
X166082286Y-80504629D01*
X166075288Y-80505364D01*
X165903579Y-80563818D01*
X165897575Y-80567512D01*
X165755095Y-80655166D01*
X165755092Y-80655168D01*
X165749088Y-80658862D01*
X165744053Y-80663793D01*
X165744050Y-80663795D01*
X165694824Y-80712001D01*
X165619493Y-80785771D01*
X165521235Y-80938238D01*
X165518826Y-80944858D01*
X165518824Y-80944861D01*
X165461825Y-81101464D01*
X165459197Y-81108685D01*
X165436463Y-81288640D01*
X161544760Y-81288640D01*
X161513284Y-81238267D01*
X161509551Y-81232293D01*
X161500760Y-81223440D01*
X161386703Y-81108584D01*
X161386699Y-81108581D01*
X161381740Y-81103587D01*
X161370622Y-81096531D01*
X161292163Y-81046740D01*
X161228591Y-81006396D01*
X161199388Y-80995997D01*
X161064350Y-80947912D01*
X161064345Y-80947911D01*
X161057715Y-80945550D01*
X161050727Y-80944717D01*
X161050724Y-80944716D01*
X160927623Y-80930037D01*
X160877605Y-80924073D01*
X160870602Y-80924809D01*
X160870601Y-80924809D01*
X160704213Y-80942297D01*
X160704211Y-80942298D01*
X160697213Y-80943033D01*
X160525504Y-81001487D01*
X160483889Y-81027089D01*
X160377020Y-81092835D01*
X160377017Y-81092837D01*
X160371013Y-81096531D01*
X160365978Y-81101462D01*
X160365975Y-81101464D01*
X160276361Y-81189221D01*
X160241418Y-81223440D01*
X160143160Y-81375907D01*
X160140751Y-81382527D01*
X160140749Y-81382530D01*
X160094747Y-81508920D01*
X160081122Y-81546354D01*
X160058388Y-81726309D01*
X148600000Y-81726309D01*
X148600000Y-80511552D01*
X157211956Y-80511552D01*
X157212472Y-80517696D01*
X157224016Y-80655166D01*
X157227685Y-80698865D01*
X157247797Y-80769004D01*
X157269065Y-80843173D01*
X157279497Y-80879555D01*
X157282312Y-80885032D01*
X157282313Y-80885035D01*
X157344684Y-81006396D01*
X157365418Y-81046740D01*
X157369241Y-81051564D01*
X157369244Y-81051568D01*
X157428829Y-81126744D01*
X157482177Y-81194052D01*
X157625324Y-81315880D01*
X157630702Y-81318886D01*
X157630704Y-81318887D01*
X157707367Y-81361732D01*
X157789409Y-81407584D01*
X157968180Y-81465670D01*
X158154830Y-81487927D01*
X158160965Y-81487455D01*
X158160967Y-81487455D01*
X158336105Y-81473979D01*
X158336109Y-81473978D01*
X158342247Y-81473506D01*
X158427378Y-81449737D01*
X158517350Y-81424616D01*
X158517353Y-81424615D01*
X158523294Y-81422956D01*
X158528798Y-81420176D01*
X158528800Y-81420175D01*
X158685574Y-81340983D01*
X158685576Y-81340982D01*
X158691075Y-81338204D01*
X158839199Y-81222477D01*
X158858601Y-81200000D01*
X158957994Y-81084852D01*
X158957995Y-81084850D01*
X158962023Y-81080184D01*
X159054870Y-80916744D01*
X159114203Y-80738382D01*
X159137762Y-80551892D01*
X159137988Y-80535754D01*
X159138089Y-80528522D01*
X159138089Y-80528518D01*
X159138138Y-80525000D01*
X159119795Y-80337926D01*
X159065465Y-80157977D01*
X158977218Y-79992008D01*
X158858415Y-79846340D01*
X158804603Y-79801823D01*
X158718329Y-79730450D01*
X158718324Y-79730447D01*
X158713580Y-79726522D01*
X158708161Y-79723592D01*
X158708158Y-79723590D01*
X158606380Y-79668560D01*
X158548231Y-79637119D01*
X158368666Y-79581534D01*
X158362541Y-79580890D01*
X158362540Y-79580890D01*
X158187852Y-79562529D01*
X158187851Y-79562529D01*
X158181724Y-79561885D01*
X158104673Y-79568897D01*
X158000665Y-79578363D01*
X158000662Y-79578364D01*
X157994526Y-79578922D01*
X157988620Y-79580660D01*
X157988616Y-79580661D01*
X157855278Y-79619905D01*
X157814202Y-79631994D01*
X157647621Y-79719080D01*
X157501128Y-79836864D01*
X157497170Y-79841582D01*
X157497167Y-79841584D01*
X157431042Y-79920389D01*
X157380302Y-79980859D01*
X157377338Y-79986251D01*
X157377335Y-79986255D01*
X157303611Y-80120360D01*
X157289746Y-80145580D01*
X157232909Y-80324752D01*
X157211956Y-80511552D01*
X148600000Y-80511552D01*
X148600000Y-76922456D01*
X148620002Y-76854335D01*
X148673658Y-76807842D01*
X148715018Y-76796935D01*
X148763782Y-76792668D01*
X148868087Y-76783543D01*
X148873400Y-76782119D01*
X148873402Y-76782119D01*
X149083933Y-76725707D01*
X149083935Y-76725706D01*
X149089243Y-76724284D01*
X149104626Y-76717111D01*
X149291762Y-76629849D01*
X149291767Y-76629846D01*
X149296749Y-76627523D01*
X149411323Y-76547297D01*
X149479789Y-76499357D01*
X149479792Y-76499355D01*
X149484300Y-76496198D01*
X149643946Y-76336552D01*
X150336956Y-76336552D01*
X150337472Y-76342696D01*
X150350362Y-76496198D01*
X150352685Y-76523865D01*
X150367348Y-76575000D01*
X150395444Y-76672982D01*
X150404497Y-76704555D01*
X150407312Y-76710032D01*
X150407313Y-76710035D01*
X150469357Y-76830760D01*
X150490418Y-76871740D01*
X150494241Y-76876564D01*
X150494244Y-76876568D01*
X150597904Y-77007352D01*
X150607177Y-77019052D01*
X150611871Y-77023047D01*
X150704133Y-77101568D01*
X150750324Y-77140880D01*
X150755702Y-77143886D01*
X150755704Y-77143887D01*
X150803083Y-77170366D01*
X150914409Y-77232584D01*
X151093180Y-77290670D01*
X151279830Y-77312927D01*
X151285965Y-77312455D01*
X151285967Y-77312455D01*
X151461105Y-77298979D01*
X151461109Y-77298978D01*
X151467247Y-77298506D01*
X151560471Y-77272477D01*
X151642350Y-77249616D01*
X151642353Y-77249615D01*
X151648294Y-77247956D01*
X151653798Y-77245176D01*
X151653800Y-77245175D01*
X151810574Y-77165983D01*
X151810576Y-77165982D01*
X151816075Y-77163204D01*
X151964199Y-77047477D01*
X151968225Y-77042813D01*
X152082994Y-76909852D01*
X152082995Y-76909850D01*
X152087023Y-76905184D01*
X152179870Y-76741744D01*
X152239203Y-76563382D01*
X152239434Y-76561552D01*
X154911956Y-76561552D01*
X154912472Y-76567696D01*
X154926596Y-76735891D01*
X154927685Y-76748865D01*
X154940841Y-76794745D01*
X154972509Y-76905184D01*
X154979497Y-76929555D01*
X154982312Y-76935032D01*
X154982313Y-76935035D01*
X155012492Y-76993757D01*
X155065418Y-77096740D01*
X155069241Y-77101564D01*
X155069244Y-77101568D01*
X155170704Y-77229577D01*
X155182177Y-77244052D01*
X155186871Y-77248047D01*
X155263105Y-77312927D01*
X155325324Y-77365880D01*
X155330702Y-77368886D01*
X155330704Y-77368887D01*
X155407366Y-77411732D01*
X155489409Y-77457584D01*
X155661728Y-77513574D01*
X155720333Y-77553646D01*
X155747970Y-77619043D01*
X155735863Y-77689000D01*
X155687857Y-77741306D01*
X155658366Y-77754280D01*
X155655560Y-77755106D01*
X155564202Y-77781994D01*
X155397621Y-77869080D01*
X155251128Y-77986864D01*
X155247170Y-77991582D01*
X155247167Y-77991584D01*
X155171589Y-78081655D01*
X155130302Y-78130859D01*
X155127338Y-78136251D01*
X155127335Y-78136255D01*
X155079439Y-78223378D01*
X155039746Y-78295580D01*
X154982909Y-78474752D01*
X154961956Y-78661552D01*
X154962472Y-78667696D01*
X154975784Y-78826222D01*
X154977685Y-78848865D01*
X155029497Y-79029555D01*
X155032312Y-79035032D01*
X155032313Y-79035035D01*
X155086779Y-79141014D01*
X155115418Y-79196740D01*
X155119241Y-79201564D01*
X155119244Y-79201568D01*
X155154137Y-79245591D01*
X155232177Y-79344052D01*
X155236871Y-79348047D01*
X155330543Y-79427768D01*
X155375324Y-79465880D01*
X155380702Y-79468886D01*
X155380704Y-79468887D01*
X155445001Y-79504821D01*
X155539409Y-79557584D01*
X155718180Y-79615670D01*
X155904830Y-79637927D01*
X155910965Y-79637455D01*
X155910967Y-79637455D01*
X156086105Y-79623979D01*
X156086109Y-79623978D01*
X156092247Y-79623506D01*
X156177378Y-79599737D01*
X156267350Y-79574616D01*
X156267353Y-79574615D01*
X156273294Y-79572956D01*
X156278798Y-79570176D01*
X156278800Y-79570175D01*
X156435574Y-79490983D01*
X156435576Y-79490982D01*
X156441075Y-79488204D01*
X156589199Y-79372477D01*
X156605718Y-79353340D01*
X156707994Y-79234852D01*
X156707995Y-79234850D01*
X156712023Y-79230184D01*
X156804870Y-79066744D01*
X156864203Y-78888382D01*
X156887762Y-78701892D01*
X156888138Y-78675000D01*
X156869795Y-78487926D01*
X156815465Y-78307977D01*
X156727218Y-78142008D01*
X156683692Y-78088640D01*
X169436463Y-78088640D01*
X169454163Y-78269160D01*
X169511418Y-78441273D01*
X169515065Y-78447295D01*
X169515066Y-78447297D01*
X169597638Y-78583640D01*
X169605380Y-78596424D01*
X169731382Y-78726902D01*
X169737278Y-78730760D01*
X169874898Y-78820816D01*
X169883159Y-78826222D01*
X169889763Y-78828678D01*
X169889765Y-78828679D01*
X170046558Y-78886990D01*
X170046560Y-78886990D01*
X170053168Y-78889448D01*
X170136995Y-78900633D01*
X170225980Y-78912507D01*
X170225984Y-78912507D01*
X170232961Y-78913438D01*
X170239972Y-78912800D01*
X170239976Y-78912800D01*
X170382459Y-78899832D01*
X170413600Y-78896998D01*
X170420302Y-78894820D01*
X170420304Y-78894820D01*
X170579409Y-78843124D01*
X170579412Y-78843123D01*
X170586108Y-78840947D01*
X170741912Y-78748069D01*
X170873266Y-78622982D01*
X170973643Y-78471902D01*
X171038055Y-78302338D01*
X171040476Y-78285112D01*
X171062748Y-78126639D01*
X171062748Y-78126636D01*
X171063299Y-78122717D01*
X171063616Y-78100000D01*
X171043397Y-77919745D01*
X171041080Y-77913091D01*
X170986064Y-77755106D01*
X170986062Y-77755103D01*
X170983745Y-77748448D01*
X170977365Y-77738238D01*
X170891359Y-77600598D01*
X170887626Y-77594624D01*
X170846933Y-77553646D01*
X170764778Y-77470915D01*
X170764774Y-77470912D01*
X170759815Y-77465918D01*
X170748697Y-77458862D01*
X170700538Y-77428300D01*
X170606666Y-77368727D01*
X170526873Y-77340314D01*
X170442425Y-77310243D01*
X170442420Y-77310242D01*
X170435790Y-77307881D01*
X170428802Y-77307048D01*
X170428799Y-77307047D01*
X170291455Y-77290670D01*
X170255680Y-77286404D01*
X170248677Y-77287140D01*
X170248676Y-77287140D01*
X170082288Y-77304628D01*
X170082286Y-77304629D01*
X170075288Y-77305364D01*
X169903579Y-77363818D01*
X169859423Y-77390983D01*
X169755095Y-77455166D01*
X169755092Y-77455168D01*
X169749088Y-77458862D01*
X169744053Y-77463793D01*
X169744050Y-77463795D01*
X169624525Y-77580843D01*
X169619493Y-77585771D01*
X169521235Y-77738238D01*
X169518826Y-77744858D01*
X169518824Y-77744861D01*
X169470903Y-77876522D01*
X169459197Y-77908685D01*
X169458314Y-77915671D01*
X169458314Y-77915673D01*
X169453219Y-77956003D01*
X169436463Y-78088640D01*
X156683692Y-78088640D01*
X156608415Y-77996340D01*
X156515828Y-77919745D01*
X156468329Y-77880450D01*
X156468324Y-77880447D01*
X156463580Y-77876522D01*
X156458161Y-77873592D01*
X156458158Y-77873590D01*
X156388671Y-77836019D01*
X156298231Y-77787119D01*
X156138055Y-77737536D01*
X156078895Y-77698285D01*
X156050348Y-77633280D01*
X156061477Y-77563161D01*
X156108748Y-77510190D01*
X156141429Y-77495814D01*
X156166496Y-77488815D01*
X156217350Y-77474616D01*
X156217353Y-77474615D01*
X156223294Y-77472956D01*
X156228798Y-77470176D01*
X156228800Y-77470175D01*
X156385574Y-77390983D01*
X156385576Y-77390982D01*
X156391075Y-77388204D01*
X156539199Y-77272477D01*
X156558932Y-77249616D01*
X156657994Y-77134852D01*
X156657995Y-77134850D01*
X156662023Y-77130184D01*
X156754870Y-76966744D01*
X156814203Y-76788382D01*
X156837762Y-76601892D01*
X156838138Y-76575000D01*
X156819795Y-76387926D01*
X156817517Y-76380379D01*
X156796917Y-76312151D01*
X156765465Y-76207977D01*
X156755183Y-76188640D01*
X165536463Y-76188640D01*
X165554163Y-76369160D01*
X165611418Y-76541273D01*
X165615065Y-76547295D01*
X165615066Y-76547297D01*
X165694126Y-76677841D01*
X165705380Y-76696424D01*
X165831382Y-76826902D01*
X165837278Y-76830760D01*
X165951010Y-76905184D01*
X165983159Y-76926222D01*
X165989763Y-76928678D01*
X165989765Y-76928679D01*
X166146558Y-76986990D01*
X166146560Y-76986990D01*
X166153168Y-76989448D01*
X166236995Y-77000633D01*
X166325980Y-77012507D01*
X166325984Y-77012507D01*
X166332961Y-77013438D01*
X166339972Y-77012800D01*
X166339976Y-77012800D01*
X166482459Y-76999832D01*
X166513600Y-76996998D01*
X166520302Y-76994820D01*
X166520304Y-76994820D01*
X166616267Y-76963640D01*
X176061463Y-76963640D01*
X176079163Y-77144160D01*
X176136418Y-77316273D01*
X176140065Y-77322295D01*
X176140066Y-77322297D01*
X176225760Y-77463795D01*
X176230380Y-77471424D01*
X176356382Y-77601902D01*
X176508159Y-77701222D01*
X176514763Y-77703678D01*
X176514765Y-77703679D01*
X176671558Y-77761990D01*
X176671560Y-77761990D01*
X176678168Y-77764448D01*
X176761995Y-77775633D01*
X176850980Y-77787507D01*
X176850984Y-77787507D01*
X176857961Y-77788438D01*
X176864972Y-77787800D01*
X176864976Y-77787800D01*
X177007459Y-77774832D01*
X177038600Y-77771998D01*
X177045302Y-77769820D01*
X177045304Y-77769820D01*
X177204409Y-77718124D01*
X177204412Y-77718123D01*
X177211108Y-77715947D01*
X177366912Y-77623069D01*
X177498266Y-77497982D01*
X177598643Y-77346902D01*
X177663055Y-77177338D01*
X177664651Y-77165983D01*
X177687748Y-77001639D01*
X177687748Y-77001636D01*
X177688299Y-76997717D01*
X177688616Y-76975000D01*
X177668397Y-76794745D01*
X177664663Y-76784022D01*
X177611064Y-76630106D01*
X177611062Y-76630103D01*
X177608745Y-76623448D01*
X177597454Y-76605379D01*
X177516359Y-76475598D01*
X177512626Y-76469624D01*
X177498941Y-76455843D01*
X177389778Y-76345915D01*
X177389774Y-76345912D01*
X177384815Y-76340918D01*
X177377936Y-76336552D01*
X177325538Y-76303300D01*
X177231666Y-76243727D01*
X177161542Y-76218757D01*
X177067425Y-76185243D01*
X177067420Y-76185242D01*
X177060790Y-76182881D01*
X177053802Y-76182048D01*
X177053799Y-76182047D01*
X176930698Y-76167368D01*
X176880680Y-76161404D01*
X176873677Y-76162140D01*
X176873676Y-76162140D01*
X176707288Y-76179628D01*
X176707286Y-76179629D01*
X176700288Y-76180364D01*
X176528579Y-76238818D01*
X176522575Y-76242512D01*
X176380095Y-76330166D01*
X176380092Y-76330168D01*
X176374088Y-76333862D01*
X176369053Y-76338793D01*
X176369050Y-76338795D01*
X176297441Y-76408920D01*
X176244493Y-76460771D01*
X176146235Y-76613238D01*
X176143826Y-76619858D01*
X176143824Y-76619861D01*
X176094714Y-76754789D01*
X176084197Y-76783685D01*
X176061463Y-76963640D01*
X166616267Y-76963640D01*
X166679409Y-76943124D01*
X166679412Y-76943123D01*
X166686108Y-76940947D01*
X166802204Y-76871740D01*
X166835860Y-76851677D01*
X166835862Y-76851676D01*
X166841912Y-76848069D01*
X166973266Y-76722982D01*
X167073643Y-76571902D01*
X167138055Y-76402338D01*
X167139035Y-76395366D01*
X167162748Y-76226639D01*
X167162748Y-76226636D01*
X167163299Y-76222717D01*
X167163616Y-76200000D01*
X167156733Y-76138640D01*
X167936463Y-76138640D01*
X167954163Y-76319160D01*
X168011418Y-76491273D01*
X168015065Y-76497295D01*
X168015066Y-76497297D01*
X168095498Y-76630106D01*
X168105380Y-76646424D01*
X168231382Y-76776902D01*
X168256305Y-76793211D01*
X168376310Y-76871740D01*
X168383159Y-76876222D01*
X168389763Y-76878678D01*
X168389765Y-76878679D01*
X168546558Y-76936990D01*
X168546560Y-76936990D01*
X168553168Y-76939448D01*
X168636995Y-76950633D01*
X168725980Y-76962507D01*
X168725984Y-76962507D01*
X168732961Y-76963438D01*
X168739972Y-76962800D01*
X168739976Y-76962800D01*
X168882459Y-76949832D01*
X168913600Y-76946998D01*
X168920302Y-76944820D01*
X168920304Y-76944820D01*
X169079409Y-76893124D01*
X169079412Y-76893123D01*
X169086108Y-76890947D01*
X169232805Y-76803498D01*
X169235860Y-76801677D01*
X169235862Y-76801676D01*
X169241912Y-76798069D01*
X169373266Y-76672982D01*
X169473643Y-76521902D01*
X169529541Y-76374752D01*
X169535555Y-76358920D01*
X169535556Y-76358918D01*
X169538055Y-76352338D01*
X169539958Y-76338795D01*
X169562748Y-76176639D01*
X169562748Y-76176636D01*
X169563299Y-76172717D01*
X169563616Y-76150000D01*
X169543397Y-75969745D01*
X169541080Y-75963091D01*
X169486064Y-75805106D01*
X169486062Y-75805103D01*
X169483745Y-75798448D01*
X169463611Y-75766226D01*
X169391359Y-75650598D01*
X169387626Y-75644624D01*
X169378835Y-75635771D01*
X169264778Y-75520915D01*
X169264774Y-75520912D01*
X169259815Y-75515918D01*
X169248697Y-75508862D01*
X169181727Y-75466362D01*
X169106666Y-75418727D01*
X169019052Y-75387529D01*
X168942425Y-75360243D01*
X168942420Y-75360242D01*
X168935790Y-75357881D01*
X168889016Y-75352304D01*
X168875738Y-75350720D01*
X168810465Y-75322792D01*
X168770653Y-75264009D01*
X168768941Y-75193033D01*
X168805874Y-75132399D01*
X168869725Y-75101357D01*
X168879234Y-75100126D01*
X168913600Y-75096998D01*
X168920302Y-75094820D01*
X168920304Y-75094820D01*
X169079409Y-75043124D01*
X169079412Y-75043123D01*
X169086108Y-75040947D01*
X169241912Y-74948069D01*
X169373266Y-74822982D01*
X169473643Y-74671902D01*
X169538055Y-74502338D01*
X169539035Y-74495366D01*
X169562748Y-74326639D01*
X169562748Y-74326636D01*
X169563299Y-74322717D01*
X169563616Y-74300000D01*
X169543397Y-74119745D01*
X169541080Y-74113091D01*
X169486064Y-73955106D01*
X169486062Y-73955103D01*
X169483745Y-73948448D01*
X169452502Y-73898448D01*
X169391359Y-73800598D01*
X169387626Y-73794624D01*
X169373941Y-73780843D01*
X169264778Y-73670915D01*
X169264774Y-73670912D01*
X169259815Y-73665918D01*
X169248697Y-73658862D01*
X169164085Y-73605166D01*
X169106666Y-73568727D01*
X169077463Y-73558328D01*
X168942425Y-73510243D01*
X168942420Y-73510242D01*
X168935790Y-73507881D01*
X168928802Y-73507048D01*
X168928799Y-73507047D01*
X168805698Y-73492368D01*
X168755680Y-73486404D01*
X168748677Y-73487140D01*
X168748676Y-73487140D01*
X168582288Y-73504628D01*
X168582286Y-73504629D01*
X168575288Y-73505364D01*
X168403579Y-73563818D01*
X168397575Y-73567512D01*
X168255095Y-73655166D01*
X168255092Y-73655168D01*
X168249088Y-73658862D01*
X168244053Y-73663793D01*
X168244050Y-73663795D01*
X168155410Y-73750598D01*
X168119493Y-73785771D01*
X168021235Y-73938238D01*
X168018826Y-73944858D01*
X168018824Y-73944861D01*
X167962468Y-74099698D01*
X167959197Y-74108685D01*
X167936463Y-74288640D01*
X167954163Y-74469160D01*
X168011418Y-74641273D01*
X168015065Y-74647295D01*
X168015066Y-74647297D01*
X168094126Y-74777841D01*
X168105380Y-74796424D01*
X168110269Y-74801487D01*
X168110270Y-74801488D01*
X168178203Y-74871834D01*
X168231382Y-74926902D01*
X168383159Y-75026222D01*
X168389763Y-75028678D01*
X168389765Y-75028679D01*
X168546558Y-75086990D01*
X168546560Y-75086990D01*
X168553168Y-75089448D01*
X168560153Y-75090380D01*
X168560157Y-75090381D01*
X168593428Y-75094820D01*
X168630327Y-75099743D01*
X168695203Y-75128578D01*
X168734191Y-75187912D01*
X168734912Y-75258905D01*
X168697137Y-75319017D01*
X168626834Y-75349946D01*
X168582288Y-75354628D01*
X168582286Y-75354629D01*
X168575288Y-75355364D01*
X168403579Y-75413818D01*
X168397575Y-75417512D01*
X168255095Y-75505166D01*
X168255092Y-75505168D01*
X168249088Y-75508862D01*
X168244053Y-75513793D01*
X168244050Y-75513795D01*
X168126487Y-75628922D01*
X168119493Y-75635771D01*
X168021235Y-75788238D01*
X168018826Y-75794858D01*
X168018824Y-75794861D01*
X167999320Y-75848448D01*
X167959197Y-75958685D01*
X167936463Y-76138640D01*
X167156733Y-76138640D01*
X167143397Y-76019745D01*
X167141080Y-76013091D01*
X167086064Y-75855106D01*
X167086062Y-75855103D01*
X167083745Y-75848448D01*
X167061110Y-75812224D01*
X166991359Y-75700598D01*
X166987626Y-75694624D01*
X166964504Y-75671340D01*
X166864778Y-75570915D01*
X166864774Y-75570912D01*
X166859815Y-75565918D01*
X166848697Y-75558862D01*
X166748814Y-75495475D01*
X166706666Y-75468727D01*
X166668832Y-75455255D01*
X166542425Y-75410243D01*
X166542420Y-75410242D01*
X166535790Y-75407881D01*
X166528802Y-75407048D01*
X166528799Y-75407047D01*
X166405698Y-75392368D01*
X166355680Y-75386404D01*
X166348677Y-75387140D01*
X166348676Y-75387140D01*
X166182288Y-75404628D01*
X166182286Y-75404629D01*
X166175288Y-75405364D01*
X166003579Y-75463818D01*
X165961021Y-75490000D01*
X165855095Y-75555166D01*
X165855092Y-75555168D01*
X165849088Y-75558862D01*
X165844053Y-75563793D01*
X165844050Y-75563795D01*
X165724525Y-75680843D01*
X165719493Y-75685771D01*
X165621235Y-75838238D01*
X165618826Y-75844858D01*
X165618824Y-75844861D01*
X165561606Y-76002066D01*
X165559197Y-76008685D01*
X165536463Y-76188640D01*
X156755183Y-76188640D01*
X156677218Y-76042008D01*
X156558415Y-75896340D01*
X156488182Y-75838238D01*
X156418329Y-75780450D01*
X156418324Y-75780447D01*
X156413580Y-75776522D01*
X156408161Y-75773592D01*
X156408158Y-75773590D01*
X156338671Y-75736019D01*
X156248231Y-75687119D01*
X156068666Y-75631534D01*
X156062541Y-75630890D01*
X156062540Y-75630890D01*
X155887852Y-75612529D01*
X155887851Y-75612529D01*
X155881724Y-75611885D01*
X155804673Y-75618897D01*
X155700665Y-75628363D01*
X155700662Y-75628364D01*
X155694526Y-75628922D01*
X155688620Y-75630660D01*
X155688616Y-75630661D01*
X155582598Y-75661864D01*
X155514202Y-75681994D01*
X155347621Y-75769080D01*
X155201128Y-75886864D01*
X155197170Y-75891582D01*
X155197167Y-75891584D01*
X155161632Y-75933933D01*
X155080302Y-76030859D01*
X155077338Y-76036251D01*
X155077335Y-76036255D01*
X155016969Y-76146062D01*
X154989746Y-76195580D01*
X154987885Y-76201447D01*
X154987884Y-76201449D01*
X154979893Y-76226639D01*
X154932909Y-76374752D01*
X154911956Y-76561552D01*
X152239434Y-76561552D01*
X152262762Y-76376892D01*
X152263138Y-76350000D01*
X152244795Y-76162926D01*
X152240893Y-76150000D01*
X152209933Y-76047459D01*
X152190465Y-75982977D01*
X152102218Y-75817008D01*
X151983415Y-75671340D01*
X151911546Y-75611885D01*
X151843329Y-75555450D01*
X151843324Y-75555447D01*
X151838580Y-75551522D01*
X151833161Y-75548592D01*
X151833158Y-75548590D01*
X151759681Y-75508862D01*
X151673231Y-75462119D01*
X151493666Y-75406534D01*
X151487541Y-75405890D01*
X151487540Y-75405890D01*
X151312852Y-75387529D01*
X151312851Y-75387529D01*
X151306724Y-75386885D01*
X151229673Y-75393897D01*
X151125665Y-75403363D01*
X151125662Y-75403364D01*
X151119526Y-75403922D01*
X151113620Y-75405660D01*
X151113616Y-75405661D01*
X150980278Y-75444905D01*
X150939202Y-75456994D01*
X150772621Y-75544080D01*
X150626128Y-75661864D01*
X150622170Y-75666582D01*
X150622167Y-75666584D01*
X150538558Y-75766226D01*
X150505302Y-75805859D01*
X150502338Y-75811251D01*
X150502335Y-75811255D01*
X150455560Y-75896340D01*
X150414746Y-75970580D01*
X150412885Y-75976447D01*
X150412884Y-75976449D01*
X150393605Y-76037224D01*
X150357909Y-76149752D01*
X150336956Y-76336552D01*
X149643946Y-76336552D01*
X149646198Y-76334300D01*
X149777523Y-76146749D01*
X149779846Y-76141767D01*
X149779849Y-76141762D01*
X149871961Y-75944225D01*
X149871961Y-75944224D01*
X149874284Y-75939243D01*
X149901349Y-75838238D01*
X149932119Y-75723402D01*
X149932119Y-75723400D01*
X149933543Y-75718087D01*
X149953498Y-75490000D01*
X149933543Y-75261913D01*
X149915087Y-75193033D01*
X149875707Y-75046067D01*
X149875706Y-75046065D01*
X149874284Y-75040757D01*
X149852073Y-74993124D01*
X149779849Y-74838238D01*
X149779846Y-74838233D01*
X149777523Y-74833251D01*
X149646198Y-74645700D01*
X149484300Y-74483802D01*
X149479792Y-74480645D01*
X149479789Y-74480643D01*
X149381972Y-74412151D01*
X149296749Y-74352477D01*
X149291767Y-74350154D01*
X149291762Y-74350151D01*
X149094225Y-74258039D01*
X149094224Y-74258039D01*
X149089243Y-74255716D01*
X149083935Y-74254294D01*
X149083933Y-74254293D01*
X149025516Y-74238640D01*
X165536463Y-74238640D01*
X165554163Y-74419160D01*
X165611418Y-74591273D01*
X165615065Y-74597295D01*
X165615066Y-74597297D01*
X165625978Y-74615314D01*
X165705380Y-74746424D01*
X165831382Y-74876902D01*
X165983159Y-74976222D01*
X165989763Y-74978678D01*
X165989765Y-74978679D01*
X166146558Y-75036990D01*
X166146560Y-75036990D01*
X166153168Y-75039448D01*
X166236995Y-75050633D01*
X166325980Y-75062507D01*
X166325984Y-75062507D01*
X166332961Y-75063438D01*
X166339972Y-75062800D01*
X166339976Y-75062800D01*
X166482459Y-75049832D01*
X166513600Y-75046998D01*
X166520302Y-75044820D01*
X166520304Y-75044820D01*
X166679409Y-74993124D01*
X166679412Y-74993123D01*
X166686108Y-74990947D01*
X166841912Y-74898069D01*
X166973266Y-74772982D01*
X167073643Y-74621902D01*
X167121710Y-74495366D01*
X167135555Y-74458920D01*
X167135556Y-74458918D01*
X167138055Y-74452338D01*
X167139035Y-74445366D01*
X167162748Y-74276639D01*
X167162748Y-74276636D01*
X167163299Y-74272717D01*
X167163616Y-74250000D01*
X167143397Y-74069745D01*
X167141080Y-74063091D01*
X167086064Y-73905106D01*
X167086062Y-73905103D01*
X167083745Y-73898448D01*
X166987626Y-73744624D01*
X166914430Y-73670915D01*
X166864778Y-73620915D01*
X166864774Y-73620912D01*
X166859815Y-73615918D01*
X166848697Y-73608862D01*
X166774140Y-73561547D01*
X166706666Y-73518727D01*
X166667071Y-73504628D01*
X166542425Y-73460243D01*
X166542420Y-73460242D01*
X166535790Y-73457881D01*
X166528802Y-73457048D01*
X166528799Y-73457047D01*
X166405698Y-73442368D01*
X166355680Y-73436404D01*
X166348677Y-73437140D01*
X166348676Y-73437140D01*
X166182288Y-73454628D01*
X166182286Y-73454629D01*
X166175288Y-73455364D01*
X166003579Y-73513818D01*
X165997575Y-73517512D01*
X165855095Y-73605166D01*
X165855092Y-73605168D01*
X165849088Y-73608862D01*
X165844053Y-73613793D01*
X165844050Y-73613795D01*
X165724525Y-73730843D01*
X165719493Y-73735771D01*
X165621235Y-73888238D01*
X165618826Y-73894858D01*
X165618824Y-73894861D01*
X165599320Y-73948448D01*
X165559197Y-74058685D01*
X165536463Y-74238640D01*
X149025516Y-74238640D01*
X148873402Y-74197881D01*
X148873400Y-74197881D01*
X148868087Y-74196457D01*
X148763782Y-74187332D01*
X148715018Y-74183065D01*
X148648900Y-74157201D01*
X148607261Y-74099698D01*
X148600000Y-74057544D01*
X148600000Y-71842456D01*
X148620002Y-71774335D01*
X148673658Y-71727842D01*
X148715018Y-71716935D01*
X148763782Y-71712668D01*
X148868087Y-71703543D01*
X148873400Y-71702119D01*
X148873402Y-71702119D01*
X149083933Y-71645707D01*
X149083935Y-71645706D01*
X149089243Y-71644284D01*
X149094225Y-71641961D01*
X149291762Y-71549849D01*
X149291767Y-71549846D01*
X149296749Y-71547523D01*
X149401611Y-71474098D01*
X149479789Y-71419357D01*
X149479792Y-71419355D01*
X149484300Y-71416198D01*
X149646198Y-71254300D01*
X149777523Y-71066749D01*
X149779846Y-71061767D01*
X149779849Y-71061762D01*
X149871961Y-70864225D01*
X149871961Y-70864224D01*
X149874284Y-70859243D01*
X149933543Y-70638087D01*
X149953059Y-70415018D01*
X149978923Y-70348900D01*
X150036426Y-70307261D01*
X150078580Y-70300000D01*
X175603208Y-70300000D01*
X175614695Y-70300525D01*
G37*
%TD.AperFunction*%
%TD*%
%TA.AperFunction,Conductor*%
%TO.N,GND*%
G36*
X137923068Y-67820002D02*
G01*
X137969561Y-67873658D01*
X137979665Y-67943932D01*
X137950171Y-68008512D01*
X137886282Y-68048041D01*
X137687627Y-68099047D01*
X137680101Y-68101492D01*
X137394038Y-68214753D01*
X137386903Y-68218110D01*
X137117292Y-68366330D01*
X137110612Y-68370570D01*
X136887508Y-68532664D01*
X136879085Y-68543587D01*
X136885989Y-68556448D01*
X138447519Y-70117978D01*
X138461463Y-70125592D01*
X138463296Y-70125461D01*
X138469911Y-70121210D01*
X140034997Y-68556124D01*
X140041610Y-68544013D01*
X140032783Y-68532395D01*
X139810050Y-68370570D01*
X139803370Y-68366330D01*
X139533759Y-68218110D01*
X139526624Y-68214753D01*
X139240561Y-68101492D01*
X139233035Y-68099047D01*
X139034380Y-68048041D01*
X138973374Y-68011727D01*
X138941685Y-67948194D01*
X138949375Y-67877616D01*
X138994002Y-67822398D01*
X139065715Y-67800000D01*
X179174000Y-67800000D01*
X179242121Y-67820002D01*
X179288614Y-67873658D01*
X179300000Y-67926000D01*
X179300000Y-73241234D01*
X179279998Y-73309355D01*
X179226342Y-73355848D01*
X179156068Y-73365952D01*
X179091488Y-73336458D01*
X179074298Y-73318276D01*
X179067405Y-73309355D01*
X178382920Y-72423552D01*
X176806198Y-70383088D01*
X176806177Y-70383062D01*
X176805730Y-70382483D01*
X176791149Y-70364478D01*
X176783718Y-70355718D01*
X176776846Y-70347982D01*
X176768821Y-70338947D01*
X176768796Y-70338920D01*
X176768307Y-70338369D01*
X176655906Y-70217517D01*
X176634645Y-70196653D01*
X176623862Y-70186071D01*
X176623849Y-70186058D01*
X176622823Y-70185052D01*
X176605718Y-70169734D01*
X176569803Y-70140412D01*
X176441961Y-70045419D01*
X176403506Y-70019483D01*
X176383896Y-70007522D01*
X176343279Y-69985223D01*
X176230562Y-69929874D01*
X176201630Y-69915667D01*
X176201619Y-69915662D01*
X176200324Y-69915026D01*
X176179877Y-69906119D01*
X176159125Y-69897079D01*
X176159110Y-69897073D01*
X176157827Y-69896514D01*
X176136374Y-69888312D01*
X176092353Y-69873747D01*
X176075292Y-69868954D01*
X175940436Y-69831069D01*
X175940427Y-69831067D01*
X175939022Y-69830672D01*
X175933112Y-69829299D01*
X175895265Y-69820509D01*
X175895248Y-69820505D01*
X175893851Y-69820181D01*
X175892439Y-69819920D01*
X175892423Y-69819917D01*
X175883781Y-69818322D01*
X175871268Y-69816012D01*
X175825359Y-69809686D01*
X175823959Y-69809558D01*
X175823943Y-69809556D01*
X175690232Y-69797315D01*
X175661008Y-69794640D01*
X175637888Y-69793055D01*
X175633718Y-69792864D01*
X175627112Y-69792562D01*
X175627070Y-69792561D01*
X175626401Y-69792530D01*
X175625688Y-69792514D01*
X175625667Y-69792513D01*
X175603959Y-69792017D01*
X175603945Y-69792017D01*
X175603208Y-69792000D01*
X150078580Y-69792000D01*
X150075914Y-69792228D01*
X150075912Y-69792228D01*
X149995033Y-69799142D01*
X149995024Y-69799143D01*
X149992347Y-69799372D01*
X149966145Y-69803885D01*
X149952862Y-69806173D01*
X149952856Y-69806174D01*
X149950193Y-69806633D01*
X149947585Y-69807315D01*
X149947577Y-69807317D01*
X149914340Y-69816012D01*
X149866473Y-69828534D01*
X149738484Y-69895807D01*
X149734843Y-69898444D01*
X149734839Y-69898446D01*
X149724243Y-69906119D01*
X149657338Y-69929874D01*
X149588212Y-69913685D01*
X149539090Y-69863221D01*
X149522116Y-69831298D01*
X149522111Y-69831290D01*
X149519218Y-69825849D01*
X149445859Y-69735902D01*
X149392906Y-69670975D01*
X149392903Y-69670972D01*
X149389011Y-69666200D01*
X149371786Y-69651950D01*
X149235025Y-69538811D01*
X149235021Y-69538809D01*
X149230275Y-69534882D01*
X149049055Y-69436897D01*
X148852254Y-69375977D01*
X148846129Y-69375333D01*
X148846128Y-69375333D01*
X148653498Y-69355087D01*
X148653496Y-69355087D01*
X148647369Y-69354443D01*
X148560529Y-69362346D01*
X148448342Y-69372555D01*
X148448339Y-69372556D01*
X148442203Y-69373114D01*
X148244572Y-69431280D01*
X148062002Y-69526726D01*
X148057201Y-69530586D01*
X148057198Y-69530588D01*
X147906254Y-69651950D01*
X147901447Y-69655815D01*
X147769024Y-69813630D01*
X147766056Y-69819028D01*
X147766053Y-69819033D01*
X147700956Y-69937446D01*
X147669776Y-69994162D01*
X147607484Y-70190532D01*
X147606798Y-70196649D01*
X147606797Y-70196653D01*
X147585207Y-70389137D01*
X147584520Y-70395262D01*
X147585036Y-70401406D01*
X147592571Y-70491132D01*
X147601759Y-70600553D01*
X147658544Y-70798586D01*
X147661359Y-70804063D01*
X147661360Y-70804066D01*
X147749897Y-70976341D01*
X147752712Y-70981818D01*
X147880677Y-71143270D01*
X148037564Y-71276791D01*
X148139454Y-71333735D01*
X148141203Y-71334713D01*
X148190909Y-71385407D01*
X148205316Y-71454926D01*
X148190504Y-71498712D01*
X148192645Y-71499690D01*
X148132579Y-71631216D01*
X148112577Y-71699337D01*
X148111937Y-71703785D01*
X148111936Y-71703792D01*
X148092639Y-71838008D01*
X148092638Y-71838015D01*
X148092000Y-71842456D01*
X148092000Y-74057544D01*
X148092228Y-74060210D01*
X148092228Y-74060212D01*
X148098093Y-74128811D01*
X148099372Y-74143777D01*
X148106633Y-74185931D01*
X148107315Y-74188539D01*
X148107317Y-74188547D01*
X148117870Y-74228888D01*
X148128534Y-74269651D01*
X148131878Y-74276013D01*
X148194421Y-74395004D01*
X148208409Y-74464609D01*
X148182546Y-74530727D01*
X148141265Y-74565288D01*
X148062002Y-74606726D01*
X148057201Y-74610586D01*
X148057198Y-74610588D01*
X147906254Y-74731950D01*
X147901447Y-74735815D01*
X147769024Y-74893630D01*
X147766056Y-74899028D01*
X147766053Y-74899033D01*
X147698536Y-75021847D01*
X147669776Y-75074162D01*
X147607484Y-75270532D01*
X147606798Y-75276649D01*
X147606797Y-75276653D01*
X147585207Y-75469137D01*
X147584520Y-75475262D01*
X147601759Y-75680553D01*
X147603458Y-75686478D01*
X147656597Y-75871795D01*
X147658544Y-75878586D01*
X147661359Y-75884063D01*
X147661360Y-75884066D01*
X147739455Y-76036023D01*
X147752712Y-76061818D01*
X147880677Y-76223270D01*
X147885370Y-76227264D01*
X147885371Y-76227265D01*
X148006166Y-76330069D01*
X148037564Y-76356791D01*
X148136719Y-76412207D01*
X148141203Y-76414713D01*
X148190909Y-76465407D01*
X148205316Y-76534926D01*
X148190504Y-76578712D01*
X148192645Y-76579690D01*
X148132579Y-76711216D01*
X148128642Y-76724624D01*
X148114713Y-76772064D01*
X148112577Y-76779337D01*
X148111937Y-76783785D01*
X148111936Y-76783792D01*
X148092639Y-76918008D01*
X148092638Y-76918015D01*
X148092000Y-76922456D01*
X148092000Y-82957169D01*
X148092672Y-82983286D01*
X148092713Y-82984078D01*
X148092714Y-82984110D01*
X148092865Y-82987035D01*
X148093338Y-82996223D01*
X148095351Y-83022268D01*
X148107289Y-83137916D01*
X148107291Y-83137921D01*
X148114435Y-83207144D01*
X148122463Y-83258765D01*
X148127749Y-83284095D01*
X148141031Y-83334602D01*
X148195501Y-83505480D01*
X148213898Y-83554355D01*
X148224246Y-83578071D01*
X148224967Y-83579515D01*
X148243648Y-83616950D01*
X148247571Y-83624812D01*
X148248370Y-83626226D01*
X148248371Y-83626228D01*
X148296509Y-83711424D01*
X148335793Y-83780951D01*
X148363790Y-83825043D01*
X148378764Y-83846144D01*
X148411138Y-83887126D01*
X148533701Y-84026863D01*
X148534279Y-84027489D01*
X148534299Y-84027511D01*
X148550866Y-84045447D01*
X148551414Y-84046040D01*
X148551927Y-84046568D01*
X148551953Y-84046595D01*
X148559304Y-84054154D01*
X148560437Y-84055319D01*
X148579139Y-84073587D01*
X152154605Y-87390586D01*
X152404503Y-87622419D01*
X154197777Y-89286059D01*
X154585077Y-89645361D01*
X156255214Y-91194765D01*
X156260490Y-91199660D01*
X156278393Y-91215501D01*
X156278931Y-91215955D01*
X156278938Y-91215961D01*
X156284011Y-91220241D01*
X156287449Y-91223142D01*
X156306056Y-91238108D01*
X156316591Y-91246181D01*
X156439859Y-91340640D01*
X156439876Y-91340652D01*
X156441033Y-91341539D01*
X156442223Y-91342365D01*
X156442238Y-91342376D01*
X156465944Y-91358831D01*
X156480285Y-91368786D01*
X156481522Y-91369561D01*
X156481537Y-91369571D01*
X156495352Y-91378227D01*
X156500344Y-91381355D01*
X156501617Y-91382072D01*
X156501621Y-91382074D01*
X156540686Y-91404066D01*
X156540705Y-91404076D01*
X156541966Y-91404786D01*
X156543272Y-91405442D01*
X156543292Y-91405453D01*
X156655907Y-91462048D01*
X156687234Y-91477792D01*
X156687249Y-91477799D01*
X156688576Y-91478466D01*
X156732223Y-91497888D01*
X156733591Y-91498421D01*
X156733593Y-91498422D01*
X156752895Y-91505945D01*
X156752910Y-91505950D01*
X156754279Y-91506484D01*
X156755692Y-91506959D01*
X156755699Y-91506962D01*
X156798154Y-91521248D01*
X156798171Y-91521253D01*
X156799561Y-91521721D01*
X156957376Y-91566682D01*
X157003873Y-91577594D01*
X157005316Y-91577862D01*
X157005336Y-91577866D01*
X157022434Y-91581039D01*
X157027146Y-91581913D01*
X157074481Y-91588412D01*
X157075936Y-91588542D01*
X157075941Y-91588543D01*
X157243102Y-91603528D01*
X157243122Y-91603530D01*
X157243852Y-91603595D01*
X157244585Y-91603643D01*
X157244593Y-91603644D01*
X157266999Y-91605123D01*
X157267038Y-91605125D01*
X157267688Y-91605168D01*
X157268379Y-91605197D01*
X157268392Y-91605198D01*
X157272360Y-91605366D01*
X157279527Y-91605670D01*
X157280264Y-91605684D01*
X157280268Y-91605684D01*
X157282987Y-91605735D01*
X157303422Y-91606120D01*
X157304115Y-91606117D01*
X157304146Y-91606117D01*
X157662825Y-91604441D01*
X157731039Y-91624125D01*
X157777782Y-91677563D01*
X157788214Y-91747789D01*
X157763376Y-91807144D01*
X157694139Y-91897375D01*
X157638670Y-92031291D01*
X157619750Y-92175000D01*
X157638670Y-92318709D01*
X157694139Y-92452625D01*
X157782379Y-92567621D01*
X157897375Y-92655861D01*
X158031291Y-92711330D01*
X158175000Y-92730250D01*
X158318709Y-92711330D01*
X158452625Y-92655861D01*
X158567621Y-92567621D01*
X158655861Y-92452625D01*
X158711330Y-92318709D01*
X158730250Y-92175000D01*
X158711330Y-92031291D01*
X158655861Y-91897375D01*
X158582968Y-91802379D01*
X158557367Y-91736160D01*
X158571631Y-91666611D01*
X158621232Y-91615815D01*
X158682341Y-91599677D01*
X162181285Y-91583328D01*
X162181290Y-91583328D01*
X162185286Y-91583309D01*
X162249165Y-91574837D01*
X162309071Y-91566892D01*
X162309074Y-91566891D01*
X162313043Y-91566365D01*
X162374340Y-91550121D01*
X162493720Y-91501573D01*
X162608280Y-91413354D01*
X162611412Y-91410135D01*
X162611417Y-91410131D01*
X162654654Y-91365699D01*
X162654656Y-91365697D01*
X162657794Y-91362472D01*
X162742859Y-91245552D01*
X162747669Y-91232100D01*
X162790024Y-91113637D01*
X162790026Y-91113630D01*
X162791538Y-91109401D01*
X162792571Y-91104324D01*
X162803328Y-91051412D01*
X162836501Y-90988642D01*
X162898345Y-90953772D01*
X162969223Y-90957872D01*
X163026633Y-90999640D01*
X163051434Y-91058001D01*
X163053199Y-91069885D01*
X163058994Y-91089286D01*
X163091815Y-91199162D01*
X163094582Y-91208427D01*
X163099488Y-91215984D01*
X163099489Y-91215985D01*
X163118502Y-91245268D01*
X163173322Y-91329700D01*
X163220065Y-91383138D01*
X163223475Y-91386065D01*
X163223476Y-91386066D01*
X163311997Y-91462048D01*
X163329781Y-91477313D01*
X163409545Y-91513291D01*
X163455094Y-91533836D01*
X163461585Y-91536764D01*
X163465897Y-91538008D01*
X163465899Y-91538009D01*
X163525480Y-91555202D01*
X163525484Y-91555203D01*
X163529799Y-91556448D01*
X163608720Y-91567419D01*
X163668568Y-91575739D01*
X163668573Y-91575739D01*
X163673016Y-91576357D01*
X165265007Y-91568918D01*
X165302325Y-91567371D01*
X165316399Y-91566268D01*
X165319628Y-91566015D01*
X165319634Y-91566014D01*
X165320775Y-91565925D01*
X165333918Y-91564408D01*
X165352223Y-91562294D01*
X165352224Y-91562294D01*
X165357843Y-91561645D01*
X165363250Y-91560005D01*
X165363255Y-91560004D01*
X165491903Y-91520985D01*
X165491908Y-91520983D01*
X165496211Y-91519678D01*
X165500288Y-91517772D01*
X165500291Y-91517771D01*
X165536265Y-91500954D01*
X165560528Y-91489612D01*
X165600145Y-91463651D01*
X165673934Y-91415298D01*
X165673937Y-91415295D01*
X165681470Y-91410359D01*
X165722225Y-91362472D01*
X165772269Y-91303670D01*
X165772270Y-91303668D01*
X165775182Y-91300247D01*
X165813033Y-91240182D01*
X165814863Y-91236080D01*
X165816990Y-91232100D01*
X165818265Y-91232781D01*
X165860210Y-91183479D01*
X165928147Y-91162861D01*
X165996446Y-91182246D01*
X166034967Y-91220241D01*
X166097166Y-91316038D01*
X166143909Y-91369476D01*
X166147319Y-91372403D01*
X166147320Y-91372404D01*
X166198225Y-91416098D01*
X166253625Y-91463651D01*
X166344813Y-91504782D01*
X166381319Y-91521248D01*
X166385429Y-91523102D01*
X166389741Y-91524346D01*
X166389743Y-91524347D01*
X166449324Y-91541540D01*
X166449328Y-91541541D01*
X166453643Y-91542786D01*
X166534922Y-91554085D01*
X166592411Y-91562077D01*
X166592416Y-91562077D01*
X166596859Y-91562695D01*
X169754869Y-91547939D01*
X171903819Y-91537898D01*
X172610038Y-91534599D01*
X172610072Y-91534598D01*
X172610801Y-91534595D01*
X172622763Y-91534249D01*
X172634666Y-91533904D01*
X172634686Y-91533903D01*
X172635486Y-91533880D01*
X172643392Y-91533458D01*
X172646888Y-91533272D01*
X172646903Y-91533271D01*
X172647672Y-91533230D01*
X172648404Y-91533173D01*
X172648437Y-91533171D01*
X172666523Y-91531766D01*
X172672188Y-91531326D01*
X172788757Y-91519430D01*
X172788766Y-91519429D01*
X172805010Y-91517771D01*
X172845171Y-91513672D01*
X172845178Y-91513671D01*
X172846678Y-91513518D01*
X172848171Y-91513292D01*
X172848179Y-91513291D01*
X172869354Y-91510086D01*
X172895394Y-91506144D01*
X172896848Y-91505851D01*
X172896866Y-91505848D01*
X172907200Y-91503766D01*
X172919326Y-91501324D01*
X172967098Y-91489265D01*
X173128987Y-91439936D01*
X173130428Y-91439419D01*
X173130447Y-91439413D01*
X173173915Y-91423826D01*
X173173921Y-91423824D01*
X173175387Y-91423298D01*
X173197941Y-91413952D01*
X173199303Y-91413309D01*
X173199311Y-91413305D01*
X173241096Y-91393564D01*
X173241097Y-91393563D01*
X173242476Y-91392912D01*
X173391804Y-91313293D01*
X173420021Y-91296443D01*
X173432792Y-91288817D01*
X173432802Y-91288811D01*
X173434101Y-91288035D01*
X173435381Y-91287184D01*
X173453142Y-91275373D01*
X173453155Y-91275364D01*
X173454430Y-91274516D01*
X173494093Y-91245268D01*
X173625272Y-91138339D01*
X173626413Y-91137313D01*
X173660786Y-91106402D01*
X173660791Y-91106398D01*
X173661910Y-91105391D01*
X173670014Y-91097359D01*
X173678160Y-91089286D01*
X173678173Y-91089272D01*
X173679246Y-91088209D01*
X173692079Y-91074193D01*
X173711482Y-91053000D01*
X173711484Y-91052998D01*
X173712522Y-91051864D01*
X173820619Y-90921640D01*
X173850214Y-90882246D01*
X173863909Y-90862046D01*
X173889548Y-90819970D01*
X173952778Y-90703885D01*
X173954141Y-90701382D01*
X173969778Y-90672675D01*
X173969782Y-90672667D01*
X173970500Y-90671349D01*
X173991942Y-90626988D01*
X174001485Y-90604525D01*
X174013341Y-90572365D01*
X174018011Y-90559699D01*
X174018013Y-90559692D01*
X174018531Y-90558288D01*
X174069302Y-90396842D01*
X174081783Y-90349195D01*
X174086816Y-90325311D01*
X174094627Y-90276648D01*
X174097947Y-90246761D01*
X174097948Y-90246751D01*
X174105884Y-90175296D01*
X174113904Y-90103091D01*
X174113907Y-90103059D01*
X174113989Y-90102322D01*
X174116116Y-90077756D01*
X174116874Y-90065559D01*
X174117805Y-90040951D01*
X174118782Y-89969101D01*
X174136663Y-88653177D01*
X174137670Y-88579048D01*
X174133870Y-88535475D01*
X174129682Y-88487446D01*
X174143691Y-88417845D01*
X174193105Y-88366867D01*
X174255206Y-88350500D01*
X175622516Y-88350500D01*
X175748320Y-88335276D01*
X175906923Y-88275345D01*
X175953634Y-88243241D01*
X176040392Y-88183614D01*
X176040393Y-88183613D01*
X176046651Y-88179312D01*
X176051704Y-88173641D01*
X176154388Y-88058392D01*
X176154390Y-88058388D01*
X176159440Y-88052721D01*
X176166238Y-88039883D01*
X176195254Y-87985080D01*
X176238776Y-87902881D01*
X176280081Y-87738441D01*
X176280969Y-87568895D01*
X176241388Y-87404032D01*
X176228398Y-87378863D01*
X176167108Y-87260117D01*
X176167108Y-87260116D01*
X176163625Y-87253369D01*
X176158313Y-87247279D01*
X176077447Y-87154581D01*
X176052169Y-87125604D01*
X175930320Y-87039967D01*
X175919670Y-87032482D01*
X175919668Y-87032481D01*
X175913453Y-87028113D01*
X175755487Y-86966524D01*
X175747954Y-86965532D01*
X175747953Y-86965532D01*
X175630261Y-86950038D01*
X175630260Y-86950038D01*
X175626174Y-86949500D01*
X174037484Y-86949500D01*
X173934514Y-86961961D01*
X173864484Y-86950288D01*
X173811882Y-86902607D01*
X173798769Y-86872245D01*
X173797946Y-86865630D01*
X173740393Y-86732987D01*
X173736888Y-86727297D01*
X173714265Y-86690579D01*
X173704761Y-86675153D01*
X173702345Y-86676641D01*
X173692261Y-86664777D01*
X173661183Y-86616418D01*
X173661180Y-86616415D01*
X173656309Y-86608835D01*
X173650348Y-86603670D01*
X173649274Y-86602154D01*
X173649905Y-86601586D01*
X173645061Y-86596206D01*
X173645058Y-86596202D01*
X173612718Y-86560285D01*
X173612714Y-86560281D01*
X173610309Y-86557610D01*
X173580360Y-86531147D01*
X173526323Y-86483401D01*
X173526322Y-86483400D01*
X173523635Y-86481026D01*
X173520701Y-86478977D01*
X173520697Y-86478974D01*
X173479851Y-86450451D01*
X173479845Y-86450447D01*
X173476906Y-86448395D01*
X173375169Y-86393407D01*
X173367295Y-86391492D01*
X173367294Y-86391491D01*
X173328765Y-86382118D01*
X173234675Y-86359228D01*
X173164004Y-86352434D01*
X173019571Y-86359222D01*
X173011054Y-86362164D01*
X173011052Y-86362164D01*
X172939288Y-86386950D01*
X172882901Y-86406425D01*
X172819776Y-86438917D01*
X172701940Y-86522715D01*
X172693083Y-86531149D01*
X172670710Y-86548132D01*
X172650773Y-86560016D01*
X172637072Y-86568183D01*
X172611496Y-86579784D01*
X172574255Y-86591885D01*
X172546738Y-86597534D01*
X172507743Y-86601083D01*
X172479660Y-86600495D01*
X172454186Y-86597096D01*
X172454179Y-86597095D01*
X172440846Y-86595316D01*
X172413592Y-86588521D01*
X172376892Y-86574873D01*
X172351817Y-86562207D01*
X172319049Y-86540764D01*
X172297406Y-86522860D01*
X172270207Y-86494695D01*
X172253068Y-86472440D01*
X172232779Y-86438938D01*
X172220998Y-86413441D01*
X172215619Y-86397271D01*
X172208640Y-86376293D01*
X172202800Y-86348818D01*
X172198978Y-86309837D01*
X172199371Y-86281748D01*
X172201241Y-86266951D01*
X172204278Y-86242909D01*
X172210882Y-86215611D01*
X172224278Y-86178806D01*
X172236767Y-86153647D01*
X172257980Y-86120732D01*
X172275733Y-86098965D01*
X172303707Y-86071571D01*
X172325842Y-86054278D01*
X172359195Y-86033759D01*
X172384611Y-86021798D01*
X172421679Y-86009179D01*
X172449114Y-86003147D01*
X172461528Y-86001842D01*
X172488059Y-85999054D01*
X172516146Y-85999251D01*
X172555029Y-86003888D01*
X172582376Y-86010302D01*
X172648799Y-86033954D01*
X172649470Y-86034175D01*
X172649484Y-86034180D01*
X172652105Y-86035044D01*
X172671598Y-86041470D01*
X172672352Y-86041699D01*
X172672371Y-86041705D01*
X172676233Y-86042877D01*
X172682995Y-86044931D01*
X172706147Y-86051368D01*
X172711354Y-86051915D01*
X172711358Y-86051916D01*
X172804278Y-86061682D01*
X172849947Y-86066482D01*
X172854437Y-86066311D01*
X172854439Y-86066311D01*
X172881820Y-86065268D01*
X172920892Y-86063779D01*
X172996437Y-86049963D01*
X173054256Y-86039389D01*
X173054257Y-86039389D01*
X173063124Y-86037767D01*
X173071171Y-86033715D01*
X173071174Y-86033714D01*
X173188250Y-85974761D01*
X173188253Y-85974759D01*
X173192267Y-85972738D01*
X173250489Y-85932108D01*
X173281237Y-85903343D01*
X173344647Y-85871413D01*
X173415255Y-85878833D01*
X173444018Y-85895394D01*
X173547159Y-85974536D01*
X173693238Y-86035044D01*
X173701426Y-86036122D01*
X173766515Y-86044691D01*
X173850000Y-86055682D01*
X173858188Y-86054604D01*
X173998574Y-86036122D01*
X174006762Y-86035044D01*
X174152841Y-85974536D01*
X174278282Y-85878282D01*
X174374536Y-85752841D01*
X174408591Y-85670625D01*
X174453139Y-85615344D01*
X174520503Y-85592923D01*
X174589294Y-85610481D01*
X174637672Y-85662443D01*
X174641409Y-85670624D01*
X174675464Y-85752841D01*
X174771718Y-85878282D01*
X174897159Y-85974536D01*
X175043238Y-86035044D01*
X175051426Y-86036122D01*
X175116515Y-86044691D01*
X175200000Y-86055682D01*
X175208188Y-86054604D01*
X175348574Y-86036122D01*
X175356762Y-86035044D01*
X175502841Y-85974536D01*
X175628282Y-85878282D01*
X175724536Y-85752841D01*
X175785044Y-85606762D01*
X175805682Y-85450000D01*
X175785044Y-85293238D01*
X175724536Y-85147159D01*
X175689657Y-85101704D01*
X175664056Y-85035484D01*
X175678321Y-84965935D01*
X175689657Y-84948296D01*
X175703428Y-84930349D01*
X175724536Y-84902841D01*
X175785044Y-84756762D01*
X175805682Y-84600000D01*
X175785044Y-84443238D01*
X175754200Y-84368773D01*
X175746611Y-84298186D01*
X175773961Y-84239839D01*
X175778554Y-84235465D01*
X175871731Y-84095223D01*
X175874446Y-84088077D01*
X175929019Y-83944409D01*
X175931521Y-83937823D01*
X175954955Y-83771088D01*
X175955249Y-83750000D01*
X175943080Y-83641511D01*
X175937266Y-83589672D01*
X175937265Y-83589669D01*
X175936481Y-83582676D01*
X175927144Y-83555863D01*
X175892043Y-83455066D01*
X175888529Y-83384156D01*
X175923911Y-83322604D01*
X175986953Y-83289952D01*
X176028963Y-83288911D01*
X176139448Y-83304796D01*
X176157287Y-83307361D01*
X176157288Y-83307361D01*
X176161732Y-83308000D01*
X178406126Y-83308000D01*
X178430852Y-83307398D01*
X178443103Y-83306801D01*
X178460139Y-83305555D01*
X178466970Y-83305055D01*
X178466979Y-83305054D01*
X178467775Y-83304996D01*
X178521960Y-83299702D01*
X178521968Y-83299701D01*
X178642999Y-83287874D01*
X178644517Y-83287651D01*
X178644530Y-83287649D01*
X178690401Y-83280898D01*
X178690405Y-83280897D01*
X178691936Y-83280672D01*
X178693451Y-83280373D01*
X178693463Y-83280371D01*
X178714478Y-83276224D01*
X178714479Y-83276224D01*
X178715978Y-83275928D01*
X178763973Y-83264004D01*
X178926646Y-83215069D01*
X178973266Y-83198530D01*
X178974652Y-83197961D01*
X178974670Y-83197954D01*
X178987926Y-83192510D01*
X178995937Y-83189221D01*
X178997324Y-83188571D01*
X178997335Y-83188566D01*
X179039330Y-83168881D01*
X179039343Y-83168875D01*
X179040718Y-83168230D01*
X179115034Y-83128875D01*
X179184595Y-83114672D01*
X179250793Y-83140332D01*
X179292609Y-83197707D01*
X179300000Y-83240226D01*
X179300000Y-87039967D01*
X179279998Y-87108088D01*
X179226342Y-87154581D01*
X179156068Y-87164685D01*
X179089689Y-87133603D01*
X179087162Y-87131328D01*
X179082169Y-87125604D01*
X178960320Y-87039967D01*
X178949670Y-87032482D01*
X178949668Y-87032481D01*
X178943453Y-87028113D01*
X178785487Y-86966524D01*
X178777954Y-86965532D01*
X178777953Y-86965532D01*
X178660261Y-86950038D01*
X178660260Y-86950038D01*
X178656174Y-86949500D01*
X177767484Y-86949500D01*
X177641680Y-86964724D01*
X177483077Y-87024655D01*
X177343349Y-87120688D01*
X177338297Y-87126358D01*
X177338296Y-87126359D01*
X177235612Y-87241608D01*
X177235610Y-87241612D01*
X177230560Y-87247279D01*
X177227008Y-87253988D01*
X177227007Y-87253989D01*
X177205418Y-87294764D01*
X177151224Y-87397119D01*
X177109919Y-87561559D01*
X177109031Y-87731105D01*
X177110805Y-87738492D01*
X177110805Y-87738496D01*
X177129842Y-87817789D01*
X177148612Y-87895968D01*
X177152093Y-87902712D01*
X177152094Y-87902715D01*
X177206332Y-88007798D01*
X177226375Y-88046631D01*
X177231367Y-88052353D01*
X177231368Y-88052355D01*
X177251949Y-88075947D01*
X177337831Y-88174396D01*
X177344045Y-88178763D01*
X177470330Y-88267518D01*
X177470332Y-88267519D01*
X177476547Y-88271887D01*
X177634513Y-88333476D01*
X177642046Y-88334468D01*
X177642047Y-88334468D01*
X177759739Y-88349962D01*
X177763826Y-88350500D01*
X178652516Y-88350500D01*
X178778320Y-88335276D01*
X178936923Y-88275345D01*
X178983634Y-88243241D01*
X179070392Y-88183614D01*
X179070393Y-88183613D01*
X179076651Y-88179312D01*
X179081704Y-88173641D01*
X179087401Y-88168618D01*
X179088744Y-88170142D01*
X179140166Y-88138085D01*
X179211156Y-88139060D01*
X179270349Y-88178261D01*
X179298952Y-88243241D01*
X179300000Y-88259457D01*
X179300000Y-97924000D01*
X179279998Y-97992121D01*
X179226342Y-98038614D01*
X179174000Y-98050000D01*
X139467937Y-98050000D01*
X139399816Y-98029998D01*
X139353323Y-97976342D01*
X139343219Y-97906068D01*
X139372713Y-97841488D01*
X139421553Y-97806848D01*
X139526624Y-97765247D01*
X139533759Y-97761890D01*
X139803370Y-97613670D01*
X139810050Y-97609430D01*
X140033154Y-97447336D01*
X140041577Y-97436413D01*
X140034673Y-97423552D01*
X138473143Y-95862022D01*
X138459199Y-95854408D01*
X138457366Y-95854539D01*
X138450751Y-95858790D01*
X136885665Y-97423876D01*
X136879052Y-97435987D01*
X136887879Y-97447605D01*
X137110612Y-97609430D01*
X137117292Y-97613670D01*
X137386903Y-97761890D01*
X137394038Y-97765247D01*
X137499109Y-97806848D01*
X137555083Y-97850523D01*
X137578559Y-97917526D01*
X137562083Y-97986584D01*
X137510887Y-98035773D01*
X137452725Y-98050000D01*
X130026000Y-98050000D01*
X129957879Y-98029998D01*
X129911386Y-97976342D01*
X129900000Y-97924000D01*
X129900000Y-95493958D01*
X135947621Y-95493958D01*
X135966938Y-95800994D01*
X135967931Y-95808855D01*
X136025577Y-96111046D01*
X136027548Y-96118723D01*
X136122615Y-96411309D01*
X136125530Y-96418672D01*
X136256520Y-96697041D01*
X136260332Y-96703974D01*
X136425182Y-96963736D01*
X136429826Y-96970129D01*
X136504828Y-97060790D01*
X136517345Y-97069245D01*
X136528083Y-97063038D01*
X138088309Y-95502812D01*
X138094687Y-95491132D01*
X138824739Y-95491132D01*
X138824870Y-95492965D01*
X138829121Y-95499580D01*
X140391476Y-97061935D01*
X140404738Y-97069177D01*
X140414843Y-97061988D01*
X140490836Y-96970129D01*
X140495480Y-96963736D01*
X140660330Y-96703974D01*
X140664142Y-96697041D01*
X140795132Y-96418672D01*
X140798047Y-96411309D01*
X140893114Y-96118723D01*
X140895085Y-96111046D01*
X140952731Y-95808855D01*
X140953724Y-95800994D01*
X140973041Y-95493958D01*
X140973041Y-95486042D01*
X140953724Y-95179006D01*
X140952731Y-95171145D01*
X140895085Y-94868954D01*
X140893114Y-94861277D01*
X140798047Y-94568691D01*
X140795132Y-94561328D01*
X140664142Y-94282959D01*
X140660330Y-94276026D01*
X140495480Y-94016264D01*
X140490836Y-94009871D01*
X140415834Y-93919210D01*
X140403317Y-93910755D01*
X140392579Y-93916962D01*
X138832353Y-95477188D01*
X138824739Y-95491132D01*
X138094687Y-95491132D01*
X138095923Y-95488868D01*
X138095792Y-95487035D01*
X138091541Y-95480420D01*
X136529186Y-93918065D01*
X136515924Y-93910823D01*
X136505819Y-93918012D01*
X136429826Y-94009871D01*
X136425182Y-94016264D01*
X136260332Y-94276026D01*
X136256520Y-94282959D01*
X136125530Y-94561328D01*
X136122615Y-94568691D01*
X136027548Y-94861277D01*
X136025577Y-94868954D01*
X135967931Y-95171145D01*
X135966938Y-95179006D01*
X135947621Y-95486042D01*
X135947621Y-95493958D01*
X129900000Y-95493958D01*
X129900000Y-93543587D01*
X136879085Y-93543587D01*
X136885989Y-93556448D01*
X138447519Y-95117978D01*
X138461463Y-95125592D01*
X138463296Y-95125461D01*
X138469911Y-95121210D01*
X140034997Y-93556124D01*
X140041610Y-93544013D01*
X140032783Y-93532395D01*
X139810050Y-93370570D01*
X139803370Y-93366330D01*
X139533759Y-93218110D01*
X139526624Y-93214753D01*
X139240561Y-93101492D01*
X139233035Y-93099047D01*
X138935052Y-93022538D01*
X138927281Y-93021055D01*
X138622053Y-92982497D01*
X138614162Y-92982000D01*
X138306500Y-92982000D01*
X138298609Y-92982497D01*
X137993381Y-93021055D01*
X137985610Y-93022538D01*
X137687627Y-93099047D01*
X137680101Y-93101492D01*
X137394038Y-93214753D01*
X137386903Y-93218110D01*
X137117292Y-93366330D01*
X137110612Y-93370570D01*
X136887508Y-93532664D01*
X136879085Y-93543587D01*
X129900000Y-93543587D01*
X129900000Y-89616062D01*
X139158824Y-89616062D01*
X139168120Y-89628077D01*
X139219325Y-89663931D01*
X139228820Y-89669414D01*
X139426278Y-89761490D01*
X139436570Y-89765236D01*
X139647019Y-89821625D01*
X139657812Y-89823528D01*
X139874856Y-89842517D01*
X139885806Y-89842517D01*
X140102850Y-89823528D01*
X140113643Y-89821625D01*
X140324092Y-89765236D01*
X140334384Y-89761490D01*
X140531842Y-89669414D01*
X140541337Y-89663931D01*
X140593379Y-89627491D01*
X140601755Y-89617012D01*
X140594687Y-89603566D01*
X139893143Y-88902022D01*
X139879199Y-88894408D01*
X139877366Y-88894539D01*
X139870751Y-88898790D01*
X139165254Y-89604287D01*
X139158824Y-89616062D01*
X129900000Y-89616062D01*
X129900000Y-88535475D01*
X138567814Y-88535475D01*
X138586803Y-88752519D01*
X138588706Y-88763312D01*
X138645095Y-88973761D01*
X138648841Y-88984053D01*
X138740917Y-89181511D01*
X138746400Y-89191006D01*
X138782840Y-89243048D01*
X138793319Y-89251424D01*
X138806765Y-89244356D01*
X139508309Y-88542812D01*
X139514687Y-88531132D01*
X140244739Y-88531132D01*
X140244870Y-88532965D01*
X140249121Y-88539580D01*
X140954618Y-89245077D01*
X140966393Y-89251507D01*
X140978408Y-89242211D01*
X141014262Y-89191006D01*
X141019745Y-89181511D01*
X141111821Y-88984053D01*
X141115567Y-88973761D01*
X141171956Y-88763312D01*
X141173859Y-88752519D01*
X141192848Y-88535475D01*
X141192848Y-88524525D01*
X141173859Y-88307481D01*
X141171956Y-88296688D01*
X141115567Y-88086239D01*
X141111821Y-88075947D01*
X141019745Y-87878489D01*
X141014262Y-87868994D01*
X140977822Y-87816952D01*
X140967343Y-87808576D01*
X140953897Y-87815644D01*
X140252353Y-88517188D01*
X140244739Y-88531132D01*
X139514687Y-88531132D01*
X139515923Y-88528868D01*
X139515792Y-88527035D01*
X139511541Y-88520420D01*
X138806044Y-87814923D01*
X138794269Y-87808493D01*
X138782254Y-87817789D01*
X138746400Y-87868994D01*
X138740917Y-87878489D01*
X138648841Y-88075947D01*
X138645095Y-88086239D01*
X138588706Y-88296688D01*
X138586803Y-88307481D01*
X138567814Y-88524525D01*
X138567814Y-88535475D01*
X129900000Y-88535475D01*
X129900000Y-87130262D01*
X135984851Y-87130262D01*
X136002090Y-87335553D01*
X136003789Y-87341478D01*
X136029724Y-87431923D01*
X136058875Y-87533586D01*
X136061690Y-87539063D01*
X136061691Y-87539066D01*
X136150228Y-87711341D01*
X136153043Y-87716818D01*
X136281008Y-87878270D01*
X136437895Y-88011791D01*
X136443273Y-88014797D01*
X136443275Y-88014798D01*
X136527812Y-88062044D01*
X136617729Y-88112297D01*
X136697096Y-88138085D01*
X136807802Y-88174056D01*
X136807806Y-88174057D01*
X136813660Y-88175959D01*
X137018225Y-88200351D01*
X137024360Y-88199879D01*
X137024362Y-88199879D01*
X137080370Y-88195569D01*
X137223631Y-88184546D01*
X137229561Y-88182890D01*
X137229563Y-88182890D01*
X137416128Y-88130800D01*
X137416127Y-88130800D01*
X137422056Y-88129145D01*
X137427545Y-88126372D01*
X137427551Y-88126370D01*
X137586633Y-88046011D01*
X137605941Y-88036258D01*
X137768282Y-87909424D01*
X137780286Y-87895518D01*
X137898871Y-87758134D01*
X137898871Y-87758133D01*
X137902895Y-87753472D01*
X137923718Y-87716818D01*
X137941387Y-87685714D01*
X138004654Y-87574344D01*
X138048350Y-87442988D01*
X139158907Y-87442988D01*
X139165975Y-87456434D01*
X139867519Y-88157978D01*
X139881463Y-88165592D01*
X139883296Y-88165461D01*
X139889911Y-88161210D01*
X140595408Y-87455713D01*
X140601838Y-87443938D01*
X140592542Y-87431923D01*
X140541337Y-87396069D01*
X140531842Y-87390586D01*
X140334384Y-87298510D01*
X140324092Y-87294764D01*
X140113643Y-87238375D01*
X140102850Y-87236472D01*
X139885806Y-87217483D01*
X139874856Y-87217483D01*
X139657812Y-87236472D01*
X139647019Y-87238375D01*
X139436570Y-87294764D01*
X139426278Y-87298510D01*
X139228820Y-87390586D01*
X139219325Y-87396069D01*
X139167283Y-87432509D01*
X139158907Y-87442988D01*
X138048350Y-87442988D01*
X138069682Y-87378863D01*
X138095502Y-87174474D01*
X138095914Y-87145000D01*
X138075811Y-86939970D01*
X138016266Y-86742749D01*
X137919549Y-86560849D01*
X137829510Y-86450451D01*
X137793237Y-86405975D01*
X137793234Y-86405972D01*
X137789342Y-86401200D01*
X137772117Y-86386950D01*
X137635356Y-86273811D01*
X137635352Y-86273809D01*
X137630606Y-86269882D01*
X137449386Y-86171897D01*
X137252585Y-86110977D01*
X137246460Y-86110333D01*
X137246459Y-86110333D01*
X137053829Y-86090087D01*
X137053827Y-86090087D01*
X137047700Y-86089443D01*
X136960860Y-86097346D01*
X136848673Y-86107555D01*
X136848670Y-86107556D01*
X136842534Y-86108114D01*
X136644903Y-86166280D01*
X136462333Y-86261726D01*
X136457532Y-86265586D01*
X136457529Y-86265588D01*
X136337413Y-86362164D01*
X136301778Y-86390815D01*
X136169355Y-86548630D01*
X136166387Y-86554028D01*
X136166384Y-86554033D01*
X136091473Y-86690297D01*
X136070107Y-86729162D01*
X136007815Y-86925532D01*
X136007129Y-86931649D01*
X136007128Y-86931653D01*
X135994979Y-87039967D01*
X135984851Y-87130262D01*
X129900000Y-87130262D01*
X129900000Y-85745262D01*
X138824851Y-85745262D01*
X138825367Y-85751406D01*
X138840758Y-85934686D01*
X138842090Y-85950553D01*
X138843789Y-85956478D01*
X138887769Y-86109853D01*
X138898875Y-86148586D01*
X138901690Y-86154063D01*
X138901691Y-86154066D01*
X138981746Y-86309837D01*
X138993043Y-86331818D01*
X139121008Y-86493270D01*
X139125701Y-86497264D01*
X139125702Y-86497265D01*
X139249297Y-86602452D01*
X139277895Y-86626791D01*
X139457729Y-86727297D01*
X139523444Y-86748649D01*
X139647802Y-86789056D01*
X139647806Y-86789057D01*
X139653660Y-86790959D01*
X139858225Y-86815351D01*
X139864360Y-86814879D01*
X139864362Y-86814879D01*
X139920370Y-86810569D01*
X140063631Y-86799546D01*
X140069561Y-86797890D01*
X140069563Y-86797890D01*
X140256128Y-86745800D01*
X140256127Y-86745800D01*
X140262056Y-86744145D01*
X140267545Y-86741372D01*
X140267551Y-86741370D01*
X140440447Y-86654033D01*
X140445941Y-86651258D01*
X140490535Y-86616418D01*
X140562382Y-86560285D01*
X140608282Y-86524424D01*
X140711402Y-86404958D01*
X140738871Y-86373134D01*
X140738871Y-86373133D01*
X140742895Y-86368472D01*
X140746479Y-86362164D01*
X140814225Y-86242909D01*
X140844654Y-86189344D01*
X140909682Y-85993863D01*
X140935502Y-85789474D01*
X140935914Y-85760000D01*
X140915811Y-85554970D01*
X140856266Y-85357749D01*
X140759549Y-85175849D01*
X140666070Y-85061233D01*
X140633237Y-85020975D01*
X140633234Y-85020972D01*
X140629342Y-85016200D01*
X140583304Y-84978114D01*
X140475356Y-84888811D01*
X140475352Y-84888809D01*
X140470606Y-84884882D01*
X140289386Y-84786897D01*
X140092585Y-84725977D01*
X140086460Y-84725333D01*
X140086459Y-84725333D01*
X139893829Y-84705087D01*
X139893827Y-84705087D01*
X139887700Y-84704443D01*
X139800860Y-84712346D01*
X139688673Y-84722555D01*
X139688670Y-84722556D01*
X139682534Y-84723114D01*
X139484903Y-84781280D01*
X139479438Y-84784137D01*
X139405414Y-84822836D01*
X139302333Y-84876726D01*
X139297532Y-84880586D01*
X139297529Y-84880588D01*
X139212759Y-84948745D01*
X139141778Y-85005815D01*
X139009355Y-85163630D01*
X139006387Y-85169028D01*
X139006384Y-85169033D01*
X138929551Y-85308793D01*
X138910107Y-85344162D01*
X138847815Y-85540532D01*
X138847129Y-85546649D01*
X138847128Y-85546653D01*
X138833223Y-85670625D01*
X138824851Y-85745262D01*
X129900000Y-85745262D01*
X129900000Y-84360262D01*
X135984851Y-84360262D01*
X136002090Y-84565553D01*
X136003789Y-84571478D01*
X136047769Y-84724853D01*
X136058875Y-84763586D01*
X136061690Y-84769063D01*
X136061691Y-84769066D01*
X136130303Y-84902571D01*
X136153043Y-84946818D01*
X136281008Y-85108270D01*
X136285701Y-85112264D01*
X136285702Y-85112265D01*
X136408370Y-85216663D01*
X136437895Y-85241791D01*
X136443273Y-85244797D01*
X136443275Y-85244798D01*
X136474894Y-85262469D01*
X136617729Y-85342297D01*
X136712569Y-85373113D01*
X136807802Y-85404056D01*
X136807806Y-85404057D01*
X136813660Y-85405959D01*
X137018225Y-85430351D01*
X137024360Y-85429879D01*
X137024362Y-85429879D01*
X137080370Y-85425569D01*
X137223631Y-85414546D01*
X137229561Y-85412890D01*
X137229563Y-85412890D01*
X137353435Y-85378304D01*
X137422056Y-85359145D01*
X137427545Y-85356372D01*
X137427551Y-85356370D01*
X137560283Y-85289322D01*
X137605941Y-85266258D01*
X137768282Y-85139424D01*
X137774286Y-85132469D01*
X137898871Y-84988134D01*
X137898871Y-84988133D01*
X137902895Y-84983472D01*
X137912858Y-84965935D01*
X137970772Y-84863987D01*
X138004654Y-84804344D01*
X138069682Y-84608863D01*
X138095502Y-84404474D01*
X138095914Y-84375000D01*
X138075811Y-84169970D01*
X138047458Y-84076062D01*
X139158824Y-84076062D01*
X139168120Y-84088077D01*
X139219325Y-84123931D01*
X139228820Y-84129414D01*
X139426278Y-84221490D01*
X139436570Y-84225236D01*
X139647019Y-84281625D01*
X139657812Y-84283528D01*
X139874856Y-84302517D01*
X139885806Y-84302517D01*
X140102850Y-84283528D01*
X140113643Y-84281625D01*
X140324092Y-84225236D01*
X140334384Y-84221490D01*
X140531842Y-84129414D01*
X140541337Y-84123931D01*
X140593379Y-84087491D01*
X140601755Y-84077012D01*
X140594687Y-84063566D01*
X139893143Y-83362022D01*
X139879199Y-83354408D01*
X139877366Y-83354539D01*
X139870751Y-83358790D01*
X139165254Y-84064287D01*
X139158824Y-84076062D01*
X138047458Y-84076062D01*
X138016266Y-83972749D01*
X137919549Y-83790849D01*
X137846190Y-83700902D01*
X137793237Y-83635975D01*
X137793234Y-83635972D01*
X137789342Y-83631200D01*
X137782504Y-83625543D01*
X137635356Y-83503811D01*
X137635352Y-83503809D01*
X137630606Y-83499882D01*
X137449386Y-83401897D01*
X137252585Y-83340977D01*
X137246460Y-83340333D01*
X137246459Y-83340333D01*
X137053829Y-83320087D01*
X137053827Y-83320087D01*
X137047700Y-83319443D01*
X136977330Y-83325847D01*
X136848673Y-83337555D01*
X136848670Y-83337556D01*
X136842534Y-83338114D01*
X136644903Y-83396280D01*
X136462333Y-83491726D01*
X136457532Y-83495586D01*
X136457529Y-83495588D01*
X136340512Y-83589672D01*
X136301778Y-83620815D01*
X136169355Y-83778630D01*
X136166387Y-83784028D01*
X136166384Y-83784033D01*
X136073074Y-83953765D01*
X136070107Y-83959162D01*
X136007815Y-84155532D01*
X136007129Y-84161649D01*
X136007128Y-84161653D01*
X135991328Y-84302517D01*
X135984851Y-84360262D01*
X129900000Y-84360262D01*
X129900000Y-82995475D01*
X138567814Y-82995475D01*
X138586803Y-83212519D01*
X138588706Y-83223312D01*
X138645095Y-83433761D01*
X138648841Y-83444053D01*
X138740917Y-83641511D01*
X138746400Y-83651006D01*
X138782840Y-83703048D01*
X138793319Y-83711424D01*
X138806765Y-83704356D01*
X139508309Y-83002812D01*
X139514687Y-82991132D01*
X140244739Y-82991132D01*
X140244870Y-82992965D01*
X140249121Y-82999580D01*
X140954618Y-83705077D01*
X140966393Y-83711507D01*
X140978408Y-83702211D01*
X141014262Y-83651006D01*
X141019745Y-83641511D01*
X141111821Y-83444053D01*
X141115567Y-83433761D01*
X141171956Y-83223312D01*
X141173859Y-83212519D01*
X141192848Y-82995475D01*
X141192848Y-82984525D01*
X141173859Y-82767481D01*
X141171956Y-82756688D01*
X141115567Y-82546239D01*
X141111821Y-82535947D01*
X141019745Y-82338489D01*
X141014262Y-82328994D01*
X140977822Y-82276952D01*
X140967343Y-82268576D01*
X140953897Y-82275644D01*
X140252353Y-82977188D01*
X140244739Y-82991132D01*
X139514687Y-82991132D01*
X139515923Y-82988868D01*
X139515792Y-82987035D01*
X139511541Y-82980420D01*
X138806044Y-82274923D01*
X138794269Y-82268493D01*
X138782254Y-82277789D01*
X138746400Y-82328994D01*
X138740917Y-82338489D01*
X138648841Y-82535947D01*
X138645095Y-82546239D01*
X138588706Y-82756688D01*
X138586803Y-82767481D01*
X138567814Y-82984525D01*
X138567814Y-82995475D01*
X129900000Y-82995475D01*
X129900000Y-81590262D01*
X135984851Y-81590262D01*
X135985367Y-81596406D01*
X136001329Y-81786486D01*
X136002090Y-81795553D01*
X136003789Y-81801478D01*
X136056355Y-81984796D01*
X136058875Y-81993586D01*
X136061690Y-81999063D01*
X136061691Y-81999066D01*
X136150228Y-82171341D01*
X136153043Y-82176818D01*
X136281008Y-82338270D01*
X136285701Y-82342264D01*
X136285702Y-82342265D01*
X136304902Y-82358605D01*
X136437895Y-82471791D01*
X136617729Y-82572297D01*
X136712569Y-82603113D01*
X136807802Y-82634056D01*
X136807806Y-82634057D01*
X136813660Y-82635959D01*
X137018225Y-82660351D01*
X137024360Y-82659879D01*
X137024362Y-82659879D01*
X137080370Y-82655569D01*
X137223631Y-82644546D01*
X137229561Y-82642890D01*
X137229563Y-82642890D01*
X137416128Y-82590800D01*
X137416127Y-82590800D01*
X137422056Y-82589145D01*
X137427545Y-82586372D01*
X137427551Y-82586370D01*
X137600447Y-82499033D01*
X137605941Y-82496258D01*
X137768282Y-82369424D01*
X137849853Y-82274923D01*
X137898871Y-82218134D01*
X137898871Y-82218133D01*
X137902895Y-82213472D01*
X137914569Y-82192923D01*
X138001607Y-82039707D01*
X138004654Y-82034344D01*
X138048350Y-81902988D01*
X139158907Y-81902988D01*
X139165975Y-81916434D01*
X139867519Y-82617978D01*
X139881463Y-82625592D01*
X139883296Y-82625461D01*
X139889911Y-82621210D01*
X140595408Y-81915713D01*
X140601838Y-81903938D01*
X140592542Y-81891923D01*
X140541337Y-81856069D01*
X140531842Y-81850586D01*
X140334384Y-81758510D01*
X140324092Y-81754764D01*
X140113643Y-81698375D01*
X140102850Y-81696472D01*
X139885806Y-81677483D01*
X139874856Y-81677483D01*
X139657812Y-81696472D01*
X139647019Y-81698375D01*
X139436570Y-81754764D01*
X139426278Y-81758510D01*
X139228820Y-81850586D01*
X139219325Y-81856069D01*
X139167283Y-81892509D01*
X139158907Y-81902988D01*
X138048350Y-81902988D01*
X138069682Y-81838863D01*
X138095502Y-81634474D01*
X138095914Y-81605000D01*
X138075811Y-81399970D01*
X138016266Y-81202749D01*
X137919549Y-81020849D01*
X137826883Y-80907230D01*
X137793237Y-80865975D01*
X137793234Y-80865972D01*
X137789342Y-80861200D01*
X137776789Y-80850815D01*
X137635356Y-80733811D01*
X137635352Y-80733809D01*
X137630606Y-80729882D01*
X137449386Y-80631897D01*
X137252585Y-80570977D01*
X137246460Y-80570333D01*
X137246459Y-80570333D01*
X137053829Y-80550087D01*
X137053827Y-80550087D01*
X137047700Y-80549443D01*
X136960860Y-80557346D01*
X136848673Y-80567555D01*
X136848670Y-80567556D01*
X136842534Y-80568114D01*
X136644903Y-80626280D01*
X136462333Y-80721726D01*
X136457532Y-80725586D01*
X136457529Y-80725588D01*
X136370820Y-80795304D01*
X136301778Y-80850815D01*
X136169355Y-81008630D01*
X136166387Y-81014028D01*
X136166384Y-81014033D01*
X136089629Y-81153651D01*
X136070107Y-81189162D01*
X136007815Y-81385532D01*
X136007129Y-81391649D01*
X136007128Y-81391653D01*
X135987998Y-81562206D01*
X135984851Y-81590262D01*
X129900000Y-81590262D01*
X129900000Y-80205262D01*
X138824851Y-80205262D01*
X138825367Y-80211406D01*
X138836299Y-80341585D01*
X138842090Y-80410553D01*
X138843789Y-80416478D01*
X138894784Y-80594318D01*
X138898875Y-80608586D01*
X138901690Y-80614063D01*
X138901691Y-80614066D01*
X138981951Y-80770236D01*
X138993043Y-80791818D01*
X139121008Y-80953270D01*
X139125701Y-80957264D01*
X139125702Y-80957265D01*
X139260006Y-81071566D01*
X139277895Y-81086791D01*
X139283273Y-81089797D01*
X139283275Y-81089798D01*
X139314894Y-81107469D01*
X139457729Y-81187297D01*
X139523444Y-81208649D01*
X139647802Y-81249056D01*
X139647806Y-81249057D01*
X139653660Y-81250959D01*
X139858225Y-81275351D01*
X139864360Y-81274879D01*
X139864362Y-81274879D01*
X139920370Y-81270569D01*
X140063631Y-81259546D01*
X140069561Y-81257890D01*
X140069563Y-81257890D01*
X140256128Y-81205800D01*
X140256127Y-81205800D01*
X140262056Y-81204145D01*
X140267545Y-81201372D01*
X140267551Y-81201370D01*
X140420459Y-81124130D01*
X140445941Y-81111258D01*
X140461676Y-81098965D01*
X140576597Y-81009179D01*
X140608282Y-80984424D01*
X140615433Y-80976140D01*
X140738871Y-80833134D01*
X140738871Y-80833133D01*
X140742895Y-80828472D01*
X140763718Y-80791818D01*
X140826960Y-80680491D01*
X140844654Y-80649344D01*
X140909682Y-80453863D01*
X140935502Y-80249474D01*
X140935914Y-80220000D01*
X140915811Y-80014970D01*
X140856266Y-79817749D01*
X140759549Y-79635849D01*
X140668446Y-79524146D01*
X140633237Y-79480975D01*
X140633234Y-79480972D01*
X140629342Y-79476200D01*
X140616789Y-79465815D01*
X140475356Y-79348811D01*
X140475352Y-79348809D01*
X140470606Y-79344882D01*
X140289386Y-79246897D01*
X140092585Y-79185977D01*
X140086460Y-79185333D01*
X140086459Y-79185333D01*
X139893829Y-79165087D01*
X139893827Y-79165087D01*
X139887700Y-79164443D01*
X139800860Y-79172346D01*
X139688673Y-79182555D01*
X139688670Y-79182556D01*
X139682534Y-79183114D01*
X139484903Y-79241280D01*
X139302333Y-79336726D01*
X139297532Y-79340586D01*
X139297529Y-79340588D01*
X139227826Y-79396631D01*
X139141778Y-79465815D01*
X139009355Y-79623630D01*
X139006387Y-79629028D01*
X139006384Y-79629033D01*
X138976454Y-79683476D01*
X138910107Y-79804162D01*
X138847815Y-80000532D01*
X138847129Y-80006649D01*
X138847128Y-80006653D01*
X138829546Y-80163401D01*
X138824851Y-80205262D01*
X129900000Y-80205262D01*
X129900000Y-79921062D01*
X136318824Y-79921062D01*
X136328120Y-79933077D01*
X136379325Y-79968931D01*
X136388820Y-79974414D01*
X136586278Y-80066490D01*
X136596570Y-80070236D01*
X136807019Y-80126625D01*
X136817812Y-80128528D01*
X137034856Y-80147517D01*
X137045806Y-80147517D01*
X137262850Y-80128528D01*
X137273643Y-80126625D01*
X137484092Y-80070236D01*
X137494384Y-80066490D01*
X137691842Y-79974414D01*
X137701337Y-79968931D01*
X137753379Y-79932491D01*
X137761755Y-79922012D01*
X137754687Y-79908566D01*
X137053143Y-79207022D01*
X137039199Y-79199408D01*
X137037366Y-79199539D01*
X137030751Y-79203790D01*
X136325254Y-79909287D01*
X136318824Y-79921062D01*
X129900000Y-79921062D01*
X129900000Y-78840475D01*
X135727814Y-78840475D01*
X135746803Y-79057519D01*
X135748706Y-79068312D01*
X135805095Y-79278761D01*
X135808841Y-79289053D01*
X135900917Y-79486511D01*
X135906400Y-79496006D01*
X135942840Y-79548048D01*
X135953319Y-79556424D01*
X135966765Y-79549356D01*
X136668309Y-78847812D01*
X136674687Y-78836132D01*
X137404739Y-78836132D01*
X137404870Y-78837965D01*
X137409121Y-78844580D01*
X138114618Y-79550077D01*
X138126393Y-79556507D01*
X138138408Y-79547211D01*
X138174262Y-79496006D01*
X138179745Y-79486511D01*
X138271821Y-79289053D01*
X138275567Y-79278761D01*
X138331956Y-79068312D01*
X138333859Y-79057519D01*
X138352848Y-78840475D01*
X138352848Y-78829525D01*
X138333859Y-78612481D01*
X138331956Y-78601688D01*
X138275567Y-78391239D01*
X138271821Y-78380947D01*
X138222265Y-78274674D01*
X138829831Y-78274674D01*
X138844365Y-78347740D01*
X138851259Y-78358057D01*
X138851259Y-78358058D01*
X138865776Y-78379785D01*
X138899730Y-78430601D01*
X138910045Y-78437493D01*
X138953024Y-78466210D01*
X138982591Y-78485966D01*
X139055657Y-78500500D01*
X140705005Y-78500500D01*
X140778071Y-78485966D01*
X140807639Y-78466210D01*
X140850617Y-78437493D01*
X140860932Y-78430601D01*
X140894886Y-78379785D01*
X140909403Y-78358058D01*
X140909403Y-78358057D01*
X140916297Y-78347740D01*
X140930831Y-78274674D01*
X140930831Y-76625326D01*
X140916297Y-76552260D01*
X140908311Y-76540307D01*
X140868345Y-76480493D01*
X140860932Y-76469399D01*
X140813995Y-76438037D01*
X140788389Y-76420928D01*
X140788388Y-76420928D01*
X140778071Y-76414034D01*
X140705005Y-76399500D01*
X139055657Y-76399500D01*
X138982591Y-76414034D01*
X138972274Y-76420928D01*
X138972273Y-76420928D01*
X138946667Y-76438037D01*
X138899730Y-76469399D01*
X138892317Y-76480493D01*
X138852352Y-76540307D01*
X138844365Y-76552260D01*
X138829831Y-76625326D01*
X138829831Y-78274674D01*
X138222265Y-78274674D01*
X138179745Y-78183489D01*
X138174262Y-78173994D01*
X138137822Y-78121952D01*
X138127343Y-78113576D01*
X138113897Y-78120644D01*
X137412353Y-78822188D01*
X137404739Y-78836132D01*
X136674687Y-78836132D01*
X136675923Y-78833868D01*
X136675792Y-78832035D01*
X136671541Y-78825420D01*
X135966044Y-78119923D01*
X135954269Y-78113493D01*
X135942254Y-78122789D01*
X135906400Y-78173994D01*
X135900917Y-78183489D01*
X135808841Y-78380947D01*
X135805095Y-78391239D01*
X135748706Y-78601688D01*
X135746803Y-78612481D01*
X135727814Y-78829525D01*
X135727814Y-78840475D01*
X129900000Y-78840475D01*
X129900000Y-77747988D01*
X136318907Y-77747988D01*
X136325975Y-77761434D01*
X137027519Y-78462978D01*
X137041463Y-78470592D01*
X137043296Y-78470461D01*
X137049911Y-78466210D01*
X137755408Y-77760713D01*
X137761838Y-77748938D01*
X137752542Y-77736923D01*
X137701337Y-77701069D01*
X137691842Y-77695586D01*
X137494384Y-77603510D01*
X137484092Y-77599764D01*
X137273643Y-77543375D01*
X137262850Y-77541472D01*
X137045806Y-77522483D01*
X137034856Y-77522483D01*
X136817812Y-77541472D01*
X136807019Y-77543375D01*
X136596570Y-77599764D01*
X136586278Y-77603510D01*
X136388820Y-77695586D01*
X136379325Y-77701069D01*
X136327283Y-77737509D01*
X136318907Y-77747988D01*
X129900000Y-77747988D01*
X129900000Y-75955694D01*
X142509500Y-75955694D01*
X142509692Y-75958140D01*
X142509693Y-75958153D01*
X142510951Y-75974128D01*
X142512402Y-75992569D01*
X142514199Y-75998754D01*
X142555547Y-76141072D01*
X142558256Y-76150398D01*
X142562291Y-76157220D01*
X142562291Y-76157221D01*
X142633041Y-76276853D01*
X142641919Y-76291865D01*
X142758135Y-76408081D01*
X142764956Y-76412115D01*
X142880578Y-76480493D01*
X142899602Y-76491744D01*
X142907214Y-76493955D01*
X142907215Y-76493956D01*
X142944461Y-76504777D01*
X143057431Y-76537598D01*
X143070584Y-76538633D01*
X143091847Y-76540307D01*
X143091860Y-76540308D01*
X143094306Y-76540500D01*
X144025694Y-76540500D01*
X144028140Y-76540308D01*
X144028153Y-76540307D01*
X144049416Y-76538633D01*
X144062569Y-76537598D01*
X144175539Y-76504777D01*
X144212785Y-76493956D01*
X144212786Y-76493955D01*
X144220398Y-76491744D01*
X144239423Y-76480493D01*
X144355044Y-76412115D01*
X144361865Y-76408081D01*
X144478081Y-76291865D01*
X144486959Y-76276853D01*
X144557709Y-76157221D01*
X144557709Y-76157220D01*
X144561744Y-76150398D01*
X144564454Y-76141072D01*
X144605801Y-75998754D01*
X144607598Y-75992569D01*
X144609049Y-75974128D01*
X144610307Y-75958153D01*
X144610308Y-75958140D01*
X144610500Y-75955694D01*
X144610500Y-75475262D01*
X145044520Y-75475262D01*
X145061759Y-75680553D01*
X145063458Y-75686478D01*
X145116597Y-75871795D01*
X145118544Y-75878586D01*
X145121359Y-75884063D01*
X145121360Y-75884066D01*
X145199455Y-76036023D01*
X145212712Y-76061818D01*
X145340677Y-76223270D01*
X145345370Y-76227264D01*
X145345371Y-76227265D01*
X145466166Y-76330069D01*
X145497564Y-76356791D01*
X145502942Y-76359797D01*
X145502944Y-76359798D01*
X145571535Y-76398132D01*
X145677398Y-76457297D01*
X145746581Y-76479776D01*
X145867471Y-76519056D01*
X145867475Y-76519057D01*
X145873329Y-76520959D01*
X146077894Y-76545351D01*
X146084029Y-76544879D01*
X146084031Y-76544879D01*
X146143447Y-76540307D01*
X146283300Y-76529546D01*
X146289230Y-76527890D01*
X146289232Y-76527890D01*
X146435422Y-76487073D01*
X146481725Y-76474145D01*
X146487214Y-76471372D01*
X146487220Y-76471370D01*
X146623607Y-76402475D01*
X146665610Y-76381258D01*
X146697521Y-76356327D01*
X146757101Y-76309778D01*
X146827951Y-76254424D01*
X146849329Y-76229658D01*
X146958540Y-76103134D01*
X146958540Y-76103133D01*
X146962564Y-76098472D01*
X146965809Y-76092761D01*
X147016626Y-76003306D01*
X147064323Y-75919344D01*
X147129351Y-75723863D01*
X147155171Y-75519474D01*
X147155583Y-75490000D01*
X147135480Y-75284970D01*
X147075935Y-75087749D01*
X146979218Y-74905849D01*
X146905859Y-74815902D01*
X146852906Y-74750975D01*
X146852903Y-74750972D01*
X146849011Y-74746200D01*
X146778823Y-74688135D01*
X146695025Y-74618811D01*
X146695021Y-74618809D01*
X146690275Y-74614882D01*
X146509055Y-74516897D01*
X146312254Y-74455977D01*
X146306129Y-74455333D01*
X146306128Y-74455333D01*
X146113498Y-74435087D01*
X146113496Y-74435087D01*
X146107369Y-74434443D01*
X146025461Y-74441897D01*
X145908342Y-74452555D01*
X145908339Y-74452556D01*
X145902203Y-74453114D01*
X145704572Y-74511280D01*
X145699107Y-74514137D01*
X145678575Y-74524871D01*
X145522002Y-74606726D01*
X145517201Y-74610586D01*
X145517198Y-74610588D01*
X145366254Y-74731950D01*
X145361447Y-74735815D01*
X145229024Y-74893630D01*
X145226056Y-74899028D01*
X145226053Y-74899033D01*
X145158536Y-75021847D01*
X145129776Y-75074162D01*
X145067484Y-75270532D01*
X145066798Y-75276649D01*
X145066797Y-75276653D01*
X145045207Y-75469137D01*
X145044520Y-75475262D01*
X144610500Y-75475262D01*
X144610500Y-75024306D01*
X144610308Y-75021860D01*
X144610307Y-75021847D01*
X144608103Y-74993850D01*
X144607598Y-74987431D01*
X144583896Y-74905849D01*
X144563956Y-74837215D01*
X144563955Y-74837214D01*
X144561744Y-74829602D01*
X144478081Y-74688135D01*
X144361865Y-74571919D01*
X144319898Y-74547100D01*
X144227221Y-74492291D01*
X144227220Y-74492291D01*
X144220398Y-74488256D01*
X144212786Y-74486045D01*
X144212785Y-74486044D01*
X144099440Y-74453114D01*
X144062569Y-74442402D01*
X144049416Y-74441367D01*
X144028153Y-74439693D01*
X144028140Y-74439692D01*
X144025694Y-74439500D01*
X143094306Y-74439500D01*
X143091860Y-74439692D01*
X143091847Y-74439693D01*
X143070584Y-74441367D01*
X143057431Y-74442402D01*
X143020560Y-74453114D01*
X142907215Y-74486044D01*
X142907214Y-74486045D01*
X142899602Y-74488256D01*
X142892780Y-74492291D01*
X142892779Y-74492291D01*
X142800102Y-74547100D01*
X142758135Y-74571919D01*
X142641919Y-74688135D01*
X142558256Y-74829602D01*
X142556045Y-74837214D01*
X142556044Y-74837215D01*
X142536104Y-74905849D01*
X142512402Y-74987431D01*
X142511897Y-74993850D01*
X142509693Y-75021847D01*
X142509692Y-75021860D01*
X142509500Y-75024306D01*
X142509500Y-75955694D01*
X129900000Y-75955694D01*
X129900000Y-72435987D01*
X136879052Y-72435987D01*
X136887879Y-72447605D01*
X137110612Y-72609430D01*
X137117292Y-72613670D01*
X137386903Y-72761890D01*
X137394038Y-72765247D01*
X137680101Y-72878508D01*
X137687627Y-72880953D01*
X137985610Y-72957462D01*
X137993381Y-72958945D01*
X138298609Y-72997503D01*
X138306500Y-72998000D01*
X138614162Y-72998000D01*
X138622053Y-72997503D01*
X138927281Y-72958945D01*
X138935052Y-72957462D01*
X139233035Y-72880953D01*
X139240561Y-72878508D01*
X139526624Y-72765247D01*
X139533759Y-72761890D01*
X139803370Y-72613670D01*
X139810050Y-72609430D01*
X140033154Y-72447336D01*
X140041577Y-72436413D01*
X140034673Y-72423552D01*
X138473143Y-70862022D01*
X138459199Y-70854408D01*
X138457366Y-70854539D01*
X138450751Y-70858790D01*
X136885665Y-72423876D01*
X136879052Y-72435987D01*
X129900000Y-72435987D01*
X129900000Y-70493958D01*
X135947621Y-70493958D01*
X135966938Y-70800994D01*
X135967931Y-70808855D01*
X136025577Y-71111046D01*
X136027548Y-71118723D01*
X136122615Y-71411309D01*
X136125530Y-71418672D01*
X136256520Y-71697041D01*
X136260332Y-71703974D01*
X136425182Y-71963736D01*
X136429826Y-71970129D01*
X136504828Y-72060790D01*
X136517345Y-72069245D01*
X136528083Y-72063038D01*
X138088309Y-70502812D01*
X138094687Y-70491132D01*
X138824739Y-70491132D01*
X138824870Y-70492965D01*
X138829121Y-70499580D01*
X140391476Y-72061935D01*
X140404738Y-72069177D01*
X140414843Y-72061988D01*
X140490836Y-71970129D01*
X140495480Y-71963736D01*
X140660330Y-71703974D01*
X140664142Y-71697041D01*
X140795132Y-71418672D01*
X140798047Y-71411309D01*
X140893114Y-71118723D01*
X140895085Y-71111046D01*
X140952731Y-70808855D01*
X140953724Y-70800994D01*
X140973041Y-70493958D01*
X140973041Y-70486042D01*
X140967330Y-70395262D01*
X142504520Y-70395262D01*
X142505036Y-70401406D01*
X142512571Y-70491132D01*
X142521759Y-70600553D01*
X142578544Y-70798586D01*
X142581359Y-70804063D01*
X142581360Y-70804066D01*
X142669897Y-70976341D01*
X142672712Y-70981818D01*
X142800677Y-71143270D01*
X142957564Y-71276791D01*
X143137398Y-71377297D01*
X143232238Y-71408113D01*
X143327471Y-71439056D01*
X143327475Y-71439057D01*
X143333329Y-71440959D01*
X143537894Y-71465351D01*
X143544029Y-71464879D01*
X143544031Y-71464879D01*
X143600039Y-71460569D01*
X143743300Y-71449546D01*
X143749230Y-71447890D01*
X143749232Y-71447890D01*
X143935797Y-71395800D01*
X143935796Y-71395800D01*
X143941725Y-71394145D01*
X143947214Y-71391372D01*
X143947220Y-71391370D01*
X144120116Y-71304033D01*
X144125610Y-71301258D01*
X144287951Y-71174424D01*
X144336031Y-71118723D01*
X144418540Y-71023134D01*
X144418540Y-71023133D01*
X144422564Y-71018472D01*
X144443387Y-70981818D01*
X144521276Y-70844707D01*
X144524323Y-70839344D01*
X144589351Y-70643863D01*
X144615171Y-70439474D01*
X144615583Y-70410000D01*
X144595480Y-70204970D01*
X144535935Y-70007749D01*
X144439218Y-69825849D01*
X144365859Y-69735902D01*
X144312906Y-69670975D01*
X144312903Y-69670972D01*
X144309011Y-69666200D01*
X144291786Y-69651950D01*
X144155025Y-69538811D01*
X144155021Y-69538809D01*
X144150275Y-69534882D01*
X143969055Y-69436897D01*
X143772254Y-69375977D01*
X143766129Y-69375333D01*
X143766128Y-69375333D01*
X143573498Y-69355087D01*
X143573496Y-69355087D01*
X143567369Y-69354443D01*
X143480529Y-69362346D01*
X143368342Y-69372555D01*
X143368339Y-69372556D01*
X143362203Y-69373114D01*
X143164572Y-69431280D01*
X142982002Y-69526726D01*
X142977201Y-69530586D01*
X142977198Y-69530588D01*
X142826254Y-69651950D01*
X142821447Y-69655815D01*
X142689024Y-69813630D01*
X142686056Y-69819028D01*
X142686053Y-69819033D01*
X142620956Y-69937446D01*
X142589776Y-69994162D01*
X142527484Y-70190532D01*
X142526798Y-70196649D01*
X142526797Y-70196653D01*
X142505207Y-70389137D01*
X142504520Y-70395262D01*
X140967330Y-70395262D01*
X140953724Y-70179006D01*
X140952731Y-70171145D01*
X140895085Y-69868954D01*
X140893114Y-69861277D01*
X140798047Y-69568691D01*
X140795132Y-69561328D01*
X140664142Y-69282959D01*
X140660330Y-69276026D01*
X140495480Y-69016264D01*
X140490836Y-69009871D01*
X140415834Y-68919210D01*
X140403317Y-68910755D01*
X140392579Y-68916962D01*
X138832353Y-70477188D01*
X138824739Y-70491132D01*
X138094687Y-70491132D01*
X138095923Y-70488868D01*
X138095792Y-70487035D01*
X138091541Y-70480420D01*
X136529186Y-68918065D01*
X136515924Y-68910823D01*
X136505819Y-68918012D01*
X136429826Y-69009871D01*
X136425182Y-69016264D01*
X136260332Y-69276026D01*
X136256520Y-69282959D01*
X136125530Y-69561328D01*
X136122615Y-69568691D01*
X136027548Y-69861277D01*
X136025577Y-69868954D01*
X135967931Y-70171145D01*
X135966938Y-70179006D01*
X135947621Y-70486042D01*
X135947621Y-70493958D01*
X129900000Y-70493958D01*
X129900000Y-67926000D01*
X129920002Y-67857879D01*
X129973658Y-67811386D01*
X130026000Y-67800000D01*
X137854947Y-67800000D01*
X137923068Y-67820002D01*
G37*
%TD.AperFunction*%
%TA.AperFunction,Conductor*%
G36*
X165940439Y-89623599D02*
G01*
X165989636Y-89628770D01*
X166003743Y-89630253D01*
X166027829Y-89635198D01*
X166088630Y-89654019D01*
X166111293Y-89663545D01*
X166147056Y-89682882D01*
X166167281Y-89693817D01*
X166187663Y-89707564D01*
X166230789Y-89743242D01*
X166230792Y-89743244D01*
X166231004Y-89743420D01*
X166236705Y-89748136D01*
X166254030Y-89765581D01*
X166294260Y-89814908D01*
X166307861Y-89835381D01*
X166335437Y-89887242D01*
X166337744Y-89891581D01*
X166347115Y-89914316D01*
X166365510Y-89975241D01*
X166370287Y-89999366D01*
X166376944Y-90067266D01*
X166376552Y-90095345D01*
X166367999Y-90163050D01*
X166362554Y-90187014D01*
X166344378Y-90241652D01*
X166342464Y-90247407D01*
X166332463Y-90269869D01*
X166301825Y-90323802D01*
X166301024Y-90325212D01*
X166286849Y-90345306D01*
X166245266Y-90393480D01*
X166227458Y-90410439D01*
X166203569Y-90429103D01*
X166165500Y-90462008D01*
X166164347Y-90463109D01*
X166148609Y-90478136D01*
X166148595Y-90478150D01*
X166147464Y-90479230D01*
X166112817Y-90515763D01*
X166109558Y-90520887D01*
X166109557Y-90520888D01*
X166042070Y-90626988D01*
X166035214Y-90637766D01*
X166034823Y-90637517D01*
X165986807Y-90685973D01*
X165917503Y-90701382D01*
X165850870Y-90676875D01*
X165811771Y-90629017D01*
X165809427Y-90624002D01*
X165809425Y-90623999D01*
X165807519Y-90619921D01*
X165768607Y-90560540D01*
X165765628Y-90557163D01*
X165765624Y-90557158D01*
X165695911Y-90478136D01*
X165672954Y-90452113D01*
X165608762Y-90397481D01*
X165591682Y-90379794D01*
X165552147Y-90329914D01*
X165538826Y-90309243D01*
X165509735Y-90252638D01*
X165500682Y-90229774D01*
X165491916Y-90199203D01*
X165491905Y-90199158D01*
X165483141Y-90168595D01*
X165478702Y-90144411D01*
X165473376Y-90080994D01*
X165473719Y-90056403D01*
X165475452Y-90040951D01*
X165480814Y-89993151D01*
X165485927Y-89969101D01*
X165505169Y-89908441D01*
X165514856Y-89885838D01*
X165545518Y-89830064D01*
X165559411Y-89809774D01*
X165593921Y-89768646D01*
X165593929Y-89768637D01*
X165600315Y-89761026D01*
X165617888Y-89743816D01*
X165618381Y-89743420D01*
X165667496Y-89703931D01*
X165688063Y-89690472D01*
X165744468Y-89660984D01*
X165767263Y-89651775D01*
X165789055Y-89645361D01*
X165828324Y-89633803D01*
X165852477Y-89629196D01*
X165900717Y-89624806D01*
X165915853Y-89623428D01*
X165940439Y-89623599D01*
G37*
%TD.AperFunction*%
%TA.AperFunction,Conductor*%
G36*
X171191146Y-88624251D02*
G01*
X171230029Y-88628888D01*
X171257375Y-88635302D01*
X171294263Y-88648437D01*
X171308974Y-88655614D01*
X171309269Y-88655024D01*
X171309271Y-88655025D01*
X171318734Y-88660375D01*
X171319529Y-88660763D01*
X171320432Y-88661336D01*
X171320436Y-88661338D01*
X171352574Y-88681733D01*
X171374461Y-88699332D01*
X171402052Y-88727116D01*
X171419500Y-88749128D01*
X171421619Y-88752519D01*
X171440253Y-88782340D01*
X171452391Y-88807676D01*
X171465266Y-88844651D01*
X171471488Y-88872037D01*
X171476130Y-88913412D01*
X171475690Y-88944992D01*
X171469897Y-88986213D01*
X171462910Y-89013420D01*
X171449001Y-89050034D01*
X171436163Y-89075015D01*
X171421266Y-89097438D01*
X171414499Y-89107623D01*
X171396442Y-89129142D01*
X171368081Y-89156150D01*
X171345708Y-89173133D01*
X171322100Y-89187206D01*
X171312075Y-89193182D01*
X171286496Y-89204785D01*
X171249252Y-89216886D01*
X171221738Y-89222534D01*
X171182743Y-89226083D01*
X171154660Y-89225495D01*
X171129186Y-89222096D01*
X171129185Y-89222096D01*
X171122864Y-89221253D01*
X171115850Y-89220317D01*
X171088590Y-89213521D01*
X171051885Y-89199870D01*
X171026816Y-89187206D01*
X171010432Y-89176485D01*
X171010431Y-89176485D01*
X171010430Y-89176484D01*
X170994047Y-89165763D01*
X170972407Y-89147861D01*
X170945206Y-89119694D01*
X170928066Y-89097438D01*
X170907780Y-89063942D01*
X170895998Y-89038442D01*
X170883641Y-89001296D01*
X170877800Y-88973818D01*
X170873978Y-88934835D01*
X170874370Y-88906757D01*
X170879279Y-88867902D01*
X170885883Y-88840605D01*
X170899277Y-88803808D01*
X170911767Y-88778648D01*
X170932980Y-88745733D01*
X170950731Y-88723968D01*
X170978705Y-88696573D01*
X171000842Y-88679278D01*
X171034195Y-88658759D01*
X171059611Y-88646798D01*
X171096679Y-88634179D01*
X171124114Y-88628147D01*
X171136528Y-88626842D01*
X171163059Y-88624054D01*
X171191146Y-88624251D01*
G37*
%TD.AperFunction*%
%TA.AperFunction,Conductor*%
G36*
X157670460Y-84824347D02*
G01*
X157680582Y-84825142D01*
X157739144Y-84832125D01*
X157766493Y-84838540D01*
X157803376Y-84851674D01*
X157828621Y-84863987D01*
X157861687Y-84884971D01*
X157883578Y-84902571D01*
X157911164Y-84930349D01*
X157928615Y-84952367D01*
X157949368Y-84985580D01*
X157961505Y-85010913D01*
X157974380Y-85047887D01*
X157980602Y-85075274D01*
X157985244Y-85116649D01*
X157984804Y-85148229D01*
X157980158Y-85181290D01*
X157979011Y-85189453D01*
X157972026Y-85216656D01*
X157958118Y-85253268D01*
X157945283Y-85278243D01*
X157923608Y-85310867D01*
X157905556Y-85332379D01*
X157877195Y-85359387D01*
X157854822Y-85376370D01*
X157821189Y-85396419D01*
X157795610Y-85408022D01*
X157758366Y-85420123D01*
X157730851Y-85425771D01*
X157637420Y-85434274D01*
X157567767Y-85420529D01*
X157516602Y-85371308D01*
X157500000Y-85308793D01*
X157500000Y-84948745D01*
X157520002Y-84880624D01*
X157573658Y-84834131D01*
X157630797Y-84822836D01*
X157670460Y-84824347D01*
G37*
%TD.AperFunction*%
%TA.AperFunction,Conductor*%
G36*
X160888071Y-81436920D02*
G01*
X160926954Y-81441557D01*
X160954301Y-81447971D01*
X160991183Y-81461104D01*
X161012083Y-81471297D01*
X161012186Y-81471106D01*
X161012199Y-81471113D01*
X161014659Y-81472553D01*
X161016428Y-81473416D01*
X161019080Y-81475099D01*
X161019963Y-81475659D01*
X161019965Y-81475660D01*
X161049503Y-81494405D01*
X161071388Y-81512001D01*
X161082172Y-81522860D01*
X161098979Y-81539785D01*
X161116424Y-81561796D01*
X161130384Y-81584137D01*
X161132766Y-81587949D01*
X161137173Y-81595001D01*
X161149312Y-81620334D01*
X161162193Y-81657323D01*
X161168414Y-81684706D01*
X161173056Y-81726083D01*
X161172615Y-81757661D01*
X161168153Y-81789411D01*
X161166822Y-81798885D01*
X161159837Y-81826088D01*
X161150332Y-81851109D01*
X161145929Y-81862700D01*
X161133094Y-81887675D01*
X161111419Y-81920299D01*
X161093367Y-81941811D01*
X161065007Y-81968818D01*
X161042632Y-81985802D01*
X161009001Y-82005850D01*
X160983421Y-82017454D01*
X160946177Y-82029555D01*
X160918662Y-82035203D01*
X160899164Y-82036978D01*
X160879667Y-82038752D01*
X160851583Y-82038164D01*
X160829392Y-82035203D01*
X160823838Y-82034462D01*
X160823831Y-82034461D01*
X160812766Y-82032984D01*
X160785519Y-82026190D01*
X160748816Y-82012541D01*
X160723741Y-81999875D01*
X160690974Y-81978433D01*
X160669331Y-81960529D01*
X160642133Y-81932365D01*
X160624992Y-81910106D01*
X160604704Y-81876605D01*
X160592923Y-81851109D01*
X160580566Y-81813964D01*
X160574725Y-81786486D01*
X160570903Y-81747506D01*
X160571295Y-81719426D01*
X160576203Y-81680572D01*
X160582806Y-81653282D01*
X160596203Y-81616475D01*
X160608692Y-81591317D01*
X160629903Y-81558404D01*
X160647655Y-81536637D01*
X160675631Y-81509240D01*
X160697764Y-81491947D01*
X160731125Y-81471424D01*
X160756536Y-81459467D01*
X160793606Y-81446848D01*
X160821039Y-81440816D01*
X160833453Y-81439511D01*
X160859984Y-81436723D01*
X160888071Y-81436920D01*
G37*
%TD.AperFunction*%
%TA.AperFunction,Conductor*%
G36*
X166266143Y-80999250D02*
G01*
X166305031Y-81003887D01*
X166332378Y-81010302D01*
X166369262Y-81023436D01*
X166394502Y-81035746D01*
X166427576Y-81056735D01*
X166449463Y-81074334D01*
X166477053Y-81102117D01*
X166494496Y-81124123D01*
X166515257Y-81157345D01*
X166527391Y-81182674D01*
X166540266Y-81219648D01*
X166546488Y-81247035D01*
X166551130Y-81288412D01*
X166550690Y-81319992D01*
X166545000Y-81360481D01*
X166544897Y-81361213D01*
X166537910Y-81388420D01*
X166524001Y-81425034D01*
X166511163Y-81450015D01*
X166494122Y-81475665D01*
X166489499Y-81482623D01*
X166471442Y-81504142D01*
X166443081Y-81531150D01*
X166420708Y-81548133D01*
X166404429Y-81557837D01*
X166387075Y-81568182D01*
X166361496Y-81579785D01*
X166324252Y-81591886D01*
X166296738Y-81597534D01*
X166257743Y-81601083D01*
X166229660Y-81600495D01*
X166204186Y-81597096D01*
X166204185Y-81597096D01*
X166197864Y-81596253D01*
X166190850Y-81595317D01*
X166163591Y-81588521D01*
X166126888Y-81574871D01*
X166101816Y-81562206D01*
X166069049Y-81540764D01*
X166047406Y-81522860D01*
X166020205Y-81494693D01*
X166003071Y-81472445D01*
X165982779Y-81438939D01*
X165970999Y-81413445D01*
X165958640Y-81376292D01*
X165952800Y-81348817D01*
X165948978Y-81309838D01*
X165949370Y-81281757D01*
X165954279Y-81242902D01*
X165960880Y-81215616D01*
X165974278Y-81178805D01*
X165986765Y-81153651D01*
X166007979Y-81120733D01*
X166025733Y-81098965D01*
X166050253Y-81074953D01*
X166050259Y-81074947D01*
X166053712Y-81071566D01*
X166075842Y-81054278D01*
X166109195Y-81033759D01*
X166134611Y-81021798D01*
X166171679Y-81009179D01*
X166199114Y-81003147D01*
X166211528Y-81001842D01*
X166238059Y-80999054D01*
X166266143Y-80999250D01*
G37*
%TD.AperFunction*%
%TA.AperFunction,Conductor*%
G36*
X173734598Y-79614445D02*
G01*
X173740335Y-79617521D01*
X173746547Y-79621887D01*
X173753622Y-79624645D01*
X173753623Y-79624646D01*
X173897434Y-79680716D01*
X173904513Y-79683476D01*
X173912046Y-79684468D01*
X173912047Y-79684468D01*
X173981520Y-79693614D01*
X174033826Y-79700500D01*
X175355124Y-79700500D01*
X175423245Y-79720502D01*
X175469738Y-79774158D01*
X175479626Y-79845337D01*
X175477171Y-79853411D01*
X175475792Y-79997997D01*
X175476389Y-80002448D01*
X175476389Y-80002453D01*
X175479156Y-80023093D01*
X175484918Y-80066071D01*
X175485214Y-80067651D01*
X175485217Y-80067669D01*
X175493512Y-80111928D01*
X175494642Y-80117957D01*
X175498105Y-80126625D01*
X175501288Y-80134594D01*
X175506419Y-80155561D01*
X175505462Y-80155872D01*
X175523506Y-80211406D01*
X175540636Y-80264128D01*
X175546113Y-80289890D01*
X175551047Y-80336833D01*
X175551047Y-80363167D01*
X175550926Y-80364322D01*
X175546113Y-80410109D01*
X175540636Y-80435872D01*
X175508998Y-80533245D01*
X175468925Y-80591851D01*
X175403528Y-80619488D01*
X175359924Y-80616266D01*
X175356762Y-80614956D01*
X175348578Y-80613879D01*
X175348576Y-80613878D01*
X175208188Y-80595396D01*
X175200000Y-80594318D01*
X175043238Y-80614956D01*
X174897159Y-80675464D01*
X174771718Y-80771718D01*
X174675464Y-80897159D01*
X174644558Y-80971773D01*
X174641409Y-80979375D01*
X174596861Y-81034656D01*
X174529497Y-81057077D01*
X174460706Y-81039519D01*
X174412328Y-80987557D01*
X174408591Y-80979375D01*
X174405442Y-80971773D01*
X174374536Y-80897159D01*
X174278282Y-80771718D01*
X174152841Y-80675464D01*
X174006762Y-80614956D01*
X173850000Y-80594318D01*
X173841812Y-80595396D01*
X173701424Y-80613878D01*
X173701422Y-80613879D01*
X173693238Y-80614956D01*
X173690827Y-80615955D01*
X173622465Y-80614325D01*
X173563671Y-80574528D01*
X173541002Y-80533245D01*
X173509364Y-80435872D01*
X173503887Y-80410109D01*
X173499074Y-80364322D01*
X173498953Y-80363167D01*
X173498953Y-80336833D01*
X173503887Y-80289890D01*
X173509364Y-80264128D01*
X173542092Y-80163401D01*
X173542092Y-80163399D01*
X173544538Y-80155872D01*
X173543398Y-80155502D01*
X173544164Y-80150871D01*
X173549186Y-80134594D01*
X173565457Y-80081849D01*
X173567190Y-80072308D01*
X173575453Y-80026797D01*
X173576126Y-80023093D01*
X173583396Y-79902062D01*
X173575262Y-79862425D01*
X173555232Y-79764832D01*
X173554327Y-79760422D01*
X173553758Y-79758841D01*
X173554591Y-79688562D01*
X173593679Y-79629295D01*
X173658605Y-79600569D01*
X173734598Y-79614445D01*
G37*
%TD.AperFunction*%
%TA.AperFunction,Conductor*%
G36*
X158190439Y-80073599D02*
G01*
X158246363Y-80079477D01*
X158253744Y-80080253D01*
X158277831Y-80085198D01*
X158338622Y-80104016D01*
X158361288Y-80113543D01*
X158364756Y-80115418D01*
X158364767Y-80115424D01*
X158417281Y-80143818D01*
X158437668Y-80157569D01*
X158480788Y-80193241D01*
X158480790Y-80193243D01*
X158486705Y-80198136D01*
X158504034Y-80215586D01*
X158529593Y-80246925D01*
X158544253Y-80264900D01*
X158557860Y-80285380D01*
X158587745Y-80341585D01*
X158597116Y-80364322D01*
X158615509Y-80425244D01*
X158620286Y-80449365D01*
X158626944Y-80517265D01*
X158626552Y-80545345D01*
X158617999Y-80613050D01*
X158612554Y-80637014D01*
X158598329Y-80679775D01*
X158592464Y-80697407D01*
X158582463Y-80719869D01*
X158555863Y-80766695D01*
X158551026Y-80775209D01*
X158536853Y-80795301D01*
X158516058Y-80819392D01*
X158495266Y-80843480D01*
X158477458Y-80860437D01*
X158427301Y-80899624D01*
X158406538Y-80912801D01*
X158349731Y-80941496D01*
X158326805Y-80950388D01*
X158290769Y-80960449D01*
X158290767Y-80960450D01*
X158265504Y-80967504D01*
X158241295Y-80971772D01*
X158205601Y-80974519D01*
X158177836Y-80976655D01*
X158153251Y-80976140D01*
X158090055Y-80968604D01*
X158066040Y-80963323D01*
X158005516Y-80943658D01*
X157982981Y-80933813D01*
X157955231Y-80918304D01*
X157955209Y-80918293D01*
X157955201Y-80918288D01*
X157955197Y-80918286D01*
X157935414Y-80907230D01*
X157927418Y-80902761D01*
X157907226Y-80888727D01*
X157858761Y-80847480D01*
X157841679Y-80829791D01*
X157826955Y-80811214D01*
X157826943Y-80811198D01*
X157802149Y-80779917D01*
X157788830Y-80759250D01*
X157759735Y-80702637D01*
X157750683Y-80679775D01*
X157741957Y-80649344D01*
X157736117Y-80628978D01*
X157733140Y-80618593D01*
X157728702Y-80594414D01*
X157726640Y-80569853D01*
X157723376Y-80530990D01*
X157723719Y-80506402D01*
X157730117Y-80449365D01*
X157730813Y-80443155D01*
X157735926Y-80419102D01*
X157736759Y-80416478D01*
X157755171Y-80358434D01*
X157764859Y-80335833D01*
X157795518Y-80280065D01*
X157809409Y-80259776D01*
X157820192Y-80246925D01*
X157820193Y-80246924D01*
X157850316Y-80211024D01*
X157867884Y-80193821D01*
X157917493Y-80153934D01*
X157938063Y-80140472D01*
X157994468Y-80110984D01*
X158017263Y-80101775D01*
X158018505Y-80101409D01*
X158078324Y-80083803D01*
X158102477Y-80079196D01*
X158150717Y-80074806D01*
X158165853Y-80073428D01*
X158190439Y-80073599D01*
G37*
%TD.AperFunction*%
%TA.AperFunction,Conductor*%
G36*
X172784892Y-78718001D02*
G01*
X172823782Y-78722639D01*
X172851127Y-78729053D01*
X172888012Y-78742187D01*
X172913259Y-78754500D01*
X172955066Y-78781032D01*
X173006762Y-78809762D01*
X173033139Y-78822471D01*
X173034837Y-78823170D01*
X173034847Y-78823175D01*
X173050262Y-78829525D01*
X173087806Y-78844992D01*
X173229803Y-78872263D01*
X173259371Y-78873652D01*
X173326477Y-78896828D01*
X173370401Y-78952607D01*
X173379455Y-79000172D01*
X173379031Y-79081105D01*
X173380805Y-79088492D01*
X173380805Y-79088496D01*
X173417027Y-79239367D01*
X173413481Y-79310275D01*
X173372161Y-79368009D01*
X173306188Y-79394240D01*
X173232826Y-79378651D01*
X173186924Y-79352880D01*
X173186922Y-79352879D01*
X173179063Y-79348467D01*
X173170280Y-79346448D01*
X173170278Y-79346447D01*
X173042538Y-79317079D01*
X173042534Y-79317078D01*
X173038148Y-79316070D01*
X173033656Y-79315696D01*
X173033653Y-79315695D01*
X173017862Y-79314379D01*
X172974672Y-79310778D01*
X172974473Y-79313172D01*
X172964585Y-79313916D01*
X172890801Y-79310073D01*
X172890799Y-79310073D01*
X172886306Y-79309839D01*
X172776494Y-79319833D01*
X172748411Y-79319245D01*
X172722936Y-79315846D01*
X172722935Y-79315846D01*
X172722928Y-79315845D01*
X172716860Y-79315036D01*
X172709588Y-79314065D01*
X172682342Y-79307271D01*
X172645642Y-79293623D01*
X172620567Y-79280957D01*
X172587799Y-79259514D01*
X172566157Y-79241611D01*
X172554491Y-79229531D01*
X172554489Y-79229529D01*
X172538957Y-79213445D01*
X172521818Y-79191189D01*
X172501531Y-79157691D01*
X172489749Y-79132192D01*
X172477391Y-79095043D01*
X172471550Y-79067567D01*
X172467728Y-79028588D01*
X172468121Y-79000499D01*
X172473028Y-78961659D01*
X172479632Y-78934360D01*
X172484775Y-78920230D01*
X172493027Y-78897558D01*
X172505516Y-78872398D01*
X172523178Y-78844992D01*
X172526728Y-78839484D01*
X172544479Y-78817718D01*
X172572459Y-78790318D01*
X172594583Y-78773032D01*
X172627953Y-78752503D01*
X172653361Y-78740548D01*
X172690431Y-78727929D01*
X172717862Y-78721897D01*
X172721989Y-78721463D01*
X172756804Y-78717804D01*
X172784892Y-78718001D01*
G37*
%TD.AperFunction*%
%TA.AperFunction,Conductor*%
G36*
X155975892Y-78217151D02*
G01*
X155980363Y-78219272D01*
X155987835Y-78222817D01*
X156051256Y-78242449D01*
X156088626Y-78254017D01*
X156111294Y-78263546D01*
X156147056Y-78282882D01*
X156147057Y-78282883D01*
X156167283Y-78293819D01*
X156187670Y-78307570D01*
X156192012Y-78311162D01*
X156192017Y-78311166D01*
X156236702Y-78348133D01*
X156254029Y-78365582D01*
X156289993Y-78409678D01*
X156290027Y-78409719D01*
X156294252Y-78414899D01*
X156307863Y-78435385D01*
X156337744Y-78491583D01*
X156347115Y-78514319D01*
X156365509Y-78575244D01*
X156370286Y-78599365D01*
X156376944Y-78667265D01*
X156376552Y-78695345D01*
X156367999Y-78763050D01*
X156362554Y-78787014D01*
X156343404Y-78844580D01*
X156342464Y-78847407D01*
X156332463Y-78869869D01*
X156310097Y-78909242D01*
X156301026Y-78925209D01*
X156286853Y-78945301D01*
X156266059Y-78969392D01*
X156245266Y-78993480D01*
X156227458Y-79010437D01*
X156177301Y-79049624D01*
X156156538Y-79062801D01*
X156099731Y-79091496D01*
X156076805Y-79100388D01*
X156040769Y-79110449D01*
X156040767Y-79110450D01*
X156015504Y-79117504D01*
X155991295Y-79121772D01*
X155955601Y-79124519D01*
X155927836Y-79126655D01*
X155903251Y-79126140D01*
X155840055Y-79118604D01*
X155816040Y-79113323D01*
X155755513Y-79093657D01*
X155732978Y-79083812D01*
X155692837Y-79061378D01*
X155692832Y-79061375D01*
X155677421Y-79052762D01*
X155657229Y-79038728D01*
X155608760Y-78997478D01*
X155591678Y-78979789D01*
X155552260Y-78930056D01*
X155552235Y-78930023D01*
X155552132Y-78929893D01*
X155552112Y-78929862D01*
X155549398Y-78926303D01*
X155549387Y-78926288D01*
X155549674Y-78926078D01*
X155538826Y-78909242D01*
X155538605Y-78908812D01*
X155538602Y-78908807D01*
X155509737Y-78852640D01*
X155500686Y-78829779D01*
X155483141Y-78768596D01*
X155478701Y-78744407D01*
X155473376Y-78680992D01*
X155473719Y-78656404D01*
X155480813Y-78593160D01*
X155485926Y-78569106D01*
X155505174Y-78508429D01*
X155514857Y-78485836D01*
X155524603Y-78468108D01*
X155545516Y-78430068D01*
X155559418Y-78409766D01*
X155559458Y-78409719D01*
X155560740Y-78408191D01*
X155560741Y-78408190D01*
X155567198Y-78400495D01*
X155600321Y-78361021D01*
X155617889Y-78343818D01*
X155667492Y-78303935D01*
X155688063Y-78290472D01*
X155744467Y-78260985D01*
X155767264Y-78251775D01*
X155798952Y-78242449D01*
X155799022Y-78242428D01*
X155799868Y-78242179D01*
X155799888Y-78242173D01*
X155801819Y-78241604D01*
X155811019Y-78238242D01*
X155861034Y-78219965D01*
X155861038Y-78219963D01*
X155862930Y-78219272D01*
X155864767Y-78218464D01*
X155864794Y-78218453D01*
X155871146Y-78215658D01*
X155941554Y-78206535D01*
X155975892Y-78217151D01*
G37*
%TD.AperFunction*%
%TA.AperFunction,Conductor*%
G36*
X170266143Y-77799251D02*
G01*
X170305033Y-77803889D01*
X170332375Y-77810301D01*
X170356461Y-77818878D01*
X170356464Y-77818879D01*
X170356487Y-77818887D01*
X170356505Y-77818894D01*
X170369254Y-77823433D01*
X170394504Y-77835747D01*
X170423701Y-77854276D01*
X170427577Y-77856736D01*
X170449465Y-77874336D01*
X170477052Y-77902116D01*
X170494500Y-77924129D01*
X170512950Y-77953654D01*
X170515253Y-77957340D01*
X170527391Y-77982676D01*
X170540266Y-78019651D01*
X170546488Y-78047037D01*
X170551130Y-78088412D01*
X170550690Y-78119992D01*
X170550415Y-78121952D01*
X170544897Y-78161216D01*
X170537912Y-78188419D01*
X170524845Y-78222817D01*
X170524004Y-78225031D01*
X170511169Y-78250006D01*
X170489494Y-78282630D01*
X170471442Y-78304142D01*
X170443081Y-78331150D01*
X170420708Y-78348133D01*
X170387075Y-78368182D01*
X170361496Y-78379785D01*
X170324252Y-78391886D01*
X170296738Y-78397534D01*
X170257743Y-78401083D01*
X170229660Y-78400495D01*
X170204186Y-78397096D01*
X170204179Y-78397095D01*
X170190846Y-78395316D01*
X170163592Y-78388521D01*
X170126892Y-78374873D01*
X170101817Y-78362207D01*
X170069049Y-78340764D01*
X170047406Y-78322860D01*
X170029130Y-78303935D01*
X170020205Y-78294693D01*
X170003066Y-78272438D01*
X169992665Y-78255263D01*
X169982779Y-78238941D01*
X169971000Y-78213447D01*
X169958639Y-78176289D01*
X169952800Y-78148818D01*
X169948978Y-78109836D01*
X169949370Y-78081756D01*
X169954279Y-78042899D01*
X169960882Y-78015608D01*
X169974275Y-77978811D01*
X169986763Y-77953654D01*
X170007979Y-77920733D01*
X170025732Y-77898966D01*
X170050883Y-77874336D01*
X170053708Y-77871570D01*
X170075839Y-77854278D01*
X170109195Y-77833757D01*
X170134611Y-77821798D01*
X170171680Y-77809179D01*
X170199113Y-77803147D01*
X170209751Y-77802029D01*
X170238055Y-77799054D01*
X170266143Y-77799251D01*
G37*
%TD.AperFunction*%
%TA.AperFunction,Conductor*%
G36*
X176891143Y-76674250D02*
G01*
X176930031Y-76678887D01*
X176957378Y-76685302D01*
X176991131Y-76697321D01*
X176991133Y-76697322D01*
X176994260Y-76698435D01*
X176994878Y-76698737D01*
X176995659Y-76699032D01*
X176995664Y-76699034D01*
X176995635Y-76699106D01*
X177019506Y-76710749D01*
X177052576Y-76731736D01*
X177074469Y-76749338D01*
X177102054Y-76777117D01*
X177119498Y-76799126D01*
X177140255Y-76832343D01*
X177152390Y-76857673D01*
X177165266Y-76894650D01*
X177171488Y-76922037D01*
X177176130Y-76963412D01*
X177175690Y-76994992D01*
X177171639Y-77023819D01*
X177169897Y-77036213D01*
X177162910Y-77063420D01*
X177149001Y-77100034D01*
X177136163Y-77125015D01*
X177121266Y-77147438D01*
X177114499Y-77157623D01*
X177096442Y-77179142D01*
X177068081Y-77206150D01*
X177045708Y-77223133D01*
X177022100Y-77237206D01*
X177012075Y-77243182D01*
X176986496Y-77254785D01*
X176949252Y-77266886D01*
X176921738Y-77272534D01*
X176882743Y-77276083D01*
X176854660Y-77275495D01*
X176829186Y-77272096D01*
X176829185Y-77272096D01*
X176822864Y-77271253D01*
X176815850Y-77270317D01*
X176788591Y-77263521D01*
X176751888Y-77249871D01*
X176726816Y-77237206D01*
X176694049Y-77215764D01*
X176672406Y-77197860D01*
X176645206Y-77169694D01*
X176628066Y-77147438D01*
X176607780Y-77113942D01*
X176595998Y-77088442D01*
X176583641Y-77051296D01*
X176577800Y-77023819D01*
X176573978Y-76984837D01*
X176574371Y-76956749D01*
X176579278Y-76917909D01*
X176585882Y-76890609D01*
X176599277Y-76853808D01*
X176611764Y-76828651D01*
X176632983Y-76795727D01*
X176650722Y-76773975D01*
X176652866Y-76771875D01*
X176652872Y-76771872D01*
X176652871Y-76771871D01*
X176678708Y-76746569D01*
X176700844Y-76729275D01*
X176734196Y-76708757D01*
X176759611Y-76696798D01*
X176796681Y-76684179D01*
X176824114Y-76678147D01*
X176836528Y-76676842D01*
X176863059Y-76674054D01*
X176891143Y-76674250D01*
G37*
%TD.AperFunction*%
%TA.AperFunction,Conductor*%
G36*
X155890439Y-76123599D02*
G01*
X155939636Y-76128770D01*
X155953743Y-76130253D01*
X155977829Y-76135198D01*
X156038630Y-76154019D01*
X156061293Y-76163545D01*
X156097056Y-76182882D01*
X156111758Y-76190831D01*
X156117279Y-76193816D01*
X156137666Y-76207567D01*
X156164367Y-76229656D01*
X156164368Y-76229657D01*
X156186707Y-76248137D01*
X156204029Y-76265580D01*
X156244257Y-76314905D01*
X156257862Y-76335382D01*
X156287378Y-76390893D01*
X156287745Y-76391584D01*
X156297115Y-76414319D01*
X156310596Y-76458970D01*
X156310599Y-76458982D01*
X156315509Y-76475243D01*
X156320287Y-76499368D01*
X156320817Y-76504777D01*
X156326944Y-76567266D01*
X156326552Y-76595345D01*
X156317999Y-76663050D01*
X156312554Y-76687014D01*
X156294378Y-76741653D01*
X156292464Y-76747407D01*
X156282461Y-76769873D01*
X156251023Y-76825212D01*
X156236849Y-76845305D01*
X156195268Y-76893477D01*
X156177462Y-76910434D01*
X156127305Y-76949622D01*
X156106539Y-76962800D01*
X156049729Y-76991496D01*
X156026811Y-77000386D01*
X156004815Y-77006528D01*
X156002715Y-77007279D01*
X156002708Y-77007281D01*
X155979979Y-77015407D01*
X155936881Y-77030815D01*
X155928599Y-77034458D01*
X155858191Y-77043573D01*
X155827080Y-77033714D01*
X155826917Y-77034115D01*
X155822750Y-77032424D01*
X155818709Y-77030437D01*
X155769661Y-77014500D01*
X155705512Y-76993657D01*
X155682978Y-76983812D01*
X155655199Y-76968287D01*
X155627425Y-76952765D01*
X155607231Y-76938730D01*
X155592350Y-76926065D01*
X155592014Y-76925778D01*
X155592007Y-76925772D01*
X155558762Y-76897479D01*
X155541680Y-76879791D01*
X155502149Y-76829917D01*
X155488833Y-76809256D01*
X155464316Y-76761551D01*
X155459735Y-76752636D01*
X155450686Y-76729782D01*
X155442534Y-76701352D01*
X155433140Y-76668592D01*
X155428701Y-76644406D01*
X155423376Y-76580992D01*
X155423719Y-76556403D01*
X155430814Y-76493153D01*
X155435927Y-76469101D01*
X155455170Y-76408439D01*
X155464857Y-76385837D01*
X155487476Y-76344693D01*
X155495517Y-76330067D01*
X155509408Y-76309778D01*
X155527330Y-76288420D01*
X155550319Y-76261022D01*
X155567888Y-76243817D01*
X155606363Y-76212882D01*
X155617494Y-76203933D01*
X155638068Y-76190470D01*
X155677233Y-76169995D01*
X155694464Y-76160987D01*
X155717260Y-76151776D01*
X155726027Y-76149196D01*
X155726028Y-76149195D01*
X155778323Y-76133803D01*
X155802475Y-76129196D01*
X155850717Y-76124806D01*
X155865853Y-76123428D01*
X155890439Y-76123599D01*
G37*
%TD.AperFunction*%
%TA.AperFunction,Conductor*%
G36*
X151315439Y-75898599D02*
G01*
X151369469Y-75904278D01*
X151378744Y-75905253D01*
X151402829Y-75910198D01*
X151463628Y-75929018D01*
X151486296Y-75938546D01*
X151518065Y-75955724D01*
X151518068Y-75955726D01*
X151542284Y-75968820D01*
X151562668Y-75982569D01*
X151587731Y-76003303D01*
X151587735Y-76003306D01*
X151608799Y-76020731D01*
X151611707Y-76023137D01*
X151629030Y-76040581D01*
X151669256Y-76089904D01*
X151682860Y-76110380D01*
X151712744Y-76166583D01*
X151722111Y-76189306D01*
X151723614Y-76194285D01*
X151723616Y-76194292D01*
X151740366Y-76249766D01*
X151740510Y-76250244D01*
X151745287Y-76274367D01*
X151746647Y-76288240D01*
X151751944Y-76342266D01*
X151751552Y-76370345D01*
X151742999Y-76438050D01*
X151737554Y-76462014D01*
X151717703Y-76521688D01*
X151717464Y-76522407D01*
X151707463Y-76544869D01*
X151686753Y-76581327D01*
X151676026Y-76600209D01*
X151661853Y-76620301D01*
X151641059Y-76644392D01*
X151620266Y-76668480D01*
X151602458Y-76685438D01*
X151552302Y-76724624D01*
X151531540Y-76737800D01*
X151474738Y-76766493D01*
X151451811Y-76775386D01*
X151423870Y-76783187D01*
X151423866Y-76783188D01*
X151423860Y-76783190D01*
X151423858Y-76783191D01*
X151390504Y-76792504D01*
X151366295Y-76796773D01*
X151335669Y-76799129D01*
X151302836Y-76801655D01*
X151278251Y-76801140D01*
X151215055Y-76793604D01*
X151191040Y-76788324D01*
X151130507Y-76768656D01*
X151107977Y-76758812D01*
X151052425Y-76727765D01*
X151032232Y-76713731D01*
X151028729Y-76710749D01*
X150983759Y-76672477D01*
X150966677Y-76654788D01*
X150927150Y-76604918D01*
X150913829Y-76584248D01*
X150884737Y-76527642D01*
X150875684Y-76504777D01*
X150858140Y-76443593D01*
X150853701Y-76419407D01*
X150849582Y-76370352D01*
X150848376Y-76355993D01*
X150848719Y-76331404D01*
X150855023Y-76275208D01*
X150855814Y-76268151D01*
X150860927Y-76244102D01*
X150876417Y-76195269D01*
X150877825Y-76190831D01*
X150877830Y-76190824D01*
X150877828Y-76190823D01*
X150880173Y-76183432D01*
X150889858Y-76160838D01*
X150900708Y-76141101D01*
X150900726Y-76141067D01*
X150920518Y-76105065D01*
X150934409Y-76084778D01*
X150975319Y-76036023D01*
X150992886Y-76018820D01*
X151042491Y-75978935D01*
X151063063Y-75965472D01*
X151119468Y-75935984D01*
X151142263Y-75926775D01*
X151159944Y-75921571D01*
X151203324Y-75908803D01*
X151227477Y-75904196D01*
X151275717Y-75899806D01*
X151290853Y-75898428D01*
X151315439Y-75898599D01*
G37*
%TD.AperFunction*%
%TA.AperFunction,Conductor*%
G36*
X166366144Y-75899250D02*
G01*
X166385585Y-75901568D01*
X166405025Y-75903886D01*
X166432373Y-75910301D01*
X166469261Y-75923436D01*
X166494509Y-75935750D01*
X166527573Y-75956733D01*
X166549462Y-75974332D01*
X166573714Y-75998754D01*
X166577055Y-76002118D01*
X166594499Y-76024128D01*
X166601933Y-76036023D01*
X166615252Y-76057338D01*
X166627390Y-76082672D01*
X166640267Y-76119651D01*
X166646490Y-76147041D01*
X166651131Y-76188414D01*
X166650690Y-76219994D01*
X166644924Y-76261022D01*
X166644897Y-76261213D01*
X166637910Y-76288420D01*
X166624001Y-76325034D01*
X166611162Y-76350016D01*
X166589498Y-76382623D01*
X166571444Y-76404140D01*
X166560342Y-76414713D01*
X166543081Y-76431150D01*
X166520710Y-76448131D01*
X166505334Y-76457297D01*
X166487074Y-76468182D01*
X166464510Y-76478420D01*
X166464595Y-76478646D01*
X166464587Y-76478649D01*
X166462046Y-76479538D01*
X166461521Y-76479776D01*
X166459316Y-76480493D01*
X166459281Y-76480505D01*
X166424254Y-76491886D01*
X166396739Y-76497534D01*
X166357743Y-76501083D01*
X166329660Y-76500495D01*
X166304186Y-76497096D01*
X166304185Y-76497096D01*
X166297864Y-76496253D01*
X166290850Y-76495317D01*
X166263590Y-76488521D01*
X166226891Y-76474872D01*
X166201822Y-76462208D01*
X166169048Y-76440762D01*
X166147403Y-76422856D01*
X166120206Y-76394693D01*
X166103066Y-76372438D01*
X166082780Y-76338942D01*
X166070998Y-76313442D01*
X166069779Y-76309778D01*
X166058641Y-76276294D01*
X166052800Y-76248818D01*
X166048978Y-76209835D01*
X166049370Y-76181757D01*
X166054279Y-76142902D01*
X166060882Y-76115608D01*
X166062785Y-76110380D01*
X166074277Y-76078806D01*
X166086766Y-76053649D01*
X166107981Y-76020731D01*
X166125732Y-75998966D01*
X166142476Y-75982569D01*
X166153708Y-75971570D01*
X166175839Y-75954278D01*
X166209195Y-75933757D01*
X166234611Y-75921798D01*
X166271680Y-75909179D01*
X166299114Y-75903147D01*
X166314276Y-75901553D01*
X166338059Y-75899054D01*
X166366144Y-75899250D01*
G37*
%TD.AperFunction*%
%TA.AperFunction,Conductor*%
G36*
X168780498Y-75845759D02*
G01*
X168815561Y-75855143D01*
X168815516Y-75855312D01*
X168827670Y-75858625D01*
X168848641Y-75866093D01*
X168848642Y-75866094D01*
X168869265Y-75873438D01*
X168894505Y-75885747D01*
X168909528Y-75895281D01*
X168909529Y-75895282D01*
X168927576Y-75906735D01*
X168949467Y-75924336D01*
X168977054Y-75952117D01*
X168994500Y-75974128D01*
X168994854Y-75974694D01*
X169015253Y-76007339D01*
X169027389Y-76032669D01*
X169037539Y-76061818D01*
X169040267Y-76069651D01*
X169046489Y-76097039D01*
X169051130Y-76138411D01*
X169050688Y-76169995D01*
X169044893Y-76211223D01*
X169037909Y-76238426D01*
X169028620Y-76262882D01*
X169024008Y-76275023D01*
X169011167Y-76300009D01*
X168989497Y-76332625D01*
X168971443Y-76354142D01*
X168943081Y-76381150D01*
X168920714Y-76398128D01*
X168892892Y-76414713D01*
X168887071Y-76418183D01*
X168861491Y-76429786D01*
X168824251Y-76441886D01*
X168796736Y-76447534D01*
X168781628Y-76448909D01*
X168757743Y-76451083D01*
X168729660Y-76450495D01*
X168704186Y-76447096D01*
X168704179Y-76447095D01*
X168690846Y-76445316D01*
X168663592Y-76438521D01*
X168626892Y-76424873D01*
X168601817Y-76412207D01*
X168569049Y-76390764D01*
X168547406Y-76372860D01*
X168528032Y-76352798D01*
X168520204Y-76344692D01*
X168503071Y-76322445D01*
X168482779Y-76288939D01*
X168470999Y-76263445D01*
X168458640Y-76226292D01*
X168452800Y-76198817D01*
X168448978Y-76159838D01*
X168449370Y-76131757D01*
X168454278Y-76092903D01*
X168460881Y-76065612D01*
X168474277Y-76028807D01*
X168486765Y-76003650D01*
X168486992Y-76003298D01*
X168507978Y-75970734D01*
X168525731Y-75948966D01*
X168541261Y-75933758D01*
X168553709Y-75921569D01*
X168575840Y-75904278D01*
X168586732Y-75897577D01*
X168609198Y-75883756D01*
X168634607Y-75871799D01*
X168691970Y-75852272D01*
X168700204Y-75849780D01*
X168715582Y-75845696D01*
X168780498Y-75845759D01*
G37*
%TD.AperFunction*%
%TA.AperFunction,Conductor*%
G36*
X168766148Y-73999251D02*
G01*
X168805028Y-74003888D01*
X168832371Y-74010301D01*
X168869260Y-74023436D01*
X168894509Y-74035751D01*
X168927573Y-74056734D01*
X168949464Y-74074335D01*
X168977053Y-74102117D01*
X168994503Y-74124133D01*
X169015253Y-74157341D01*
X169027390Y-74182673D01*
X169040266Y-74219649D01*
X169046488Y-74247037D01*
X169051130Y-74288412D01*
X169050690Y-74319992D01*
X169046639Y-74348819D01*
X169044897Y-74361213D01*
X169037910Y-74388420D01*
X169024001Y-74425034D01*
X169011163Y-74450015D01*
X169009104Y-74453114D01*
X168990478Y-74481150D01*
X168989499Y-74482623D01*
X168971442Y-74504142D01*
X168943081Y-74531150D01*
X168920711Y-74548131D01*
X168887071Y-74568184D01*
X168861496Y-74579785D01*
X168818707Y-74593688D01*
X168798326Y-74598481D01*
X168785324Y-74600417D01*
X168780470Y-74601971D01*
X168777774Y-74602598D01*
X168714938Y-74601131D01*
X168697509Y-74596205D01*
X168693052Y-74595611D01*
X168693050Y-74595610D01*
X168690848Y-74595316D01*
X168663590Y-74588522D01*
X168626882Y-74574869D01*
X168601817Y-74562207D01*
X168569045Y-74540761D01*
X168547408Y-74522862D01*
X168543626Y-74518946D01*
X168520203Y-74494691D01*
X168503069Y-74472441D01*
X168482781Y-74438942D01*
X168470998Y-74413442D01*
X168458641Y-74376294D01*
X168452800Y-74348819D01*
X168448978Y-74309837D01*
X168449370Y-74281757D01*
X168454278Y-74242903D01*
X168460883Y-74215607D01*
X168474278Y-74178807D01*
X168486765Y-74153652D01*
X168507974Y-74120740D01*
X168525731Y-74098967D01*
X168553711Y-74071568D01*
X168575841Y-74054278D01*
X168609197Y-74033757D01*
X168634611Y-74021798D01*
X168671680Y-74009179D01*
X168699114Y-74003147D01*
X168711528Y-74001842D01*
X168738059Y-73999054D01*
X168766148Y-73999251D01*
G37*
%TD.AperFunction*%
%TA.AperFunction,Conductor*%
G36*
X166366144Y-73949250D02*
G01*
X166385585Y-73951568D01*
X166405024Y-73953886D01*
X166432372Y-73960301D01*
X166469265Y-73973438D01*
X166494513Y-73985752D01*
X166501941Y-73990466D01*
X166527573Y-74006733D01*
X166549459Y-74024329D01*
X166553962Y-74028863D01*
X166553967Y-74028869D01*
X166577052Y-74052116D01*
X166594499Y-74074128D01*
X166615252Y-74107339D01*
X166627391Y-74132676D01*
X166640266Y-74169651D01*
X166646488Y-74197037D01*
X166651130Y-74238412D01*
X166650690Y-74269992D01*
X166647067Y-74295775D01*
X166644897Y-74311213D01*
X166637910Y-74338420D01*
X166624001Y-74375034D01*
X166611163Y-74400015D01*
X166589499Y-74432623D01*
X166571442Y-74454142D01*
X166543081Y-74481150D01*
X166520708Y-74498133D01*
X166487075Y-74518182D01*
X166461496Y-74529785D01*
X166424252Y-74541886D01*
X166396738Y-74547534D01*
X166357743Y-74551083D01*
X166329660Y-74550495D01*
X166304186Y-74547096D01*
X166304185Y-74547096D01*
X166297864Y-74546253D01*
X166290850Y-74545317D01*
X166263591Y-74538521D01*
X166226888Y-74524871D01*
X166201816Y-74512206D01*
X166169049Y-74490764D01*
X166147406Y-74472860D01*
X166120207Y-74444695D01*
X166103068Y-74422440D01*
X166082779Y-74388938D01*
X166070998Y-74363441D01*
X166066134Y-74348819D01*
X166058640Y-74326293D01*
X166052800Y-74298818D01*
X166048978Y-74259837D01*
X166049370Y-74231757D01*
X166054278Y-74192903D01*
X166060881Y-74165612D01*
X166074277Y-74128806D01*
X166086765Y-74103650D01*
X166107980Y-74070731D01*
X166125732Y-74048965D01*
X166153709Y-74021568D01*
X166175833Y-74004282D01*
X166209203Y-73983753D01*
X166234611Y-73971798D01*
X166271681Y-73959179D01*
X166299114Y-73953147D01*
X166314276Y-73951553D01*
X166338059Y-73949054D01*
X166366144Y-73949250D01*
G37*
%TD.AperFunction*%
%TD*%
M02*
