%TF.GenerationSoftware,KiCad,Pcbnew,(6.0.2)*%
%TF.CreationDate,2022-11-21T22:20:46+01:00*%
%TF.ProjectId,CANap_,43414e61-70e9-42e6-9b69-6361645f7063,rev?*%
%TF.SameCoordinates,Original*%
%TF.FileFunction,Legend,Top*%
%TF.FilePolarity,Positive*%
%FSLAX46Y46*%
G04 Gerber Fmt 4.6, Leading zero omitted, Abs format (unit mm)*
G04 Created by KiCad (PCBNEW (6.0.2)) date 2022-11-21 22:20:46*
%MOMM*%
%LPD*%
G01*
G04 APERTURE LIST*
G04 Aperture macros list*
%AMRoundRect*
0 Rectangle with rounded corners*
0 $1 Rounding radius*
0 $2 $3 $4 $5 $6 $7 $8 $9 X,Y pos of 4 corners*
0 Add a 4 corners polygon primitive as box body*
4,1,4,$2,$3,$4,$5,$6,$7,$8,$9,$2,$3,0*
0 Add four circle primitives for the rounded corners*
1,1,$1+$1,$2,$3*
1,1,$1+$1,$4,$5*
1,1,$1+$1,$6,$7*
1,1,$1+$1,$8,$9*
0 Add four rect primitives between the rounded corners*
20,1,$1+$1,$2,$3,$4,$5,0*
20,1,$1+$1,$4,$5,$6,$7,0*
20,1,$1+$1,$6,$7,$8,$9,0*
20,1,$1+$1,$8,$9,$2,$3,0*%
G04 Aperture macros list end*
%ADD10C,0.200000*%
%ADD11C,0.120000*%
%ADD12C,0.800000*%
%ADD13C,6.400000*%
%ADD14RoundRect,0.250000X0.262500X0.450000X-0.262500X0.450000X-0.262500X-0.450000X0.262500X-0.450000X0*%
%ADD15RoundRect,0.250000X-0.450000X0.262500X-0.450000X-0.262500X0.450000X-0.262500X0.450000X0.262500X0*%
%ADD16RoundRect,0.250000X-0.262500X-0.450000X0.262500X-0.450000X0.262500X0.450000X-0.262500X0.450000X0*%
%ADD17RoundRect,0.250000X0.450000X-0.262500X0.450000X0.262500X-0.450000X0.262500X-0.450000X-0.262500X0*%
%ADD18C,4.000000*%
%ADD19R,1.600000X1.600000*%
%ADD20C,1.600000*%
%ADD21RoundRect,0.243750X-0.243750X-0.456250X0.243750X-0.456250X0.243750X0.456250X-0.243750X0.456250X0*%
%ADD22RoundRect,0.250000X-0.250000X-0.475000X0.250000X-0.475000X0.250000X0.475000X-0.250000X0.475000X0*%
%ADD23RoundRect,0.250000X0.250000X0.475000X-0.250000X0.475000X-0.250000X-0.475000X0.250000X-0.475000X0*%
%ADD24RoundRect,0.250000X-0.475000X0.250000X-0.475000X-0.250000X0.475000X-0.250000X0.475000X0.250000X0*%
%ADD25RoundRect,0.250000X0.475000X-0.250000X0.475000X0.250000X-0.475000X0.250000X-0.475000X-0.250000X0*%
%ADD26RoundRect,0.075000X-0.662500X-0.075000X0.662500X-0.075000X0.662500X0.075000X-0.662500X0.075000X0*%
%ADD27RoundRect,0.075000X-0.075000X-0.662500X0.075000X-0.662500X0.075000X0.662500X-0.075000X0.662500X0*%
%ADD28R,1.500000X1.500000*%
%ADD29RoundRect,0.400000X-0.400000X0.400000X-0.400000X-0.400000X0.400000X-0.400000X0.400000X0.400000X0*%
%ADD30RoundRect,0.150000X-0.150000X0.825000X-0.150000X-0.825000X0.150000X-0.825000X0.150000X0.825000X0*%
%ADD31RoundRect,0.150000X0.587500X0.150000X-0.587500X0.150000X-0.587500X-0.150000X0.587500X-0.150000X0*%
%ADD32R,1.300000X1.600000*%
%ADD33C,0.700000*%
%ADD34O,2.400000X0.900000*%
%ADD35O,1.700000X0.900000*%
G04 APERTURE END LIST*
D10*
X175440476Y-91491714D02*
X175402380Y-91529809D01*
X175288095Y-91567904D01*
X175211904Y-91567904D01*
X175097619Y-91529809D01*
X175021428Y-91453619D01*
X174983333Y-91377428D01*
X174945238Y-91225047D01*
X174945238Y-91110761D01*
X174983333Y-90958380D01*
X175021428Y-90882190D01*
X175097619Y-90806000D01*
X175211904Y-90767904D01*
X175288095Y-90767904D01*
X175402380Y-90806000D01*
X175440476Y-90844095D01*
X175745238Y-91339333D02*
X176126190Y-91339333D01*
X175669047Y-91567904D02*
X175935714Y-90767904D01*
X176202380Y-91567904D01*
X176469047Y-91567904D02*
X176469047Y-90767904D01*
X176926190Y-91567904D01*
X176926190Y-90767904D01*
X177650000Y-91567904D02*
X177650000Y-91148857D01*
X177611904Y-91072666D01*
X177535714Y-91034571D01*
X177383333Y-91034571D01*
X177307142Y-91072666D01*
X177650000Y-91529809D02*
X177573809Y-91567904D01*
X177383333Y-91567904D01*
X177307142Y-91529809D01*
X177269047Y-91453619D01*
X177269047Y-91377428D01*
X177307142Y-91301238D01*
X177383333Y-91263142D01*
X177573809Y-91263142D01*
X177650000Y-91225047D01*
X178030952Y-91567904D02*
X178030952Y-91034571D01*
X178030952Y-91186952D02*
X178069047Y-91110761D01*
X178107142Y-91072666D01*
X178183333Y-91034571D01*
X178259523Y-91034571D01*
X178411904Y-91034571D02*
X178716666Y-91034571D01*
X178526190Y-90767904D02*
X178526190Y-91453619D01*
X178564285Y-91529809D01*
X178640476Y-91567904D01*
X178716666Y-91567904D01*
X178983333Y-91567904D02*
X178983333Y-91034571D01*
X178983333Y-90767904D02*
X178945238Y-90806000D01*
X178983333Y-90844095D01*
X179021428Y-90806000D01*
X178983333Y-90767904D01*
X178983333Y-90844095D01*
X179707142Y-91529809D02*
X179630952Y-91567904D01*
X179478571Y-91567904D01*
X179402380Y-91529809D01*
X179364285Y-91491714D01*
X179326190Y-91415523D01*
X179326190Y-91186952D01*
X179364285Y-91110761D01*
X179402380Y-91072666D01*
X179478571Y-91034571D01*
X179630952Y-91034571D01*
X179707142Y-91072666D01*
X180050000Y-91567904D02*
X180050000Y-90767904D01*
X180392857Y-91567904D02*
X180392857Y-91148857D01*
X180354761Y-91072666D01*
X180278571Y-91034571D01*
X180164285Y-91034571D01*
X180088095Y-91072666D01*
X180050000Y-91110761D01*
X180888095Y-91567904D02*
X180811904Y-91529809D01*
X180773809Y-91491714D01*
X180735714Y-91415523D01*
X180735714Y-91186952D01*
X180773809Y-91110761D01*
X180811904Y-91072666D01*
X180888095Y-91034571D01*
X181002380Y-91034571D01*
X181078571Y-91072666D01*
X181116666Y-91110761D01*
X181154761Y-91186952D01*
X181154761Y-91415523D01*
X181116666Y-91491714D01*
X181078571Y-91529809D01*
X181002380Y-91567904D01*
X180888095Y-91567904D01*
X176964285Y-92855904D02*
X176964285Y-92322571D01*
X176964285Y-92474952D02*
X177002380Y-92398761D01*
X177040476Y-92360666D01*
X177116666Y-92322571D01*
X177192857Y-92322571D01*
X177764285Y-92817809D02*
X177688095Y-92855904D01*
X177535714Y-92855904D01*
X177459523Y-92817809D01*
X177421428Y-92741619D01*
X177421428Y-92436857D01*
X177459523Y-92360666D01*
X177535714Y-92322571D01*
X177688095Y-92322571D01*
X177764285Y-92360666D01*
X177802380Y-92436857D01*
X177802380Y-92513047D01*
X177421428Y-92589238D01*
X178069047Y-92322571D02*
X178259523Y-92855904D01*
X178450000Y-92322571D01*
X178716666Y-92132095D02*
X178754761Y-92094000D01*
X178830952Y-92055904D01*
X179021428Y-92055904D01*
X179097619Y-92094000D01*
X179135714Y-92132095D01*
X179173809Y-92208285D01*
X179173809Y-92284476D01*
X179135714Y-92398761D01*
X178678571Y-92855904D01*
X179173809Y-92855904D01*
X186147619Y-75011904D02*
X185766666Y-75011904D01*
X185728571Y-75392857D01*
X185766666Y-75354761D01*
X185842857Y-75316666D01*
X186033333Y-75316666D01*
X186109523Y-75354761D01*
X186147619Y-75392857D01*
X186185714Y-75469047D01*
X186185714Y-75659523D01*
X186147619Y-75735714D01*
X186109523Y-75773809D01*
X186033333Y-75811904D01*
X185842857Y-75811904D01*
X185766666Y-75773809D01*
X185728571Y-75735714D01*
X186414285Y-75011904D02*
X186680952Y-75811904D01*
X186947619Y-75011904D01*
X185309523Y-71461904D02*
X185804761Y-71461904D01*
X185538095Y-71766666D01*
X185652380Y-71766666D01*
X185728571Y-71804761D01*
X185766666Y-71842857D01*
X185804761Y-71919047D01*
X185804761Y-72109523D01*
X185766666Y-72185714D01*
X185728571Y-72223809D01*
X185652380Y-72261904D01*
X185423809Y-72261904D01*
X185347619Y-72223809D01*
X185309523Y-72185714D01*
X186033333Y-71461904D02*
X186300000Y-72261904D01*
X186566666Y-71461904D01*
X186757142Y-71461904D02*
X187252380Y-71461904D01*
X186985714Y-71766666D01*
X187100000Y-71766666D01*
X187176190Y-71804761D01*
X187214285Y-71842857D01*
X187252380Y-71919047D01*
X187252380Y-72109523D01*
X187214285Y-72185714D01*
X187176190Y-72223809D01*
X187100000Y-72261904D01*
X186871428Y-72261904D01*
X186795238Y-72223809D01*
X186757142Y-72185714D01*
X151440476Y-92711904D02*
X151897619Y-92711904D01*
X151669047Y-93511904D02*
X151669047Y-92711904D01*
X152088095Y-92711904D02*
X152621428Y-93511904D01*
X152621428Y-92711904D02*
X152088095Y-93511904D01*
X151866666Y-88711904D02*
X151600000Y-88330952D01*
X151409523Y-88711904D02*
X151409523Y-87911904D01*
X151714285Y-87911904D01*
X151790476Y-87950000D01*
X151828571Y-87988095D01*
X151866666Y-88064285D01*
X151866666Y-88178571D01*
X151828571Y-88254761D01*
X151790476Y-88292857D01*
X151714285Y-88330952D01*
X151409523Y-88330952D01*
X152133333Y-87911904D02*
X152666666Y-88711904D01*
X152666666Y-87911904D02*
X152133333Y-88711904D01*
X169414285Y-71792857D02*
X169528571Y-71830952D01*
X169566666Y-71869047D01*
X169604761Y-71945238D01*
X169604761Y-72059523D01*
X169566666Y-72135714D01*
X169528571Y-72173809D01*
X169452380Y-72211904D01*
X169147619Y-72211904D01*
X169147619Y-71411904D01*
X169414285Y-71411904D01*
X169490476Y-71450000D01*
X169528571Y-71488095D01*
X169566666Y-71564285D01*
X169566666Y-71640476D01*
X169528571Y-71716666D01*
X169490476Y-71754761D01*
X169414285Y-71792857D01*
X169147619Y-71792857D01*
X170100000Y-71411904D02*
X170252380Y-71411904D01*
X170328571Y-71450000D01*
X170404761Y-71526190D01*
X170442857Y-71678571D01*
X170442857Y-71945238D01*
X170404761Y-72097619D01*
X170328571Y-72173809D01*
X170252380Y-72211904D01*
X170100000Y-72211904D01*
X170023809Y-72173809D01*
X169947619Y-72097619D01*
X169909523Y-71945238D01*
X169909523Y-71678571D01*
X169947619Y-71526190D01*
X170023809Y-71450000D01*
X170100000Y-71411904D01*
X170938095Y-71411904D02*
X171090476Y-71411904D01*
X171166666Y-71450000D01*
X171242857Y-71526190D01*
X171280952Y-71678571D01*
X171280952Y-71945238D01*
X171242857Y-72097619D01*
X171166666Y-72173809D01*
X171090476Y-72211904D01*
X170938095Y-72211904D01*
X170861904Y-72173809D01*
X170785714Y-72097619D01*
X170747619Y-71945238D01*
X170747619Y-71678571D01*
X170785714Y-71526190D01*
X170861904Y-71450000D01*
X170938095Y-71411904D01*
X171509523Y-71411904D02*
X171966666Y-71411904D01*
X171738095Y-72211904D02*
X171738095Y-71411904D01*
X168238095Y-95361904D02*
X167971428Y-94980952D01*
X167780952Y-95361904D02*
X167780952Y-94561904D01*
X168085714Y-94561904D01*
X168161904Y-94600000D01*
X168200000Y-94638095D01*
X168238095Y-94714285D01*
X168238095Y-94828571D01*
X168200000Y-94904761D01*
X168161904Y-94942857D01*
X168085714Y-94980952D01*
X167780952Y-94980952D01*
X168580952Y-94942857D02*
X168847619Y-94942857D01*
X168961904Y-95361904D02*
X168580952Y-95361904D01*
X168580952Y-94561904D01*
X168961904Y-94561904D01*
X169266666Y-95323809D02*
X169380952Y-95361904D01*
X169571428Y-95361904D01*
X169647619Y-95323809D01*
X169685714Y-95285714D01*
X169723809Y-95209523D01*
X169723809Y-95133333D01*
X169685714Y-95057142D01*
X169647619Y-95019047D01*
X169571428Y-94980952D01*
X169419047Y-94942857D01*
X169342857Y-94904761D01*
X169304761Y-94866666D01*
X169266666Y-94790476D01*
X169266666Y-94714285D01*
X169304761Y-94638095D01*
X169342857Y-94600000D01*
X169419047Y-94561904D01*
X169609523Y-94561904D01*
X169723809Y-94600000D01*
X170066666Y-94942857D02*
X170333333Y-94942857D01*
X170447619Y-95361904D02*
X170066666Y-95361904D01*
X170066666Y-94561904D01*
X170447619Y-94561904D01*
X170676190Y-94561904D02*
X171133333Y-94561904D01*
X170904761Y-95361904D02*
X170904761Y-94561904D01*
D11*
%TO.C,R9*%
X154977064Y-95885000D02*
X154522936Y-95885000D01*
X154977064Y-94415000D02*
X154522936Y-94415000D01*
%TO.C,R8*%
X154827064Y-87135000D02*
X154372936Y-87135000D01*
X154827064Y-85665000D02*
X154372936Y-85665000D01*
%TO.C,R7*%
X175235000Y-81472936D02*
X175235000Y-81927064D01*
X173765000Y-81472936D02*
X173765000Y-81927064D01*
%TO.C,R6*%
X168027064Y-78535000D02*
X167572936Y-78535000D01*
X168027064Y-77065000D02*
X167572936Y-77065000D01*
%TO.C,R5*%
X182272936Y-76265000D02*
X182727064Y-76265000D01*
X182272936Y-77735000D02*
X182727064Y-77735000D01*
%TO.C,R4*%
X182272936Y-72865000D02*
X182727064Y-72865000D01*
X182272936Y-74335000D02*
X182727064Y-74335000D01*
%TO.C,R3*%
X185335000Y-84572936D02*
X185335000Y-85027064D01*
X183865000Y-84572936D02*
X183865000Y-85027064D01*
%TO.C,R2*%
X178865000Y-81127064D02*
X178865000Y-80672936D01*
X180335000Y-81127064D02*
X180335000Y-80672936D01*
%TO.C,R1*%
X145362936Y-76905000D02*
X145817064Y-76905000D01*
X145362936Y-78375000D02*
X145817064Y-78375000D01*
%TO.C,J2*%
X142201656Y-77450000D02*
X142634669Y-77200000D01*
X142634669Y-77700000D02*
X142201656Y-77450000D01*
X129400331Y-67505000D02*
X141740331Y-67505000D01*
X142634669Y-77200000D02*
X142634669Y-77700000D01*
X141740331Y-67505000D02*
X141740331Y-98475000D01*
X141740331Y-98475000D02*
X129400331Y-98475000D01*
%TO.C,D5*%
X153065000Y-94110000D02*
X155750000Y-94110000D01*
X153065000Y-92190000D02*
X153065000Y-94110000D01*
X155750000Y-92190000D02*
X153065000Y-92190000D01*
%TO.C,D4*%
X152915000Y-89360000D02*
X155600000Y-89360000D01*
X152915000Y-87440000D02*
X152915000Y-89360000D01*
X155600000Y-87440000D02*
X152915000Y-87440000D01*
%TO.C,D2*%
X184645000Y-77950000D02*
X187330000Y-77950000D01*
X184645000Y-76030000D02*
X184645000Y-77950000D01*
X187330000Y-76030000D02*
X184645000Y-76030000D01*
%TO.C,D1*%
X184615000Y-74560000D02*
X187300000Y-74560000D01*
X184615000Y-72640000D02*
X184615000Y-74560000D01*
X187300000Y-72640000D02*
X184615000Y-72640000D01*
%TO.C,C14*%
X158738748Y-91135000D02*
X159261252Y-91135000D01*
X158738748Y-89665000D02*
X159261252Y-89665000D01*
%TO.C,C13*%
X172461252Y-88265000D02*
X171938748Y-88265000D01*
X172461252Y-89735000D02*
X171938748Y-89735000D01*
%TO.C,C12*%
X171165000Y-78838748D02*
X171165000Y-79361252D01*
X172635000Y-78838748D02*
X172635000Y-79361252D01*
%TO.C,C11*%
X162565000Y-91938748D02*
X162565000Y-92461252D01*
X164035000Y-91938748D02*
X164035000Y-92461252D01*
%TO.C,C10*%
X161838748Y-79435000D02*
X162361252Y-79435000D01*
X161838748Y-77965000D02*
X162361252Y-77965000D01*
%TO.C,C9*%
X161838748Y-77335000D02*
X162361252Y-77335000D01*
X161838748Y-75865000D02*
X162361252Y-75865000D01*
%TO.C,C8*%
X159261252Y-87665000D02*
X158738748Y-87665000D01*
X159261252Y-89135000D02*
X158738748Y-89135000D01*
%TO.C,C7*%
X158738748Y-81435000D02*
X159261252Y-81435000D01*
X158738748Y-79965000D02*
X159261252Y-79965000D01*
%TO.C,C6*%
X185238748Y-81735000D02*
X185761252Y-81735000D01*
X185238748Y-80265000D02*
X185761252Y-80265000D01*
%TO.C,C5*%
X175765000Y-85338748D02*
X175765000Y-85861252D01*
X177235000Y-85338748D02*
X177235000Y-85861252D01*
%TO.C,C4*%
X154961252Y-71565000D02*
X154438748Y-71565000D01*
X154961252Y-73035000D02*
X154438748Y-73035000D01*
%TO.C,C3*%
X177235000Y-81961252D02*
X177235000Y-81438748D01*
X175765000Y-81961252D02*
X175765000Y-81438748D01*
%TO.C,U3*%
X170260000Y-80590000D02*
X170710000Y-80590000D01*
X170710000Y-80590000D02*
X170710000Y-81040000D01*
X163490000Y-81040000D02*
X162200000Y-81040000D01*
X163940000Y-87810000D02*
X163490000Y-87810000D01*
X170260000Y-87810000D02*
X170710000Y-87810000D01*
X163490000Y-80590000D02*
X163490000Y-81040000D01*
X170710000Y-87810000D02*
X170710000Y-87360000D01*
X163490000Y-87810000D02*
X163490000Y-87360000D01*
X163940000Y-80590000D02*
X163490000Y-80590000D01*
%TO.C,SW3*%
X167440000Y-72850000D02*
X173560000Y-72850000D01*
X167440000Y-76550000D02*
X167440000Y-72850000D01*
X173560000Y-76550000D02*
X167440000Y-76550000D01*
X173560000Y-72850000D02*
X173560000Y-76550000D01*
%TO.C,SW2*%
X148550000Y-75660000D02*
X148050000Y-75660000D01*
X143400000Y-75660000D02*
X143550000Y-75660000D01*
X150700000Y-75660000D02*
X150550000Y-75660000D01*
X150700000Y-75660000D02*
X150700000Y-67710000D01*
X150700000Y-67710000D02*
X143400000Y-67710000D01*
X146050000Y-75660000D02*
X145550000Y-75660000D01*
X143400000Y-67710000D02*
X143400000Y-75660000D01*
%TO.C,U2*%
X152105000Y-77025000D02*
X152105000Y-75075000D01*
X157225000Y-77025000D02*
X157225000Y-78975000D01*
X157225000Y-77025000D02*
X157225000Y-73575000D01*
X152105000Y-77025000D02*
X152105000Y-78975000D01*
%TO.C,D3*%
X153800000Y-81440000D02*
X153150000Y-81440000D01*
X153800000Y-84560000D02*
X153150000Y-84560000D01*
X153800000Y-84560000D02*
X155475000Y-84560000D01*
X153800000Y-81440000D02*
X154450000Y-81440000D01*
%TO.C,SW4*%
X172360000Y-94050000D02*
X166240000Y-94050000D01*
X172360000Y-90350000D02*
X172360000Y-94050000D01*
X166240000Y-90350000D02*
X172360000Y-90350000D01*
X166240000Y-94050000D02*
X166240000Y-90350000D01*
%TO.C,Y1*%
X157150000Y-81850000D02*
X157150000Y-87150000D01*
X160850000Y-81850000D02*
X157150000Y-81850000D01*
%TD*%
%LPC*%
D12*
%TO.C,REF\u002A\u002A*%
X184600000Y-96750000D03*
X186297056Y-96047056D03*
X187000000Y-94350000D03*
D13*
X184600000Y-94350000D03*
D12*
X182902944Y-92652944D03*
X182902944Y-96047056D03*
X186297056Y-92652944D03*
X184600000Y-91950000D03*
X182200000Y-94350000D03*
%TD*%
%TO.C,REF\u002A\u002A*%
X146700000Y-80600000D03*
X148397056Y-84697056D03*
X148397056Y-81302944D03*
X149100000Y-83000000D03*
D13*
X146700000Y-83000000D03*
D12*
X146700000Y-85400000D03*
X145002944Y-81302944D03*
X145002944Y-84697056D03*
X144300000Y-83000000D03*
%TD*%
D14*
%TO.C,R9*%
X155662500Y-95150000D03*
X153837500Y-95150000D03*
%TD*%
%TO.C,R8*%
X155512500Y-86400000D03*
X153687500Y-86400000D03*
%TD*%
D15*
%TO.C,R7*%
X174500000Y-80787500D03*
X174500000Y-82612500D03*
%TD*%
D14*
%TO.C,R6*%
X168712500Y-77800000D03*
X166887500Y-77800000D03*
%TD*%
D16*
%TO.C,R5*%
X181587500Y-77000000D03*
X183412500Y-77000000D03*
%TD*%
%TO.C,R4*%
X181587500Y-73600000D03*
X183412500Y-73600000D03*
%TD*%
D15*
%TO.C,R3*%
X184600000Y-83887500D03*
X184600000Y-85712500D03*
%TD*%
D17*
%TO.C,R2*%
X179600000Y-81812500D03*
X179600000Y-79987500D03*
%TD*%
D16*
%TO.C,R1*%
X144677500Y-77640000D03*
X146502500Y-77640000D03*
%TD*%
D18*
%TO.C,J2*%
X138460331Y-95490000D03*
X138460331Y-70490000D03*
D19*
X139880331Y-77450000D03*
D20*
X139880331Y-80220000D03*
X139880331Y-82990000D03*
X139880331Y-85760000D03*
X139880331Y-88530000D03*
X137040331Y-78835000D03*
X137040331Y-81605000D03*
X137040331Y-84375000D03*
X137040331Y-87145000D03*
%TD*%
D21*
%TO.C,D5*%
X153812500Y-93150000D03*
X155687500Y-93150000D03*
%TD*%
%TO.C,D4*%
X153662500Y-88400000D03*
X155537500Y-88400000D03*
%TD*%
%TO.C,D2*%
X185392500Y-76990000D03*
X187267500Y-76990000D03*
%TD*%
%TO.C,D1*%
X185362500Y-73600000D03*
X187237500Y-73600000D03*
%TD*%
D22*
%TO.C,C14*%
X158050000Y-90400000D03*
X159950000Y-90400000D03*
%TD*%
D23*
%TO.C,C13*%
X173150000Y-89000000D03*
X171250000Y-89000000D03*
%TD*%
D24*
%TO.C,C12*%
X171900000Y-78150000D03*
X171900000Y-80050000D03*
%TD*%
%TO.C,C11*%
X163300000Y-91250000D03*
X163300000Y-93150000D03*
%TD*%
D22*
%TO.C,C10*%
X161150000Y-78700000D03*
X163050000Y-78700000D03*
%TD*%
%TO.C,C9*%
X161150000Y-76600000D03*
X163050000Y-76600000D03*
%TD*%
D23*
%TO.C,C8*%
X159950000Y-88400000D03*
X158050000Y-88400000D03*
%TD*%
D22*
%TO.C,C7*%
X158050000Y-80700000D03*
X159950000Y-80700000D03*
%TD*%
%TO.C,C6*%
X184550000Y-81000000D03*
X186450000Y-81000000D03*
%TD*%
D24*
%TO.C,C5*%
X176500000Y-84650000D03*
X176500000Y-86550000D03*
%TD*%
D23*
%TO.C,C4*%
X155650000Y-72300000D03*
X153750000Y-72300000D03*
%TD*%
D25*
%TO.C,C3*%
X176500000Y-82650000D03*
X176500000Y-80750000D03*
%TD*%
D26*
%TO.C,U3*%
X162937500Y-81450000D03*
X162937500Y-81950000D03*
X162937500Y-82450000D03*
X162937500Y-82950000D03*
X162937500Y-83450000D03*
X162937500Y-83950000D03*
X162937500Y-84450000D03*
X162937500Y-84950000D03*
X162937500Y-85450000D03*
X162937500Y-85950000D03*
X162937500Y-86450000D03*
X162937500Y-86950000D03*
D27*
X164350000Y-88362500D03*
X164850000Y-88362500D03*
X165350000Y-88362500D03*
X165850000Y-88362500D03*
X166350000Y-88362500D03*
X166850000Y-88362500D03*
X167350000Y-88362500D03*
X167850000Y-88362500D03*
X168350000Y-88362500D03*
X168850000Y-88362500D03*
X169350000Y-88362500D03*
X169850000Y-88362500D03*
D26*
X171262500Y-86950000D03*
X171262500Y-86450000D03*
X171262500Y-85950000D03*
X171262500Y-85450000D03*
X171262500Y-84950000D03*
X171262500Y-84450000D03*
X171262500Y-83950000D03*
X171262500Y-83450000D03*
X171262500Y-82950000D03*
X171262500Y-82450000D03*
X171262500Y-81950000D03*
X171262500Y-81450000D03*
D27*
X169850000Y-80037500D03*
X169350000Y-80037500D03*
X168850000Y-80037500D03*
X168350000Y-80037500D03*
X167850000Y-80037500D03*
X167350000Y-80037500D03*
X166850000Y-80037500D03*
X166350000Y-80037500D03*
X165850000Y-80037500D03*
X165350000Y-80037500D03*
X164850000Y-80037500D03*
X164350000Y-80037500D03*
%TD*%
D28*
%TO.C,SW3*%
X174400000Y-74700000D03*
X166600000Y-74700000D03*
%TD*%
D20*
%TO.C,SW2*%
X144510000Y-70460000D03*
X149590000Y-70460000D03*
D29*
X144510000Y-75540000D03*
D20*
X147050000Y-75540000D03*
X149590000Y-75540000D03*
%TD*%
D30*
%TO.C,U2*%
X156570000Y-74550000D03*
X155300000Y-74550000D03*
X154030000Y-74550000D03*
X152760000Y-74550000D03*
X152760000Y-79500000D03*
X154030000Y-79500000D03*
X155300000Y-79500000D03*
X156570000Y-79500000D03*
%TD*%
D31*
%TO.C,D3*%
X154737500Y-83950000D03*
X154737500Y-82050000D03*
X152862500Y-83000000D03*
%TD*%
D28*
%TO.C,SW4*%
X173200000Y-92200000D03*
X165400000Y-92200000D03*
%TD*%
D32*
%TO.C,Y1*%
X158000000Y-82850000D03*
X158000000Y-86150000D03*
X160000000Y-86150000D03*
X160000000Y-82850000D03*
%TD*%
D33*
%TO.C,J1*%
X181600000Y-80200000D03*
X181600000Y-81050000D03*
X181600000Y-81900000D03*
X181600000Y-82750000D03*
X181600000Y-83600000D03*
X181600000Y-84450000D03*
X181600000Y-85300000D03*
X181600000Y-86150000D03*
X182950000Y-86150000D03*
X182950000Y-85300000D03*
X182950000Y-84450000D03*
X182950000Y-83600000D03*
X182950000Y-82750000D03*
X182950000Y-81900000D03*
X182950000Y-81050000D03*
X182950000Y-80200000D03*
D34*
X182580000Y-78850000D03*
D35*
X185960000Y-87500000D03*
X185960000Y-78850000D03*
D34*
X182580000Y-87500000D03*
%TD*%
M02*
