%TF.GenerationSoftware,KiCad,Pcbnew,(6.0.2)*%
%TF.CreationDate,2022-11-22T23:48:31+01:00*%
%TF.ProjectId,CANap_,43414e61-70e9-42e6-9b69-6361645f7063,rev?*%
%TF.SameCoordinates,Original*%
%TF.FileFunction,Paste,Top*%
%TF.FilePolarity,Positive*%
%FSLAX46Y46*%
G04 Gerber Fmt 4.6, Leading zero omitted, Abs format (unit mm)*
G04 Created by KiCad (PCBNEW (6.0.2)) date 2022-11-22 23:48:31*
%MOMM*%
%LPD*%
G01*
G04 APERTURE LIST*
G04 Aperture macros list*
%AMRoundRect*
0 Rectangle with rounded corners*
0 $1 Rounding radius*
0 $2 $3 $4 $5 $6 $7 $8 $9 X,Y pos of 4 corners*
0 Add a 4 corners polygon primitive as box body*
4,1,4,$2,$3,$4,$5,$6,$7,$8,$9,$2,$3,0*
0 Add four circle primitives for the rounded corners*
1,1,$1+$1,$2,$3*
1,1,$1+$1,$4,$5*
1,1,$1+$1,$6,$7*
1,1,$1+$1,$8,$9*
0 Add four rect primitives between the rounded corners*
20,1,$1+$1,$2,$3,$4,$5,0*
20,1,$1+$1,$4,$5,$6,$7,0*
20,1,$1+$1,$6,$7,$8,$9,0*
20,1,$1+$1,$8,$9,$2,$3,0*%
G04 Aperture macros list end*
%ADD10RoundRect,0.250000X-0.250000X-0.475000X0.250000X-0.475000X0.250000X0.475000X-0.250000X0.475000X0*%
%ADD11RoundRect,0.250000X-0.475000X0.250000X-0.475000X-0.250000X0.475000X-0.250000X0.475000X0.250000X0*%
%ADD12RoundRect,0.250000X-0.262500X-0.450000X0.262500X-0.450000X0.262500X0.450000X-0.262500X0.450000X0*%
%ADD13RoundRect,0.250000X0.262500X0.450000X-0.262500X0.450000X-0.262500X-0.450000X0.262500X-0.450000X0*%
%ADD14RoundRect,0.250000X0.250000X0.475000X-0.250000X0.475000X-0.250000X-0.475000X0.250000X-0.475000X0*%
%ADD15RoundRect,0.075000X-0.662500X-0.075000X0.662500X-0.075000X0.662500X0.075000X-0.662500X0.075000X0*%
%ADD16RoundRect,0.075000X-0.075000X-0.662500X0.075000X-0.662500X0.075000X0.662500X-0.075000X0.662500X0*%
%ADD17R,1.500000X1.500000*%
%ADD18RoundRect,0.243750X-0.243750X-0.456250X0.243750X-0.456250X0.243750X0.456250X-0.243750X0.456250X0*%
%ADD19RoundRect,0.150000X-0.150000X0.825000X-0.150000X-0.825000X0.150000X-0.825000X0.150000X0.825000X0*%
%ADD20RoundRect,0.150000X0.150000X-0.587500X0.150000X0.587500X-0.150000X0.587500X-0.150000X-0.587500X0*%
%ADD21RoundRect,0.250000X-0.450000X0.262500X-0.450000X-0.262500X0.450000X-0.262500X0.450000X0.262500X0*%
%ADD22R,1.300000X1.600000*%
G04 APERTURE END LIST*
D10*
%TO.C,C9*%
X157725000Y-76575000D03*
X159625000Y-76575000D03*
%TD*%
D11*
%TO.C,C11*%
X159875000Y-91225000D03*
X159875000Y-93125000D03*
%TD*%
D12*
%TO.C,R2*%
X175662500Y-77400000D03*
X173837500Y-77400000D03*
%TD*%
D13*
%TO.C,R4*%
X175700000Y-69350000D03*
X173875000Y-69350000D03*
%TD*%
D14*
%TO.C,C13*%
X169725000Y-88975000D03*
X167825000Y-88975000D03*
%TD*%
D15*
%TO.C,U3*%
X159512500Y-81425000D03*
X159512500Y-81925000D03*
X159512500Y-82425000D03*
X159512500Y-82925000D03*
X159512500Y-83425000D03*
X159512500Y-83925000D03*
X159512500Y-84425000D03*
X159512500Y-84925000D03*
X159512500Y-85425000D03*
X159512500Y-85925000D03*
X159512500Y-86425000D03*
X159512500Y-86925000D03*
D16*
X160925000Y-88337500D03*
X161425000Y-88337500D03*
X161925000Y-88337500D03*
X162425000Y-88337500D03*
X162925000Y-88337500D03*
X163425000Y-88337500D03*
X163925000Y-88337500D03*
X164425000Y-88337500D03*
X164925000Y-88337500D03*
X165425000Y-88337500D03*
X165925000Y-88337500D03*
X166425000Y-88337500D03*
D15*
X167837500Y-86925000D03*
X167837500Y-86425000D03*
X167837500Y-85925000D03*
X167837500Y-85425000D03*
X167837500Y-84925000D03*
X167837500Y-84425000D03*
X167837500Y-83925000D03*
X167837500Y-83425000D03*
X167837500Y-82925000D03*
X167837500Y-82425000D03*
X167837500Y-81925000D03*
X167837500Y-81425000D03*
D16*
X166425000Y-80012500D03*
X165925000Y-80012500D03*
X165425000Y-80012500D03*
X164925000Y-80012500D03*
X164425000Y-80012500D03*
X163925000Y-80012500D03*
X163425000Y-80012500D03*
X162925000Y-80012500D03*
X162425000Y-80012500D03*
X161925000Y-80012500D03*
X161425000Y-80012500D03*
X160925000Y-80012500D03*
%TD*%
D17*
%TO.C,SW3*%
X170975000Y-74675000D03*
X163175000Y-74675000D03*
%TD*%
D14*
%TO.C,C4*%
X151250000Y-77700000D03*
X149350000Y-77700000D03*
%TD*%
D12*
%TO.C,R3*%
X178512500Y-84650000D03*
X176687500Y-84650000D03*
%TD*%
D11*
%TO.C,C12*%
X168475000Y-78125000D03*
X168475000Y-80025000D03*
%TD*%
D10*
%TO.C,C14*%
X154625000Y-90375000D03*
X156525000Y-90375000D03*
%TD*%
D13*
%TO.C,R5*%
X173837500Y-75350000D03*
X175662500Y-75350000D03*
%TD*%
D12*
%TO.C,R1*%
X143637500Y-77550000D03*
X145462500Y-77550000D03*
%TD*%
D18*
%TO.C,D2*%
X175737500Y-73400000D03*
X173862500Y-73400000D03*
%TD*%
D13*
%TO.C,R9*%
X152237500Y-95125000D03*
X150412500Y-95125000D03*
%TD*%
D10*
%TO.C,C7*%
X154625000Y-80675000D03*
X156525000Y-80675000D03*
%TD*%
D19*
%TO.C,U2*%
X152005000Y-79825000D03*
X150735000Y-79825000D03*
X149465000Y-79825000D03*
X148195000Y-79825000D03*
X148195000Y-84775000D03*
X149465000Y-84775000D03*
X150735000Y-84775000D03*
X152005000Y-84775000D03*
%TD*%
D18*
%TO.C,D4*%
X150287500Y-90425000D03*
X152162500Y-90425000D03*
%TD*%
D13*
%TO.C,R8*%
X152137500Y-88425000D03*
X150312500Y-88425000D03*
%TD*%
D14*
%TO.C,C8*%
X156525000Y-88375000D03*
X154625000Y-88375000D03*
%TD*%
D10*
%TO.C,C10*%
X157725000Y-78675000D03*
X159625000Y-78675000D03*
%TD*%
D18*
%TO.C,D1*%
X173887500Y-71350000D03*
X175762500Y-71350000D03*
%TD*%
D20*
%TO.C,D3*%
X144450000Y-83737500D03*
X146350000Y-83737500D03*
X145400000Y-81862500D03*
%TD*%
D21*
%TO.C,R7*%
X171250000Y-80775000D03*
X171250000Y-82600000D03*
%TD*%
D17*
%TO.C,SW4*%
X169775000Y-92175000D03*
X161975000Y-92175000D03*
%TD*%
D18*
%TO.C,D5*%
X150387500Y-93125000D03*
X152262500Y-93125000D03*
%TD*%
D13*
%TO.C,R6*%
X165287500Y-77775000D03*
X163462500Y-77775000D03*
%TD*%
D22*
%TO.C,Y1*%
X154575000Y-82825000D03*
X154575000Y-86125000D03*
X156575000Y-86125000D03*
X156575000Y-82825000D03*
%TD*%
D10*
%TO.C,C6*%
X178550000Y-81350000D03*
X176650000Y-81350000D03*
%TD*%
M02*
