M48
; DRILL file {KiCad (6.0.2)} date Mon Nov 21 22:20:46 2022
; FORMAT={-:-/ absolute / inch / decimal}
; #@! TF.CreationDate,2022-11-21T22:20:46+01:00
; #@! TF.GenerationSoftware,Kicad,Pcbnew,(6.0.2)
; #@! TF.FileFunction,Plated,1,4,PTH
FMAT,2
INCH
; #@! TA.AperFunction,Plated,PTH,ViaDrill
T1C0.0118
; #@! TA.AperFunction,Plated,PTH,ViaDrill
T2C0.0157
; #@! TA.AperFunction,Plated,PTH,ComponentDrill
T3C0.0157
; #@! TA.AperFunction,Plated,PTH,ComponentDrill
T4C0.0197
; #@! TA.AperFunction,Plated,PTH,ComponentDrill
T5C0.0236
; #@! TA.AperFunction,Plated,PTH,ComponentDrill
T6C0.0350
; #@! TA.AperFunction,Plated,PTH,ComponentDrill
T7C0.0394
; #@! TA.AperFunction,Plated,PTH,ComponentDrill
T8C0.1260
%
G90
G05
T1
X6.0925Y-3.2677
X6.126Y-3.3504
X6.1319Y-3.7972
X6.3429Y-3.3525
X6.3622Y-3.6299
X6.4902Y-3.2126
X6.5492Y-3.5591
X6.7106Y-3.0748
X6.874Y-3.502
X6.9488Y-3.128
X6.9488Y-3.4567
X7.0728Y-3.1024
X7.0984Y-2.8976
X7.0984Y-3.0315
X7.3248Y-3.378
X7.3445Y-3.2421
T2
X6.0531Y-2.7913
X6.128Y-2.7933
X6.2717Y-3.0157
X6.2736Y-3.0984
X6.3622Y-3.1713
X6.3622Y-3.6732
X6.3661Y-3.5591
X6.421Y-2.9665
X6.6496Y-3.2795
X6.6673Y-3.5472
X6.7303Y-3.5571
X6.811Y-3.2244
X6.8189Y-3.1634
X6.9331Y-2.9409
X6.9902Y-3.2185
T3
X7.1496Y-3.1575
X7.1496Y-3.1909
X7.1496Y-3.2244
X7.1496Y-3.2579
X7.1496Y-3.2913
X7.1496Y-3.3248
X7.1496Y-3.3583
X7.1496Y-3.3917
X7.2028Y-3.1575
X7.2028Y-3.1909
X7.2028Y-3.2244
X7.2028Y-3.2579
X7.2028Y-3.2913
X7.2028Y-3.3248
X7.2028Y-3.3583
X7.2028Y-3.3917
T4
X5.6811Y-3.2677
X5.7088Y-3.2009
X5.7088Y-3.3345
X5.7756Y-3.1732
X5.7756Y-3.3622
X5.8424Y-3.2009
X5.8424Y-3.3345
X5.8701Y-3.2677
X7.1732Y-3.7146
X7.2009Y-3.6478
X7.2009Y-3.7814
X7.2677Y-3.6201
X7.2677Y-3.8091
X7.3345Y-3.6478
X7.3345Y-3.7814
X7.3622Y-3.7146
T6
X5.6894Y-2.774
X5.6894Y-2.974
X5.7894Y-2.974
X5.8894Y-2.774
X5.8894Y-2.974
T7
X5.3953Y-3.1037
X5.3953Y-3.2128
X5.3953Y-3.3219
X5.3953Y-3.4309
X5.5071Y-3.0492
X5.5071Y-3.1583
X5.5071Y-3.2673
X5.5071Y-3.3764
X5.5071Y-3.4854
T8
X5.4512Y-2.7752
X5.4512Y-3.7594
X5.7756Y-3.2677
X7.2677Y-3.7146
T5
G00X7.2177Y-3.1043
M15
G01X7.1587Y-3.1043
M16
G05
G00X7.2177Y-3.4449
M15
G01X7.1587Y-3.4449
M16
G05
G00X7.337Y-3.1043
M15
G01X7.3055Y-3.1043
M16
G05
G00X7.337Y-3.4449
M15
G01X7.3055Y-3.4449
M16
G05
T0
M30
