%TF.GenerationSoftware,KiCad,Pcbnew,(6.0.2)*%
%TF.CreationDate,2022-11-21T22:20:46+01:00*%
%TF.ProjectId,CANap_,43414e61-70e9-42e6-9b69-6361645f7063,rev?*%
%TF.SameCoordinates,Original*%
%TF.FileFunction,Copper,L2,Inr*%
%TF.FilePolarity,Positive*%
%FSLAX46Y46*%
G04 Gerber Fmt 4.6, Leading zero omitted, Abs format (unit mm)*
G04 Created by KiCad (PCBNEW (6.0.2)) date 2022-11-21 22:20:46*
%MOMM*%
%LPD*%
G01*
G04 APERTURE LIST*
G04 Aperture macros list*
%AMRoundRect*
0 Rectangle with rounded corners*
0 $1 Rounding radius*
0 $2 $3 $4 $5 $6 $7 $8 $9 X,Y pos of 4 corners*
0 Add a 4 corners polygon primitive as box body*
4,1,4,$2,$3,$4,$5,$6,$7,$8,$9,$2,$3,0*
0 Add four circle primitives for the rounded corners*
1,1,$1+$1,$2,$3*
1,1,$1+$1,$4,$5*
1,1,$1+$1,$6,$7*
1,1,$1+$1,$8,$9*
0 Add four rect primitives between the rounded corners*
20,1,$1+$1,$2,$3,$4,$5,0*
20,1,$1+$1,$4,$5,$6,$7,0*
20,1,$1+$1,$6,$7,$8,$9,0*
20,1,$1+$1,$8,$9,$2,$3,0*%
G04 Aperture macros list end*
%TA.AperFunction,ComponentPad*%
%ADD10C,0.800000*%
%TD*%
%TA.AperFunction,ComponentPad*%
%ADD11C,6.400000*%
%TD*%
%TA.AperFunction,ComponentPad*%
%ADD12C,4.000000*%
%TD*%
%TA.AperFunction,ComponentPad*%
%ADD13R,1.600000X1.600000*%
%TD*%
%TA.AperFunction,ComponentPad*%
%ADD14C,1.600000*%
%TD*%
%TA.AperFunction,ComponentPad*%
%ADD15RoundRect,0.400000X-0.400000X0.400000X-0.400000X-0.400000X0.400000X-0.400000X0.400000X0.400000X0*%
%TD*%
%TA.AperFunction,ComponentPad*%
%ADD16C,0.700000*%
%TD*%
%TA.AperFunction,ComponentPad*%
%ADD17O,2.400000X0.900000*%
%TD*%
%TA.AperFunction,ComponentPad*%
%ADD18O,1.700000X0.900000*%
%TD*%
%TA.AperFunction,ViaPad*%
%ADD19C,0.600000*%
%TD*%
%TA.AperFunction,ViaPad*%
%ADD20C,0.900000*%
%TD*%
G04 APERTURE END LIST*
D10*
%TO.N,N/C*%
%TO.C,REF\u002A\u002A*%
X184600000Y-96750000D03*
X186297056Y-96047056D03*
X187000000Y-94350000D03*
D11*
%TO.N,GND*%
X184600000Y-94350000D03*
D10*
%TO.N,N/C*%
X182902944Y-92652944D03*
X182902944Y-96047056D03*
X186297056Y-92652944D03*
X184600000Y-91950000D03*
X182200000Y-94350000D03*
%TD*%
%TO.N,N/C*%
%TO.C,REF\u002A\u002A*%
X146700000Y-80600000D03*
X148397056Y-84697056D03*
X148397056Y-81302944D03*
X149100000Y-83000000D03*
D11*
%TO.N,GND*%
X146700000Y-83000000D03*
D10*
%TO.N,N/C*%
X146700000Y-85400000D03*
X145002944Y-81302944D03*
X145002944Y-84697056D03*
X144300000Y-83000000D03*
%TD*%
D12*
%TO.N,GND*%
%TO.C,J2*%
X138460331Y-95490000D03*
X138460331Y-70490000D03*
D13*
%TO.N,unconnected-(J2-Pad1)*%
X139880331Y-77450000D03*
D14*
%TO.N,CANL*%
X139880331Y-80220000D03*
%TO.N,GND*%
X139880331Y-82990000D03*
%TO.N,unconnected-(J2-Pad4)*%
X139880331Y-85760000D03*
%TO.N,GND*%
X139880331Y-88530000D03*
X137040331Y-78835000D03*
%TO.N,CANH*%
X137040331Y-81605000D03*
%TO.N,unconnected-(J2-Pad8)*%
X137040331Y-84375000D03*
%TO.N,unconnected-(J2-Pad9)*%
X137040331Y-87145000D03*
%TD*%
%TO.N,*%
%TO.C,SW2*%
X144510000Y-70460000D03*
X149590000Y-70460000D03*
D15*
%TO.N,CANL*%
X144510000Y-75540000D03*
D14*
%TO.N,Net-(R1-Pad2)*%
X147050000Y-75540000D03*
%TO.N,unconnected-(SW2-Pad3)*%
X149590000Y-75540000D03*
%TD*%
D16*
%TO.N,GND*%
%TO.C,J1*%
X181600000Y-80200000D03*
%TO.N,+5V*%
X181600000Y-81050000D03*
%TO.N,Net-(J1-PadA5)*%
X181600000Y-81900000D03*
%TO.N,/USB+*%
X181600000Y-82750000D03*
%TO.N,/USB-*%
X181600000Y-83600000D03*
%TO.N,unconnected-(J1-PadA8)*%
X181600000Y-84450000D03*
%TO.N,+5V*%
X181600000Y-85300000D03*
%TO.N,GND*%
X181600000Y-86150000D03*
X182950000Y-86150000D03*
%TO.N,+5V*%
X182950000Y-85300000D03*
%TO.N,Net-(J1-PadB5)*%
X182950000Y-84450000D03*
%TO.N,/USB+*%
X182950000Y-83600000D03*
%TO.N,/USB-*%
X182950000Y-82750000D03*
%TO.N,unconnected-(J1-PadB8)*%
X182950000Y-81900000D03*
%TO.N,+5V*%
X182950000Y-81050000D03*
%TO.N,GND*%
X182950000Y-80200000D03*
D17*
X182580000Y-78850000D03*
D18*
X185960000Y-87500000D03*
X185960000Y-78850000D03*
D17*
X182580000Y-87500000D03*
%TD*%
D19*
%TO.N,GND*%
X170450000Y-78100000D03*
X155750000Y-96450000D03*
D20*
X159350000Y-78700000D03*
D19*
X179650000Y-78800000D03*
X174600000Y-88950000D03*
X186550000Y-82350000D03*
X176500000Y-87800000D03*
D20*
X169350000Y-90100000D03*
X161600000Y-80550000D03*
X161600000Y-93300000D03*
D19*
X161109114Y-85153237D03*
D20*
X155650000Y-70950000D03*
D19*
X180300000Y-73600000D03*
X164850000Y-81600000D03*
X180300000Y-77000000D03*
X155600000Y-85100000D03*
X176500000Y-79450000D03*
D20*
X159300000Y-76600000D03*
D19*
X186050000Y-85800000D03*
X154750000Y-83000000D03*
D20*
%TO.N,+3V3*%
X176100000Y-74700000D03*
X168900000Y-83300000D03*
X170950000Y-90350000D03*
X153750000Y-70900000D03*
X161700000Y-90400000D03*
X177550000Y-81750000D03*
X163092657Y-75349500D03*
X173200000Y-80350000D03*
X173000000Y-81900000D03*
D19*
%TO.N,Net-(D4-Pad2)*%
X161600000Y-92200000D03*
X166350000Y-90400000D03*
%TD*%
%TA.AperFunction,Conductor*%
%TO.N,+5V*%
G36*
X188192121Y-67820002D02*
G01*
X188238614Y-67873658D01*
X188250000Y-67926000D01*
X188250000Y-93738433D01*
X188229998Y-93806554D01*
X188176342Y-93853047D01*
X188106068Y-93863151D01*
X188041488Y-93833657D01*
X188003104Y-93773931D01*
X187999656Y-93758795D01*
X187989772Y-93698435D01*
X187974957Y-93607967D01*
X187875078Y-93247814D01*
X187871837Y-93239668D01*
X187738146Y-92903719D01*
X187736887Y-92900555D01*
X187653169Y-92742439D01*
X187563595Y-92573263D01*
X187563593Y-92573260D01*
X187562000Y-92570251D01*
X187352463Y-92260767D01*
X187110728Y-91975722D01*
X187101509Y-91966973D01*
X186842089Y-91720794D01*
X186842088Y-91720793D01*
X186839622Y-91718453D01*
X186542317Y-91491967D01*
X186539405Y-91490210D01*
X186539400Y-91490207D01*
X186225206Y-91300673D01*
X186225200Y-91300670D01*
X186222291Y-91298915D01*
X185883287Y-91141554D01*
X185529271Y-91021726D01*
X185494097Y-91013928D01*
X185391391Y-90991159D01*
X185164384Y-90940833D01*
X184976380Y-90920077D01*
X184796276Y-90900193D01*
X184796271Y-90900193D01*
X184792895Y-90899820D01*
X184789496Y-90899814D01*
X184789495Y-90899814D01*
X184612755Y-90899506D01*
X184419150Y-90899168D01*
X184280541Y-90913981D01*
X184050904Y-90938522D01*
X184050898Y-90938523D01*
X184047520Y-90938884D01*
X184044197Y-90939608D01*
X184044194Y-90939609D01*
X183972458Y-90955250D01*
X183682353Y-91018503D01*
X183327921Y-91137094D01*
X182988369Y-91293270D01*
X182985435Y-91295026D01*
X182985433Y-91295027D01*
X182890378Y-91351916D01*
X182667671Y-91485204D01*
X182369577Y-91710651D01*
X182266932Y-91807379D01*
X182136806Y-91930004D01*
X182097575Y-91966973D01*
X182095363Y-91969563D01*
X182095361Y-91969565D01*
X182087879Y-91978325D01*
X181854846Y-92251171D01*
X181852928Y-92253983D01*
X181852924Y-92253988D01*
X181786516Y-92351340D01*
X181644231Y-92559922D01*
X181642624Y-92562932D01*
X181642622Y-92562935D01*
X181501181Y-92827831D01*
X181468192Y-92889614D01*
X181466923Y-92892771D01*
X181466921Y-92892775D01*
X181398490Y-93063002D01*
X181328789Y-93236389D01*
X181327869Y-93239663D01*
X181327867Y-93239668D01*
X181244853Y-93535001D01*
X181227653Y-93596191D01*
X181227091Y-93599548D01*
X181227091Y-93599549D01*
X181167104Y-93958020D01*
X181165967Y-93964812D01*
X181144453Y-94337938D01*
X181163362Y-94711205D01*
X181222473Y-95080247D01*
X181321094Y-95440747D01*
X181458073Y-95788487D01*
X181459656Y-95791502D01*
X181630222Y-96116383D01*
X181630227Y-96116391D01*
X181631806Y-96119399D01*
X181840261Y-96429613D01*
X182080999Y-96715499D01*
X182351205Y-96973714D01*
X182647718Y-97201236D01*
X182735543Y-97254634D01*
X182964154Y-97393632D01*
X182964159Y-97393635D01*
X182967069Y-97395404D01*
X182970157Y-97396850D01*
X182970156Y-97396850D01*
X183302437Y-97552503D01*
X183302447Y-97552507D01*
X183305521Y-97553947D01*
X183308739Y-97555049D01*
X183308742Y-97555050D01*
X183655886Y-97673904D01*
X183655890Y-97673905D01*
X183659117Y-97675010D01*
X183662447Y-97675760D01*
X183662456Y-97675763D01*
X183774813Y-97701083D01*
X183836870Y-97735571D01*
X183870430Y-97798135D01*
X183864837Y-97868911D01*
X183821868Y-97925428D01*
X183755164Y-97949742D01*
X183747113Y-97950000D01*
X138908059Y-97950000D01*
X138839938Y-97929998D01*
X138793445Y-97876342D01*
X138783341Y-97806068D01*
X138812835Y-97741488D01*
X138872561Y-97703104D01*
X138883478Y-97700421D01*
X139040003Y-97669287D01*
X139040009Y-97669285D01*
X139044053Y-97668481D01*
X139047959Y-97667155D01*
X139047963Y-97667154D01*
X139319508Y-97574976D01*
X139319510Y-97574975D01*
X139323408Y-97573652D01*
X139336234Y-97567327D01*
X139584292Y-97444999D01*
X139584297Y-97444996D01*
X139587996Y-97443172D01*
X139662138Y-97393632D01*
X139829857Y-97281566D01*
X139829862Y-97281562D01*
X139833288Y-97279273D01*
X139836382Y-97276559D01*
X139836388Y-97276555D01*
X140052000Y-97087467D01*
X140055089Y-97084758D01*
X140124816Y-97005250D01*
X140246886Y-96866057D01*
X140246890Y-96866051D01*
X140249604Y-96862957D01*
X140413503Y-96617664D01*
X140425317Y-96593709D01*
X140496186Y-96450000D01*
X155194750Y-96450000D01*
X155213670Y-96593709D01*
X155269139Y-96727625D01*
X155357379Y-96842621D01*
X155472375Y-96930861D01*
X155606291Y-96986330D01*
X155750000Y-97005250D01*
X155893709Y-96986330D01*
X156027625Y-96930861D01*
X156142621Y-96842621D01*
X156230861Y-96727625D01*
X156286330Y-96593709D01*
X156305250Y-96450000D01*
X156286330Y-96306291D01*
X156230861Y-96172375D01*
X156142621Y-96057379D01*
X156027625Y-95969139D01*
X155893709Y-95913670D01*
X155750000Y-95894750D01*
X155606291Y-95913670D01*
X155472375Y-95969139D01*
X155357379Y-96057379D01*
X155269139Y-96172375D01*
X155213670Y-96306291D01*
X155194750Y-96450000D01*
X140496186Y-96450000D01*
X140542161Y-96356772D01*
X140542162Y-96356770D01*
X140543983Y-96353077D01*
X140613808Y-96147382D01*
X140637485Y-96077632D01*
X140637486Y-96077628D01*
X140638812Y-96073722D01*
X140658615Y-95974168D01*
X140695561Y-95788423D01*
X140695561Y-95788420D01*
X140696365Y-95784380D01*
X140715660Y-95490000D01*
X140696365Y-95195620D01*
X140695561Y-95191577D01*
X140639618Y-94910328D01*
X140639616Y-94910322D01*
X140638812Y-94906278D01*
X140543983Y-94626923D01*
X140542161Y-94623228D01*
X140415330Y-94366040D01*
X140415327Y-94366035D01*
X140413503Y-94362336D01*
X140249604Y-94117043D01*
X140246890Y-94113949D01*
X140246886Y-94113943D01*
X140057798Y-93898331D01*
X140055089Y-93895242D01*
X139926605Y-93782564D01*
X139836388Y-93703445D01*
X139836382Y-93703441D01*
X139833288Y-93700727D01*
X139829858Y-93698435D01*
X139829857Y-93698434D01*
X139591429Y-93539122D01*
X139587996Y-93536828D01*
X139584297Y-93535004D01*
X139584292Y-93535001D01*
X139327103Y-93408170D01*
X139327101Y-93408169D01*
X139323408Y-93406348D01*
X139053654Y-93314778D01*
X139047963Y-93312846D01*
X139047959Y-93312845D01*
X139044053Y-93311519D01*
X139040009Y-93310715D01*
X139040003Y-93310713D01*
X138948997Y-93292611D01*
X160894394Y-93292611D01*
X160912999Y-93461135D01*
X160920867Y-93482634D01*
X160967967Y-93611340D01*
X160971266Y-93620356D01*
X160975502Y-93626659D01*
X160975502Y-93626660D01*
X160988574Y-93646113D01*
X161065830Y-93761083D01*
X161071442Y-93766190D01*
X161071445Y-93766193D01*
X161185612Y-93870077D01*
X161185616Y-93870080D01*
X161191233Y-93875191D01*
X161197906Y-93878814D01*
X161197910Y-93878817D01*
X161333558Y-93952467D01*
X161333560Y-93952468D01*
X161340235Y-93956092D01*
X161347584Y-93958020D01*
X161496883Y-93997188D01*
X161496885Y-93997188D01*
X161504233Y-93999116D01*
X161590609Y-94000473D01*
X161666161Y-94001660D01*
X161666164Y-94001660D01*
X161673760Y-94001779D01*
X161681165Y-94000083D01*
X161681166Y-94000083D01*
X161741586Y-93986245D01*
X161839029Y-93963928D01*
X161990498Y-93887747D01*
X162119423Y-93777634D01*
X162218361Y-93639947D01*
X162226237Y-93620356D01*
X162278766Y-93489687D01*
X162278767Y-93489685D01*
X162281601Y-93482634D01*
X162305490Y-93314778D01*
X162305645Y-93300000D01*
X162303840Y-93285080D01*
X162286188Y-93139220D01*
X162285276Y-93131680D01*
X162225345Y-92973077D01*
X162129312Y-92833349D01*
X162025835Y-92741154D01*
X161988279Y-92680904D01*
X161989259Y-92609914D01*
X162009692Y-92570374D01*
X162023927Y-92551823D01*
X162080861Y-92477625D01*
X162136330Y-92343709D01*
X162155250Y-92200000D01*
X162136330Y-92056291D01*
X162080861Y-91922375D01*
X161992621Y-91807379D01*
X161877625Y-91719139D01*
X161743709Y-91663670D01*
X161600000Y-91644750D01*
X161456291Y-91663670D01*
X161322375Y-91719139D01*
X161207379Y-91807379D01*
X161119139Y-91922375D01*
X161063670Y-92056291D01*
X161044750Y-92200000D01*
X161063670Y-92343709D01*
X161119139Y-92477625D01*
X161169047Y-92542666D01*
X161190624Y-92570786D01*
X161216225Y-92637006D01*
X161201960Y-92706555D01*
X161173491Y-92742439D01*
X161075604Y-92827831D01*
X161071237Y-92834045D01*
X161026613Y-92897539D01*
X160978113Y-92966547D01*
X160916524Y-93124513D01*
X160915532Y-93132046D01*
X160915532Y-93132047D01*
X160899376Y-93254770D01*
X160894394Y-93292611D01*
X138948997Y-93292611D01*
X138758754Y-93254770D01*
X138758751Y-93254770D01*
X138754711Y-93253966D01*
X138750600Y-93253697D01*
X138750596Y-93253696D01*
X138464450Y-93234941D01*
X138460331Y-93234671D01*
X138456212Y-93234941D01*
X138170066Y-93253696D01*
X138170062Y-93253697D01*
X138165951Y-93253966D01*
X138161911Y-93254770D01*
X138161908Y-93254770D01*
X137880659Y-93310713D01*
X137880653Y-93310715D01*
X137876609Y-93311519D01*
X137872703Y-93312845D01*
X137872699Y-93312846D01*
X137867008Y-93314778D01*
X137597254Y-93406348D01*
X137593561Y-93408169D01*
X137593559Y-93408170D01*
X137336371Y-93535001D01*
X137336366Y-93535004D01*
X137332667Y-93536828D01*
X137087374Y-93700727D01*
X137084280Y-93703441D01*
X137084274Y-93703445D01*
X136994057Y-93782564D01*
X136865573Y-93895242D01*
X136862864Y-93898331D01*
X136673776Y-94113943D01*
X136673772Y-94113949D01*
X136671058Y-94117043D01*
X136507159Y-94362336D01*
X136505335Y-94366035D01*
X136505332Y-94366040D01*
X136378501Y-94623228D01*
X136376679Y-94626923D01*
X136281850Y-94906278D01*
X136281046Y-94910322D01*
X136281044Y-94910328D01*
X136225101Y-95191577D01*
X136224297Y-95195620D01*
X136205002Y-95490000D01*
X136224297Y-95784380D01*
X136225101Y-95788420D01*
X136225101Y-95788423D01*
X136262048Y-95974168D01*
X136281850Y-96073722D01*
X136283176Y-96077628D01*
X136283177Y-96077632D01*
X136306854Y-96147382D01*
X136376679Y-96353077D01*
X136378500Y-96356770D01*
X136378501Y-96356772D01*
X136495346Y-96593709D01*
X136507159Y-96617664D01*
X136671058Y-96862957D01*
X136673772Y-96866051D01*
X136673776Y-96866057D01*
X136795846Y-97005250D01*
X136865573Y-97084758D01*
X136868662Y-97087467D01*
X137084274Y-97276555D01*
X137084280Y-97276559D01*
X137087374Y-97279273D01*
X137090800Y-97281562D01*
X137090805Y-97281566D01*
X137258524Y-97393632D01*
X137332666Y-97443172D01*
X137336365Y-97444996D01*
X137336370Y-97444999D01*
X137584428Y-97567327D01*
X137597254Y-97573652D01*
X137601152Y-97574975D01*
X137601154Y-97574976D01*
X137872699Y-97667154D01*
X137872703Y-97667155D01*
X137876609Y-97668481D01*
X137880653Y-97669285D01*
X137880659Y-97669287D01*
X138037184Y-97700421D01*
X138100094Y-97733328D01*
X138135226Y-97795023D01*
X138131426Y-97865918D01*
X138089901Y-97923504D01*
X138023834Y-97949498D01*
X138012603Y-97950000D01*
X129726000Y-97950000D01*
X129657879Y-97929998D01*
X129611386Y-97876342D01*
X129600000Y-97824000D01*
X129600000Y-90392611D01*
X160994394Y-90392611D01*
X161012999Y-90561135D01*
X161019037Y-90577634D01*
X161058027Y-90684178D01*
X161071266Y-90720356D01*
X161075502Y-90726659D01*
X161075502Y-90726660D01*
X161088574Y-90746113D01*
X161165830Y-90861083D01*
X161171442Y-90866190D01*
X161171445Y-90866193D01*
X161285612Y-90970077D01*
X161285616Y-90970080D01*
X161291233Y-90975191D01*
X161297906Y-90978814D01*
X161297910Y-90978817D01*
X161433558Y-91052467D01*
X161433560Y-91052468D01*
X161440235Y-91056092D01*
X161447584Y-91058020D01*
X161596883Y-91097188D01*
X161596885Y-91097188D01*
X161604233Y-91099116D01*
X161690609Y-91100473D01*
X161766161Y-91101660D01*
X161766164Y-91101660D01*
X161773760Y-91101779D01*
X161781165Y-91100083D01*
X161781166Y-91100083D01*
X161841586Y-91086245D01*
X161939029Y-91063928D01*
X162090498Y-90987747D01*
X162193454Y-90899814D01*
X162213651Y-90882564D01*
X162213652Y-90882563D01*
X162219423Y-90877634D01*
X162318361Y-90739947D01*
X162326237Y-90720356D01*
X162378766Y-90589687D01*
X162378767Y-90589685D01*
X162381601Y-90582634D01*
X162392851Y-90503586D01*
X162404909Y-90418862D01*
X162404909Y-90418859D01*
X162405490Y-90414778D01*
X162405645Y-90400000D01*
X165794750Y-90400000D01*
X165813670Y-90543709D01*
X165869139Y-90677625D01*
X165957379Y-90792621D01*
X166072375Y-90880861D01*
X166206291Y-90936330D01*
X166350000Y-90955250D01*
X166493709Y-90936330D01*
X166627625Y-90880861D01*
X166742621Y-90792621D01*
X166830861Y-90677625D01*
X166886330Y-90543709D01*
X166905250Y-90400000D01*
X166886330Y-90256291D01*
X166830861Y-90122375D01*
X166808022Y-90092611D01*
X168644394Y-90092611D01*
X168662999Y-90261135D01*
X168690072Y-90335116D01*
X168713876Y-90400161D01*
X168721266Y-90420356D01*
X168725502Y-90426659D01*
X168725502Y-90426660D01*
X168738574Y-90446113D01*
X168815830Y-90561083D01*
X168821442Y-90566190D01*
X168821445Y-90566193D01*
X168935612Y-90670077D01*
X168935616Y-90670080D01*
X168941233Y-90675191D01*
X168947906Y-90678814D01*
X168947910Y-90678817D01*
X169083558Y-90752467D01*
X169083560Y-90752468D01*
X169090235Y-90756092D01*
X169097584Y-90758020D01*
X169246883Y-90797188D01*
X169246885Y-90797188D01*
X169254233Y-90799116D01*
X169340609Y-90800473D01*
X169416161Y-90801660D01*
X169416164Y-90801660D01*
X169423760Y-90801779D01*
X169431165Y-90800083D01*
X169431166Y-90800083D01*
X169492346Y-90786071D01*
X169589029Y-90763928D01*
X169740498Y-90687747D01*
X169869423Y-90577634D01*
X169968361Y-90439947D01*
X169971194Y-90432900D01*
X170006251Y-90345695D01*
X170050218Y-90289951D01*
X170117343Y-90266826D01*
X170186315Y-90283663D01*
X170235234Y-90335116D01*
X170248396Y-90378864D01*
X170262999Y-90511135D01*
X170321266Y-90670356D01*
X170325502Y-90676659D01*
X170325502Y-90676660D01*
X170335245Y-90691159D01*
X170415830Y-90811083D01*
X170421442Y-90816190D01*
X170421445Y-90816193D01*
X170535612Y-90920077D01*
X170535616Y-90920080D01*
X170541233Y-90925191D01*
X170547906Y-90928814D01*
X170547910Y-90928817D01*
X170683558Y-91002467D01*
X170683560Y-91002468D01*
X170690235Y-91006092D01*
X170697584Y-91008020D01*
X170846883Y-91047188D01*
X170846885Y-91047188D01*
X170854233Y-91049116D01*
X170940609Y-91050473D01*
X171016161Y-91051660D01*
X171016164Y-91051660D01*
X171023760Y-91051779D01*
X171031165Y-91050083D01*
X171031166Y-91050083D01*
X171150199Y-91022821D01*
X171189029Y-91013928D01*
X171340498Y-90937747D01*
X171419713Y-90870090D01*
X171463651Y-90832564D01*
X171463652Y-90832563D01*
X171469423Y-90827634D01*
X171568361Y-90689947D01*
X171572835Y-90678817D01*
X171628766Y-90539687D01*
X171628767Y-90539685D01*
X171631601Y-90532634D01*
X171649889Y-90404135D01*
X171654909Y-90368862D01*
X171654909Y-90368859D01*
X171655490Y-90364778D01*
X171655645Y-90350000D01*
X171635276Y-90181680D01*
X171575345Y-90023077D01*
X171517978Y-89939608D01*
X171483614Y-89889608D01*
X171483613Y-89889607D01*
X171479312Y-89883349D01*
X171414510Y-89825612D01*
X171358392Y-89775612D01*
X171358388Y-89775610D01*
X171352721Y-89770560D01*
X171345656Y-89766819D01*
X171217701Y-89699071D01*
X171202881Y-89691224D01*
X171038441Y-89649919D01*
X171030843Y-89649879D01*
X171030841Y-89649879D01*
X170953668Y-89649475D01*
X170868895Y-89649031D01*
X170861508Y-89650805D01*
X170861504Y-89650805D01*
X170718162Y-89685220D01*
X170704032Y-89688612D01*
X170697288Y-89692093D01*
X170697285Y-89692094D01*
X170595216Y-89744776D01*
X170553369Y-89766375D01*
X170547647Y-89771367D01*
X170547645Y-89771368D01*
X170542780Y-89775612D01*
X170425604Y-89877831D01*
X170390137Y-89928295D01*
X170338089Y-90002353D01*
X170328113Y-90016547D01*
X170325354Y-90023623D01*
X170325352Y-90023627D01*
X170294692Y-90102266D01*
X170251311Y-90158468D01*
X170184432Y-90182294D01*
X170115288Y-90166180D01*
X170065832Y-90115242D01*
X170052212Y-90071633D01*
X170035276Y-89931680D01*
X169975345Y-89773077D01*
X169917818Y-89689375D01*
X169883614Y-89639608D01*
X169883613Y-89639607D01*
X169879312Y-89633349D01*
X169867514Y-89622837D01*
X169758392Y-89525612D01*
X169758388Y-89525610D01*
X169752721Y-89520560D01*
X169740606Y-89514145D01*
X169685080Y-89484746D01*
X169602881Y-89441224D01*
X169438441Y-89399919D01*
X169430843Y-89399879D01*
X169430841Y-89399879D01*
X169353668Y-89399475D01*
X169268895Y-89399031D01*
X169261508Y-89400805D01*
X169261504Y-89400805D01*
X169123154Y-89434021D01*
X169104032Y-89438612D01*
X169097288Y-89442093D01*
X169097285Y-89442094D01*
X168996158Y-89494290D01*
X168953369Y-89516375D01*
X168947647Y-89521367D01*
X168947645Y-89521368D01*
X168902261Y-89560959D01*
X168825604Y-89627831D01*
X168784475Y-89686351D01*
X168747210Y-89739375D01*
X168728113Y-89766547D01*
X168666524Y-89924513D01*
X168665532Y-89932046D01*
X168665532Y-89932047D01*
X168646031Y-90080180D01*
X168644394Y-90092611D01*
X166808022Y-90092611D01*
X166742621Y-90007379D01*
X166627625Y-89919139D01*
X166493709Y-89863670D01*
X166350000Y-89844750D01*
X166206291Y-89863670D01*
X166072375Y-89919139D01*
X165957379Y-90007379D01*
X165869139Y-90122375D01*
X165813670Y-90256291D01*
X165794750Y-90400000D01*
X162405645Y-90400000D01*
X162403840Y-90385080D01*
X162397793Y-90335116D01*
X162385276Y-90231680D01*
X162325345Y-90073077D01*
X162286493Y-90016547D01*
X162233614Y-89939608D01*
X162233613Y-89939607D01*
X162229312Y-89933349D01*
X162217514Y-89922837D01*
X162108392Y-89825612D01*
X162108388Y-89825610D01*
X162102721Y-89820560D01*
X161952881Y-89741224D01*
X161788441Y-89699919D01*
X161780843Y-89699879D01*
X161780841Y-89699879D01*
X161703668Y-89699475D01*
X161618895Y-89699031D01*
X161611508Y-89700805D01*
X161611504Y-89700805D01*
X161468162Y-89735220D01*
X161454032Y-89738612D01*
X161447288Y-89742093D01*
X161447285Y-89742094D01*
X161310117Y-89812892D01*
X161303369Y-89816375D01*
X161175604Y-89927831D01*
X161171237Y-89934045D01*
X161108278Y-90023627D01*
X161078113Y-90066547D01*
X161016524Y-90224513D01*
X161015532Y-90232046D01*
X161015532Y-90232047D01*
X160996204Y-90378866D01*
X160994394Y-90392611D01*
X129600000Y-90392611D01*
X129600000Y-88515262D01*
X138824851Y-88515262D01*
X138842090Y-88720553D01*
X138898875Y-88918586D01*
X138901690Y-88924063D01*
X138901691Y-88924066D01*
X138990228Y-89096341D01*
X138993043Y-89101818D01*
X139121008Y-89263270D01*
X139277895Y-89396791D01*
X139283273Y-89399797D01*
X139283275Y-89399798D01*
X139338856Y-89430861D01*
X139457729Y-89497297D01*
X139516445Y-89516375D01*
X139647802Y-89559056D01*
X139647806Y-89559057D01*
X139653660Y-89560959D01*
X139858225Y-89585351D01*
X139864360Y-89584879D01*
X139864362Y-89584879D01*
X139920370Y-89580569D01*
X140063631Y-89569546D01*
X140069561Y-89567890D01*
X140069563Y-89567890D01*
X140193435Y-89533304D01*
X140262056Y-89514145D01*
X140267545Y-89511372D01*
X140267551Y-89511370D01*
X140415096Y-89436839D01*
X140445941Y-89421258D01*
X140474391Y-89399031D01*
X140603432Y-89298213D01*
X140608282Y-89294424D01*
X140742895Y-89138472D01*
X140763718Y-89101818D01*
X140841607Y-88964707D01*
X140844654Y-88959344D01*
X140847762Y-88950000D01*
X174044750Y-88950000D01*
X174063670Y-89093709D01*
X174119139Y-89227625D01*
X174207379Y-89342621D01*
X174322375Y-89430861D01*
X174456291Y-89486330D01*
X174600000Y-89505250D01*
X174743709Y-89486330D01*
X174877625Y-89430861D01*
X174992621Y-89342621D01*
X175080861Y-89227625D01*
X175136330Y-89093709D01*
X175155250Y-88950000D01*
X175136330Y-88806291D01*
X175080861Y-88672375D01*
X174992621Y-88557379D01*
X174877625Y-88469139D01*
X174743709Y-88413670D01*
X174600000Y-88394750D01*
X174456291Y-88413670D01*
X174322375Y-88469139D01*
X174207379Y-88557379D01*
X174119139Y-88672375D01*
X174063670Y-88806291D01*
X174044750Y-88950000D01*
X140847762Y-88950000D01*
X140909682Y-88763863D01*
X140935502Y-88559474D01*
X140935914Y-88530000D01*
X140915811Y-88324970D01*
X140856266Y-88127749D01*
X140759549Y-87945849D01*
X140647275Y-87808188D01*
X140640597Y-87800000D01*
X175944750Y-87800000D01*
X175963670Y-87943709D01*
X176019139Y-88077625D01*
X176107379Y-88192621D01*
X176222375Y-88280861D01*
X176356291Y-88336330D01*
X176500000Y-88355250D01*
X176643709Y-88336330D01*
X176777625Y-88280861D01*
X176892621Y-88192621D01*
X176980861Y-88077625D01*
X177036330Y-87943709D01*
X177055250Y-87800000D01*
X177036330Y-87656291D01*
X176980861Y-87522375D01*
X176892621Y-87407379D01*
X176777625Y-87319139D01*
X176643709Y-87263670D01*
X176500000Y-87244750D01*
X176356291Y-87263670D01*
X176222375Y-87319139D01*
X176107379Y-87407379D01*
X176019139Y-87522375D01*
X175963670Y-87656291D01*
X175944750Y-87800000D01*
X140640597Y-87800000D01*
X140633237Y-87790975D01*
X140633234Y-87790972D01*
X140629342Y-87786200D01*
X140589781Y-87753472D01*
X140475356Y-87658811D01*
X140475352Y-87658809D01*
X140470606Y-87654882D01*
X140289386Y-87556897D01*
X140092585Y-87495977D01*
X140086460Y-87495333D01*
X140086459Y-87495333D01*
X139893829Y-87475087D01*
X139893827Y-87475087D01*
X139887700Y-87474443D01*
X139800860Y-87482346D01*
X139688673Y-87492555D01*
X139688670Y-87492556D01*
X139682534Y-87493114D01*
X139484903Y-87551280D01*
X139302333Y-87646726D01*
X139297532Y-87650586D01*
X139297529Y-87650588D01*
X139209151Y-87721646D01*
X139141778Y-87775815D01*
X139009355Y-87933630D01*
X139006387Y-87939028D01*
X139006384Y-87939033D01*
X138952935Y-88036258D01*
X138910107Y-88114162D01*
X138847815Y-88310532D01*
X138847129Y-88316649D01*
X138847128Y-88316653D01*
X138836367Y-88412592D01*
X138824851Y-88515262D01*
X129600000Y-88515262D01*
X129600000Y-87130262D01*
X135984851Y-87130262D01*
X135985367Y-87136406D01*
X136000712Y-87319139D01*
X136002090Y-87335553D01*
X136003789Y-87341478D01*
X136047769Y-87494853D01*
X136058875Y-87533586D01*
X136061690Y-87539063D01*
X136061691Y-87539066D01*
X136126145Y-87664480D01*
X136153043Y-87716818D01*
X136281008Y-87878270D01*
X136437895Y-88011791D01*
X136443273Y-88014797D01*
X136443275Y-88014798D01*
X136481673Y-88036258D01*
X136617729Y-88112297D01*
X136683444Y-88133649D01*
X136807802Y-88174056D01*
X136807806Y-88174057D01*
X136813660Y-88175959D01*
X137018225Y-88200351D01*
X137024360Y-88199879D01*
X137024362Y-88199879D01*
X137080370Y-88195569D01*
X137223631Y-88184546D01*
X137229561Y-88182890D01*
X137229563Y-88182890D01*
X137416128Y-88130800D01*
X137416127Y-88130800D01*
X137422056Y-88129145D01*
X137427545Y-88126372D01*
X137427551Y-88126370D01*
X137600447Y-88039033D01*
X137605941Y-88036258D01*
X137628452Y-88018671D01*
X137734880Y-87935520D01*
X137768282Y-87909424D01*
X137785150Y-87889883D01*
X137898871Y-87758134D01*
X137898871Y-87758133D01*
X137902895Y-87753472D01*
X137923718Y-87716818D01*
X137941387Y-87685714D01*
X138004654Y-87574344D01*
X138069682Y-87378863D01*
X138095502Y-87174474D01*
X138095914Y-87145000D01*
X138075811Y-86939970D01*
X138016266Y-86742749D01*
X137919549Y-86560849D01*
X137846190Y-86470902D01*
X137793237Y-86405975D01*
X137793234Y-86405972D01*
X137789342Y-86401200D01*
X137755416Y-86373134D01*
X137635356Y-86273811D01*
X137635352Y-86273809D01*
X137630606Y-86269882D01*
X137449386Y-86171897D01*
X137252585Y-86110977D01*
X137246460Y-86110333D01*
X137246459Y-86110333D01*
X137053829Y-86090087D01*
X137053827Y-86090087D01*
X137047700Y-86089443D01*
X136960860Y-86097346D01*
X136848673Y-86107555D01*
X136848670Y-86107556D01*
X136842534Y-86108114D01*
X136644903Y-86166280D01*
X136462333Y-86261726D01*
X136457532Y-86265586D01*
X136457529Y-86265588D01*
X136369544Y-86336330D01*
X136301778Y-86390815D01*
X136169355Y-86548630D01*
X136166387Y-86554028D01*
X136166384Y-86554033D01*
X136078331Y-86714203D01*
X136070107Y-86729162D01*
X136007815Y-86925532D01*
X136007129Y-86931649D01*
X136007128Y-86931653D01*
X135987798Y-87103989D01*
X135984851Y-87130262D01*
X129600000Y-87130262D01*
X129600000Y-85745262D01*
X138824851Y-85745262D01*
X138825367Y-85751406D01*
X138840828Y-85935520D01*
X138842090Y-85950553D01*
X138843789Y-85956478D01*
X138896933Y-86141812D01*
X138898875Y-86148586D01*
X138901690Y-86154063D01*
X138901691Y-86154066D01*
X138988976Y-86323904D01*
X138993043Y-86331818D01*
X139121008Y-86493270D01*
X139125701Y-86497264D01*
X139125702Y-86497265D01*
X139235827Y-86590988D01*
X139277895Y-86626791D01*
X139457729Y-86727297D01*
X139523444Y-86748649D01*
X139647802Y-86789056D01*
X139647806Y-86789057D01*
X139653660Y-86790959D01*
X139858225Y-86815351D01*
X139864360Y-86814879D01*
X139864362Y-86814879D01*
X139920370Y-86810569D01*
X140063631Y-86799546D01*
X140069561Y-86797890D01*
X140069563Y-86797890D01*
X140256128Y-86745800D01*
X140256127Y-86745800D01*
X140262056Y-86744145D01*
X140267545Y-86741372D01*
X140267551Y-86741370D01*
X140409810Y-86669509D01*
X140445941Y-86651258D01*
X140451754Y-86646717D01*
X140532917Y-86583305D01*
X140608282Y-86524424D01*
X140742895Y-86368472D01*
X140763718Y-86331818D01*
X140805158Y-86258869D01*
X140844654Y-86189344D01*
X140909682Y-85993863D01*
X140935502Y-85789474D01*
X140935914Y-85760000D01*
X140915811Y-85554970D01*
X140856266Y-85357749D01*
X140759549Y-85175849D01*
X140657256Y-85050426D01*
X140633237Y-85020975D01*
X140633234Y-85020972D01*
X140629342Y-85016200D01*
X140578979Y-84974536D01*
X140475356Y-84888811D01*
X140475352Y-84888809D01*
X140470606Y-84884882D01*
X140289386Y-84786897D01*
X140092585Y-84725977D01*
X140086460Y-84725333D01*
X140086459Y-84725333D01*
X139893829Y-84705087D01*
X139893827Y-84705087D01*
X139887700Y-84704443D01*
X139800860Y-84712346D01*
X139688673Y-84722555D01*
X139688670Y-84722556D01*
X139682534Y-84723114D01*
X139484903Y-84781280D01*
X139302333Y-84876726D01*
X139297532Y-84880586D01*
X139297529Y-84880588D01*
X139180681Y-84974536D01*
X139141778Y-85005815D01*
X139009355Y-85163630D01*
X139006387Y-85169028D01*
X139006384Y-85169033D01*
X138927342Y-85312812D01*
X138910107Y-85344162D01*
X138847815Y-85540532D01*
X138847129Y-85546649D01*
X138847128Y-85546653D01*
X138831146Y-85689141D01*
X138824851Y-85745262D01*
X129600000Y-85745262D01*
X129600000Y-84360262D01*
X135984851Y-84360262D01*
X135985367Y-84366406D01*
X136000434Y-84545828D01*
X136002090Y-84565553D01*
X136003789Y-84571478D01*
X136047769Y-84724853D01*
X136058875Y-84763586D01*
X136061690Y-84769063D01*
X136061691Y-84769066D01*
X136136855Y-84915320D01*
X136153043Y-84946818D01*
X136281008Y-85108270D01*
X136285701Y-85112264D01*
X136285702Y-85112265D01*
X136430527Y-85235520D01*
X136437895Y-85241791D01*
X136443273Y-85244797D01*
X136443275Y-85244798D01*
X136474894Y-85262469D01*
X136617729Y-85342297D01*
X136696382Y-85367853D01*
X136807802Y-85404056D01*
X136807806Y-85404057D01*
X136813660Y-85405959D01*
X137018225Y-85430351D01*
X137024360Y-85429879D01*
X137024362Y-85429879D01*
X137080370Y-85425569D01*
X137223631Y-85414546D01*
X137229561Y-85412890D01*
X137229563Y-85412890D01*
X137405924Y-85363649D01*
X137422056Y-85359145D01*
X137427545Y-85356372D01*
X137427551Y-85356370D01*
X137564507Y-85287188D01*
X137605941Y-85266258D01*
X137632091Y-85245828D01*
X137730384Y-85169033D01*
X137768282Y-85139424D01*
X137778840Y-85127193D01*
X137898871Y-84988134D01*
X137898871Y-84988133D01*
X137902895Y-84983472D01*
X137907972Y-84974536D01*
X137994411Y-84822375D01*
X138004654Y-84804344D01*
X138069682Y-84608863D01*
X138095502Y-84404474D01*
X138095914Y-84375000D01*
X138075811Y-84169970D01*
X138016266Y-83972749D01*
X137919549Y-83790849D01*
X137796476Y-83639947D01*
X137793237Y-83635975D01*
X137793234Y-83635972D01*
X137789342Y-83631200D01*
X137772117Y-83616950D01*
X137635356Y-83503811D01*
X137635352Y-83503809D01*
X137630606Y-83499882D01*
X137449386Y-83401897D01*
X137252585Y-83340977D01*
X137246460Y-83340333D01*
X137246459Y-83340333D01*
X137053829Y-83320087D01*
X137053827Y-83320087D01*
X137047700Y-83319443D01*
X136960860Y-83327346D01*
X136848673Y-83337555D01*
X136848670Y-83337556D01*
X136842534Y-83338114D01*
X136644903Y-83396280D01*
X136462333Y-83491726D01*
X136457532Y-83495586D01*
X136457529Y-83495588D01*
X136336231Y-83593114D01*
X136301778Y-83620815D01*
X136169355Y-83778630D01*
X136166387Y-83784028D01*
X136166384Y-83784033D01*
X136097467Y-83909394D01*
X136070107Y-83959162D01*
X136007815Y-84155532D01*
X136007129Y-84161649D01*
X136007128Y-84161653D01*
X135985538Y-84354137D01*
X135984851Y-84360262D01*
X129600000Y-84360262D01*
X129600000Y-82975262D01*
X138824851Y-82975262D01*
X138826089Y-82990000D01*
X138837390Y-83124577D01*
X138842090Y-83180553D01*
X138843789Y-83186478D01*
X138892918Y-83357810D01*
X138898875Y-83378586D01*
X138901690Y-83384063D01*
X138901691Y-83384066D01*
X138990228Y-83556341D01*
X138993043Y-83561818D01*
X139121008Y-83723270D01*
X139125701Y-83727264D01*
X139125702Y-83727265D01*
X139184886Y-83777634D01*
X139277895Y-83856791D01*
X139457729Y-83957297D01*
X139523444Y-83978649D01*
X139647802Y-84019056D01*
X139647806Y-84019057D01*
X139653660Y-84020959D01*
X139858225Y-84045351D01*
X139864360Y-84044879D01*
X139864362Y-84044879D01*
X139920370Y-84040569D01*
X140063631Y-84029546D01*
X140069561Y-84027890D01*
X140069563Y-84027890D01*
X140256128Y-83975800D01*
X140256127Y-83975800D01*
X140262056Y-83974145D01*
X140267545Y-83971372D01*
X140267551Y-83971370D01*
X140440447Y-83884033D01*
X140445941Y-83881258D01*
X140453707Y-83875191D01*
X140572264Y-83782564D01*
X140608282Y-83754424D01*
X140618210Y-83742923D01*
X140738871Y-83603134D01*
X140738871Y-83603133D01*
X140742895Y-83598472D01*
X140746679Y-83591812D01*
X140803535Y-83491726D01*
X140844654Y-83419344D01*
X140909682Y-83223863D01*
X140935502Y-83019474D01*
X140935774Y-83000000D01*
X140935865Y-82993522D01*
X140935865Y-82993518D01*
X140935914Y-82990000D01*
X140935712Y-82987938D01*
X143244453Y-82987938D01*
X143244625Y-82991333D01*
X143244625Y-82991334D01*
X143256701Y-83229715D01*
X143263362Y-83361205D01*
X143263899Y-83364560D01*
X143263900Y-83364566D01*
X143291585Y-83537408D01*
X143322473Y-83730247D01*
X143421094Y-84090747D01*
X143558073Y-84438487D01*
X143568416Y-84458188D01*
X143730222Y-84766383D01*
X143730227Y-84766391D01*
X143731806Y-84769399D01*
X143940261Y-85079613D01*
X144180999Y-85365499D01*
X144451205Y-85623714D01*
X144747718Y-85851236D01*
X144835543Y-85904634D01*
X145064154Y-86043632D01*
X145064159Y-86043635D01*
X145067069Y-86045404D01*
X145070157Y-86046850D01*
X145070156Y-86046850D01*
X145402437Y-86202503D01*
X145402447Y-86202507D01*
X145405521Y-86203947D01*
X145408739Y-86205049D01*
X145408742Y-86205050D01*
X145755886Y-86323904D01*
X145755890Y-86323905D01*
X145759117Y-86325010D01*
X145762447Y-86325760D01*
X145762456Y-86325763D01*
X146020298Y-86383869D01*
X146123719Y-86407176D01*
X146127105Y-86407562D01*
X146127112Y-86407563D01*
X146491680Y-86449101D01*
X146491688Y-86449101D01*
X146495063Y-86449486D01*
X146498467Y-86449504D01*
X146498470Y-86449504D01*
X146701889Y-86450569D01*
X146868804Y-86451443D01*
X146872190Y-86451093D01*
X146872192Y-86451093D01*
X147237178Y-86413375D01*
X147237186Y-86413374D01*
X147240570Y-86413024D01*
X147243903Y-86412309D01*
X147243906Y-86412309D01*
X147510062Y-86355250D01*
X147606013Y-86334680D01*
X147960857Y-86217327D01*
X148108592Y-86150000D01*
X180994318Y-86150000D01*
X181014956Y-86306762D01*
X181075464Y-86452841D01*
X181171718Y-86578282D01*
X181178264Y-86583305D01*
X181188277Y-86590988D01*
X181297159Y-86674536D01*
X181367058Y-86703489D01*
X181392923Y-86714203D01*
X181448204Y-86758752D01*
X181470625Y-86826115D01*
X181453067Y-86894906D01*
X181416073Y-86934451D01*
X181399120Y-86946103D01*
X181363349Y-86970688D01*
X181358297Y-86976358D01*
X181358296Y-86976359D01*
X181255612Y-87091608D01*
X181255610Y-87091612D01*
X181250560Y-87097279D01*
X181247008Y-87103988D01*
X181247007Y-87103989D01*
X181236339Y-87124137D01*
X181171224Y-87247119D01*
X181129919Y-87411559D01*
X181129031Y-87581105D01*
X181130805Y-87588492D01*
X181130805Y-87588496D01*
X181162773Y-87721646D01*
X181168612Y-87745968D01*
X181246375Y-87896631D01*
X181251367Y-87902353D01*
X181251368Y-87902355D01*
X181289310Y-87945849D01*
X181357831Y-88024396D01*
X181416351Y-88065525D01*
X181490330Y-88117518D01*
X181490332Y-88117519D01*
X181496547Y-88121887D01*
X181654513Y-88183476D01*
X181662046Y-88184468D01*
X181662047Y-88184468D01*
X181779109Y-88199879D01*
X181783826Y-88200500D01*
X183372516Y-88200500D01*
X183498320Y-88185276D01*
X183656923Y-88125345D01*
X183796651Y-88029312D01*
X183812262Y-88011791D01*
X183904388Y-87908392D01*
X183904390Y-87908388D01*
X183909440Y-87902721D01*
X183916238Y-87889883D01*
X183945254Y-87835080D01*
X183988776Y-87752881D01*
X184030081Y-87588441D01*
X184030120Y-87581105D01*
X184859031Y-87581105D01*
X184860805Y-87588492D01*
X184860805Y-87588496D01*
X184892773Y-87721646D01*
X184898612Y-87745968D01*
X184976375Y-87896631D01*
X184981367Y-87902353D01*
X184981368Y-87902355D01*
X185019310Y-87945849D01*
X185087831Y-88024396D01*
X185146351Y-88065525D01*
X185220330Y-88117518D01*
X185220332Y-88117519D01*
X185226547Y-88121887D01*
X185384513Y-88183476D01*
X185392046Y-88184468D01*
X185392047Y-88184468D01*
X185509109Y-88199879D01*
X185513826Y-88200500D01*
X186402516Y-88200500D01*
X186528320Y-88185276D01*
X186686923Y-88125345D01*
X186826651Y-88029312D01*
X186842262Y-88011791D01*
X186934388Y-87908392D01*
X186934390Y-87908388D01*
X186939440Y-87902721D01*
X186946238Y-87889883D01*
X186975254Y-87835080D01*
X187018776Y-87752881D01*
X187060081Y-87588441D01*
X187060186Y-87568491D01*
X187060929Y-87426495D01*
X187060969Y-87418895D01*
X187058205Y-87407379D01*
X187023161Y-87261417D01*
X187021388Y-87254032D01*
X187016598Y-87244750D01*
X186947108Y-87110117D01*
X186947108Y-87110116D01*
X186943625Y-87103369D01*
X186938313Y-87097279D01*
X186837163Y-86981329D01*
X186832169Y-86975604D01*
X186717347Y-86894906D01*
X186699670Y-86882482D01*
X186699668Y-86882481D01*
X186693453Y-86878113D01*
X186535487Y-86816524D01*
X186527954Y-86815532D01*
X186527953Y-86815532D01*
X186410261Y-86800038D01*
X186410260Y-86800038D01*
X186406174Y-86799500D01*
X185517484Y-86799500D01*
X185391680Y-86814724D01*
X185233077Y-86874655D01*
X185226819Y-86878956D01*
X185099610Y-86966385D01*
X185093349Y-86970688D01*
X185088297Y-86976358D01*
X185088296Y-86976359D01*
X184985612Y-87091608D01*
X184985610Y-87091612D01*
X184980560Y-87097279D01*
X184977008Y-87103988D01*
X184977007Y-87103989D01*
X184966339Y-87124137D01*
X184901224Y-87247119D01*
X184859919Y-87411559D01*
X184859031Y-87581105D01*
X184030120Y-87581105D01*
X184030186Y-87568491D01*
X184030929Y-87426495D01*
X184030969Y-87418895D01*
X184028205Y-87407379D01*
X183993161Y-87261417D01*
X183991388Y-87254032D01*
X183986598Y-87244750D01*
X183917108Y-87110117D01*
X183917108Y-87110116D01*
X183913625Y-87103369D01*
X183908313Y-87097279D01*
X183807163Y-86981329D01*
X183802169Y-86975604D01*
X183687347Y-86894906D01*
X183669670Y-86882482D01*
X183669668Y-86882481D01*
X183663453Y-86878113D01*
X183505487Y-86816524D01*
X183497954Y-86815532D01*
X183497953Y-86815532D01*
X183433486Y-86807045D01*
X183368559Y-86778323D01*
X183329467Y-86719058D01*
X183328622Y-86648066D01*
X183366292Y-86587887D01*
X183371234Y-86583807D01*
X183371736Y-86583305D01*
X183378282Y-86578282D01*
X183474536Y-86452841D01*
X183535044Y-86306762D01*
X183555682Y-86150000D01*
X183535044Y-85993238D01*
X183474536Y-85847159D01*
X183438350Y-85800000D01*
X185494750Y-85800000D01*
X185513670Y-85943709D01*
X185569139Y-86077625D01*
X185657379Y-86192621D01*
X185772375Y-86280861D01*
X185906291Y-86336330D01*
X186050000Y-86355250D01*
X186193709Y-86336330D01*
X186327625Y-86280861D01*
X186442621Y-86192621D01*
X186530861Y-86077625D01*
X186586330Y-85943709D01*
X186605250Y-85800000D01*
X186586330Y-85656291D01*
X186530861Y-85522375D01*
X186442621Y-85407379D01*
X186327625Y-85319139D01*
X186193709Y-85263670D01*
X186050000Y-85244750D01*
X185906291Y-85263670D01*
X185772375Y-85319139D01*
X185657379Y-85407379D01*
X185569139Y-85522375D01*
X185513670Y-85656291D01*
X185494750Y-85800000D01*
X183438350Y-85800000D01*
X183407657Y-85760000D01*
X183385574Y-85731221D01*
X183382547Y-85723390D01*
X183368779Y-85714426D01*
X183293451Y-85656625D01*
X183252841Y-85625464D01*
X183106762Y-85564956D01*
X183077496Y-85561103D01*
X183015818Y-85552983D01*
X182950000Y-85544318D01*
X182910078Y-85549574D01*
X182839930Y-85538635D01*
X182804537Y-85513747D01*
X182679885Y-85389095D01*
X182645859Y-85326783D01*
X182647694Y-85301132D01*
X183314408Y-85301132D01*
X183314539Y-85302965D01*
X183318790Y-85309580D01*
X183534578Y-85525368D01*
X183547017Y-85548148D01*
X183559841Y-85552758D01*
X183574632Y-85565422D01*
X183696767Y-85687557D01*
X183709147Y-85694317D01*
X183716062Y-85689141D01*
X183734835Y-85656625D01*
X183740181Y-85644617D01*
X183791833Y-85485650D01*
X183794563Y-85472807D01*
X183812036Y-85306565D01*
X183812036Y-85293435D01*
X183794563Y-85127193D01*
X183791833Y-85114350D01*
X183740181Y-84955383D01*
X183734835Y-84943375D01*
X183718637Y-84915320D01*
X183708431Y-84905589D01*
X183700410Y-84908800D01*
X183574632Y-85034578D01*
X183551852Y-85047017D01*
X183547242Y-85059841D01*
X183534578Y-85074632D01*
X183322022Y-85287188D01*
X183314408Y-85301132D01*
X182647694Y-85301132D01*
X182650924Y-85255968D01*
X182679885Y-85210905D01*
X182804537Y-85086253D01*
X182866849Y-85052227D01*
X182910077Y-85050426D01*
X182950000Y-85055682D01*
X182958188Y-85054604D01*
X183014109Y-85047242D01*
X183106762Y-85035044D01*
X183252841Y-84974536D01*
X183368779Y-84885574D01*
X183376610Y-84882547D01*
X183385574Y-84868779D01*
X183438055Y-84800384D01*
X183474536Y-84752841D01*
X183535044Y-84606762D01*
X183555682Y-84450000D01*
X183535044Y-84293238D01*
X183474536Y-84147159D01*
X183439657Y-84101704D01*
X183414056Y-84035484D01*
X183428321Y-83965935D01*
X183439657Y-83948296D01*
X183474536Y-83902841D01*
X183535044Y-83756762D01*
X183555682Y-83600000D01*
X183535044Y-83443238D01*
X183474536Y-83297159D01*
X183439657Y-83251704D01*
X183414056Y-83185484D01*
X183428321Y-83115935D01*
X183439657Y-83098296D01*
X183474536Y-83052841D01*
X183535044Y-82906762D01*
X183555682Y-82750000D01*
X183535044Y-82593238D01*
X183474536Y-82447159D01*
X183439657Y-82401704D01*
X183419668Y-82350000D01*
X185994750Y-82350000D01*
X186013670Y-82493709D01*
X186069139Y-82627625D01*
X186157379Y-82742621D01*
X186272375Y-82830861D01*
X186406291Y-82886330D01*
X186550000Y-82905250D01*
X186693709Y-82886330D01*
X186827625Y-82830861D01*
X186942621Y-82742621D01*
X187030861Y-82627625D01*
X187086330Y-82493709D01*
X187105250Y-82350000D01*
X187086330Y-82206291D01*
X187030861Y-82072375D01*
X186942621Y-81957379D01*
X186827625Y-81869139D01*
X186693709Y-81813670D01*
X186550000Y-81794750D01*
X186406291Y-81813670D01*
X186272375Y-81869139D01*
X186157379Y-81957379D01*
X186069139Y-82072375D01*
X186013670Y-82206291D01*
X185994750Y-82350000D01*
X183419668Y-82350000D01*
X183414056Y-82335484D01*
X183428321Y-82265935D01*
X183439657Y-82248296D01*
X183441332Y-82246113D01*
X183474536Y-82202841D01*
X183535044Y-82056762D01*
X183555682Y-81900000D01*
X183544733Y-81816831D01*
X183536122Y-81751426D01*
X183535044Y-81743238D01*
X183474536Y-81597159D01*
X183385574Y-81481221D01*
X183382547Y-81473390D01*
X183368779Y-81464426D01*
X183306736Y-81416819D01*
X183252841Y-81375464D01*
X183106762Y-81314956D01*
X183091085Y-81312892D01*
X183015818Y-81302983D01*
X182950000Y-81294318D01*
X182910078Y-81299574D01*
X182839930Y-81288635D01*
X182804537Y-81263747D01*
X182679885Y-81139095D01*
X182645859Y-81076783D01*
X182647694Y-81051132D01*
X183314408Y-81051132D01*
X183314539Y-81052965D01*
X183318790Y-81059580D01*
X183534578Y-81275368D01*
X183547017Y-81298148D01*
X183559841Y-81302758D01*
X183574632Y-81315422D01*
X183696767Y-81437557D01*
X183709147Y-81444317D01*
X183716062Y-81439141D01*
X183734835Y-81406625D01*
X183740181Y-81394617D01*
X183791833Y-81235650D01*
X183794563Y-81222807D01*
X183812036Y-81056565D01*
X183812036Y-81043435D01*
X183794563Y-80877193D01*
X183791833Y-80864350D01*
X183740181Y-80705383D01*
X183734835Y-80693375D01*
X183718637Y-80665320D01*
X183708431Y-80655589D01*
X183700410Y-80658800D01*
X183574632Y-80784578D01*
X183551852Y-80797017D01*
X183547242Y-80809841D01*
X183534578Y-80824632D01*
X183322022Y-81037188D01*
X183314408Y-81051132D01*
X182647694Y-81051132D01*
X182650924Y-81005968D01*
X182679885Y-80960905D01*
X182804537Y-80836253D01*
X182866849Y-80802227D01*
X182910077Y-80800426D01*
X182950000Y-80805682D01*
X182958188Y-80804604D01*
X183014109Y-80797242D01*
X183055308Y-80791818D01*
X183098574Y-80786122D01*
X183106762Y-80785044D01*
X183252841Y-80724536D01*
X183368779Y-80635574D01*
X183376610Y-80632547D01*
X183385574Y-80618779D01*
X183469509Y-80509392D01*
X183474536Y-80502841D01*
X183535044Y-80356762D01*
X183537899Y-80335080D01*
X183554604Y-80208188D01*
X183555682Y-80200000D01*
X183535044Y-80043238D01*
X183474536Y-79897159D01*
X183378282Y-79771718D01*
X183371736Y-79766695D01*
X183365891Y-79760850D01*
X183367232Y-79759509D01*
X183331558Y-79710658D01*
X183327332Y-79639788D01*
X183362093Y-79577883D01*
X183424804Y-79544598D01*
X183434989Y-79542940D01*
X183446662Y-79541527D01*
X183498320Y-79535276D01*
X183656923Y-79475345D01*
X183676413Y-79461950D01*
X183790392Y-79383614D01*
X183790393Y-79383613D01*
X183796651Y-79379312D01*
X183815622Y-79358020D01*
X183904388Y-79258392D01*
X183904390Y-79258388D01*
X183909440Y-79252721D01*
X183913489Y-79245075D01*
X183955254Y-79166193D01*
X183988776Y-79102881D01*
X184030081Y-78938441D01*
X184030120Y-78931105D01*
X184859031Y-78931105D01*
X184860805Y-78938492D01*
X184860805Y-78938496D01*
X184893509Y-79074715D01*
X184898612Y-79095968D01*
X184902093Y-79102712D01*
X184902094Y-79102715D01*
X184967309Y-79229066D01*
X184976375Y-79246631D01*
X184981367Y-79252353D01*
X184981368Y-79252355D01*
X185028419Y-79306291D01*
X185087831Y-79374396D01*
X185124380Y-79400083D01*
X185220330Y-79467518D01*
X185220332Y-79467519D01*
X185226547Y-79471887D01*
X185384513Y-79533476D01*
X185392046Y-79534468D01*
X185392047Y-79534468D01*
X185509739Y-79549962D01*
X185513826Y-79550500D01*
X186402516Y-79550500D01*
X186528320Y-79535276D01*
X186686923Y-79475345D01*
X186706413Y-79461950D01*
X186820392Y-79383614D01*
X186820393Y-79383613D01*
X186826651Y-79379312D01*
X186845622Y-79358020D01*
X186934388Y-79258392D01*
X186934390Y-79258388D01*
X186939440Y-79252721D01*
X186943489Y-79245075D01*
X186985254Y-79166193D01*
X187018776Y-79102881D01*
X187060081Y-78938441D01*
X187060217Y-78912592D01*
X187060929Y-78776495D01*
X187060969Y-78768895D01*
X187047977Y-78714778D01*
X187023161Y-78611417D01*
X187021388Y-78604032D01*
X186984045Y-78531680D01*
X186947108Y-78460117D01*
X186947108Y-78460116D01*
X186943625Y-78453369D01*
X186938313Y-78447279D01*
X186837163Y-78331329D01*
X186832169Y-78325604D01*
X186718659Y-78245828D01*
X186699670Y-78232482D01*
X186699668Y-78232481D01*
X186693453Y-78228113D01*
X186535487Y-78166524D01*
X186527954Y-78165532D01*
X186527953Y-78165532D01*
X186410261Y-78150038D01*
X186410260Y-78150038D01*
X186406174Y-78149500D01*
X185517484Y-78149500D01*
X185391680Y-78164724D01*
X185233077Y-78224655D01*
X185226819Y-78228956D01*
X185100201Y-78315979D01*
X185093349Y-78320688D01*
X185088297Y-78326358D01*
X185088296Y-78326359D01*
X184985612Y-78441608D01*
X184985610Y-78441612D01*
X184980560Y-78447279D01*
X184977008Y-78453988D01*
X184977007Y-78453989D01*
X184960076Y-78485966D01*
X184901224Y-78597119D01*
X184859919Y-78761559D01*
X184859879Y-78769157D01*
X184859879Y-78769159D01*
X184859579Y-78826406D01*
X184859031Y-78931105D01*
X184030120Y-78931105D01*
X184030217Y-78912592D01*
X184030929Y-78776495D01*
X184030969Y-78768895D01*
X184017977Y-78714778D01*
X183993161Y-78611417D01*
X183991388Y-78604032D01*
X183954045Y-78531680D01*
X183917108Y-78460117D01*
X183917108Y-78460116D01*
X183913625Y-78453369D01*
X183908313Y-78447279D01*
X183807163Y-78331329D01*
X183802169Y-78325604D01*
X183688659Y-78245828D01*
X183669670Y-78232482D01*
X183669668Y-78232481D01*
X183663453Y-78228113D01*
X183505487Y-78166524D01*
X183497954Y-78165532D01*
X183497953Y-78165532D01*
X183380261Y-78150038D01*
X183380260Y-78150038D01*
X183376174Y-78149500D01*
X181787484Y-78149500D01*
X181661680Y-78164724D01*
X181503077Y-78224655D01*
X181496819Y-78228956D01*
X181370201Y-78315979D01*
X181363349Y-78320688D01*
X181358297Y-78326358D01*
X181358296Y-78326359D01*
X181255612Y-78441608D01*
X181255610Y-78441612D01*
X181250560Y-78447279D01*
X181247008Y-78453988D01*
X181247007Y-78453989D01*
X181230076Y-78485966D01*
X181171224Y-78597119D01*
X181129919Y-78761559D01*
X181129879Y-78769157D01*
X181129879Y-78769159D01*
X181129579Y-78826406D01*
X181129031Y-78931105D01*
X181130805Y-78938492D01*
X181130805Y-78938496D01*
X181163509Y-79074715D01*
X181168612Y-79095968D01*
X181172093Y-79102712D01*
X181172094Y-79102715D01*
X181237309Y-79229066D01*
X181246375Y-79246631D01*
X181251367Y-79252353D01*
X181251368Y-79252355D01*
X181298419Y-79306291D01*
X181357831Y-79374396D01*
X181364044Y-79378763D01*
X181364049Y-79378767D01*
X181417344Y-79416223D01*
X181461576Y-79471757D01*
X181468762Y-79542389D01*
X181436621Y-79605694D01*
X181393112Y-79635719D01*
X181297159Y-79675464D01*
X181171718Y-79771718D01*
X181075464Y-79897159D01*
X181014956Y-80043238D01*
X180994318Y-80200000D01*
X180995396Y-80208188D01*
X181012102Y-80335080D01*
X181014956Y-80356762D01*
X181075464Y-80502841D01*
X181080491Y-80509392D01*
X181164426Y-80618779D01*
X181167453Y-80626610D01*
X181181221Y-80635574D01*
X181297159Y-80724536D01*
X181443238Y-80785044D01*
X181451426Y-80786122D01*
X181494692Y-80791818D01*
X181600000Y-80805682D01*
X181639922Y-80800426D01*
X181710070Y-80811365D01*
X181745463Y-80836253D01*
X181870115Y-80960905D01*
X181904141Y-81023217D01*
X181899076Y-81094032D01*
X181870115Y-81139095D01*
X181745463Y-81263747D01*
X181683151Y-81297773D01*
X181639923Y-81299574D01*
X181600000Y-81294318D01*
X181534182Y-81302983D01*
X181458916Y-81312892D01*
X181443238Y-81314956D01*
X181297159Y-81375464D01*
X181243264Y-81416819D01*
X181181221Y-81464426D01*
X181173390Y-81467453D01*
X181164426Y-81481221D01*
X181075464Y-81597159D01*
X181014956Y-81743238D01*
X181013878Y-81751426D01*
X181005267Y-81816831D01*
X180994318Y-81900000D01*
X181014956Y-82056762D01*
X181075464Y-82202841D01*
X181108668Y-82246113D01*
X181110343Y-82248296D01*
X181135944Y-82314516D01*
X181121679Y-82384065D01*
X181110344Y-82401703D01*
X181075464Y-82447159D01*
X181014956Y-82593238D01*
X180994318Y-82750000D01*
X181014956Y-82906762D01*
X181075464Y-83052841D01*
X181110343Y-83098296D01*
X181135944Y-83164516D01*
X181121679Y-83234065D01*
X181110344Y-83251703D01*
X181075464Y-83297159D01*
X181014956Y-83443238D01*
X180994318Y-83600000D01*
X181014956Y-83756762D01*
X181075464Y-83902841D01*
X181110343Y-83948296D01*
X181135944Y-84014516D01*
X181121679Y-84084065D01*
X181110344Y-84101703D01*
X181075464Y-84147159D01*
X181014956Y-84293238D01*
X180994318Y-84450000D01*
X181014956Y-84606762D01*
X181075464Y-84752841D01*
X181111945Y-84800384D01*
X181164426Y-84868779D01*
X181167453Y-84876610D01*
X181181221Y-84885574D01*
X181297159Y-84974536D01*
X181443238Y-85035044D01*
X181600000Y-85055682D01*
X181639922Y-85050426D01*
X181710070Y-85061365D01*
X181745463Y-85086253D01*
X181870115Y-85210905D01*
X181904141Y-85273217D01*
X181899076Y-85344032D01*
X181870115Y-85389095D01*
X181745463Y-85513747D01*
X181683151Y-85547773D01*
X181639923Y-85549574D01*
X181600000Y-85544318D01*
X181534182Y-85552983D01*
X181472505Y-85561103D01*
X181443238Y-85564956D01*
X181297159Y-85625464D01*
X181256549Y-85656625D01*
X181181221Y-85714426D01*
X181173390Y-85717453D01*
X181164426Y-85731221D01*
X181142343Y-85760000D01*
X181075464Y-85847159D01*
X181014956Y-85993238D01*
X180994318Y-86150000D01*
X148108592Y-86150000D01*
X148300951Y-86062337D01*
X148303888Y-86060593D01*
X148303894Y-86060590D01*
X148619383Y-85873265D01*
X148622317Y-85871523D01*
X148921196Y-85647119D01*
X149194092Y-85391748D01*
X149421645Y-85127193D01*
X149435585Y-85110986D01*
X149437811Y-85108398D01*
X149443583Y-85100000D01*
X155044750Y-85100000D01*
X155063670Y-85243709D01*
X155119139Y-85377625D01*
X155207379Y-85492621D01*
X155322375Y-85580861D01*
X155456291Y-85636330D01*
X155600000Y-85655250D01*
X155743709Y-85636330D01*
X155877625Y-85580861D01*
X155992621Y-85492621D01*
X156080861Y-85377625D01*
X156136330Y-85243709D01*
X156148241Y-85153237D01*
X160553864Y-85153237D01*
X160572784Y-85296946D01*
X160628253Y-85430862D01*
X160716493Y-85545858D01*
X160831489Y-85634098D01*
X160965405Y-85689567D01*
X161109114Y-85708487D01*
X161252823Y-85689567D01*
X161386739Y-85634098D01*
X161501735Y-85545858D01*
X161589975Y-85430862D01*
X161641460Y-85306565D01*
X180737964Y-85306565D01*
X180755437Y-85472807D01*
X180758167Y-85485650D01*
X180809819Y-85644617D01*
X180815165Y-85656625D01*
X180831363Y-85684680D01*
X180841569Y-85694411D01*
X180849590Y-85691200D01*
X180975368Y-85565422D01*
X180998148Y-85552983D01*
X181002758Y-85540159D01*
X181015422Y-85525368D01*
X181227978Y-85312812D01*
X181235592Y-85298868D01*
X181235461Y-85297035D01*
X181231210Y-85290420D01*
X181015422Y-85074632D01*
X181002983Y-85051852D01*
X180990159Y-85047242D01*
X180975368Y-85034578D01*
X180853233Y-84912443D01*
X180840853Y-84905683D01*
X180833938Y-84910859D01*
X180815165Y-84943375D01*
X180809819Y-84955383D01*
X180758167Y-85114350D01*
X180755437Y-85127193D01*
X180737964Y-85293435D01*
X180737964Y-85306565D01*
X161641460Y-85306565D01*
X161645444Y-85296946D01*
X161664364Y-85153237D01*
X161645444Y-85009528D01*
X161589975Y-84875612D01*
X161501735Y-84760616D01*
X161386739Y-84672376D01*
X161252823Y-84616907D01*
X161109114Y-84597987D01*
X160965405Y-84616907D01*
X160831489Y-84672376D01*
X160716493Y-84760616D01*
X160628253Y-84875612D01*
X160572784Y-85009528D01*
X160553864Y-85153237D01*
X156148241Y-85153237D01*
X156155250Y-85100000D01*
X156136330Y-84956291D01*
X156080861Y-84822375D01*
X155992621Y-84707379D01*
X155877625Y-84619139D01*
X155743709Y-84563670D01*
X155600000Y-84544750D01*
X155456291Y-84563670D01*
X155322375Y-84619139D01*
X155207379Y-84707379D01*
X155119139Y-84822375D01*
X155063670Y-84956291D01*
X155044750Y-85100000D01*
X149443583Y-85100000D01*
X149593444Y-84881951D01*
X149647573Y-84803193D01*
X149647578Y-84803186D01*
X149649503Y-84800384D01*
X149651115Y-84797390D01*
X149651120Y-84797382D01*
X149825069Y-84474321D01*
X149826691Y-84471309D01*
X149967304Y-84125023D01*
X149997490Y-84019056D01*
X150030594Y-83902841D01*
X150069695Y-83765576D01*
X150076309Y-83726881D01*
X150132095Y-83400520D01*
X150132095Y-83400518D01*
X150132667Y-83397173D01*
X150132946Y-83392621D01*
X150153327Y-83059394D01*
X150155484Y-83024124D01*
X150155523Y-83012993D01*
X150155562Y-83001820D01*
X150155562Y-83001808D01*
X150155568Y-83000000D01*
X154194750Y-83000000D01*
X154213670Y-83143709D01*
X154269139Y-83277625D01*
X154357379Y-83392621D01*
X154472375Y-83480861D01*
X154606291Y-83536330D01*
X154750000Y-83555250D01*
X154893709Y-83536330D01*
X155027625Y-83480861D01*
X155142621Y-83392621D01*
X155219362Y-83292611D01*
X168194394Y-83292611D01*
X168212999Y-83461135D01*
X168239360Y-83533169D01*
X168264964Y-83603134D01*
X168271266Y-83620356D01*
X168275502Y-83626659D01*
X168275502Y-83626660D01*
X168288574Y-83646113D01*
X168365830Y-83761083D01*
X168371442Y-83766190D01*
X168371445Y-83766193D01*
X168485612Y-83870077D01*
X168485616Y-83870080D01*
X168491233Y-83875191D01*
X168497906Y-83878814D01*
X168497910Y-83878817D01*
X168633558Y-83952467D01*
X168633560Y-83952468D01*
X168640235Y-83956092D01*
X168647584Y-83958020D01*
X168796883Y-83997188D01*
X168796885Y-83997188D01*
X168804233Y-83999116D01*
X168890609Y-84000473D01*
X168966161Y-84001660D01*
X168966164Y-84001660D01*
X168973760Y-84001779D01*
X168981165Y-84000083D01*
X168981166Y-84000083D01*
X169041586Y-83986245D01*
X169139029Y-83963928D01*
X169290498Y-83887747D01*
X169397580Y-83796290D01*
X169413651Y-83782564D01*
X169413652Y-83782563D01*
X169419423Y-83777634D01*
X169518361Y-83639947D01*
X169523702Y-83626660D01*
X169578766Y-83489687D01*
X169578767Y-83489685D01*
X169581601Y-83482634D01*
X169601502Y-83342799D01*
X169604909Y-83318862D01*
X169604909Y-83318859D01*
X169605490Y-83314778D01*
X169605645Y-83300000D01*
X169603840Y-83285080D01*
X169601004Y-83261653D01*
X169585276Y-83131680D01*
X169525345Y-82973077D01*
X169474140Y-82898574D01*
X169433614Y-82839608D01*
X169433613Y-82839607D01*
X169429312Y-82833349D01*
X169417514Y-82822837D01*
X169308392Y-82725612D01*
X169308388Y-82725610D01*
X169302721Y-82720560D01*
X169293773Y-82715822D01*
X169235080Y-82684746D01*
X169152881Y-82641224D01*
X168988441Y-82599919D01*
X168980843Y-82599879D01*
X168980841Y-82599879D01*
X168903668Y-82599475D01*
X168818895Y-82599031D01*
X168811508Y-82600805D01*
X168811504Y-82600805D01*
X168668162Y-82635220D01*
X168654032Y-82638612D01*
X168647288Y-82642093D01*
X168647285Y-82642094D01*
X168611913Y-82660351D01*
X168503369Y-82716375D01*
X168497647Y-82721367D01*
X168497645Y-82721368D01*
X168448020Y-82764659D01*
X168375604Y-82827831D01*
X168278113Y-82966547D01*
X168216524Y-83124513D01*
X168215532Y-83132046D01*
X168215532Y-83132047D01*
X168196367Y-83277625D01*
X168194394Y-83292611D01*
X155219362Y-83292611D01*
X155230861Y-83277625D01*
X155286330Y-83143709D01*
X155305250Y-83000000D01*
X155286330Y-82856291D01*
X155230861Y-82722375D01*
X155142621Y-82607379D01*
X155027625Y-82519139D01*
X154893709Y-82463670D01*
X154750000Y-82444750D01*
X154606291Y-82463670D01*
X154472375Y-82519139D01*
X154357379Y-82607379D01*
X154269139Y-82722375D01*
X154213670Y-82856291D01*
X154194750Y-83000000D01*
X150155568Y-83000000D01*
X150135356Y-82626801D01*
X150074957Y-82257967D01*
X149975078Y-81897814D01*
X149973008Y-81892611D01*
X149856563Y-81600000D01*
X164294750Y-81600000D01*
X164313670Y-81743709D01*
X164369139Y-81877625D01*
X164457379Y-81992621D01*
X164572375Y-82080861D01*
X164706291Y-82136330D01*
X164850000Y-82155250D01*
X164993709Y-82136330D01*
X165127625Y-82080861D01*
X165242621Y-81992621D01*
X165319362Y-81892611D01*
X172294394Y-81892611D01*
X172312999Y-82061135D01*
X172339360Y-82133169D01*
X172367873Y-82211083D01*
X172371266Y-82220356D01*
X172375502Y-82226659D01*
X172375502Y-82226660D01*
X172384831Y-82240543D01*
X172465830Y-82361083D01*
X172471442Y-82366190D01*
X172471445Y-82366193D01*
X172585612Y-82470077D01*
X172585616Y-82470080D01*
X172591233Y-82475191D01*
X172597906Y-82478814D01*
X172597910Y-82478817D01*
X172733558Y-82552467D01*
X172733560Y-82552468D01*
X172740235Y-82556092D01*
X172747584Y-82558020D01*
X172896883Y-82597188D01*
X172896885Y-82597188D01*
X172904233Y-82599116D01*
X172990609Y-82600473D01*
X173066161Y-82601660D01*
X173066164Y-82601660D01*
X173073760Y-82601779D01*
X173081165Y-82600083D01*
X173081166Y-82600083D01*
X173148524Y-82584656D01*
X173239029Y-82563928D01*
X173390498Y-82487747D01*
X173486388Y-82405849D01*
X173513651Y-82382564D01*
X173513652Y-82382563D01*
X173519423Y-82377634D01*
X173618361Y-82239947D01*
X173629004Y-82213472D01*
X173678766Y-82089687D01*
X173678767Y-82089685D01*
X173681601Y-82082634D01*
X173700114Y-81952555D01*
X173704909Y-81918862D01*
X173704909Y-81918859D01*
X173705490Y-81914778D01*
X173705645Y-81900000D01*
X173703840Y-81885080D01*
X173695067Y-81812592D01*
X173686599Y-81742611D01*
X176844394Y-81742611D01*
X176862999Y-81911135D01*
X176879409Y-81955977D01*
X176917892Y-82061135D01*
X176921266Y-82070356D01*
X176925502Y-82076659D01*
X176925502Y-82076660D01*
X176938574Y-82096113D01*
X177015830Y-82211083D01*
X177021442Y-82216190D01*
X177021445Y-82216193D01*
X177135612Y-82320077D01*
X177135616Y-82320080D01*
X177141233Y-82325191D01*
X177147906Y-82328814D01*
X177147910Y-82328817D01*
X177283558Y-82402467D01*
X177283560Y-82402468D01*
X177290235Y-82406092D01*
X177297584Y-82408020D01*
X177446883Y-82447188D01*
X177446885Y-82447188D01*
X177454233Y-82449116D01*
X177540609Y-82450473D01*
X177616161Y-82451660D01*
X177616164Y-82451660D01*
X177623760Y-82451779D01*
X177631165Y-82450083D01*
X177631166Y-82450083D01*
X177691586Y-82436245D01*
X177789029Y-82413928D01*
X177940498Y-82337747D01*
X178033908Y-82257967D01*
X178063651Y-82232564D01*
X178063652Y-82232563D01*
X178069423Y-82227634D01*
X178168361Y-82089947D01*
X178178059Y-82065822D01*
X178228766Y-81939687D01*
X178228767Y-81939685D01*
X178231601Y-81932634D01*
X178241087Y-81865979D01*
X178254909Y-81768862D01*
X178254909Y-81768859D01*
X178255490Y-81764778D01*
X178255645Y-81750000D01*
X178254341Y-81739220D01*
X178238524Y-81608522D01*
X178235276Y-81581680D01*
X178175345Y-81423077D01*
X178146076Y-81380491D01*
X178083614Y-81289608D01*
X178083613Y-81289607D01*
X178079312Y-81283349D01*
X178073119Y-81277831D01*
X177958392Y-81175612D01*
X177958388Y-81175610D01*
X177952721Y-81170560D01*
X177802881Y-81091224D01*
X177664899Y-81056565D01*
X180737964Y-81056565D01*
X180755437Y-81222807D01*
X180758167Y-81235650D01*
X180809819Y-81394617D01*
X180815165Y-81406625D01*
X180831363Y-81434680D01*
X180841569Y-81444411D01*
X180849590Y-81441200D01*
X180975368Y-81315422D01*
X180998148Y-81302983D01*
X181002758Y-81290159D01*
X181015422Y-81275368D01*
X181227978Y-81062812D01*
X181235592Y-81048868D01*
X181235461Y-81047035D01*
X181231210Y-81040420D01*
X181015422Y-80824632D01*
X181002983Y-80801852D01*
X180990159Y-80797242D01*
X180975368Y-80784578D01*
X180853233Y-80662443D01*
X180840853Y-80655683D01*
X180833938Y-80660859D01*
X180815165Y-80693375D01*
X180809819Y-80705383D01*
X180758167Y-80864350D01*
X180755437Y-80877193D01*
X180737964Y-81043435D01*
X180737964Y-81056565D01*
X177664899Y-81056565D01*
X177638441Y-81049919D01*
X177630843Y-81049879D01*
X177630841Y-81049879D01*
X177553668Y-81049475D01*
X177468895Y-81049031D01*
X177461508Y-81050805D01*
X177461504Y-81050805D01*
X177318162Y-81085220D01*
X177304032Y-81088612D01*
X177297288Y-81092093D01*
X177297285Y-81092094D01*
X177206223Y-81139095D01*
X177153369Y-81166375D01*
X177147647Y-81171367D01*
X177147645Y-81171368D01*
X177110072Y-81204145D01*
X177025604Y-81277831D01*
X177021237Y-81284045D01*
X176943526Y-81394617D01*
X176928113Y-81416547D01*
X176866524Y-81574513D01*
X176865532Y-81582046D01*
X176865532Y-81582047D01*
X176845785Y-81732047D01*
X176844394Y-81742611D01*
X173686599Y-81742611D01*
X173685276Y-81731680D01*
X173625345Y-81573077D01*
X173556832Y-81473390D01*
X173533614Y-81439608D01*
X173533613Y-81439607D01*
X173529312Y-81433349D01*
X173523119Y-81427831D01*
X173408392Y-81325612D01*
X173408388Y-81325610D01*
X173402721Y-81320560D01*
X173393773Y-81315822D01*
X173308848Y-81270857D01*
X173258005Y-81221304D01*
X173242023Y-81152129D01*
X173265977Y-81085296D01*
X173322261Y-81042022D01*
X173339678Y-81036682D01*
X173439029Y-81013928D01*
X173590498Y-80937747D01*
X173677755Y-80863222D01*
X173713651Y-80832564D01*
X173713652Y-80832563D01*
X173719423Y-80827634D01*
X173818361Y-80689947D01*
X173828261Y-80665320D01*
X173878766Y-80539687D01*
X173878767Y-80539685D01*
X173881601Y-80532634D01*
X173898132Y-80416478D01*
X173904909Y-80368862D01*
X173904909Y-80368859D01*
X173905490Y-80364778D01*
X173905645Y-80350000D01*
X173903840Y-80335080D01*
X173890339Y-80223522D01*
X173885276Y-80181680D01*
X173825345Y-80023077D01*
X173773388Y-79947480D01*
X173733614Y-79889608D01*
X173733613Y-79889607D01*
X173729312Y-79883349D01*
X173717514Y-79872837D01*
X173608392Y-79775612D01*
X173608388Y-79775610D01*
X173602721Y-79770560D01*
X173595422Y-79766695D01*
X173507222Y-79719996D01*
X173452881Y-79691224D01*
X173288441Y-79649919D01*
X173280843Y-79649879D01*
X173280841Y-79649879D01*
X173203668Y-79649475D01*
X173118895Y-79649031D01*
X173111508Y-79650805D01*
X173111504Y-79650805D01*
X172968162Y-79685220D01*
X172954032Y-79688612D01*
X172947288Y-79692093D01*
X172947285Y-79692094D01*
X172814073Y-79760850D01*
X172803369Y-79766375D01*
X172797647Y-79771367D01*
X172797645Y-79771368D01*
X172760053Y-79804162D01*
X172675604Y-79877831D01*
X172671237Y-79884045D01*
X172585067Y-80006653D01*
X172578113Y-80016547D01*
X172516524Y-80174513D01*
X172515532Y-80182046D01*
X172515532Y-80182047D01*
X172510131Y-80223077D01*
X172494394Y-80342611D01*
X172512999Y-80511135D01*
X172534124Y-80568862D01*
X172567791Y-80660859D01*
X172571266Y-80670356D01*
X172575502Y-80676659D01*
X172575502Y-80676660D01*
X172586734Y-80693375D01*
X172665830Y-80811083D01*
X172671442Y-80816190D01*
X172671445Y-80816193D01*
X172785612Y-80920077D01*
X172785616Y-80920080D01*
X172791233Y-80925191D01*
X172797910Y-80928816D01*
X172797911Y-80928817D01*
X172891628Y-80979701D01*
X172941950Y-81029784D01*
X172957206Y-81099122D01*
X172932554Y-81165701D01*
X172875819Y-81208383D01*
X172860937Y-81212946D01*
X172754032Y-81238612D01*
X172747288Y-81242093D01*
X172747285Y-81242094D01*
X172610117Y-81312892D01*
X172603369Y-81316375D01*
X172597647Y-81321367D01*
X172597645Y-81321368D01*
X172539256Y-81372304D01*
X172475604Y-81427831D01*
X172460965Y-81448660D01*
X172387129Y-81553719D01*
X172378113Y-81566547D01*
X172316524Y-81724513D01*
X172315532Y-81732046D01*
X172315532Y-81732047D01*
X172296367Y-81877625D01*
X172294394Y-81892611D01*
X165319362Y-81892611D01*
X165330861Y-81877625D01*
X165386330Y-81743709D01*
X165405250Y-81600000D01*
X165386330Y-81456291D01*
X165330861Y-81322375D01*
X165242621Y-81207379D01*
X165127625Y-81119139D01*
X164993709Y-81063670D01*
X164850000Y-81044750D01*
X164706291Y-81063670D01*
X164572375Y-81119139D01*
X164457379Y-81207379D01*
X164369139Y-81322375D01*
X164313670Y-81456291D01*
X164294750Y-81600000D01*
X149856563Y-81600000D01*
X149848676Y-81580180D01*
X149836887Y-81550555D01*
X149712602Y-81315822D01*
X149663595Y-81223263D01*
X149663593Y-81223260D01*
X149662000Y-81220251D01*
X149452463Y-80910767D01*
X149210728Y-80625722D01*
X149201509Y-80616973D01*
X149123147Y-80542611D01*
X160894394Y-80542611D01*
X160912999Y-80711135D01*
X160923448Y-80739687D01*
X160966478Y-80857271D01*
X160971266Y-80870356D01*
X160975502Y-80876659D01*
X160975502Y-80876660D01*
X160988574Y-80896113D01*
X161065830Y-81011083D01*
X161071442Y-81016190D01*
X161071445Y-81016193D01*
X161185612Y-81120077D01*
X161185616Y-81120080D01*
X161191233Y-81125191D01*
X161197906Y-81128814D01*
X161197910Y-81128817D01*
X161333558Y-81202467D01*
X161333560Y-81202468D01*
X161340235Y-81206092D01*
X161347584Y-81208020D01*
X161496883Y-81247188D01*
X161496885Y-81247188D01*
X161504233Y-81249116D01*
X161590609Y-81250473D01*
X161666161Y-81251660D01*
X161666164Y-81251660D01*
X161673760Y-81251779D01*
X161681165Y-81250083D01*
X161681166Y-81250083D01*
X161744184Y-81235650D01*
X161839029Y-81213928D01*
X161990498Y-81137747D01*
X162069713Y-81070090D01*
X162113651Y-81032564D01*
X162113652Y-81032563D01*
X162119423Y-81027634D01*
X162218361Y-80889947D01*
X162228651Y-80864350D01*
X162278766Y-80739687D01*
X162278767Y-80739685D01*
X162281601Y-80732634D01*
X162291480Y-80663222D01*
X162304909Y-80568862D01*
X162304909Y-80568859D01*
X162305490Y-80564778D01*
X162305645Y-80550000D01*
X162303840Y-80535080D01*
X162294011Y-80453863D01*
X162285276Y-80381680D01*
X162225345Y-80223077D01*
X162197146Y-80182047D01*
X162133614Y-80089608D01*
X162133613Y-80089607D01*
X162129312Y-80083349D01*
X162117514Y-80072837D01*
X162008392Y-79975612D01*
X162008388Y-79975610D01*
X162002721Y-79970560D01*
X161959131Y-79947480D01*
X161918244Y-79925832D01*
X161852881Y-79891224D01*
X161688441Y-79849919D01*
X161680843Y-79849879D01*
X161680841Y-79849879D01*
X161603668Y-79849475D01*
X161518895Y-79849031D01*
X161511508Y-79850805D01*
X161511504Y-79850805D01*
X161398937Y-79877831D01*
X161354032Y-79888612D01*
X161347288Y-79892093D01*
X161347285Y-79892094D01*
X161248134Y-79943270D01*
X161203369Y-79966375D01*
X161197647Y-79971367D01*
X161197645Y-79971368D01*
X161157197Y-80006653D01*
X161075604Y-80077831D01*
X161071237Y-80084045D01*
X160983988Y-80208188D01*
X160978113Y-80216547D01*
X160916524Y-80374513D01*
X160915532Y-80382046D01*
X160915532Y-80382047D01*
X160898538Y-80511135D01*
X160894394Y-80542611D01*
X149123147Y-80542611D01*
X148942089Y-80370794D01*
X148942088Y-80370793D01*
X148939622Y-80368453D01*
X148704345Y-80189220D01*
X148645024Y-80144029D01*
X148645022Y-80144027D01*
X148642317Y-80141967D01*
X148639405Y-80140210D01*
X148639400Y-80140207D01*
X148325206Y-79950673D01*
X148325200Y-79950670D01*
X148322291Y-79948915D01*
X147983287Y-79791554D01*
X147629271Y-79671726D01*
X147264384Y-79590833D01*
X147096198Y-79572265D01*
X146896276Y-79550193D01*
X146896271Y-79550193D01*
X146892895Y-79549820D01*
X146889496Y-79549814D01*
X146889495Y-79549814D01*
X146712755Y-79549506D01*
X146519150Y-79549168D01*
X146385614Y-79563439D01*
X146150904Y-79588522D01*
X146150898Y-79588523D01*
X146147520Y-79588884D01*
X146144197Y-79589608D01*
X146144194Y-79589609D01*
X146099179Y-79599424D01*
X145782353Y-79668503D01*
X145427921Y-79787094D01*
X145424828Y-79788517D01*
X145424827Y-79788517D01*
X145373097Y-79812310D01*
X145088369Y-79943270D01*
X145085435Y-79945026D01*
X145085433Y-79945027D01*
X145028042Y-79979375D01*
X144767671Y-80135204D01*
X144469577Y-80360651D01*
X144197575Y-80616973D01*
X144195363Y-80619563D01*
X144195361Y-80619565D01*
X144184273Y-80632547D01*
X143954846Y-80901171D01*
X143952928Y-80903983D01*
X143952924Y-80903988D01*
X143746844Y-81206092D01*
X143744231Y-81209922D01*
X143742624Y-81212932D01*
X143742622Y-81212935D01*
X143621590Y-81439608D01*
X143568192Y-81539614D01*
X143566923Y-81542771D01*
X143566921Y-81542775D01*
X143547692Y-81590608D01*
X143428789Y-81886389D01*
X143427869Y-81889663D01*
X143427867Y-81889668D01*
X143328755Y-82242271D01*
X143327653Y-82246191D01*
X143327091Y-82249548D01*
X143327091Y-82249549D01*
X143270200Y-82589519D01*
X143265967Y-82614812D01*
X143244453Y-82987938D01*
X140935712Y-82987938D01*
X140915811Y-82784970D01*
X140856266Y-82587749D01*
X140759549Y-82405849D01*
X140638939Y-82257967D01*
X140633237Y-82250975D01*
X140633234Y-82250972D01*
X140629342Y-82246200D01*
X140622504Y-82240543D01*
X140475356Y-82118811D01*
X140475352Y-82118809D01*
X140470606Y-82114882D01*
X140289386Y-82016897D01*
X140092585Y-81955977D01*
X140086460Y-81955333D01*
X140086459Y-81955333D01*
X139893829Y-81935087D01*
X139893827Y-81935087D01*
X139887700Y-81934443D01*
X139800860Y-81942346D01*
X139688673Y-81952555D01*
X139688670Y-81952556D01*
X139682534Y-81953114D01*
X139484903Y-82011280D01*
X139302333Y-82106726D01*
X139297532Y-82110586D01*
X139297529Y-82110588D01*
X139151953Y-82227634D01*
X139141778Y-82235815D01*
X139009355Y-82393630D01*
X139006387Y-82399028D01*
X139006384Y-82399033D01*
X138958838Y-82485520D01*
X138910107Y-82574162D01*
X138847815Y-82770532D01*
X138847129Y-82776649D01*
X138847128Y-82776653D01*
X138837277Y-82864480D01*
X138824851Y-82975262D01*
X129600000Y-82975262D01*
X129600000Y-81590262D01*
X135984851Y-81590262D01*
X135985367Y-81596406D01*
X135999849Y-81768862D01*
X136002090Y-81795553D01*
X136003789Y-81801478D01*
X136047769Y-81954853D01*
X136058875Y-81993586D01*
X136061690Y-81999063D01*
X136061691Y-81999066D01*
X136150228Y-82171341D01*
X136153043Y-82176818D01*
X136281008Y-82338270D01*
X136285701Y-82342264D01*
X136285702Y-82342265D01*
X136417918Y-82454789D01*
X136437895Y-82471791D01*
X136443273Y-82474797D01*
X136443275Y-82474798D01*
X136516960Y-82515979D01*
X136617729Y-82572297D01*
X136702741Y-82599919D01*
X136807802Y-82634056D01*
X136807806Y-82634057D01*
X136813660Y-82635959D01*
X137018225Y-82660351D01*
X137024360Y-82659879D01*
X137024362Y-82659879D01*
X137080370Y-82655569D01*
X137223631Y-82644546D01*
X137229561Y-82642890D01*
X137229563Y-82642890D01*
X137382880Y-82600083D01*
X137422056Y-82589145D01*
X137427545Y-82586372D01*
X137427551Y-82586370D01*
X137600447Y-82499033D01*
X137605941Y-82496258D01*
X137612468Y-82491159D01*
X137730384Y-82399033D01*
X137768282Y-82369424D01*
X137785049Y-82350000D01*
X137898871Y-82218134D01*
X137898871Y-82218133D01*
X137902895Y-82213472D01*
X137906975Y-82206291D01*
X137946718Y-82136330D01*
X138004654Y-82034344D01*
X138069682Y-81838863D01*
X138095502Y-81634474D01*
X138095914Y-81605000D01*
X138075811Y-81399970D01*
X138016266Y-81202749D01*
X137919549Y-81020849D01*
X137837361Y-80920077D01*
X137793237Y-80865975D01*
X137793234Y-80865972D01*
X137789342Y-80861200D01*
X137772117Y-80846950D01*
X137635356Y-80733811D01*
X137635352Y-80733809D01*
X137630606Y-80729882D01*
X137470829Y-80643491D01*
X137454805Y-80634827D01*
X137449386Y-80631897D01*
X137252585Y-80570977D01*
X137246460Y-80570333D01*
X137246459Y-80570333D01*
X137053829Y-80550087D01*
X137053827Y-80550087D01*
X137047700Y-80549443D01*
X136960860Y-80557346D01*
X136848673Y-80567555D01*
X136848670Y-80567556D01*
X136842534Y-80568114D01*
X136644903Y-80626280D01*
X136462333Y-80721726D01*
X136457532Y-80725586D01*
X136457529Y-80725588D01*
X136306585Y-80846950D01*
X136301778Y-80850815D01*
X136169355Y-81008630D01*
X136166387Y-81014028D01*
X136166384Y-81014033D01*
X136079889Y-81171368D01*
X136070107Y-81189162D01*
X136068244Y-81195035D01*
X136027850Y-81322375D01*
X136007815Y-81385532D01*
X136007129Y-81391649D01*
X136007128Y-81391653D01*
X135986610Y-81574577D01*
X135984851Y-81590262D01*
X129600000Y-81590262D01*
X129600000Y-80205262D01*
X138824851Y-80205262D01*
X138826089Y-80220000D01*
X138840299Y-80389220D01*
X138842090Y-80410553D01*
X138843789Y-80416478D01*
X138887769Y-80569853D01*
X138898875Y-80608586D01*
X138901690Y-80614063D01*
X138901691Y-80614066D01*
X138990228Y-80786341D01*
X138993043Y-80791818D01*
X139121008Y-80953270D01*
X139125701Y-80957264D01*
X139125702Y-80957265D01*
X139266136Y-81076783D01*
X139277895Y-81086791D01*
X139283273Y-81089797D01*
X139283275Y-81089798D01*
X139360247Y-81132816D01*
X139457729Y-81187297D01*
X139536684Y-81212951D01*
X139647802Y-81249056D01*
X139647806Y-81249057D01*
X139653660Y-81250959D01*
X139858225Y-81275351D01*
X139864360Y-81274879D01*
X139864362Y-81274879D01*
X139920370Y-81270569D01*
X140063631Y-81259546D01*
X140069561Y-81257890D01*
X140069563Y-81257890D01*
X140200599Y-81221304D01*
X140262056Y-81204145D01*
X140267545Y-81201372D01*
X140267551Y-81201370D01*
X140418358Y-81125191D01*
X140445941Y-81111258D01*
X140461475Y-81099122D01*
X140532751Y-81043435D01*
X140608282Y-80984424D01*
X140652829Y-80932816D01*
X140738871Y-80833134D01*
X140738871Y-80833133D01*
X140742895Y-80828472D01*
X140749871Y-80816193D01*
X140821588Y-80689947D01*
X140844654Y-80649344D01*
X140909682Y-80453863D01*
X140935502Y-80249474D01*
X140935772Y-80230180D01*
X140935865Y-80223522D01*
X140935865Y-80223518D01*
X140935914Y-80220000D01*
X140915811Y-80014970D01*
X140856266Y-79817749D01*
X140759549Y-79635849D01*
X140673804Y-79530716D01*
X140633237Y-79480975D01*
X140633234Y-79480972D01*
X140629342Y-79476200D01*
X140624593Y-79472271D01*
X140597672Y-79450000D01*
X175944750Y-79450000D01*
X175963670Y-79593709D01*
X176019139Y-79727625D01*
X176107379Y-79842621D01*
X176222375Y-79930861D01*
X176356291Y-79986330D01*
X176500000Y-80005250D01*
X176643709Y-79986330D01*
X176777625Y-79930861D01*
X176892621Y-79842621D01*
X176980861Y-79727625D01*
X177036330Y-79593709D01*
X177055250Y-79450000D01*
X177036330Y-79306291D01*
X176980861Y-79172375D01*
X176892621Y-79057379D01*
X176777625Y-78969139D01*
X176643709Y-78913670D01*
X176500000Y-78894750D01*
X176356291Y-78913670D01*
X176222375Y-78969139D01*
X176107379Y-79057379D01*
X176019139Y-79172375D01*
X175963670Y-79306291D01*
X175944750Y-79450000D01*
X140597672Y-79450000D01*
X140475356Y-79348811D01*
X140475352Y-79348809D01*
X140470606Y-79344882D01*
X140289386Y-79246897D01*
X140092585Y-79185977D01*
X140086460Y-79185333D01*
X140086459Y-79185333D01*
X139893829Y-79165087D01*
X139893827Y-79165087D01*
X139887700Y-79164443D01*
X139810484Y-79171470D01*
X139688673Y-79182555D01*
X139688670Y-79182556D01*
X139682534Y-79183114D01*
X139484903Y-79241280D01*
X139479438Y-79244137D01*
X139452171Y-79258392D01*
X139302333Y-79336726D01*
X139297532Y-79340586D01*
X139297529Y-79340588D01*
X139209151Y-79411646D01*
X139141778Y-79465815D01*
X139009355Y-79623630D01*
X139006387Y-79629028D01*
X139006384Y-79629033D01*
X138920084Y-79786014D01*
X138910107Y-79804162D01*
X138847815Y-80000532D01*
X138847129Y-80006649D01*
X138847128Y-80006653D01*
X138831719Y-80144029D01*
X138824851Y-80205262D01*
X129600000Y-80205262D01*
X129600000Y-78820262D01*
X135984851Y-78820262D01*
X135985367Y-78826406D01*
X136001055Y-79013222D01*
X136002090Y-79025553D01*
X136003789Y-79031478D01*
X136048118Y-79186071D01*
X136058875Y-79223586D01*
X136061690Y-79229063D01*
X136061691Y-79229066D01*
X136150228Y-79401341D01*
X136153043Y-79406818D01*
X136281008Y-79568270D01*
X136285701Y-79572264D01*
X136285702Y-79572265D01*
X136422410Y-79688612D01*
X136437895Y-79701791D01*
X136443273Y-79704797D01*
X136443275Y-79704798D01*
X136527812Y-79752044D01*
X136617729Y-79802297D01*
X136683444Y-79823649D01*
X136807802Y-79864056D01*
X136807806Y-79864057D01*
X136813660Y-79865959D01*
X137018225Y-79890351D01*
X137024360Y-79889879D01*
X137024362Y-79889879D01*
X137080370Y-79885569D01*
X137223631Y-79874546D01*
X137229561Y-79872890D01*
X137229563Y-79872890D01*
X137416128Y-79820800D01*
X137416127Y-79820800D01*
X137422056Y-79819145D01*
X137427545Y-79816372D01*
X137427551Y-79816370D01*
X137600447Y-79729033D01*
X137605941Y-79726258D01*
X137768282Y-79599424D01*
X137772690Y-79594318D01*
X137898871Y-79448134D01*
X137898871Y-79448133D01*
X137902895Y-79443472D01*
X137923718Y-79406818D01*
X137950021Y-79360516D01*
X138004654Y-79264344D01*
X138069682Y-79068863D01*
X138095502Y-78864474D01*
X138095914Y-78835000D01*
X138081953Y-78692611D01*
X158644394Y-78692611D01*
X158662999Y-78861135D01*
X158721266Y-79020356D01*
X158725502Y-79026659D01*
X158725502Y-79026660D01*
X158738574Y-79046113D01*
X158815830Y-79161083D01*
X158821442Y-79166190D01*
X158821445Y-79166193D01*
X158935612Y-79270077D01*
X158935616Y-79270080D01*
X158941233Y-79275191D01*
X158947906Y-79278814D01*
X158947910Y-79278817D01*
X159083558Y-79352467D01*
X159083560Y-79352468D01*
X159090235Y-79356092D01*
X159097584Y-79358020D01*
X159246883Y-79397188D01*
X159246885Y-79397188D01*
X159254233Y-79399116D01*
X159340609Y-79400473D01*
X159416161Y-79401660D01*
X159416164Y-79401660D01*
X159423760Y-79401779D01*
X159431165Y-79400083D01*
X159431166Y-79400083D01*
X159503074Y-79383614D01*
X159589029Y-79363928D01*
X159740498Y-79287747D01*
X159851876Y-79192621D01*
X159863651Y-79182564D01*
X159863652Y-79182563D01*
X159869423Y-79177634D01*
X159968361Y-79039947D01*
X159973702Y-79026660D01*
X160028766Y-78889687D01*
X160028767Y-78889685D01*
X160031601Y-78882634D01*
X160043361Y-78800000D01*
X179094750Y-78800000D01*
X179113670Y-78943709D01*
X179169139Y-79077625D01*
X179257379Y-79192621D01*
X179372375Y-79280861D01*
X179506291Y-79336330D01*
X179650000Y-79355250D01*
X179793709Y-79336330D01*
X179927625Y-79280861D01*
X180042621Y-79192621D01*
X180130861Y-79077625D01*
X180186330Y-78943709D01*
X180205250Y-78800000D01*
X180186330Y-78656291D01*
X180130861Y-78522375D01*
X180042621Y-78407379D01*
X179927625Y-78319139D01*
X179793709Y-78263670D01*
X179650000Y-78244750D01*
X179506291Y-78263670D01*
X179372375Y-78319139D01*
X179257379Y-78407379D01*
X179169139Y-78522375D01*
X179113670Y-78656291D01*
X179094750Y-78800000D01*
X160043361Y-78800000D01*
X160055490Y-78714778D01*
X160055645Y-78700000D01*
X160053840Y-78685080D01*
X160049432Y-78648660D01*
X160035276Y-78531680D01*
X159975345Y-78373077D01*
X159946652Y-78331329D01*
X159883614Y-78239608D01*
X159883613Y-78239607D01*
X159879312Y-78233349D01*
X159873641Y-78228296D01*
X159758392Y-78125612D01*
X159758388Y-78125610D01*
X159752721Y-78120560D01*
X159729355Y-78108188D01*
X159713890Y-78100000D01*
X169894750Y-78100000D01*
X169913670Y-78243709D01*
X169969139Y-78377625D01*
X170057379Y-78492621D01*
X170172375Y-78580861D01*
X170306291Y-78636330D01*
X170450000Y-78655250D01*
X170593709Y-78636330D01*
X170727625Y-78580861D01*
X170842621Y-78492621D01*
X170930861Y-78377625D01*
X170986330Y-78243709D01*
X171005250Y-78100000D01*
X170986330Y-77956291D01*
X170930861Y-77822375D01*
X170842621Y-77707379D01*
X170727625Y-77619139D01*
X170593709Y-77563670D01*
X170450000Y-77544750D01*
X170306291Y-77563670D01*
X170172375Y-77619139D01*
X170057379Y-77707379D01*
X169969139Y-77822375D01*
X169913670Y-77956291D01*
X169894750Y-78100000D01*
X159713890Y-78100000D01*
X159670356Y-78076950D01*
X159602881Y-78041224D01*
X159438441Y-77999919D01*
X159430843Y-77999879D01*
X159430841Y-77999879D01*
X159353668Y-77999475D01*
X159268895Y-77999031D01*
X159261508Y-78000805D01*
X159261504Y-78000805D01*
X159118162Y-78035220D01*
X159104032Y-78038612D01*
X159097288Y-78042093D01*
X159097285Y-78042094D01*
X159000959Y-78091812D01*
X158953369Y-78116375D01*
X158947647Y-78121367D01*
X158947645Y-78121368D01*
X158892718Y-78169284D01*
X158825604Y-78227831D01*
X158797031Y-78268487D01*
X158741331Y-78347740D01*
X158728113Y-78366547D01*
X158666524Y-78524513D01*
X158665532Y-78532046D01*
X158665532Y-78532047D01*
X158649176Y-78656291D01*
X158644394Y-78692611D01*
X138081953Y-78692611D01*
X138075811Y-78629970D01*
X138016266Y-78432749D01*
X137932217Y-78274674D01*
X138829831Y-78274674D01*
X138844365Y-78347740D01*
X138899730Y-78430601D01*
X138982591Y-78485966D01*
X139055657Y-78500500D01*
X140705005Y-78500500D01*
X140778071Y-78485966D01*
X140860932Y-78430601D01*
X140916297Y-78347740D01*
X140930831Y-78274674D01*
X140930831Y-76625326D01*
X140916297Y-76552260D01*
X140906575Y-76537709D01*
X140867824Y-76479714D01*
X140860932Y-76469399D01*
X140778071Y-76414034D01*
X140705005Y-76399500D01*
X139055657Y-76399500D01*
X138982591Y-76414034D01*
X138899730Y-76469399D01*
X138892838Y-76479714D01*
X138854088Y-76537709D01*
X138844365Y-76552260D01*
X138829831Y-76625326D01*
X138829831Y-78274674D01*
X137932217Y-78274674D01*
X137919549Y-78250849D01*
X137837262Y-78149956D01*
X137793237Y-78095975D01*
X137793234Y-78095972D01*
X137789342Y-78091200D01*
X137772117Y-78076950D01*
X137635356Y-77963811D01*
X137635352Y-77963809D01*
X137630606Y-77959882D01*
X137449386Y-77861897D01*
X137252585Y-77800977D01*
X137246460Y-77800333D01*
X137246459Y-77800333D01*
X137053829Y-77780087D01*
X137053827Y-77780087D01*
X137047700Y-77779443D01*
X136960860Y-77787346D01*
X136848673Y-77797555D01*
X136848670Y-77797556D01*
X136842534Y-77798114D01*
X136644903Y-77856280D01*
X136462333Y-77951726D01*
X136457532Y-77955586D01*
X136457529Y-77955588D01*
X136306585Y-78076950D01*
X136301778Y-78080815D01*
X136169355Y-78238630D01*
X136166387Y-78244028D01*
X136166384Y-78244033D01*
X136079348Y-78402353D01*
X136070107Y-78419162D01*
X136048916Y-78485966D01*
X136032023Y-78539220D01*
X136007815Y-78615532D01*
X136007129Y-78621649D01*
X136007128Y-78621653D01*
X135990613Y-78768895D01*
X135984851Y-78820262D01*
X129600000Y-78820262D01*
X129600000Y-76005694D01*
X143459500Y-76005694D01*
X143459692Y-76008140D01*
X143459693Y-76008153D01*
X143461367Y-76029416D01*
X143462402Y-76042569D01*
X143508256Y-76200398D01*
X143512291Y-76207220D01*
X143512291Y-76207221D01*
X143572017Y-76308213D01*
X143591919Y-76341865D01*
X143708135Y-76458081D01*
X143714956Y-76462115D01*
X143819844Y-76524145D01*
X143849602Y-76541744D01*
X143857214Y-76543955D01*
X143857215Y-76543956D01*
X143927690Y-76564431D01*
X144007431Y-76587598D01*
X144020584Y-76588633D01*
X144041847Y-76590307D01*
X144041860Y-76590308D01*
X144044306Y-76590500D01*
X144975694Y-76590500D01*
X144978140Y-76590308D01*
X144978153Y-76590307D01*
X144999416Y-76588633D01*
X145012569Y-76587598D01*
X145092310Y-76564431D01*
X145162785Y-76543956D01*
X145162786Y-76543955D01*
X145170398Y-76541744D01*
X145200157Y-76524145D01*
X145305044Y-76462115D01*
X145311865Y-76458081D01*
X145428081Y-76341865D01*
X145447983Y-76308213D01*
X145507709Y-76207221D01*
X145507709Y-76207220D01*
X145511744Y-76200398D01*
X145557598Y-76042569D01*
X145558633Y-76029416D01*
X145560307Y-76008153D01*
X145560308Y-76008140D01*
X145560500Y-76005694D01*
X145560500Y-75525262D01*
X145994520Y-75525262D01*
X146011759Y-75730553D01*
X146013458Y-75736478D01*
X146065961Y-75919577D01*
X146068544Y-75928586D01*
X146071359Y-75934063D01*
X146071360Y-75934066D01*
X146131538Y-76051160D01*
X146162712Y-76111818D01*
X146290677Y-76273270D01*
X146447564Y-76406791D01*
X146452942Y-76409797D01*
X146452944Y-76409798D01*
X146517412Y-76445828D01*
X146627398Y-76507297D01*
X146720996Y-76537709D01*
X146817471Y-76569056D01*
X146817475Y-76569057D01*
X146823329Y-76570959D01*
X147027894Y-76595351D01*
X147034029Y-76594879D01*
X147034031Y-76594879D01*
X147093447Y-76590307D01*
X147233300Y-76579546D01*
X147239230Y-76577890D01*
X147239232Y-76577890D01*
X147425797Y-76525800D01*
X147425796Y-76525800D01*
X147431725Y-76524145D01*
X147437214Y-76521372D01*
X147437220Y-76521370D01*
X147610116Y-76434033D01*
X147615610Y-76431258D01*
X147624162Y-76424577D01*
X147773101Y-76308213D01*
X147777951Y-76304424D01*
X147810411Y-76266819D01*
X147908540Y-76153134D01*
X147908540Y-76153133D01*
X147912564Y-76148472D01*
X147917600Y-76139608D01*
X147969212Y-76048754D01*
X148014323Y-75969344D01*
X148079351Y-75773863D01*
X148105171Y-75569474D01*
X148105583Y-75540000D01*
X148104138Y-75525262D01*
X148534520Y-75525262D01*
X148551759Y-75730553D01*
X148553458Y-75736478D01*
X148605961Y-75919577D01*
X148608544Y-75928586D01*
X148611359Y-75934063D01*
X148611360Y-75934066D01*
X148671538Y-76051160D01*
X148702712Y-76111818D01*
X148830677Y-76273270D01*
X148987564Y-76406791D01*
X148992942Y-76409797D01*
X148992944Y-76409798D01*
X149057412Y-76445828D01*
X149167398Y-76507297D01*
X149260996Y-76537709D01*
X149357471Y-76569056D01*
X149357475Y-76569057D01*
X149363329Y-76570959D01*
X149567894Y-76595351D01*
X149574029Y-76594879D01*
X149574031Y-76594879D01*
X149603505Y-76592611D01*
X158594394Y-76592611D01*
X158612999Y-76761135D01*
X158671266Y-76920356D01*
X158675502Y-76926659D01*
X158675502Y-76926660D01*
X158688574Y-76946113D01*
X158765830Y-77061083D01*
X158771442Y-77066190D01*
X158771445Y-77066193D01*
X158885612Y-77170077D01*
X158885616Y-77170080D01*
X158891233Y-77175191D01*
X158897906Y-77178814D01*
X158897910Y-77178817D01*
X159033558Y-77252467D01*
X159033560Y-77252468D01*
X159040235Y-77256092D01*
X159047584Y-77258020D01*
X159196883Y-77297188D01*
X159196885Y-77297188D01*
X159204233Y-77299116D01*
X159290609Y-77300473D01*
X159366161Y-77301660D01*
X159366164Y-77301660D01*
X159373760Y-77301779D01*
X159381165Y-77300083D01*
X159381166Y-77300083D01*
X159450611Y-77284178D01*
X159539029Y-77263928D01*
X159690498Y-77187747D01*
X159819423Y-77077634D01*
X159875209Y-77000000D01*
X179744750Y-77000000D01*
X179763670Y-77143709D01*
X179819139Y-77277625D01*
X179907379Y-77392621D01*
X180022375Y-77480861D01*
X180156291Y-77536330D01*
X180300000Y-77555250D01*
X180443709Y-77536330D01*
X180577625Y-77480861D01*
X180692621Y-77392621D01*
X180780861Y-77277625D01*
X180836330Y-77143709D01*
X180855250Y-77000000D01*
X180836330Y-76856291D01*
X180780861Y-76722375D01*
X180692621Y-76607379D01*
X180577625Y-76519139D01*
X180443709Y-76463670D01*
X180300000Y-76444750D01*
X180156291Y-76463670D01*
X180022375Y-76519139D01*
X179907379Y-76607379D01*
X179819139Y-76722375D01*
X179763670Y-76856291D01*
X179744750Y-77000000D01*
X159875209Y-77000000D01*
X159918361Y-76939947D01*
X159926237Y-76920356D01*
X159978766Y-76789687D01*
X159978767Y-76789685D01*
X159981601Y-76782634D01*
X159991110Y-76715822D01*
X160004909Y-76618862D01*
X160004909Y-76618859D01*
X160005490Y-76614778D01*
X160005645Y-76600000D01*
X160005083Y-76595351D01*
X159996468Y-76524168D01*
X159985276Y-76431680D01*
X159925345Y-76273077D01*
X159875394Y-76200398D01*
X159833614Y-76139608D01*
X159833613Y-76139607D01*
X159829312Y-76133349D01*
X159810565Y-76116646D01*
X159708392Y-76025612D01*
X159708388Y-76025610D01*
X159702721Y-76020560D01*
X159692453Y-76015123D01*
X159635080Y-75984746D01*
X159552881Y-75941224D01*
X159388441Y-75899919D01*
X159380843Y-75899879D01*
X159380841Y-75899879D01*
X159303668Y-75899475D01*
X159218895Y-75899031D01*
X159211508Y-75900805D01*
X159211504Y-75900805D01*
X159095792Y-75928586D01*
X159054032Y-75938612D01*
X159047288Y-75942093D01*
X159047285Y-75942094D01*
X158924063Y-76005694D01*
X158903369Y-76016375D01*
X158897647Y-76021367D01*
X158897645Y-76021368D01*
X158826069Y-76083808D01*
X158775604Y-76127831D01*
X158678113Y-76266547D01*
X158616524Y-76424513D01*
X158615532Y-76432046D01*
X158615532Y-76432047D01*
X158596052Y-76580018D01*
X158594394Y-76592611D01*
X149603505Y-76592611D01*
X149633447Y-76590307D01*
X149773300Y-76579546D01*
X149779230Y-76577890D01*
X149779232Y-76577890D01*
X149965797Y-76525800D01*
X149965796Y-76525800D01*
X149971725Y-76524145D01*
X149977214Y-76521372D01*
X149977220Y-76521370D01*
X150150116Y-76434033D01*
X150155610Y-76431258D01*
X150164162Y-76424577D01*
X150313101Y-76308213D01*
X150317951Y-76304424D01*
X150350411Y-76266819D01*
X150448540Y-76153134D01*
X150448540Y-76153133D01*
X150452564Y-76148472D01*
X150457600Y-76139608D01*
X150509212Y-76048754D01*
X150554323Y-75969344D01*
X150619351Y-75773863D01*
X150645171Y-75569474D01*
X150645583Y-75540000D01*
X150626180Y-75342111D01*
X162387051Y-75342111D01*
X162405656Y-75510635D01*
X162463923Y-75669856D01*
X162468159Y-75676159D01*
X162468159Y-75676160D01*
X162481231Y-75695613D01*
X162558487Y-75810583D01*
X162564099Y-75815690D01*
X162564102Y-75815693D01*
X162678269Y-75919577D01*
X162678273Y-75919580D01*
X162683890Y-75924691D01*
X162690563Y-75928314D01*
X162690567Y-75928317D01*
X162826215Y-76001967D01*
X162826217Y-76001968D01*
X162832892Y-76005592D01*
X162840241Y-76007520D01*
X162989540Y-76046688D01*
X162989542Y-76046688D01*
X162996890Y-76048616D01*
X163083266Y-76049973D01*
X163158818Y-76051160D01*
X163158821Y-76051160D01*
X163166417Y-76051279D01*
X163173822Y-76049583D01*
X163173823Y-76049583D01*
X163234243Y-76035745D01*
X163331686Y-76013428D01*
X163483155Y-75937247D01*
X163612080Y-75827134D01*
X163711018Y-75689447D01*
X163718894Y-75669856D01*
X163771423Y-75539187D01*
X163771424Y-75539185D01*
X163774258Y-75532134D01*
X163798147Y-75364278D01*
X163798302Y-75349500D01*
X163796497Y-75334580D01*
X163789748Y-75278817D01*
X163777933Y-75181180D01*
X163718002Y-75022577D01*
X163672141Y-74955849D01*
X163626271Y-74889108D01*
X163626270Y-74889107D01*
X163621969Y-74882849D01*
X163610171Y-74872337D01*
X163501049Y-74775112D01*
X163501045Y-74775110D01*
X163495378Y-74770060D01*
X163349102Y-74692611D01*
X175394394Y-74692611D01*
X175412999Y-74861135D01*
X175471266Y-75020356D01*
X175475502Y-75026659D01*
X175475502Y-75026660D01*
X175487053Y-75043850D01*
X175565830Y-75161083D01*
X175571442Y-75166190D01*
X175571445Y-75166193D01*
X175685612Y-75270077D01*
X175685616Y-75270080D01*
X175691233Y-75275191D01*
X175697906Y-75278814D01*
X175697910Y-75278817D01*
X175833558Y-75352467D01*
X175833560Y-75352468D01*
X175840235Y-75356092D01*
X175847584Y-75358020D01*
X175996883Y-75397188D01*
X175996885Y-75397188D01*
X176004233Y-75399116D01*
X176090609Y-75400473D01*
X176166161Y-75401660D01*
X176166164Y-75401660D01*
X176173760Y-75401779D01*
X176181165Y-75400083D01*
X176181166Y-75400083D01*
X176241586Y-75386245D01*
X176339029Y-75363928D01*
X176490498Y-75287747D01*
X176619423Y-75177634D01*
X176718361Y-75039947D01*
X176726237Y-75020356D01*
X176778766Y-74889687D01*
X176778767Y-74889685D01*
X176781601Y-74882634D01*
X176805490Y-74714778D01*
X176805645Y-74700000D01*
X176804523Y-74690724D01*
X176800408Y-74656726D01*
X176785276Y-74531680D01*
X176725345Y-74373077D01*
X176629312Y-74233349D01*
X176617514Y-74222837D01*
X176508392Y-74125612D01*
X176508388Y-74125610D01*
X176502721Y-74120560D01*
X176352881Y-74041224D01*
X176188441Y-73999919D01*
X176180843Y-73999879D01*
X176180841Y-73999879D01*
X176103668Y-73999475D01*
X176018895Y-73999031D01*
X176011508Y-74000805D01*
X176011504Y-74000805D01*
X175868162Y-74035220D01*
X175854032Y-74038612D01*
X175847288Y-74042093D01*
X175847285Y-74042094D01*
X175710117Y-74112892D01*
X175703369Y-74116375D01*
X175697647Y-74121367D01*
X175697645Y-74121368D01*
X175626069Y-74183808D01*
X175575604Y-74227831D01*
X175478113Y-74366547D01*
X175416524Y-74524513D01*
X175415532Y-74532046D01*
X175415532Y-74532047D01*
X175398045Y-74664882D01*
X175394394Y-74692611D01*
X163349102Y-74692611D01*
X163345538Y-74690724D01*
X163181098Y-74649419D01*
X163173500Y-74649379D01*
X163173498Y-74649379D01*
X163096325Y-74648975D01*
X163011552Y-74648531D01*
X163004165Y-74650305D01*
X163004161Y-74650305D01*
X162860819Y-74684720D01*
X162846689Y-74688112D01*
X162839945Y-74691593D01*
X162839942Y-74691594D01*
X162702774Y-74762392D01*
X162696026Y-74765875D01*
X162690304Y-74770867D01*
X162690302Y-74770868D01*
X162655790Y-74800975D01*
X162568261Y-74877331D01*
X162470770Y-75016047D01*
X162409181Y-75174013D01*
X162408189Y-75181546D01*
X162408189Y-75181547D01*
X162389892Y-75320532D01*
X162387051Y-75342111D01*
X150626180Y-75342111D01*
X150625480Y-75334970D01*
X150565935Y-75137749D01*
X150469218Y-74955849D01*
X150385814Y-74853586D01*
X150342906Y-74800975D01*
X150342903Y-74800972D01*
X150339011Y-74796200D01*
X150308390Y-74770868D01*
X150185025Y-74668811D01*
X150185021Y-74668809D01*
X150180275Y-74664882D01*
X149999055Y-74566897D01*
X149802254Y-74505977D01*
X149796129Y-74505333D01*
X149796128Y-74505333D01*
X149603498Y-74485087D01*
X149603496Y-74485087D01*
X149597369Y-74484443D01*
X149515461Y-74491897D01*
X149398342Y-74502555D01*
X149398339Y-74502556D01*
X149392203Y-74503114D01*
X149194572Y-74561280D01*
X149012002Y-74656726D01*
X149007201Y-74660586D01*
X149007198Y-74660588D01*
X148880579Y-74762392D01*
X148851447Y-74785815D01*
X148719024Y-74943630D01*
X148716056Y-74949028D01*
X148716053Y-74949033D01*
X148648536Y-75071847D01*
X148619776Y-75124162D01*
X148557484Y-75320532D01*
X148556798Y-75326649D01*
X148556797Y-75326653D01*
X148537007Y-75503086D01*
X148534520Y-75525262D01*
X148104138Y-75525262D01*
X148085480Y-75334970D01*
X148025935Y-75137749D01*
X147929218Y-74955849D01*
X147845814Y-74853586D01*
X147802906Y-74800975D01*
X147802903Y-74800972D01*
X147799011Y-74796200D01*
X147768390Y-74770868D01*
X147645025Y-74668811D01*
X147645021Y-74668809D01*
X147640275Y-74664882D01*
X147459055Y-74566897D01*
X147262254Y-74505977D01*
X147256129Y-74505333D01*
X147256128Y-74505333D01*
X147063498Y-74485087D01*
X147063496Y-74485087D01*
X147057369Y-74484443D01*
X146975461Y-74491897D01*
X146858342Y-74502555D01*
X146858339Y-74502556D01*
X146852203Y-74503114D01*
X146654572Y-74561280D01*
X146472002Y-74656726D01*
X146467201Y-74660586D01*
X146467198Y-74660588D01*
X146340579Y-74762392D01*
X146311447Y-74785815D01*
X146179024Y-74943630D01*
X146176056Y-74949028D01*
X146176053Y-74949033D01*
X146108536Y-75071847D01*
X146079776Y-75124162D01*
X146017484Y-75320532D01*
X146016798Y-75326649D01*
X146016797Y-75326653D01*
X145997007Y-75503086D01*
X145994520Y-75525262D01*
X145560500Y-75525262D01*
X145560500Y-75074306D01*
X145560308Y-75071860D01*
X145560307Y-75071847D01*
X145558103Y-75043850D01*
X145557598Y-75037431D01*
X145533896Y-74955849D01*
X145513956Y-74887215D01*
X145513955Y-74887214D01*
X145511744Y-74879602D01*
X145442427Y-74762392D01*
X145432115Y-74744956D01*
X145428081Y-74738135D01*
X145311865Y-74621919D01*
X145223782Y-74569827D01*
X145177221Y-74542291D01*
X145177220Y-74542291D01*
X145170398Y-74538256D01*
X145162786Y-74536045D01*
X145162785Y-74536044D01*
X145049440Y-74503114D01*
X145012569Y-74492402D01*
X144999416Y-74491367D01*
X144978153Y-74489693D01*
X144978140Y-74489692D01*
X144975694Y-74489500D01*
X144044306Y-74489500D01*
X144041860Y-74489692D01*
X144041847Y-74489693D01*
X144020584Y-74491367D01*
X144007431Y-74492402D01*
X143970560Y-74503114D01*
X143857215Y-74536044D01*
X143857214Y-74536045D01*
X143849602Y-74538256D01*
X143842780Y-74542291D01*
X143842779Y-74542291D01*
X143796218Y-74569827D01*
X143708135Y-74621919D01*
X143591919Y-74738135D01*
X143587885Y-74744956D01*
X143577574Y-74762392D01*
X143508256Y-74879602D01*
X143506045Y-74887214D01*
X143506044Y-74887215D01*
X143486104Y-74955849D01*
X143462402Y-75037431D01*
X143461897Y-75043850D01*
X143459693Y-75071847D01*
X143459692Y-75071860D01*
X143459500Y-75074306D01*
X143459500Y-76005694D01*
X129600000Y-76005694D01*
X129600000Y-73600000D01*
X179744750Y-73600000D01*
X179763670Y-73743709D01*
X179819139Y-73877625D01*
X179907379Y-73992621D01*
X180022375Y-74080861D01*
X180156291Y-74136330D01*
X180300000Y-74155250D01*
X180443709Y-74136330D01*
X180577625Y-74080861D01*
X180692621Y-73992621D01*
X180780861Y-73877625D01*
X180836330Y-73743709D01*
X180855250Y-73600000D01*
X180836330Y-73456291D01*
X180780861Y-73322375D01*
X180692621Y-73207379D01*
X180577625Y-73119139D01*
X180443709Y-73063670D01*
X180300000Y-73044750D01*
X180156291Y-73063670D01*
X180022375Y-73119139D01*
X179907379Y-73207379D01*
X179819139Y-73322375D01*
X179763670Y-73456291D01*
X179744750Y-73600000D01*
X129600000Y-73600000D01*
X129600000Y-70490000D01*
X136205002Y-70490000D01*
X136205272Y-70494119D01*
X136218748Y-70699715D01*
X136224297Y-70784380D01*
X136225101Y-70788420D01*
X136225101Y-70788423D01*
X136280806Y-71068472D01*
X136281850Y-71073722D01*
X136283176Y-71077628D01*
X136283177Y-71077632D01*
X136367756Y-71326791D01*
X136376679Y-71353077D01*
X136378500Y-71356770D01*
X136378501Y-71356772D01*
X136505317Y-71613928D01*
X136507159Y-71617664D01*
X136671058Y-71862957D01*
X136673772Y-71866051D01*
X136673776Y-71866057D01*
X136862864Y-72081669D01*
X136865573Y-72084758D01*
X136868662Y-72087467D01*
X137084274Y-72276555D01*
X137084280Y-72276559D01*
X137087374Y-72279273D01*
X137090800Y-72281562D01*
X137090805Y-72281566D01*
X137274870Y-72404554D01*
X137332666Y-72443172D01*
X137336365Y-72444996D01*
X137336370Y-72444999D01*
X137593559Y-72571830D01*
X137597254Y-72573652D01*
X137601152Y-72574975D01*
X137601154Y-72574976D01*
X137872699Y-72667154D01*
X137872703Y-72667155D01*
X137876609Y-72668481D01*
X137880653Y-72669285D01*
X137880659Y-72669287D01*
X138161908Y-72725230D01*
X138161911Y-72725230D01*
X138165951Y-72726034D01*
X138170062Y-72726303D01*
X138170066Y-72726304D01*
X138456212Y-72745059D01*
X138460331Y-72745329D01*
X138464450Y-72745059D01*
X138750596Y-72726304D01*
X138750600Y-72726303D01*
X138754711Y-72726034D01*
X138758751Y-72725230D01*
X138758754Y-72725230D01*
X139040003Y-72669287D01*
X139040009Y-72669285D01*
X139044053Y-72668481D01*
X139047959Y-72667155D01*
X139047963Y-72667154D01*
X139319508Y-72574976D01*
X139319510Y-72574975D01*
X139323408Y-72573652D01*
X139327103Y-72571830D01*
X139584292Y-72444999D01*
X139584297Y-72444996D01*
X139587996Y-72443172D01*
X139645792Y-72404554D01*
X139829857Y-72281566D01*
X139829862Y-72281562D01*
X139833288Y-72279273D01*
X139836382Y-72276559D01*
X139836388Y-72276555D01*
X140052000Y-72087467D01*
X140055089Y-72084758D01*
X140057798Y-72081669D01*
X140246886Y-71866057D01*
X140246890Y-71866051D01*
X140249604Y-71862957D01*
X140413503Y-71617664D01*
X140415346Y-71613928D01*
X140542161Y-71356772D01*
X140542162Y-71356770D01*
X140543983Y-71353077D01*
X140552906Y-71326791D01*
X140637485Y-71077632D01*
X140637486Y-71077628D01*
X140638812Y-71073722D01*
X140639857Y-71068472D01*
X140695561Y-70788423D01*
X140695561Y-70788420D01*
X140696365Y-70784380D01*
X140701915Y-70699715D01*
X140715390Y-70494119D01*
X140715660Y-70490000D01*
X140712728Y-70445262D01*
X143454520Y-70445262D01*
X143455036Y-70451406D01*
X143465850Y-70580180D01*
X143471759Y-70650553D01*
X143473458Y-70656478D01*
X143511293Y-70788423D01*
X143528544Y-70848586D01*
X143531359Y-70854063D01*
X143531360Y-70854066D01*
X143586138Y-70960653D01*
X143622712Y-71031818D01*
X143750677Y-71193270D01*
X143755370Y-71197264D01*
X143755371Y-71197265D01*
X143832871Y-71263222D01*
X143907564Y-71326791D01*
X143912942Y-71329797D01*
X143912944Y-71329798D01*
X143997481Y-71377044D01*
X144087398Y-71427297D01*
X144182238Y-71458113D01*
X144277471Y-71489056D01*
X144277475Y-71489057D01*
X144283329Y-71490959D01*
X144487894Y-71515351D01*
X144494029Y-71514879D01*
X144494031Y-71514879D01*
X144550039Y-71510569D01*
X144693300Y-71499546D01*
X144699230Y-71497890D01*
X144699232Y-71497890D01*
X144885797Y-71445800D01*
X144885796Y-71445800D01*
X144891725Y-71444145D01*
X144897214Y-71441372D01*
X144897220Y-71441370D01*
X145064694Y-71356772D01*
X145075610Y-71351258D01*
X145237951Y-71224424D01*
X145247621Y-71213222D01*
X145368540Y-71073134D01*
X145368540Y-71073133D01*
X145372564Y-71068472D01*
X145381021Y-71053586D01*
X145433814Y-70960653D01*
X145474323Y-70889344D01*
X145539351Y-70693863D01*
X145565171Y-70489474D01*
X145565583Y-70460000D01*
X145564138Y-70445262D01*
X148534520Y-70445262D01*
X148535036Y-70451406D01*
X148545850Y-70580180D01*
X148551759Y-70650553D01*
X148553458Y-70656478D01*
X148591293Y-70788423D01*
X148608544Y-70848586D01*
X148611359Y-70854063D01*
X148611360Y-70854066D01*
X148666138Y-70960653D01*
X148702712Y-71031818D01*
X148830677Y-71193270D01*
X148835370Y-71197264D01*
X148835371Y-71197265D01*
X148912871Y-71263222D01*
X148987564Y-71326791D01*
X148992942Y-71329797D01*
X148992944Y-71329798D01*
X149077481Y-71377044D01*
X149167398Y-71427297D01*
X149262238Y-71458113D01*
X149357471Y-71489056D01*
X149357475Y-71489057D01*
X149363329Y-71490959D01*
X149567894Y-71515351D01*
X149574029Y-71514879D01*
X149574031Y-71514879D01*
X149630039Y-71510569D01*
X149773300Y-71499546D01*
X149779230Y-71497890D01*
X149779232Y-71497890D01*
X149965797Y-71445800D01*
X149965796Y-71445800D01*
X149971725Y-71444145D01*
X149977214Y-71441372D01*
X149977220Y-71441370D01*
X150144694Y-71356772D01*
X150155610Y-71351258D01*
X150317951Y-71224424D01*
X150327621Y-71213222D01*
X150448540Y-71073134D01*
X150448540Y-71073133D01*
X150452564Y-71068472D01*
X150461021Y-71053586D01*
X150513814Y-70960653D01*
X150552467Y-70892611D01*
X153044394Y-70892611D01*
X153062999Y-71061135D01*
X153121266Y-71220356D01*
X153125502Y-71226659D01*
X153125502Y-71226660D01*
X153138574Y-71246113D01*
X153215830Y-71361083D01*
X153221442Y-71366190D01*
X153221445Y-71366193D01*
X153335612Y-71470077D01*
X153335616Y-71470080D01*
X153341233Y-71475191D01*
X153347906Y-71478814D01*
X153347910Y-71478817D01*
X153483558Y-71552467D01*
X153483560Y-71552468D01*
X153490235Y-71556092D01*
X153497584Y-71558020D01*
X153646883Y-71597188D01*
X153646885Y-71597188D01*
X153654233Y-71599116D01*
X153740609Y-71600473D01*
X153816161Y-71601660D01*
X153816164Y-71601660D01*
X153823760Y-71601779D01*
X153831165Y-71600083D01*
X153831166Y-71600083D01*
X153891586Y-71586245D01*
X153989029Y-71563928D01*
X154140498Y-71487747D01*
X154219713Y-71420090D01*
X154263651Y-71382564D01*
X154263652Y-71382563D01*
X154269423Y-71377634D01*
X154368361Y-71239947D01*
X154376474Y-71219766D01*
X154428766Y-71089687D01*
X154428767Y-71089685D01*
X154431601Y-71082634D01*
X154449889Y-70954135D01*
X154451529Y-70942611D01*
X154944394Y-70942611D01*
X154962999Y-71111135D01*
X154970867Y-71132634D01*
X155002753Y-71219766D01*
X155021266Y-71270356D01*
X155025502Y-71276659D01*
X155025502Y-71276660D01*
X155038574Y-71296113D01*
X155115830Y-71411083D01*
X155121442Y-71416190D01*
X155121445Y-71416193D01*
X155235612Y-71520077D01*
X155235616Y-71520080D01*
X155241233Y-71525191D01*
X155247906Y-71528814D01*
X155247910Y-71528817D01*
X155383558Y-71602467D01*
X155383560Y-71602468D01*
X155390235Y-71606092D01*
X155397584Y-71608020D01*
X155546883Y-71647188D01*
X155546885Y-71647188D01*
X155554233Y-71649116D01*
X155640609Y-71650473D01*
X155716161Y-71651660D01*
X155716164Y-71651660D01*
X155723760Y-71651779D01*
X155731165Y-71650083D01*
X155731166Y-71650083D01*
X155791586Y-71636245D01*
X155889029Y-71613928D01*
X156040498Y-71537747D01*
X156119729Y-71470077D01*
X156163651Y-71432564D01*
X156163652Y-71432563D01*
X156169423Y-71427634D01*
X156268361Y-71289947D01*
X156276237Y-71270356D01*
X156328766Y-71139687D01*
X156328767Y-71139685D01*
X156331601Y-71132634D01*
X156345949Y-71031818D01*
X156354909Y-70968862D01*
X156354909Y-70968859D01*
X156355490Y-70964778D01*
X156355645Y-70950000D01*
X156353840Y-70935080D01*
X156347789Y-70885080D01*
X156335276Y-70781680D01*
X156275345Y-70623077D01*
X156179312Y-70483349D01*
X156149171Y-70456494D01*
X156058392Y-70375612D01*
X156058388Y-70375610D01*
X156052721Y-70370560D01*
X155902881Y-70291224D01*
X155738441Y-70249919D01*
X155730843Y-70249879D01*
X155730841Y-70249879D01*
X155653668Y-70249475D01*
X155568895Y-70249031D01*
X155561508Y-70250805D01*
X155561504Y-70250805D01*
X155418162Y-70285220D01*
X155404032Y-70288612D01*
X155397288Y-70292093D01*
X155397285Y-70292094D01*
X155260117Y-70362892D01*
X155253369Y-70366375D01*
X155125604Y-70477831D01*
X155119899Y-70485949D01*
X155058278Y-70573627D01*
X155028113Y-70616547D01*
X154966524Y-70774513D01*
X154965532Y-70782046D01*
X154965532Y-70782047D01*
X154947521Y-70918862D01*
X154944394Y-70942611D01*
X154451529Y-70942611D01*
X154454909Y-70918862D01*
X154454909Y-70918859D01*
X154455490Y-70914778D01*
X154455645Y-70900000D01*
X154455005Y-70894707D01*
X154442239Y-70789220D01*
X154435276Y-70731680D01*
X154375345Y-70573077D01*
X154366584Y-70560330D01*
X154283614Y-70439608D01*
X154283613Y-70439607D01*
X154279312Y-70433349D01*
X154214510Y-70375612D01*
X154158392Y-70325612D01*
X154158388Y-70325610D01*
X154152721Y-70320560D01*
X154104024Y-70294776D01*
X154040426Y-70261103D01*
X154002881Y-70241224D01*
X153838441Y-70199919D01*
X153830843Y-70199879D01*
X153830841Y-70199879D01*
X153753668Y-70199475D01*
X153668895Y-70199031D01*
X153661508Y-70200805D01*
X153661504Y-70200805D01*
X153520497Y-70234659D01*
X153504032Y-70238612D01*
X153497288Y-70242093D01*
X153497285Y-70242094D01*
X153395216Y-70294776D01*
X153353369Y-70316375D01*
X153225604Y-70427831D01*
X153190137Y-70478296D01*
X153182187Y-70489608D01*
X153128113Y-70566547D01*
X153066524Y-70724513D01*
X153065532Y-70732046D01*
X153065532Y-70732047D01*
X153045595Y-70883491D01*
X153044394Y-70892611D01*
X150552467Y-70892611D01*
X150554323Y-70889344D01*
X150619351Y-70693863D01*
X150645171Y-70489474D01*
X150645583Y-70460000D01*
X150625480Y-70254970D01*
X150565935Y-70057749D01*
X150469218Y-69875849D01*
X150395859Y-69785902D01*
X150342906Y-69720975D01*
X150342903Y-69720972D01*
X150339011Y-69716200D01*
X150321786Y-69701950D01*
X150185025Y-69588811D01*
X150185021Y-69588809D01*
X150180275Y-69584882D01*
X149999055Y-69486897D01*
X149802254Y-69425977D01*
X149796129Y-69425333D01*
X149796128Y-69425333D01*
X149603498Y-69405087D01*
X149603496Y-69405087D01*
X149597369Y-69404443D01*
X149510529Y-69412346D01*
X149398342Y-69422555D01*
X149398339Y-69422556D01*
X149392203Y-69423114D01*
X149194572Y-69481280D01*
X149012002Y-69576726D01*
X149007201Y-69580586D01*
X149007198Y-69580588D01*
X148856254Y-69701950D01*
X148851447Y-69705815D01*
X148719024Y-69863630D01*
X148716056Y-69869028D01*
X148716053Y-69869033D01*
X148622743Y-70038765D01*
X148619776Y-70044162D01*
X148557484Y-70240532D01*
X148556798Y-70246649D01*
X148556797Y-70246653D01*
X148542899Y-70370560D01*
X148534520Y-70445262D01*
X145564138Y-70445262D01*
X145545480Y-70254970D01*
X145485935Y-70057749D01*
X145389218Y-69875849D01*
X145315859Y-69785902D01*
X145262906Y-69720975D01*
X145262903Y-69720972D01*
X145259011Y-69716200D01*
X145241786Y-69701950D01*
X145105025Y-69588811D01*
X145105021Y-69588809D01*
X145100275Y-69584882D01*
X144919055Y-69486897D01*
X144722254Y-69425977D01*
X144716129Y-69425333D01*
X144716128Y-69425333D01*
X144523498Y-69405087D01*
X144523496Y-69405087D01*
X144517369Y-69404443D01*
X144430529Y-69412346D01*
X144318342Y-69422555D01*
X144318339Y-69422556D01*
X144312203Y-69423114D01*
X144114572Y-69481280D01*
X143932002Y-69576726D01*
X143927201Y-69580586D01*
X143927198Y-69580588D01*
X143776254Y-69701950D01*
X143771447Y-69705815D01*
X143639024Y-69863630D01*
X143636056Y-69869028D01*
X143636053Y-69869033D01*
X143542743Y-70038765D01*
X143539776Y-70044162D01*
X143477484Y-70240532D01*
X143476798Y-70246649D01*
X143476797Y-70246653D01*
X143462899Y-70370560D01*
X143454520Y-70445262D01*
X140712728Y-70445262D01*
X140711258Y-70422837D01*
X140696635Y-70199735D01*
X140696634Y-70199731D01*
X140696365Y-70195620D01*
X140668941Y-70057749D01*
X140639618Y-69910328D01*
X140639616Y-69910322D01*
X140638812Y-69906278D01*
X140626862Y-69871073D01*
X140545307Y-69630823D01*
X140545306Y-69630821D01*
X140543983Y-69626923D01*
X140474930Y-69486897D01*
X140415330Y-69366040D01*
X140415327Y-69366035D01*
X140413503Y-69362336D01*
X140249604Y-69117043D01*
X140246890Y-69113949D01*
X140246886Y-69113943D01*
X140057798Y-68898331D01*
X140055089Y-68895242D01*
X140052000Y-68892533D01*
X139836388Y-68703445D01*
X139836382Y-68703441D01*
X139833288Y-68700727D01*
X139829858Y-68698435D01*
X139829857Y-68698434D01*
X139591429Y-68539122D01*
X139587996Y-68536828D01*
X139584297Y-68535004D01*
X139584292Y-68535001D01*
X139327103Y-68408170D01*
X139327101Y-68408169D01*
X139323408Y-68406348D01*
X139319508Y-68405024D01*
X139047963Y-68312846D01*
X139047959Y-68312845D01*
X139044053Y-68311519D01*
X139040009Y-68310715D01*
X139040003Y-68310713D01*
X138758754Y-68254770D01*
X138758751Y-68254770D01*
X138754711Y-68253966D01*
X138750600Y-68253697D01*
X138750596Y-68253696D01*
X138464450Y-68234941D01*
X138460331Y-68234671D01*
X138456212Y-68234941D01*
X138170066Y-68253696D01*
X138170062Y-68253697D01*
X138165951Y-68253966D01*
X138161911Y-68254770D01*
X138161908Y-68254770D01*
X137880659Y-68310713D01*
X137880653Y-68310715D01*
X137876609Y-68311519D01*
X137872703Y-68312845D01*
X137872699Y-68312846D01*
X137601154Y-68405024D01*
X137597254Y-68406348D01*
X137593561Y-68408169D01*
X137593559Y-68408170D01*
X137336371Y-68535001D01*
X137336366Y-68535004D01*
X137332667Y-68536828D01*
X137087374Y-68700727D01*
X137084280Y-68703441D01*
X137084274Y-68703445D01*
X136868662Y-68892533D01*
X136865573Y-68895242D01*
X136862864Y-68898331D01*
X136673776Y-69113943D01*
X136673772Y-69113949D01*
X136671058Y-69117043D01*
X136507159Y-69362336D01*
X136505335Y-69366035D01*
X136505332Y-69366040D01*
X136445732Y-69486897D01*
X136376679Y-69626923D01*
X136375356Y-69630821D01*
X136375355Y-69630823D01*
X136293801Y-69871073D01*
X136281850Y-69906278D01*
X136281046Y-69910322D01*
X136281044Y-69910328D01*
X136251721Y-70057749D01*
X136224297Y-70195620D01*
X136224028Y-70199731D01*
X136224027Y-70199735D01*
X136209404Y-70422837D01*
X136205002Y-70490000D01*
X129600000Y-70490000D01*
X129600000Y-67926000D01*
X129620002Y-67857879D01*
X129673658Y-67811386D01*
X129726000Y-67800000D01*
X188124000Y-67800000D01*
X188192121Y-67820002D01*
G37*
%TD.AperFunction*%
%TD*%
%TA.AperFunction,Conductor*%
%TO.N,GND*%
G36*
X155805488Y-96154212D02*
G01*
X155812002Y-96155070D01*
X155843773Y-96163583D01*
X155886219Y-96181165D01*
X155914704Y-96197611D01*
X155951158Y-96225583D01*
X155974417Y-96248842D01*
X156002389Y-96285296D01*
X156018835Y-96313781D01*
X156029459Y-96339428D01*
X156036417Y-96356227D01*
X156044930Y-96387998D01*
X156050928Y-96433552D01*
X156050928Y-96466444D01*
X156048730Y-96483139D01*
X156044930Y-96512002D01*
X156036417Y-96543772D01*
X156027626Y-96564996D01*
X156018835Y-96586219D01*
X156002389Y-96614704D01*
X155974417Y-96651158D01*
X155951158Y-96674417D01*
X155914704Y-96702389D01*
X155886219Y-96718835D01*
X155843773Y-96736417D01*
X155812002Y-96744930D01*
X155805488Y-96745788D01*
X155766444Y-96750928D01*
X155733556Y-96750928D01*
X155694512Y-96745788D01*
X155687998Y-96744930D01*
X155656227Y-96736417D01*
X155613781Y-96718835D01*
X155585296Y-96702389D01*
X155548842Y-96674417D01*
X155525583Y-96651158D01*
X155497611Y-96614704D01*
X155481165Y-96586219D01*
X155472374Y-96564996D01*
X155463583Y-96543772D01*
X155455070Y-96512002D01*
X155451270Y-96483139D01*
X155449072Y-96466444D01*
X155449072Y-96433552D01*
X155455070Y-96387998D01*
X155463583Y-96356227D01*
X155470542Y-96339428D01*
X155481165Y-96313781D01*
X155497611Y-96285296D01*
X155525583Y-96248842D01*
X155548842Y-96225583D01*
X155585296Y-96197611D01*
X155613781Y-96181165D01*
X155656227Y-96163583D01*
X155687998Y-96155070D01*
X155694512Y-96154212D01*
X155733556Y-96149072D01*
X155766444Y-96149072D01*
X155805488Y-96154212D01*
G37*
%TD.AperFunction*%
%TA.AperFunction,Conductor*%
G36*
X161550788Y-92748771D02*
G01*
X161600000Y-92755250D01*
X161608188Y-92754172D01*
X161608191Y-92754172D01*
X161649696Y-92748708D01*
X161719844Y-92759648D01*
X161772943Y-92806776D01*
X161775325Y-92811041D01*
X161776121Y-92813150D01*
X161779396Y-92818404D01*
X161783374Y-92824785D01*
X161813677Y-92873400D01*
X161859527Y-92927813D01*
X161862885Y-92930805D01*
X161862891Y-92930811D01*
X161929033Y-92989742D01*
X161949054Y-93012451D01*
X161993540Y-93077179D01*
X162007566Y-93104007D01*
X162035332Y-93177486D01*
X162042553Y-93206887D01*
X162052404Y-93288287D01*
X162052060Y-93321178D01*
X162040506Y-93402361D01*
X162032671Y-93431603D01*
X162003371Y-93504488D01*
X161988792Y-93531008D01*
X161942952Y-93594802D01*
X161922466Y-93617080D01*
X161862735Y-93668095D01*
X161837520Y-93684847D01*
X161767345Y-93720142D01*
X161738859Y-93730397D01*
X161685774Y-93742555D01*
X161685770Y-93742555D01*
X161662297Y-93747931D01*
X161632193Y-93751095D01*
X161594538Y-93750504D01*
X161594536Y-93750504D01*
X161553655Y-93749862D01*
X161523669Y-93745755D01*
X161447682Y-93725820D01*
X161419537Y-93714676D01*
X161350512Y-93677199D01*
X161325833Y-93659661D01*
X161267738Y-93606798D01*
X161247957Y-93583881D01*
X161204146Y-93518684D01*
X161190401Y-93491708D01*
X161163409Y-93417947D01*
X161156496Y-93388474D01*
X161149066Y-93321178D01*
X161147877Y-93310403D01*
X161148194Y-93280131D01*
X161158446Y-93202258D01*
X161165975Y-93172934D01*
X161194506Y-93099756D01*
X161208812Y-93073076D01*
X161231145Y-93041299D01*
X161231150Y-93041291D01*
X161231151Y-93041290D01*
X161253981Y-93008805D01*
X161274237Y-92986310D01*
X161335666Y-92932722D01*
X161337835Y-92930830D01*
X161369341Y-92897819D01*
X161397810Y-92861935D01*
X161408997Y-92846682D01*
X161411862Y-92839881D01*
X161411865Y-92839875D01*
X161418221Y-92824785D01*
X161463096Y-92769769D01*
X161530592Y-92747749D01*
X161550788Y-92748771D01*
G37*
%TD.AperFunction*%
%TA.AperFunction,Conductor*%
G36*
X169352359Y-89649472D02*
G01*
X169391630Y-89649677D01*
X169421664Y-89653471D01*
X169459757Y-89663039D01*
X169497847Y-89672607D01*
X169526110Y-89683457D01*
X169568091Y-89705685D01*
X169568095Y-89705687D01*
X169568098Y-89705688D01*
X169568099Y-89705688D01*
X169595529Y-89720212D01*
X169620382Y-89737484D01*
X169679038Y-89789745D01*
X169699050Y-89812445D01*
X169711787Y-89830977D01*
X169743542Y-89877181D01*
X169757566Y-89904006D01*
X169785333Y-89977489D01*
X169792554Y-90006890D01*
X169803676Y-90098804D01*
X169803678Y-90098816D01*
X169804023Y-90101667D01*
X169804628Y-90104483D01*
X169809395Y-90126681D01*
X169804143Y-90197484D01*
X169795234Y-90216293D01*
X169794274Y-90217951D01*
X169774293Y-90252446D01*
X169772615Y-90256620D01*
X169753375Y-90304480D01*
X169738791Y-90331008D01*
X169692955Y-90394797D01*
X169672466Y-90417080D01*
X169622610Y-90459661D01*
X169612735Y-90468095D01*
X169587520Y-90484847D01*
X169517345Y-90520142D01*
X169488859Y-90530398D01*
X169436534Y-90542381D01*
X169412299Y-90547931D01*
X169382194Y-90551096D01*
X169344536Y-90550504D01*
X169303655Y-90549862D01*
X169273669Y-90545755D01*
X169197682Y-90525820D01*
X169169537Y-90514676D01*
X169100512Y-90477199D01*
X169075833Y-90459661D01*
X169017738Y-90406798D01*
X168997956Y-90383880D01*
X168954146Y-90318683D01*
X168940403Y-90291711D01*
X168927561Y-90256620D01*
X168924845Y-90249198D01*
X168913407Y-90217944D01*
X168906496Y-90188475D01*
X168897877Y-90110403D01*
X168898194Y-90080131D01*
X168908446Y-90002258D01*
X168915975Y-89972935D01*
X168944506Y-89899756D01*
X168958812Y-89873075D01*
X168989013Y-89830103D01*
X169003978Y-89808810D01*
X169024236Y-89786311D01*
X169066605Y-89749350D01*
X169083425Y-89734677D01*
X169108446Y-89717670D01*
X169110801Y-89716454D01*
X169110823Y-89716449D01*
X169110821Y-89716444D01*
X169178265Y-89681634D01*
X169206637Y-89671082D01*
X169279989Y-89653471D01*
X169283009Y-89652746D01*
X169313086Y-89649266D01*
X169352359Y-89649472D01*
G37*
%TD.AperFunction*%
%TA.AperFunction,Conductor*%
G36*
X174655488Y-88654212D02*
G01*
X174662002Y-88655070D01*
X174693773Y-88663583D01*
X174736219Y-88681165D01*
X174764704Y-88697611D01*
X174801158Y-88725583D01*
X174824417Y-88748842D01*
X174852389Y-88785296D01*
X174868835Y-88813781D01*
X174886417Y-88856227D01*
X174894930Y-88887998D01*
X174900928Y-88933552D01*
X174900928Y-88966444D01*
X174897343Y-88993674D01*
X174894930Y-89012002D01*
X174886417Y-89043773D01*
X174868835Y-89086219D01*
X174852389Y-89114704D01*
X174824417Y-89151158D01*
X174801158Y-89174417D01*
X174764704Y-89202389D01*
X174736219Y-89218835D01*
X174693773Y-89236417D01*
X174662002Y-89244930D01*
X174655488Y-89245788D01*
X174616444Y-89250928D01*
X174583556Y-89250928D01*
X174544512Y-89245788D01*
X174537998Y-89244930D01*
X174506227Y-89236417D01*
X174463781Y-89218835D01*
X174435296Y-89202389D01*
X174398842Y-89174417D01*
X174375583Y-89151158D01*
X174347611Y-89114704D01*
X174331165Y-89086219D01*
X174313583Y-89043773D01*
X174305070Y-89012002D01*
X174302657Y-88993674D01*
X174299072Y-88966444D01*
X174299072Y-88933552D01*
X174305070Y-88887998D01*
X174313583Y-88856227D01*
X174331165Y-88813781D01*
X174347611Y-88785296D01*
X174375583Y-88748842D01*
X174398842Y-88725583D01*
X174435296Y-88697611D01*
X174463781Y-88681165D01*
X174506227Y-88663583D01*
X174537998Y-88655070D01*
X174544512Y-88654212D01*
X174583556Y-88649072D01*
X174616444Y-88649072D01*
X174655488Y-88654212D01*
G37*
%TD.AperFunction*%
%TA.AperFunction,Conductor*%
G36*
X176555488Y-87504212D02*
G01*
X176562002Y-87505070D01*
X176593773Y-87513583D01*
X176636219Y-87531165D01*
X176664704Y-87547611D01*
X176701158Y-87575583D01*
X176724417Y-87598842D01*
X176752389Y-87635296D01*
X176768835Y-87663781D01*
X176786417Y-87706227D01*
X176794930Y-87737998D01*
X176800659Y-87781506D01*
X176800928Y-87783552D01*
X176800928Y-87816444D01*
X176797772Y-87840416D01*
X176794930Y-87862002D01*
X176786417Y-87893773D01*
X176768835Y-87936219D01*
X176752389Y-87964704D01*
X176724417Y-88001158D01*
X176701158Y-88024417D01*
X176664704Y-88052389D01*
X176636219Y-88068835D01*
X176597525Y-88084863D01*
X176593773Y-88086417D01*
X176562002Y-88094930D01*
X176555488Y-88095788D01*
X176516444Y-88100928D01*
X176483556Y-88100928D01*
X176444512Y-88095788D01*
X176437998Y-88094930D01*
X176406227Y-88086417D01*
X176402476Y-88084863D01*
X176363781Y-88068835D01*
X176335296Y-88052389D01*
X176298842Y-88024417D01*
X176275583Y-88001158D01*
X176247611Y-87964704D01*
X176231165Y-87936219D01*
X176213583Y-87893773D01*
X176205070Y-87862002D01*
X176202228Y-87840416D01*
X176199072Y-87816444D01*
X176199072Y-87783552D01*
X176199342Y-87781506D01*
X176205070Y-87737998D01*
X176213583Y-87706227D01*
X176231165Y-87663781D01*
X176247611Y-87635296D01*
X176275583Y-87598842D01*
X176298842Y-87575583D01*
X176335296Y-87547611D01*
X176363781Y-87531165D01*
X176406227Y-87513583D01*
X176437998Y-87505070D01*
X176444512Y-87504212D01*
X176483556Y-87499072D01*
X176516444Y-87499072D01*
X176555488Y-87504212D01*
G37*
%TD.AperFunction*%
%TA.AperFunction,Conductor*%
G36*
X182774219Y-86988971D02*
G01*
X182821662Y-87041789D01*
X182834000Y-87096167D01*
X182834000Y-87628000D01*
X182813998Y-87696121D01*
X182760342Y-87742614D01*
X182708000Y-87754000D01*
X182452000Y-87754000D01*
X182383879Y-87733998D01*
X182337386Y-87680342D01*
X182326000Y-87628000D01*
X182326000Y-87175306D01*
X182346002Y-87107185D01*
X182399658Y-87060692D01*
X182448642Y-87049351D01*
X182448667Y-87049350D01*
X182449191Y-87049341D01*
X182449673Y-87049324D01*
X182449703Y-87049323D01*
X182453120Y-87049201D01*
X182453124Y-87049201D01*
X182458180Y-87049020D01*
X182525279Y-87035673D01*
X182531659Y-87034404D01*
X182531661Y-87034403D01*
X182536625Y-87033416D01*
X182574281Y-87019371D01*
X182600500Y-87009592D01*
X182600509Y-87009588D01*
X182603145Y-87008605D01*
X182641193Y-86990402D01*
X182641195Y-86990401D01*
X182643345Y-86989372D01*
X182643493Y-86989681D01*
X182705753Y-86970187D01*
X182774219Y-86988971D01*
G37*
%TD.AperFunction*%
%TA.AperFunction,Conductor*%
G36*
X186105488Y-85504212D02*
G01*
X186112002Y-85505070D01*
X186143773Y-85513583D01*
X186186219Y-85531165D01*
X186214704Y-85547611D01*
X186251158Y-85575583D01*
X186274417Y-85598842D01*
X186302389Y-85635296D01*
X186318835Y-85663781D01*
X186330118Y-85691019D01*
X186336417Y-85706227D01*
X186344930Y-85737998D01*
X186350928Y-85783552D01*
X186350928Y-85816444D01*
X186345788Y-85855488D01*
X186344930Y-85862002D01*
X186336417Y-85893773D01*
X186318835Y-85936219D01*
X186302389Y-85964704D01*
X186274417Y-86001158D01*
X186251158Y-86024417D01*
X186214704Y-86052389D01*
X186186219Y-86068835D01*
X186143773Y-86086417D01*
X186112002Y-86094930D01*
X186105488Y-86095788D01*
X186066444Y-86100928D01*
X186033556Y-86100928D01*
X185994512Y-86095788D01*
X185987998Y-86094930D01*
X185956227Y-86086417D01*
X185913781Y-86068835D01*
X185885296Y-86052389D01*
X185848842Y-86024417D01*
X185825583Y-86001158D01*
X185797611Y-85964704D01*
X185781165Y-85936219D01*
X185763583Y-85893773D01*
X185755070Y-85862002D01*
X185754212Y-85855488D01*
X185749072Y-85816444D01*
X185749072Y-85783552D01*
X185755070Y-85737998D01*
X185763583Y-85706227D01*
X185769883Y-85691019D01*
X185781165Y-85663781D01*
X185797611Y-85635296D01*
X185825583Y-85598842D01*
X185848842Y-85575583D01*
X185885296Y-85547611D01*
X185913781Y-85531165D01*
X185956227Y-85513583D01*
X185987998Y-85505070D01*
X185994512Y-85504212D01*
X186033556Y-85499072D01*
X186066444Y-85499072D01*
X186105488Y-85504212D01*
G37*
%TD.AperFunction*%
%TA.AperFunction,Conductor*%
G36*
X161164602Y-84857449D02*
G01*
X161171116Y-84858307D01*
X161202887Y-84866820D01*
X161245333Y-84884402D01*
X161273818Y-84900848D01*
X161310272Y-84928820D01*
X161333531Y-84952079D01*
X161361503Y-84988533D01*
X161377949Y-85017018D01*
X161395531Y-85059464D01*
X161404044Y-85091235D01*
X161408520Y-85125228D01*
X161410042Y-85136789D01*
X161410042Y-85169685D01*
X161404044Y-85215239D01*
X161395531Y-85247009D01*
X161388202Y-85264704D01*
X161377949Y-85289456D01*
X161361503Y-85317941D01*
X161333531Y-85354395D01*
X161310272Y-85377654D01*
X161273818Y-85405626D01*
X161245333Y-85422072D01*
X161202887Y-85439654D01*
X161171116Y-85448167D01*
X161164602Y-85449025D01*
X161125558Y-85454165D01*
X161092670Y-85454165D01*
X161053626Y-85449025D01*
X161047112Y-85448167D01*
X161015341Y-85439654D01*
X160972895Y-85422072D01*
X160944410Y-85405626D01*
X160907956Y-85377654D01*
X160884697Y-85354395D01*
X160856725Y-85317941D01*
X160840279Y-85289456D01*
X160830026Y-85264704D01*
X160822697Y-85247009D01*
X160814184Y-85215239D01*
X160808186Y-85169685D01*
X160808186Y-85136789D01*
X160809709Y-85125228D01*
X160814184Y-85091235D01*
X160822697Y-85059464D01*
X160840279Y-85017018D01*
X160856725Y-84988533D01*
X160884697Y-84952079D01*
X160907956Y-84928820D01*
X160944410Y-84900848D01*
X160972895Y-84884402D01*
X161015341Y-84866820D01*
X161047112Y-84858307D01*
X161053626Y-84857449D01*
X161092670Y-84852309D01*
X161125558Y-84852309D01*
X161164602Y-84857449D01*
G37*
%TD.AperFunction*%
%TA.AperFunction,Conductor*%
G36*
X155655488Y-84804212D02*
G01*
X155662002Y-84805070D01*
X155693773Y-84813583D01*
X155736219Y-84831165D01*
X155764704Y-84847611D01*
X155801158Y-84875583D01*
X155824417Y-84898842D01*
X155852389Y-84935296D01*
X155868835Y-84963781D01*
X155884539Y-85001692D01*
X155886417Y-85006227D01*
X155894930Y-85038000D01*
X155900927Y-85083552D01*
X155900928Y-85104156D01*
X155901458Y-85104156D01*
X155901458Y-85104159D01*
X155900929Y-85112234D01*
X155900929Y-85116432D01*
X155900382Y-85120590D01*
X155900381Y-85120590D01*
X155900380Y-85120606D01*
X155894930Y-85162001D01*
X155886417Y-85193772D01*
X155877626Y-85214996D01*
X155868835Y-85236219D01*
X155852389Y-85264704D01*
X155824417Y-85301158D01*
X155801158Y-85324417D01*
X155764704Y-85352389D01*
X155736219Y-85368835D01*
X155693773Y-85386417D01*
X155662002Y-85394930D01*
X155655488Y-85395788D01*
X155616444Y-85400928D01*
X155583556Y-85400928D01*
X155544512Y-85395788D01*
X155537998Y-85394930D01*
X155506227Y-85386417D01*
X155463781Y-85368835D01*
X155435296Y-85352389D01*
X155398842Y-85324417D01*
X155375583Y-85301158D01*
X155347611Y-85264704D01*
X155331165Y-85236219D01*
X155322374Y-85214996D01*
X155313583Y-85193772D01*
X155305070Y-85162002D01*
X155303916Y-85153237D01*
X155299072Y-85116444D01*
X155299072Y-85083552D01*
X155305070Y-85037997D01*
X155313583Y-85006227D01*
X155315462Y-85001692D01*
X155331165Y-84963781D01*
X155347611Y-84935296D01*
X155375583Y-84898842D01*
X155398842Y-84875583D01*
X155435296Y-84847611D01*
X155463781Y-84831165D01*
X155506227Y-84813583D01*
X155537998Y-84805070D01*
X155544512Y-84804212D01*
X155583556Y-84799072D01*
X155616444Y-84799072D01*
X155655488Y-84804212D01*
G37*
%TD.AperFunction*%
%TA.AperFunction,Conductor*%
G36*
X154805488Y-82704212D02*
G01*
X154812002Y-82705070D01*
X154843773Y-82713583D01*
X154886219Y-82731165D01*
X154914704Y-82747611D01*
X154951158Y-82775583D01*
X154974417Y-82798842D01*
X155002389Y-82835296D01*
X155018835Y-82863781D01*
X155036417Y-82906227D01*
X155044930Y-82937998D01*
X155050928Y-82983552D01*
X155050928Y-83016447D01*
X155044930Y-83062003D01*
X155036417Y-83093773D01*
X155018836Y-83136218D01*
X155002389Y-83164706D01*
X154974417Y-83201159D01*
X154951157Y-83224418D01*
X154914702Y-83252390D01*
X154886219Y-83268835D01*
X154843773Y-83286417D01*
X154812002Y-83294930D01*
X154805488Y-83295788D01*
X154766444Y-83300928D01*
X154733556Y-83300928D01*
X154694512Y-83295788D01*
X154687998Y-83294930D01*
X154656227Y-83286417D01*
X154613781Y-83268835D01*
X154585296Y-83252389D01*
X154548842Y-83224417D01*
X154525583Y-83201158D01*
X154497611Y-83164704D01*
X154481165Y-83136219D01*
X154463583Y-83093773D01*
X154455070Y-83062002D01*
X154449072Y-83016448D01*
X154449072Y-82983552D01*
X154455070Y-82937998D01*
X154463583Y-82906227D01*
X154481165Y-82863781D01*
X154497611Y-82835296D01*
X154525583Y-82798842D01*
X154548842Y-82775583D01*
X154585296Y-82747611D01*
X154613781Y-82731165D01*
X154656227Y-82713583D01*
X154687998Y-82705070D01*
X154694512Y-82704212D01*
X154733556Y-82699072D01*
X154766444Y-82699072D01*
X154805488Y-82704212D01*
G37*
%TD.AperFunction*%
%TA.AperFunction,Conductor*%
G36*
X186605488Y-82054212D02*
G01*
X186612002Y-82055070D01*
X186643773Y-82063583D01*
X186686219Y-82081165D01*
X186714704Y-82097611D01*
X186751158Y-82125583D01*
X186774417Y-82148842D01*
X186802389Y-82185296D01*
X186818835Y-82213781D01*
X186836417Y-82256227D01*
X186844930Y-82287998D01*
X186849557Y-82323136D01*
X186850928Y-82333552D01*
X186850928Y-82366448D01*
X186844930Y-82412002D01*
X186836417Y-82443773D01*
X186818835Y-82486219D01*
X186802389Y-82514704D01*
X186774417Y-82551158D01*
X186751158Y-82574417D01*
X186714704Y-82602389D01*
X186686219Y-82618835D01*
X186657370Y-82630785D01*
X186643773Y-82636417D01*
X186612002Y-82644930D01*
X186605488Y-82645788D01*
X186566444Y-82650928D01*
X186533556Y-82650928D01*
X186494512Y-82645788D01*
X186487998Y-82644930D01*
X186456227Y-82636417D01*
X186442631Y-82630785D01*
X186413781Y-82618835D01*
X186385296Y-82602389D01*
X186348842Y-82574417D01*
X186325583Y-82551158D01*
X186297611Y-82514704D01*
X186281165Y-82486219D01*
X186263583Y-82443773D01*
X186255070Y-82412002D01*
X186249072Y-82366448D01*
X186249072Y-82333552D01*
X186250444Y-82323136D01*
X186255070Y-82287998D01*
X186263583Y-82256227D01*
X186281165Y-82213781D01*
X186297611Y-82185296D01*
X186325583Y-82148842D01*
X186348842Y-82125583D01*
X186385296Y-82097611D01*
X186413781Y-82081165D01*
X186456227Y-82063583D01*
X186487998Y-82055070D01*
X186494512Y-82054212D01*
X186533556Y-82049072D01*
X186566444Y-82049072D01*
X186605488Y-82054212D01*
G37*
%TD.AperFunction*%
%TA.AperFunction,Conductor*%
G36*
X164905488Y-81304212D02*
G01*
X164912002Y-81305070D01*
X164943773Y-81313583D01*
X164986219Y-81331165D01*
X165014704Y-81347611D01*
X165051158Y-81375583D01*
X165074417Y-81398842D01*
X165102389Y-81435296D01*
X165118835Y-81463781D01*
X165136417Y-81506227D01*
X165144930Y-81537998D01*
X165150928Y-81583552D01*
X165150928Y-81616447D01*
X165144930Y-81662003D01*
X165136417Y-81693773D01*
X165118836Y-81736218D01*
X165102389Y-81764706D01*
X165074417Y-81801159D01*
X165051157Y-81824418D01*
X165014702Y-81852390D01*
X164986219Y-81868835D01*
X164943773Y-81886417D01*
X164912002Y-81894930D01*
X164905488Y-81895788D01*
X164866444Y-81900928D01*
X164833556Y-81900928D01*
X164794512Y-81895788D01*
X164787998Y-81894930D01*
X164756227Y-81886417D01*
X164713781Y-81868835D01*
X164685296Y-81852389D01*
X164648842Y-81824417D01*
X164625583Y-81801158D01*
X164597611Y-81764704D01*
X164581165Y-81736219D01*
X164563583Y-81693773D01*
X164555070Y-81662002D01*
X164549072Y-81616448D01*
X164549072Y-81583552D01*
X164555070Y-81537998D01*
X164563583Y-81506227D01*
X164581165Y-81463781D01*
X164597611Y-81435296D01*
X164625583Y-81398842D01*
X164648842Y-81375583D01*
X164685296Y-81347611D01*
X164713781Y-81331165D01*
X164756227Y-81313583D01*
X164787998Y-81305070D01*
X164794512Y-81304212D01*
X164833556Y-81299072D01*
X164866444Y-81299072D01*
X164905488Y-81304212D01*
G37*
%TD.AperFunction*%
%TA.AperFunction,Conductor*%
G36*
X161602359Y-80099472D02*
G01*
X161641630Y-80099677D01*
X161671663Y-80103471D01*
X161747852Y-80122608D01*
X161776109Y-80133456D01*
X161801261Y-80146773D01*
X161801264Y-80146775D01*
X161801279Y-80146783D01*
X161801293Y-80146791D01*
X161842141Y-80168418D01*
X161842149Y-80168425D01*
X161842150Y-80168423D01*
X161845534Y-80170215D01*
X161870387Y-80187489D01*
X161929034Y-80239741D01*
X161949055Y-80262451D01*
X161991114Y-80323648D01*
X161991116Y-80323651D01*
X161993542Y-80327181D01*
X162007567Y-80354008D01*
X162035332Y-80427485D01*
X162042554Y-80456888D01*
X162045822Y-80483898D01*
X162043504Y-80484179D01*
X162043504Y-80484180D01*
X162045822Y-80483899D01*
X162052404Y-80538288D01*
X162052060Y-80571179D01*
X162043974Y-80627996D01*
X162040507Y-80652358D01*
X162032671Y-80681602D01*
X162015645Y-80723955D01*
X162003371Y-80754487D01*
X161988789Y-80781011D01*
X161982594Y-80789633D01*
X161942957Y-80844795D01*
X161922465Y-80867080D01*
X161907352Y-80879987D01*
X161907350Y-80879990D01*
X161862735Y-80918095D01*
X161837519Y-80934848D01*
X161767348Y-80970141D01*
X161738861Y-80980397D01*
X161688372Y-80991960D01*
X161688368Y-80991960D01*
X161662297Y-80997931D01*
X161632193Y-81001095D01*
X161594538Y-81000504D01*
X161594536Y-81000504D01*
X161553655Y-80999862D01*
X161523669Y-80995755D01*
X161447682Y-80975820D01*
X161419537Y-80964676D01*
X161350512Y-80927199D01*
X161325833Y-80909661D01*
X161267738Y-80856798D01*
X161247957Y-80833881D01*
X161204148Y-80768687D01*
X161190403Y-80741712D01*
X161163408Y-80667945D01*
X161156495Y-80638469D01*
X161147877Y-80560402D01*
X161148194Y-80530131D01*
X161158446Y-80452258D01*
X161165975Y-80422934D01*
X161194506Y-80349757D01*
X161208812Y-80323077D01*
X161253981Y-80258807D01*
X161274236Y-80236311D01*
X161321541Y-80195044D01*
X161333424Y-80184678D01*
X161358462Y-80167662D01*
X161362796Y-80165425D01*
X161362797Y-80165424D01*
X161428264Y-80131634D01*
X161456668Y-80121075D01*
X161457300Y-80120923D01*
X161533009Y-80102746D01*
X161563085Y-80099266D01*
X161602359Y-80099472D01*
G37*
%TD.AperFunction*%
%TA.AperFunction,Conductor*%
G36*
X176555488Y-79154212D02*
G01*
X176562002Y-79155070D01*
X176593773Y-79163583D01*
X176636219Y-79181165D01*
X176664704Y-79197611D01*
X176701158Y-79225583D01*
X176724417Y-79248842D01*
X176752389Y-79285296D01*
X176768835Y-79313781D01*
X176786417Y-79356227D01*
X176794930Y-79387998D01*
X176800928Y-79433552D01*
X176800928Y-79466448D01*
X176794930Y-79512002D01*
X176786417Y-79543773D01*
X176768835Y-79586219D01*
X176752389Y-79614704D01*
X176724417Y-79651158D01*
X176701158Y-79674417D01*
X176664704Y-79702389D01*
X176636219Y-79718835D01*
X176620034Y-79725539D01*
X176609241Y-79730010D01*
X176593773Y-79736417D01*
X176562002Y-79744930D01*
X176555488Y-79745788D01*
X176516444Y-79750928D01*
X176483556Y-79750928D01*
X176444512Y-79745788D01*
X176437998Y-79744930D01*
X176406227Y-79736417D01*
X176390760Y-79730010D01*
X176379966Y-79725539D01*
X176363781Y-79718835D01*
X176335296Y-79702389D01*
X176298842Y-79674417D01*
X176275583Y-79651158D01*
X176247611Y-79614704D01*
X176231165Y-79586219D01*
X176213583Y-79543773D01*
X176205070Y-79512002D01*
X176199072Y-79466448D01*
X176199072Y-79433552D01*
X176205070Y-79387998D01*
X176213583Y-79356227D01*
X176231165Y-79313781D01*
X176247611Y-79285296D01*
X176275583Y-79248842D01*
X176298842Y-79225583D01*
X176335296Y-79197611D01*
X176363781Y-79181165D01*
X176406227Y-79163583D01*
X176437998Y-79155070D01*
X176444512Y-79154212D01*
X176483556Y-79149072D01*
X176516444Y-79149072D01*
X176555488Y-79154212D01*
G37*
%TD.AperFunction*%
%TA.AperFunction,Conductor*%
G36*
X182776121Y-78616002D02*
G01*
X182822614Y-78669658D01*
X182834000Y-78722000D01*
X182834000Y-79256003D01*
X182813998Y-79324124D01*
X182760342Y-79370617D01*
X182690068Y-79380721D01*
X182649603Y-79367652D01*
X182578823Y-79330629D01*
X182510702Y-79310627D01*
X182506243Y-79309986D01*
X182506239Y-79309985D01*
X182444722Y-79301140D01*
X182444718Y-79301140D01*
X182440269Y-79300500D01*
X182440338Y-79300023D01*
X182376483Y-79276201D01*
X182333941Y-79219362D01*
X182326000Y-79175339D01*
X182326000Y-78722000D01*
X182346002Y-78653879D01*
X182399658Y-78607386D01*
X182452000Y-78596000D01*
X182708000Y-78596000D01*
X182776121Y-78616002D01*
G37*
%TD.AperFunction*%
%TA.AperFunction,Conductor*%
G36*
X159352359Y-78249472D02*
G01*
X159391628Y-78249677D01*
X159421665Y-78253471D01*
X159480305Y-78268201D01*
X159497849Y-78272608D01*
X159526107Y-78283455D01*
X159553374Y-78297892D01*
X159553376Y-78297893D01*
X159553376Y-78297894D01*
X159595527Y-78320212D01*
X159620387Y-78337490D01*
X159679032Y-78389741D01*
X159699053Y-78412449D01*
X159740620Y-78472930D01*
X159740621Y-78472932D01*
X159743538Y-78477176D01*
X159744791Y-78479573D01*
X159746175Y-78481777D01*
X159746179Y-78481784D01*
X159746001Y-78481886D01*
X159757567Y-78504008D01*
X159770227Y-78537513D01*
X159785333Y-78577489D01*
X159792554Y-78606890D01*
X159801243Y-78678694D01*
X159801243Y-78678699D01*
X159801868Y-78683859D01*
X159802404Y-78688293D01*
X159802059Y-78721180D01*
X159795855Y-78764773D01*
X159795855Y-78764777D01*
X159790505Y-78802365D01*
X159782670Y-78831605D01*
X159753371Y-78904488D01*
X159738792Y-78931008D01*
X159714579Y-78964704D01*
X159692951Y-78994803D01*
X159672464Y-79017083D01*
X159612731Y-79068099D01*
X159587526Y-79084845D01*
X159517345Y-79120143D01*
X159488860Y-79130397D01*
X159447262Y-79139924D01*
X159447260Y-79139924D01*
X159412298Y-79147931D01*
X159382193Y-79151095D01*
X159344538Y-79150504D01*
X159344536Y-79150504D01*
X159303655Y-79149862D01*
X159273669Y-79145755D01*
X159197682Y-79125820D01*
X159169537Y-79114676D01*
X159100512Y-79077199D01*
X159075833Y-79059661D01*
X159017738Y-79006798D01*
X158997957Y-78983881D01*
X158954146Y-78918684D01*
X158940401Y-78891708D01*
X158913409Y-78817947D01*
X158906496Y-78788474D01*
X158897877Y-78710405D01*
X158898194Y-78680132D01*
X158908446Y-78602258D01*
X158915975Y-78572934D01*
X158944508Y-78499752D01*
X158958811Y-78473075D01*
X159001568Y-78412238D01*
X159001570Y-78412237D01*
X159003985Y-78408800D01*
X159011090Y-78400911D01*
X159015560Y-78395593D01*
X159015563Y-78395590D01*
X159015730Y-78395757D01*
X159024237Y-78386310D01*
X159057062Y-78357675D01*
X159083423Y-78334678D01*
X159108466Y-78317659D01*
X159115621Y-78313966D01*
X159115622Y-78313966D01*
X159178263Y-78281635D01*
X159206636Y-78271083D01*
X159283010Y-78252746D01*
X159313087Y-78249266D01*
X159352359Y-78249472D01*
G37*
%TD.AperFunction*%
%TA.AperFunction,Conductor*%
G36*
X179703959Y-78504011D02*
G01*
X179712002Y-78505070D01*
X179743773Y-78513583D01*
X179786219Y-78531165D01*
X179814704Y-78547611D01*
X179851158Y-78575583D01*
X179874417Y-78598842D01*
X179902389Y-78635296D01*
X179918835Y-78663781D01*
X179925012Y-78678694D01*
X179931871Y-78695251D01*
X179936417Y-78706227D01*
X179944930Y-78737998D01*
X179949557Y-78773138D01*
X179950928Y-78783552D01*
X179950928Y-78816444D01*
X179949444Y-78827716D01*
X179944930Y-78862002D01*
X179936417Y-78893772D01*
X179931340Y-78906030D01*
X179918835Y-78936219D01*
X179902389Y-78964704D01*
X179874417Y-79001158D01*
X179851158Y-79024417D01*
X179814704Y-79052389D01*
X179786219Y-79068835D01*
X179747561Y-79084848D01*
X179743773Y-79086417D01*
X179712002Y-79094930D01*
X179705488Y-79095788D01*
X179666444Y-79100928D01*
X179633556Y-79100928D01*
X179594512Y-79095788D01*
X179587998Y-79094930D01*
X179556227Y-79086417D01*
X179552440Y-79084848D01*
X179513781Y-79068835D01*
X179485296Y-79052389D01*
X179448842Y-79024417D01*
X179425583Y-79001158D01*
X179397611Y-78964704D01*
X179381165Y-78936219D01*
X179368660Y-78906030D01*
X179363583Y-78893772D01*
X179355070Y-78862002D01*
X179350556Y-78827716D01*
X179349072Y-78816444D01*
X179349072Y-78783552D01*
X179350444Y-78773138D01*
X179355070Y-78737998D01*
X179363583Y-78706227D01*
X179368130Y-78695251D01*
X179374988Y-78678694D01*
X179381165Y-78663781D01*
X179397611Y-78635296D01*
X179425583Y-78598842D01*
X179448842Y-78575583D01*
X179485296Y-78547611D01*
X179513781Y-78531165D01*
X179556227Y-78513583D01*
X179587998Y-78505070D01*
X179596041Y-78504011D01*
X179633556Y-78499072D01*
X179666444Y-78499072D01*
X179703959Y-78504011D01*
G37*
%TD.AperFunction*%
%TA.AperFunction,Conductor*%
G36*
X170505488Y-77804212D02*
G01*
X170512002Y-77805070D01*
X170543773Y-77813583D01*
X170586219Y-77831165D01*
X170614704Y-77847611D01*
X170651158Y-77875583D01*
X170674417Y-77898842D01*
X170702389Y-77935296D01*
X170718835Y-77963781D01*
X170736417Y-78006227D01*
X170744930Y-78037998D01*
X170750928Y-78083552D01*
X170750928Y-78116448D01*
X170744930Y-78162002D01*
X170736417Y-78193773D01*
X170718835Y-78236219D01*
X170702389Y-78264704D01*
X170674417Y-78301158D01*
X170651158Y-78324417D01*
X170614704Y-78352389D01*
X170586219Y-78368835D01*
X170543773Y-78386417D01*
X170512002Y-78394930D01*
X170506967Y-78395593D01*
X170466444Y-78400928D01*
X170433556Y-78400928D01*
X170393033Y-78395593D01*
X170387998Y-78394930D01*
X170356227Y-78386417D01*
X170313781Y-78368835D01*
X170285296Y-78352389D01*
X170248842Y-78324417D01*
X170225583Y-78301158D01*
X170197611Y-78264704D01*
X170181165Y-78236219D01*
X170163583Y-78193773D01*
X170155070Y-78162002D01*
X170149072Y-78116448D01*
X170149072Y-78083552D01*
X170155070Y-78037998D01*
X170163583Y-78006227D01*
X170181165Y-77963781D01*
X170197611Y-77935296D01*
X170225583Y-77898842D01*
X170248842Y-77875583D01*
X170285296Y-77847611D01*
X170313781Y-77831165D01*
X170356227Y-77813583D01*
X170387998Y-77805070D01*
X170394512Y-77804212D01*
X170433556Y-77799072D01*
X170466444Y-77799072D01*
X170505488Y-77804212D01*
G37*
%TD.AperFunction*%
%TA.AperFunction,Conductor*%
G36*
X180355488Y-76704212D02*
G01*
X180362002Y-76705070D01*
X180393772Y-76713583D01*
X180404313Y-76717949D01*
X180436219Y-76731165D01*
X180464704Y-76747611D01*
X180501158Y-76775583D01*
X180524417Y-76798842D01*
X180552389Y-76835296D01*
X180568835Y-76863781D01*
X180586417Y-76906227D01*
X180594930Y-76937998D01*
X180600197Y-76977998D01*
X180600928Y-76983552D01*
X180600928Y-77016444D01*
X180595788Y-77055488D01*
X180594930Y-77062002D01*
X180586417Y-77093773D01*
X180568835Y-77136219D01*
X180552389Y-77164704D01*
X180524417Y-77201158D01*
X180501158Y-77224417D01*
X180464704Y-77252389D01*
X180436219Y-77268835D01*
X180393773Y-77286417D01*
X180362002Y-77294930D01*
X180355488Y-77295788D01*
X180316444Y-77300928D01*
X180283556Y-77300928D01*
X180244512Y-77295788D01*
X180237998Y-77294930D01*
X180206227Y-77286417D01*
X180163781Y-77268835D01*
X180135296Y-77252389D01*
X180098842Y-77224417D01*
X180075583Y-77201158D01*
X180047611Y-77164704D01*
X180031165Y-77136219D01*
X180013583Y-77093773D01*
X180005070Y-77062002D01*
X180004212Y-77055488D01*
X179999072Y-77016444D01*
X179999072Y-76983552D01*
X179999804Y-76977998D01*
X180005070Y-76937998D01*
X180013583Y-76906227D01*
X180031165Y-76863781D01*
X180047611Y-76835296D01*
X180075583Y-76798842D01*
X180098842Y-76775583D01*
X180135296Y-76747611D01*
X180163781Y-76731165D01*
X180195687Y-76717949D01*
X180206228Y-76713583D01*
X180237998Y-76705070D01*
X180244512Y-76704212D01*
X180283556Y-76699072D01*
X180316444Y-76699072D01*
X180355488Y-76704212D01*
G37*
%TD.AperFunction*%
%TA.AperFunction,Conductor*%
G36*
X159302359Y-76149472D02*
G01*
X159341630Y-76149677D01*
X159371664Y-76153471D01*
X159409757Y-76163039D01*
X159447847Y-76172607D01*
X159476110Y-76183457D01*
X159518087Y-76205683D01*
X159518093Y-76205686D01*
X159518098Y-76205688D01*
X159518099Y-76205688D01*
X159545529Y-76220211D01*
X159570383Y-76237484D01*
X159629038Y-76289745D01*
X159649049Y-76312444D01*
X159669363Y-76342000D01*
X159693544Y-76377184D01*
X159707567Y-76404008D01*
X159735332Y-76477485D01*
X159742554Y-76506887D01*
X159748279Y-76554201D01*
X159745960Y-76554482D01*
X159745961Y-76554485D01*
X159748279Y-76554204D01*
X159752404Y-76588288D01*
X159752060Y-76621180D01*
X159743604Y-76680596D01*
X159743604Y-76680599D01*
X159740506Y-76702364D01*
X159732671Y-76731603D01*
X159703371Y-76804488D01*
X159688790Y-76831010D01*
X159680619Y-76842382D01*
X159672186Y-76854117D01*
X159672185Y-76854119D01*
X159642955Y-76894797D01*
X159622462Y-76917082D01*
X159562733Y-76968095D01*
X159537517Y-76984849D01*
X159467349Y-77020140D01*
X159438866Y-77030395D01*
X159394800Y-77040487D01*
X159394800Y-77040488D01*
X159394798Y-77040488D01*
X159362299Y-77047931D01*
X159332193Y-77051095D01*
X159294538Y-77050504D01*
X159294536Y-77050504D01*
X159253655Y-77049862D01*
X159223669Y-77045755D01*
X159147682Y-77025820D01*
X159119537Y-77014676D01*
X159050512Y-76977199D01*
X159025833Y-76959661D01*
X158967738Y-76906798D01*
X158947957Y-76883881D01*
X158904146Y-76818684D01*
X158890401Y-76791709D01*
X158863409Y-76717949D01*
X158856496Y-76688474D01*
X158847877Y-76610403D01*
X158848194Y-76580131D01*
X158858446Y-76502258D01*
X158865975Y-76472934D01*
X158894507Y-76399753D01*
X158908810Y-76373077D01*
X158953979Y-76308807D01*
X158974232Y-76286315D01*
X158990412Y-76272200D01*
X158990413Y-76272199D01*
X159033422Y-76234679D01*
X159058463Y-76217661D01*
X159128266Y-76181634D01*
X159156639Y-76171082D01*
X159220625Y-76155719D01*
X159233009Y-76152746D01*
X159263085Y-76149266D01*
X159302359Y-76149472D01*
G37*
%TD.AperFunction*%
%TA.AperFunction,Conductor*%
G36*
X180355488Y-73304212D02*
G01*
X180362002Y-73305070D01*
X180393773Y-73313583D01*
X180436219Y-73331165D01*
X180464704Y-73347611D01*
X180501158Y-73375583D01*
X180524417Y-73398842D01*
X180552389Y-73435296D01*
X180568835Y-73463781D01*
X180586417Y-73506227D01*
X180594930Y-73537998D01*
X180600928Y-73583552D01*
X180600928Y-73616448D01*
X180594930Y-73662002D01*
X180586417Y-73693773D01*
X180568835Y-73736219D01*
X180552389Y-73764704D01*
X180524417Y-73801158D01*
X180501158Y-73824417D01*
X180464704Y-73852389D01*
X180436219Y-73868835D01*
X180393773Y-73886417D01*
X180362002Y-73894930D01*
X180355488Y-73895788D01*
X180316444Y-73900928D01*
X180283556Y-73900928D01*
X180244512Y-73895788D01*
X180237998Y-73894930D01*
X180206227Y-73886417D01*
X180163781Y-73868835D01*
X180135296Y-73852389D01*
X180098842Y-73824417D01*
X180075583Y-73801158D01*
X180047611Y-73764704D01*
X180031165Y-73736219D01*
X180013583Y-73693773D01*
X180005070Y-73662002D01*
X179999072Y-73616448D01*
X179999072Y-73583552D01*
X180005070Y-73537998D01*
X180013583Y-73506227D01*
X180031165Y-73463781D01*
X180047611Y-73435296D01*
X180075583Y-73398842D01*
X180098842Y-73375583D01*
X180135296Y-73347611D01*
X180163781Y-73331165D01*
X180206227Y-73313583D01*
X180237998Y-73305070D01*
X180244512Y-73304212D01*
X180283556Y-73299072D01*
X180316444Y-73299072D01*
X180355488Y-73304212D01*
G37*
%TD.AperFunction*%
%TA.AperFunction,Conductor*%
G36*
X155652359Y-70499472D02*
G01*
X155691630Y-70499677D01*
X155721664Y-70503471D01*
X155797851Y-70522608D01*
X155826110Y-70533456D01*
X155895526Y-70570210D01*
X155920386Y-70587488D01*
X155979030Y-70639738D01*
X155999050Y-70662446D01*
X156043541Y-70727180D01*
X156057568Y-70754011D01*
X156085333Y-70827490D01*
X156092554Y-70856890D01*
X156099600Y-70915115D01*
X156099600Y-70915116D01*
X156102404Y-70938287D01*
X156102060Y-70971176D01*
X156098443Y-70996592D01*
X156098443Y-70996594D01*
X156090506Y-71052362D01*
X156082670Y-71081605D01*
X156053374Y-71154481D01*
X156038790Y-71181009D01*
X155992953Y-71244799D01*
X155972463Y-71267083D01*
X155957367Y-71279976D01*
X155922611Y-71309661D01*
X155912736Y-71318095D01*
X155887523Y-71334846D01*
X155817345Y-71370143D01*
X155788861Y-71380397D01*
X155735774Y-71392555D01*
X155735770Y-71392555D01*
X155712297Y-71397931D01*
X155682193Y-71401095D01*
X155644538Y-71400504D01*
X155644536Y-71400504D01*
X155603655Y-71399862D01*
X155573669Y-71395755D01*
X155497682Y-71375820D01*
X155469537Y-71364676D01*
X155400512Y-71327199D01*
X155375833Y-71309661D01*
X155317738Y-71256798D01*
X155297956Y-71233881D01*
X155254147Y-71168686D01*
X155240403Y-71141711D01*
X155237530Y-71133861D01*
X155237527Y-71133852D01*
X155237526Y-71133851D01*
X155213409Y-71067949D01*
X155206496Y-71038474D01*
X155197877Y-70960404D01*
X155198194Y-70930131D01*
X155208446Y-70852258D01*
X155215975Y-70822934D01*
X155244507Y-70749754D01*
X155258808Y-70723081D01*
X155262805Y-70717393D01*
X155262820Y-70717373D01*
X155303984Y-70658804D01*
X155324237Y-70636310D01*
X155383428Y-70584674D01*
X155408460Y-70567662D01*
X155478262Y-70531635D01*
X155506635Y-70521083D01*
X155583010Y-70502746D01*
X155613087Y-70499266D01*
X155652359Y-70499472D01*
G37*
%TD.AperFunction*%
%TD*%
M02*
