%TF.GenerationSoftware,KiCad,Pcbnew,(6.0.2)*%
%TF.CreationDate,2022-11-22T23:48:31+01:00*%
%TF.ProjectId,CANap_,43414e61-70e9-42e6-9b69-6361645f7063,rev?*%
%TF.SameCoordinates,Original*%
%TF.FileFunction,Soldermask,Bot*%
%TF.FilePolarity,Negative*%
%FSLAX46Y46*%
G04 Gerber Fmt 4.6, Leading zero omitted, Abs format (unit mm)*
G04 Created by KiCad (PCBNEW (6.0.2)) date 2022-11-22 23:48:31*
%MOMM*%
%LPD*%
G01*
G04 APERTURE LIST*
G04 Aperture macros list*
%AMRoundRect*
0 Rectangle with rounded corners*
0 $1 Rounding radius*
0 $2 $3 $4 $5 $6 $7 $8 $9 X,Y pos of 4 corners*
0 Add a 4 corners polygon primitive as box body*
4,1,4,$2,$3,$4,$5,$6,$7,$8,$9,$2,$3,0*
0 Add four circle primitives for the rounded corners*
1,1,$1+$1,$2,$3*
1,1,$1+$1,$4,$5*
1,1,$1+$1,$6,$7*
1,1,$1+$1,$8,$9*
0 Add four rect primitives between the rounded corners*
20,1,$1+$1,$2,$3,$4,$5,0*
20,1,$1+$1,$4,$5,$6,$7,0*
20,1,$1+$1,$6,$7,$8,$9,0*
20,1,$1+$1,$8,$9,$2,$3,0*%
G04 Aperture macros list end*
%ADD10C,4.000000*%
%ADD11R,1.600000X1.600000*%
%ADD12C,1.600000*%
%ADD13RoundRect,0.400000X-0.400000X0.400000X-0.400000X-0.400000X0.400000X-0.400000X0.400000X0.400000X0*%
%ADD14C,0.700000*%
%ADD15O,2.400000X0.900000*%
%ADD16O,1.700000X0.900000*%
%ADD17RoundRect,0.250000X-0.475000X0.250000X-0.475000X-0.250000X0.475000X-0.250000X0.475000X0.250000X0*%
%ADD18R,2.000000X1.500000*%
%ADD19R,2.000000X3.800000*%
%ADD20RoundRect,0.250000X0.475000X-0.250000X0.475000X0.250000X-0.475000X0.250000X-0.475000X-0.250000X0*%
G04 APERTURE END LIST*
D10*
%TO.C,J2*%
X138460331Y-70490000D03*
X138460331Y-95490000D03*
D11*
X139880331Y-77450000D03*
D12*
X139880331Y-80220000D03*
X139880331Y-82990000D03*
X139880331Y-85760000D03*
X139880331Y-88530000D03*
X137040331Y-78835000D03*
X137040331Y-81605000D03*
X137040331Y-84375000D03*
X137040331Y-87145000D03*
%TD*%
%TO.C,SW2*%
X143560000Y-70410000D03*
X148640000Y-70410000D03*
D13*
X143560000Y-75490000D03*
D12*
X146100000Y-75490000D03*
X148640000Y-75490000D03*
%TD*%
D14*
%TO.C,J1*%
X173850000Y-80350000D03*
X173850000Y-81200000D03*
X173850000Y-82050000D03*
X173850000Y-82900000D03*
X173850000Y-83750000D03*
X173850000Y-84600000D03*
X173850000Y-85450000D03*
X173850000Y-86300000D03*
X175200000Y-86300000D03*
X175200000Y-85450000D03*
X175200000Y-84600000D03*
X175200000Y-83750000D03*
X175200000Y-82900000D03*
X175200000Y-82050000D03*
X175200000Y-81200000D03*
X175200000Y-80350000D03*
D15*
X174830000Y-79000000D03*
D16*
X178210000Y-87650000D03*
X178210000Y-79000000D03*
D15*
X174830000Y-87650000D03*
%TD*%
D17*
%TO.C,C2*%
X171018750Y-79468750D03*
X171018750Y-81368750D03*
%TD*%
D18*
%TO.C,U1*%
X168768750Y-79818750D03*
X168768750Y-82118750D03*
D19*
X162468750Y-82118750D03*
D18*
X168768750Y-84418750D03*
%TD*%
D20*
%TO.C,C1*%
X171018750Y-83368750D03*
X171018750Y-85268750D03*
%TD*%
M02*
