M48
; DRILL file {KiCad (6.0.2)} date Tue Nov 22 23:48:31 2022
; FORMAT={-:-/ absolute / inch / decimal}
; #@! TF.CreationDate,2022-11-22T23:48:31+01:00
; #@! TF.GenerationSoftware,Kicad,Pcbnew,(6.0.2)
; #@! TF.FileFunction,Plated,1,4,PTH
FMAT,2
INCH
; #@! TA.AperFunction,Plated,PTH,ViaDrill
T1C0.0118
; #@! TA.AperFunction,Plated,PTH,ViaDrill
T2C0.0157
; #@! TA.AperFunction,Plated,PTH,ComponentDrill
T3C0.0157
; #@! TA.AperFunction,Plated,PTH,ComponentDrill
T4C0.0236
; #@! TA.AperFunction,Plated,PTH,ComponentDrill
T5C0.0350
; #@! TA.AperFunction,Plated,PTH,ComponentDrill
T6C0.0394
; #@! TA.AperFunction,Plated,PTH,ComponentDrill
T7C0.1260
%
G90
G05
T1
X5.6417Y-3.5079
X5.6417Y-3.6358
X5.7244Y-3.2756
X5.7894Y-3.5138
X5.7894Y-3.6358
X6.1319Y-3.7972
X6.208Y-3.3515
X6.2274Y-3.6289
X6.3335Y-3.218
X6.4144Y-3.5581
X6.5453Y-3.2008
X6.5492Y-2.9232
X6.5492Y-3.0
X6.5866Y-3.1516
X6.6437Y-2.9252
X6.6437Y-2.998
X6.7028Y-3.0748
X6.7392Y-3.501
X6.7559Y-3.6299
X6.7913Y-3.3976
X6.8019Y-3.111
X6.9626Y-2.8484
X6.9636Y-3.0305
X6.9665Y-2.7303
T2
X5.9075Y-3.0
X5.9567Y-3.0059
X6.1368Y-3.0148
X6.1388Y-3.0974
X6.2274Y-3.1703
X6.2274Y-3.6722
X6.2313Y-3.5581
X6.2861Y-2.9655
X6.3787Y-3.2881
X6.4587Y-3.232
X6.5325Y-3.5463
X6.5955Y-3.5561
X6.7323Y-2.876
T3
X6.8445Y-3.1634
X6.8445Y-3.1969
X6.8445Y-3.2303
X6.8445Y-3.2638
X6.8445Y-3.2972
X6.8445Y-3.3307
X6.8445Y-3.3642
X6.8445Y-3.3976
X6.8976Y-3.1634
X6.8976Y-3.1969
X6.8976Y-3.2303
X6.8976Y-3.2638
X6.8976Y-3.2972
X6.8976Y-3.3307
X6.8976Y-3.3642
X6.8976Y-3.3976
T5
X5.652Y-2.772
X5.652Y-2.972
X5.752Y-2.972
X5.852Y-2.772
X5.852Y-2.972
T6
X5.3953Y-3.1037
X5.3953Y-3.2128
X5.3953Y-3.3219
X5.3953Y-3.4309
X5.5071Y-3.0492
X5.5071Y-3.1583
X5.5071Y-3.2673
X5.5071Y-3.3764
X5.5071Y-3.4854
T7
X5.4512Y-2.7752
X5.4512Y-3.7594
T4
G00X6.9126Y-3.1102
M15
G01X6.8535Y-3.1102
M16
G05
G00X6.9126Y-3.4508
M15
G01X6.8535Y-3.4508
M16
G05
G00X7.0319Y-3.1102
M15
G01X7.0004Y-3.1102
M16
G05
G00X7.0319Y-3.4508
M15
G01X7.0004Y-3.4508
M16
G05
T0
M30
