%TF.GenerationSoftware,KiCad,Pcbnew,(6.0.2)*%
%TF.CreationDate,2022-11-22T23:48:31+01:00*%
%TF.ProjectId,CANap_,43414e61-70e9-42e6-9b69-6361645f7063,rev?*%
%TF.SameCoordinates,Original*%
%TF.FileFunction,Legend,Top*%
%TF.FilePolarity,Positive*%
%FSLAX46Y46*%
G04 Gerber Fmt 4.6, Leading zero omitted, Abs format (unit mm)*
G04 Created by KiCad (PCBNEW (6.0.2)) date 2022-11-22 23:48:31*
%MOMM*%
%LPD*%
G01*
G04 APERTURE LIST*
G04 Aperture macros list*
%AMRoundRect*
0 Rectangle with rounded corners*
0 $1 Rounding radius*
0 $2 $3 $4 $5 $6 $7 $8 $9 X,Y pos of 4 corners*
0 Add a 4 corners polygon primitive as box body*
4,1,4,$2,$3,$4,$5,$6,$7,$8,$9,$2,$3,0*
0 Add four circle primitives for the rounded corners*
1,1,$1+$1,$2,$3*
1,1,$1+$1,$4,$5*
1,1,$1+$1,$6,$7*
1,1,$1+$1,$8,$9*
0 Add four rect primitives between the rounded corners*
20,1,$1+$1,$2,$3,$4,$5,0*
20,1,$1+$1,$4,$5,$6,$7,0*
20,1,$1+$1,$6,$7,$8,$9,0*
20,1,$1+$1,$8,$9,$2,$3,0*%
G04 Aperture macros list end*
%ADD10C,0.200000*%
%ADD11C,0.152400*%
%ADD12C,0.120000*%
%ADD13RoundRect,0.250000X-0.250000X-0.475000X0.250000X-0.475000X0.250000X0.475000X-0.250000X0.475000X0*%
%ADD14RoundRect,0.250000X-0.475000X0.250000X-0.475000X-0.250000X0.475000X-0.250000X0.475000X0.250000X0*%
%ADD15RoundRect,0.250000X-0.262500X-0.450000X0.262500X-0.450000X0.262500X0.450000X-0.262500X0.450000X0*%
%ADD16RoundRect,0.250000X0.262500X0.450000X-0.262500X0.450000X-0.262500X-0.450000X0.262500X-0.450000X0*%
%ADD17C,4.000000*%
%ADD18R,1.600000X1.600000*%
%ADD19C,1.600000*%
%ADD20RoundRect,0.250000X0.250000X0.475000X-0.250000X0.475000X-0.250000X-0.475000X0.250000X-0.475000X0*%
%ADD21RoundRect,0.075000X-0.662500X-0.075000X0.662500X-0.075000X0.662500X0.075000X-0.662500X0.075000X0*%
%ADD22RoundRect,0.075000X-0.075000X-0.662500X0.075000X-0.662500X0.075000X0.662500X-0.075000X0.662500X0*%
%ADD23R,1.500000X1.500000*%
%ADD24RoundRect,0.400000X-0.400000X0.400000X-0.400000X-0.400000X0.400000X-0.400000X0.400000X0.400000X0*%
%ADD25RoundRect,0.243750X-0.243750X-0.456250X0.243750X-0.456250X0.243750X0.456250X-0.243750X0.456250X0*%
%ADD26RoundRect,0.150000X-0.150000X0.825000X-0.150000X-0.825000X0.150000X-0.825000X0.150000X0.825000X0*%
%ADD27RoundRect,0.150000X0.150000X-0.587500X0.150000X0.587500X-0.150000X0.587500X-0.150000X-0.587500X0*%
%ADD28RoundRect,0.250000X-0.450000X0.262500X-0.450000X-0.262500X0.450000X-0.262500X0.450000X0.262500X0*%
%ADD29R,1.300000X1.600000*%
%ADD30C,0.700000*%
%ADD31O,2.400000X0.900000*%
%ADD32O,1.700000X0.900000*%
G04 APERTURE END LIST*
D10*
X165989285Y-71767857D02*
X166103571Y-71805952D01*
X166141666Y-71844047D01*
X166179761Y-71920238D01*
X166179761Y-72034523D01*
X166141666Y-72110714D01*
X166103571Y-72148809D01*
X166027380Y-72186904D01*
X165722619Y-72186904D01*
X165722619Y-71386904D01*
X165989285Y-71386904D01*
X166065476Y-71425000D01*
X166103571Y-71463095D01*
X166141666Y-71539285D01*
X166141666Y-71615476D01*
X166103571Y-71691666D01*
X166065476Y-71729761D01*
X165989285Y-71767857D01*
X165722619Y-71767857D01*
X166675000Y-71386904D02*
X166827380Y-71386904D01*
X166903571Y-71425000D01*
X166979761Y-71501190D01*
X167017857Y-71653571D01*
X167017857Y-71920238D01*
X166979761Y-72072619D01*
X166903571Y-72148809D01*
X166827380Y-72186904D01*
X166675000Y-72186904D01*
X166598809Y-72148809D01*
X166522619Y-72072619D01*
X166484523Y-71920238D01*
X166484523Y-71653571D01*
X166522619Y-71501190D01*
X166598809Y-71425000D01*
X166675000Y-71386904D01*
X167513095Y-71386904D02*
X167665476Y-71386904D01*
X167741666Y-71425000D01*
X167817857Y-71501190D01*
X167855952Y-71653571D01*
X167855952Y-71920238D01*
X167817857Y-72072619D01*
X167741666Y-72148809D01*
X167665476Y-72186904D01*
X167513095Y-72186904D01*
X167436904Y-72148809D01*
X167360714Y-72072619D01*
X167322619Y-71920238D01*
X167322619Y-71653571D01*
X167360714Y-71501190D01*
X167436904Y-71425000D01*
X167513095Y-71386904D01*
X168084523Y-71386904D02*
X168541666Y-71386904D01*
X168313095Y-72186904D02*
X168313095Y-71386904D01*
X177547619Y-73061904D02*
X177166666Y-73061904D01*
X177128571Y-73442857D01*
X177166666Y-73404761D01*
X177242857Y-73366666D01*
X177433333Y-73366666D01*
X177509523Y-73404761D01*
X177547619Y-73442857D01*
X177585714Y-73519047D01*
X177585714Y-73709523D01*
X177547619Y-73785714D01*
X177509523Y-73823809D01*
X177433333Y-73861904D01*
X177242857Y-73861904D01*
X177166666Y-73823809D01*
X177128571Y-73785714D01*
X177814285Y-73061904D02*
X178080952Y-73861904D01*
X178347619Y-73061904D01*
D11*
X150658133Y-69217695D02*
X150193676Y-69217695D01*
X150425904Y-69217695D02*
X150425904Y-68404895D01*
X150348495Y-68521009D01*
X150271085Y-68598419D01*
X150193676Y-68637123D01*
X150967771Y-68482304D02*
X151006476Y-68443600D01*
X151083885Y-68404895D01*
X151277409Y-68404895D01*
X151354819Y-68443600D01*
X151393523Y-68482304D01*
X151432228Y-68559714D01*
X151432228Y-68637123D01*
X151393523Y-68753238D01*
X150929066Y-69217695D01*
X151432228Y-69217695D01*
X151935390Y-68404895D02*
X152012800Y-68404895D01*
X152090209Y-68443600D01*
X152128914Y-68482304D01*
X152167619Y-68559714D01*
X152206323Y-68714533D01*
X152206323Y-68908057D01*
X152167619Y-69062876D01*
X152128914Y-69140285D01*
X152090209Y-69178990D01*
X152012800Y-69217695D01*
X151935390Y-69217695D01*
X151857980Y-69178990D01*
X151819276Y-69140285D01*
X151780571Y-69062876D01*
X151741866Y-68908057D01*
X151741866Y-68714533D01*
X151780571Y-68559714D01*
X151819276Y-68482304D01*
X151857980Y-68443600D01*
X151935390Y-68404895D01*
D10*
X176709523Y-70861904D02*
X177204761Y-70861904D01*
X176938095Y-71166666D01*
X177052380Y-71166666D01*
X177128571Y-71204761D01*
X177166666Y-71242857D01*
X177204761Y-71319047D01*
X177204761Y-71509523D01*
X177166666Y-71585714D01*
X177128571Y-71623809D01*
X177052380Y-71661904D01*
X176823809Y-71661904D01*
X176747619Y-71623809D01*
X176709523Y-71585714D01*
X177433333Y-70861904D02*
X177700000Y-71661904D01*
X177966666Y-70861904D01*
X178157142Y-70861904D02*
X178652380Y-70861904D01*
X178385714Y-71166666D01*
X178500000Y-71166666D01*
X178576190Y-71204761D01*
X178614285Y-71242857D01*
X178652380Y-71319047D01*
X178652380Y-71509523D01*
X178614285Y-71585714D01*
X178576190Y-71623809D01*
X178500000Y-71661904D01*
X178271428Y-71661904D01*
X178195238Y-71623809D01*
X178157142Y-71585714D01*
X153266666Y-91911904D02*
X153000000Y-91530952D01*
X152809523Y-91911904D02*
X152809523Y-91111904D01*
X153114285Y-91111904D01*
X153190476Y-91150000D01*
X153228571Y-91188095D01*
X153266666Y-91264285D01*
X153266666Y-91378571D01*
X153228571Y-91454761D01*
X153190476Y-91492857D01*
X153114285Y-91530952D01*
X152809523Y-91530952D01*
X153533333Y-91111904D02*
X154066666Y-91911904D01*
X154066666Y-91111904D02*
X153533333Y-91911904D01*
X172015476Y-91466714D02*
X171977380Y-91504809D01*
X171863095Y-91542904D01*
X171786904Y-91542904D01*
X171672619Y-91504809D01*
X171596428Y-91428619D01*
X171558333Y-91352428D01*
X171520238Y-91200047D01*
X171520238Y-91085761D01*
X171558333Y-90933380D01*
X171596428Y-90857190D01*
X171672619Y-90781000D01*
X171786904Y-90742904D01*
X171863095Y-90742904D01*
X171977380Y-90781000D01*
X172015476Y-90819095D01*
X172320238Y-91314333D02*
X172701190Y-91314333D01*
X172244047Y-91542904D02*
X172510714Y-90742904D01*
X172777380Y-91542904D01*
X173044047Y-91542904D02*
X173044047Y-90742904D01*
X173501190Y-91542904D01*
X173501190Y-90742904D01*
X174225000Y-91542904D02*
X174225000Y-91123857D01*
X174186904Y-91047666D01*
X174110714Y-91009571D01*
X173958333Y-91009571D01*
X173882142Y-91047666D01*
X174225000Y-91504809D02*
X174148809Y-91542904D01*
X173958333Y-91542904D01*
X173882142Y-91504809D01*
X173844047Y-91428619D01*
X173844047Y-91352428D01*
X173882142Y-91276238D01*
X173958333Y-91238142D01*
X174148809Y-91238142D01*
X174225000Y-91200047D01*
X174605952Y-91542904D02*
X174605952Y-91009571D01*
X174605952Y-91161952D02*
X174644047Y-91085761D01*
X174682142Y-91047666D01*
X174758333Y-91009571D01*
X174834523Y-91009571D01*
X174986904Y-91009571D02*
X175291666Y-91009571D01*
X175101190Y-90742904D02*
X175101190Y-91428619D01*
X175139285Y-91504809D01*
X175215476Y-91542904D01*
X175291666Y-91542904D01*
X175558333Y-91542904D02*
X175558333Y-91009571D01*
X175558333Y-90742904D02*
X175520238Y-90781000D01*
X175558333Y-90819095D01*
X175596428Y-90781000D01*
X175558333Y-90742904D01*
X175558333Y-90819095D01*
X176282142Y-91504809D02*
X176205952Y-91542904D01*
X176053571Y-91542904D01*
X175977380Y-91504809D01*
X175939285Y-91466714D01*
X175901190Y-91390523D01*
X175901190Y-91161952D01*
X175939285Y-91085761D01*
X175977380Y-91047666D01*
X176053571Y-91009571D01*
X176205952Y-91009571D01*
X176282142Y-91047666D01*
X176625000Y-91542904D02*
X176625000Y-90742904D01*
X176967857Y-91542904D02*
X176967857Y-91123857D01*
X176929761Y-91047666D01*
X176853571Y-91009571D01*
X176739285Y-91009571D01*
X176663095Y-91047666D01*
X176625000Y-91085761D01*
X177463095Y-91542904D02*
X177386904Y-91504809D01*
X177348809Y-91466714D01*
X177310714Y-91390523D01*
X177310714Y-91161952D01*
X177348809Y-91085761D01*
X177386904Y-91047666D01*
X177463095Y-91009571D01*
X177577380Y-91009571D01*
X177653571Y-91047666D01*
X177691666Y-91085761D01*
X177729761Y-91161952D01*
X177729761Y-91390523D01*
X177691666Y-91466714D01*
X177653571Y-91504809D01*
X177577380Y-91542904D01*
X177463095Y-91542904D01*
X173539285Y-92830904D02*
X173539285Y-92297571D01*
X173539285Y-92449952D02*
X173577380Y-92373761D01*
X173615476Y-92335666D01*
X173691666Y-92297571D01*
X173767857Y-92297571D01*
X174339285Y-92792809D02*
X174263095Y-92830904D01*
X174110714Y-92830904D01*
X174034523Y-92792809D01*
X173996428Y-92716619D01*
X173996428Y-92411857D01*
X174034523Y-92335666D01*
X174110714Y-92297571D01*
X174263095Y-92297571D01*
X174339285Y-92335666D01*
X174377380Y-92411857D01*
X174377380Y-92488047D01*
X173996428Y-92564238D01*
X174644047Y-92297571D02*
X174834523Y-92830904D01*
X175025000Y-92297571D01*
X175291666Y-92107095D02*
X175329761Y-92069000D01*
X175405952Y-92030904D01*
X175596428Y-92030904D01*
X175672619Y-92069000D01*
X175710714Y-92107095D01*
X175748809Y-92183285D01*
X175748809Y-92259476D01*
X175710714Y-92373761D01*
X175253571Y-92830904D01*
X175748809Y-92830904D01*
X164813095Y-95336904D02*
X164546428Y-94955952D01*
X164355952Y-95336904D02*
X164355952Y-94536904D01*
X164660714Y-94536904D01*
X164736904Y-94575000D01*
X164775000Y-94613095D01*
X164813095Y-94689285D01*
X164813095Y-94803571D01*
X164775000Y-94879761D01*
X164736904Y-94917857D01*
X164660714Y-94955952D01*
X164355952Y-94955952D01*
X165155952Y-94917857D02*
X165422619Y-94917857D01*
X165536904Y-95336904D02*
X165155952Y-95336904D01*
X165155952Y-94536904D01*
X165536904Y-94536904D01*
X165841666Y-95298809D02*
X165955952Y-95336904D01*
X166146428Y-95336904D01*
X166222619Y-95298809D01*
X166260714Y-95260714D01*
X166298809Y-95184523D01*
X166298809Y-95108333D01*
X166260714Y-95032142D01*
X166222619Y-94994047D01*
X166146428Y-94955952D01*
X165994047Y-94917857D01*
X165917857Y-94879761D01*
X165879761Y-94841666D01*
X165841666Y-94765476D01*
X165841666Y-94689285D01*
X165879761Y-94613095D01*
X165917857Y-94575000D01*
X165994047Y-94536904D01*
X166184523Y-94536904D01*
X166298809Y-94575000D01*
X166641666Y-94917857D02*
X166908333Y-94917857D01*
X167022619Y-95336904D02*
X166641666Y-95336904D01*
X166641666Y-94536904D01*
X167022619Y-94536904D01*
X167251190Y-94536904D02*
X167708333Y-94536904D01*
X167479761Y-95336904D02*
X167479761Y-94536904D01*
X152990476Y-92711904D02*
X153447619Y-92711904D01*
X153219047Y-93511904D02*
X153219047Y-92711904D01*
X153638095Y-92711904D02*
X154171428Y-93511904D01*
X154171428Y-92711904D02*
X153638095Y-93511904D01*
D12*
%TO.C,C9*%
X158413748Y-77310000D02*
X158936252Y-77310000D01*
X158413748Y-75840000D02*
X158936252Y-75840000D01*
%TO.C,C11*%
X159140000Y-91913748D02*
X159140000Y-92436252D01*
X160610000Y-91913748D02*
X160610000Y-92436252D01*
%TO.C,R2*%
X174522936Y-78135000D02*
X174977064Y-78135000D01*
X174522936Y-76665000D02*
X174977064Y-76665000D01*
%TO.C,R4*%
X175014564Y-68615000D02*
X174560436Y-68615000D01*
X175014564Y-70085000D02*
X174560436Y-70085000D01*
%TO.C,J2*%
X129400331Y-67505000D02*
X141740331Y-67505000D01*
X141740331Y-98475000D02*
X129400331Y-98475000D01*
X141740331Y-67505000D02*
X141740331Y-98475000D01*
X142634669Y-77200000D02*
X142634669Y-77700000D01*
X142634669Y-77700000D02*
X142201656Y-77450000D01*
X142201656Y-77450000D02*
X142634669Y-77200000D01*
%TO.C,C13*%
X169036252Y-88240000D02*
X168513748Y-88240000D01*
X169036252Y-89710000D02*
X168513748Y-89710000D01*
%TO.C,U3*%
X166835000Y-80565000D02*
X167285000Y-80565000D01*
X167285000Y-80565000D02*
X167285000Y-81015000D01*
X160065000Y-81015000D02*
X158775000Y-81015000D01*
X160515000Y-87785000D02*
X160065000Y-87785000D01*
X166835000Y-87785000D02*
X167285000Y-87785000D01*
X160065000Y-80565000D02*
X160065000Y-81015000D01*
X167285000Y-87785000D02*
X167285000Y-87335000D01*
X160065000Y-87785000D02*
X160065000Y-87335000D01*
X160515000Y-80565000D02*
X160065000Y-80565000D01*
%TO.C,SW3*%
X164015000Y-72825000D02*
X170135000Y-72825000D01*
X164015000Y-76525000D02*
X164015000Y-72825000D01*
X170135000Y-76525000D02*
X164015000Y-76525000D01*
X170135000Y-72825000D02*
X170135000Y-76525000D01*
%TO.C,C4*%
X150561252Y-78435000D02*
X150038748Y-78435000D01*
X150561252Y-76965000D02*
X150038748Y-76965000D01*
%TO.C,R3*%
X177372936Y-83915000D02*
X177827064Y-83915000D01*
X177372936Y-85385000D02*
X177827064Y-85385000D01*
%TO.C,C12*%
X167740000Y-78813748D02*
X167740000Y-79336252D01*
X169210000Y-78813748D02*
X169210000Y-79336252D01*
%TO.C,SW2*%
X147600000Y-75610000D02*
X147100000Y-75610000D01*
X142450000Y-75610000D02*
X142600000Y-75610000D01*
X149750000Y-75610000D02*
X149600000Y-75610000D01*
X149750000Y-75610000D02*
X149750000Y-67660000D01*
X149750000Y-67660000D02*
X142450000Y-67660000D01*
X145100000Y-75610000D02*
X144600000Y-75610000D01*
X142450000Y-67660000D02*
X142450000Y-75610000D01*
%TO.C,C14*%
X155313748Y-89640000D02*
X155836252Y-89640000D01*
X155313748Y-91110000D02*
X155836252Y-91110000D01*
%TO.C,R5*%
X174977064Y-74615000D02*
X174522936Y-74615000D01*
X174977064Y-76085000D02*
X174522936Y-76085000D01*
%TO.C,R1*%
X144322936Y-78285000D02*
X144777064Y-78285000D01*
X144322936Y-76815000D02*
X144777064Y-76815000D01*
%TO.C,D2*%
X173115000Y-74360000D02*
X175800000Y-74360000D01*
X173115000Y-72440000D02*
X173115000Y-74360000D01*
X175800000Y-72440000D02*
X173115000Y-72440000D01*
%TO.C,R9*%
X151552064Y-94390000D02*
X151097936Y-94390000D01*
X151552064Y-95860000D02*
X151097936Y-95860000D01*
%TO.C,C7*%
X155313748Y-81410000D02*
X155836252Y-81410000D01*
X155313748Y-79940000D02*
X155836252Y-79940000D01*
%TO.C,U2*%
X147540000Y-82300000D02*
X147540000Y-80350000D01*
X152660000Y-82300000D02*
X152660000Y-84250000D01*
X152660000Y-82300000D02*
X152660000Y-78850000D01*
X147540000Y-82300000D02*
X147540000Y-84250000D01*
%TO.C,D4*%
X149540000Y-91385000D02*
X152225000Y-91385000D01*
X149540000Y-89465000D02*
X149540000Y-91385000D01*
X152225000Y-89465000D02*
X149540000Y-89465000D01*
%TO.C,R8*%
X151452064Y-87690000D02*
X150997936Y-87690000D01*
X151452064Y-89160000D02*
X150997936Y-89160000D01*
%TO.C,C8*%
X155836252Y-89110000D02*
X155313748Y-89110000D01*
X155836252Y-87640000D02*
X155313748Y-87640000D01*
%TO.C,C10*%
X158413748Y-79410000D02*
X158936252Y-79410000D01*
X158413748Y-77940000D02*
X158936252Y-77940000D01*
%TO.C,D1*%
X175825000Y-70390000D02*
X173140000Y-70390000D01*
X173140000Y-72310000D02*
X175825000Y-72310000D01*
X173140000Y-70390000D02*
X173140000Y-72310000D01*
%TO.C,D3*%
X146960000Y-82800000D02*
X146960000Y-82150000D01*
X143840000Y-82800000D02*
X143840000Y-82150000D01*
X143840000Y-82800000D02*
X143840000Y-84475000D01*
X146960000Y-82800000D02*
X146960000Y-83450000D01*
%TO.C,R7*%
X171985000Y-81460436D02*
X171985000Y-81914564D01*
X170515000Y-81460436D02*
X170515000Y-81914564D01*
%TO.C,SW4*%
X168935000Y-94025000D02*
X162815000Y-94025000D01*
X168935000Y-90325000D02*
X168935000Y-94025000D01*
X162815000Y-90325000D02*
X168935000Y-90325000D01*
X162815000Y-94025000D02*
X162815000Y-90325000D01*
%TO.C,D5*%
X149640000Y-92165000D02*
X149640000Y-94085000D01*
X149640000Y-94085000D02*
X152325000Y-94085000D01*
X152325000Y-92165000D02*
X149640000Y-92165000D01*
%TO.C,R6*%
X164602064Y-77040000D02*
X164147936Y-77040000D01*
X164602064Y-78510000D02*
X164147936Y-78510000D01*
%TO.C,Y1*%
X153725000Y-81825000D02*
X153725000Y-87125000D01*
X157425000Y-81825000D02*
X153725000Y-81825000D01*
%TO.C,C6*%
X177338748Y-82085000D02*
X177861252Y-82085000D01*
X177338748Y-80615000D02*
X177861252Y-80615000D01*
%TD*%
%LPC*%
D13*
%TO.C,C9*%
X157725000Y-76575000D03*
X159625000Y-76575000D03*
%TD*%
D14*
%TO.C,C11*%
X159875000Y-91225000D03*
X159875000Y-93125000D03*
%TD*%
D15*
%TO.C,R2*%
X175662500Y-77400000D03*
X173837500Y-77400000D03*
%TD*%
D16*
%TO.C,R4*%
X175700000Y-69350000D03*
X173875000Y-69350000D03*
%TD*%
D17*
%TO.C,J2*%
X138460331Y-70490000D03*
X138460331Y-95490000D03*
D18*
X139880331Y-77450000D03*
D19*
X139880331Y-80220000D03*
X139880331Y-82990000D03*
X139880331Y-85760000D03*
X139880331Y-88530000D03*
X137040331Y-78835000D03*
X137040331Y-81605000D03*
X137040331Y-84375000D03*
X137040331Y-87145000D03*
%TD*%
D20*
%TO.C,C13*%
X169725000Y-88975000D03*
X167825000Y-88975000D03*
%TD*%
D21*
%TO.C,U3*%
X159512500Y-81425000D03*
X159512500Y-81925000D03*
X159512500Y-82425000D03*
X159512500Y-82925000D03*
X159512500Y-83425000D03*
X159512500Y-83925000D03*
X159512500Y-84425000D03*
X159512500Y-84925000D03*
X159512500Y-85425000D03*
X159512500Y-85925000D03*
X159512500Y-86425000D03*
X159512500Y-86925000D03*
D22*
X160925000Y-88337500D03*
X161425000Y-88337500D03*
X161925000Y-88337500D03*
X162425000Y-88337500D03*
X162925000Y-88337500D03*
X163425000Y-88337500D03*
X163925000Y-88337500D03*
X164425000Y-88337500D03*
X164925000Y-88337500D03*
X165425000Y-88337500D03*
X165925000Y-88337500D03*
X166425000Y-88337500D03*
D21*
X167837500Y-86925000D03*
X167837500Y-86425000D03*
X167837500Y-85925000D03*
X167837500Y-85425000D03*
X167837500Y-84925000D03*
X167837500Y-84425000D03*
X167837500Y-83925000D03*
X167837500Y-83425000D03*
X167837500Y-82925000D03*
X167837500Y-82425000D03*
X167837500Y-81925000D03*
X167837500Y-81425000D03*
D22*
X166425000Y-80012500D03*
X165925000Y-80012500D03*
X165425000Y-80012500D03*
X164925000Y-80012500D03*
X164425000Y-80012500D03*
X163925000Y-80012500D03*
X163425000Y-80012500D03*
X162925000Y-80012500D03*
X162425000Y-80012500D03*
X161925000Y-80012500D03*
X161425000Y-80012500D03*
X160925000Y-80012500D03*
%TD*%
D23*
%TO.C,SW3*%
X170975000Y-74675000D03*
X163175000Y-74675000D03*
%TD*%
D20*
%TO.C,C4*%
X151250000Y-77700000D03*
X149350000Y-77700000D03*
%TD*%
D15*
%TO.C,R3*%
X178512500Y-84650000D03*
X176687500Y-84650000D03*
%TD*%
D14*
%TO.C,C12*%
X168475000Y-78125000D03*
X168475000Y-80025000D03*
%TD*%
D19*
%TO.C,SW2*%
X143560000Y-70410000D03*
X148640000Y-70410000D03*
D24*
X143560000Y-75490000D03*
D19*
X146100000Y-75490000D03*
X148640000Y-75490000D03*
%TD*%
D13*
%TO.C,C14*%
X154625000Y-90375000D03*
X156525000Y-90375000D03*
%TD*%
D16*
%TO.C,R5*%
X173837500Y-75350000D03*
X175662500Y-75350000D03*
%TD*%
D15*
%TO.C,R1*%
X143637500Y-77550000D03*
X145462500Y-77550000D03*
%TD*%
D25*
%TO.C,D2*%
X175737500Y-73400000D03*
X173862500Y-73400000D03*
%TD*%
D16*
%TO.C,R9*%
X152237500Y-95125000D03*
X150412500Y-95125000D03*
%TD*%
D13*
%TO.C,C7*%
X154625000Y-80675000D03*
X156525000Y-80675000D03*
%TD*%
D26*
%TO.C,U2*%
X152005000Y-79825000D03*
X150735000Y-79825000D03*
X149465000Y-79825000D03*
X148195000Y-79825000D03*
X148195000Y-84775000D03*
X149465000Y-84775000D03*
X150735000Y-84775000D03*
X152005000Y-84775000D03*
%TD*%
D25*
%TO.C,D4*%
X150287500Y-90425000D03*
X152162500Y-90425000D03*
%TD*%
D16*
%TO.C,R8*%
X152137500Y-88425000D03*
X150312500Y-88425000D03*
%TD*%
D20*
%TO.C,C8*%
X156525000Y-88375000D03*
X154625000Y-88375000D03*
%TD*%
D13*
%TO.C,C10*%
X157725000Y-78675000D03*
X159625000Y-78675000D03*
%TD*%
D25*
%TO.C,D1*%
X173887500Y-71350000D03*
X175762500Y-71350000D03*
%TD*%
D27*
%TO.C,D3*%
X144450000Y-83737500D03*
X146350000Y-83737500D03*
X145400000Y-81862500D03*
%TD*%
D28*
%TO.C,R7*%
X171250000Y-80775000D03*
X171250000Y-82600000D03*
%TD*%
D23*
%TO.C,SW4*%
X169775000Y-92175000D03*
X161975000Y-92175000D03*
%TD*%
D25*
%TO.C,D5*%
X150387500Y-93125000D03*
X152262500Y-93125000D03*
%TD*%
D16*
%TO.C,R6*%
X165287500Y-77775000D03*
X163462500Y-77775000D03*
%TD*%
D29*
%TO.C,Y1*%
X154575000Y-82825000D03*
X154575000Y-86125000D03*
X156575000Y-86125000D03*
X156575000Y-82825000D03*
%TD*%
D13*
%TO.C,C6*%
X178550000Y-81350000D03*
X176650000Y-81350000D03*
%TD*%
D30*
%TO.C,J1*%
X173850000Y-80350000D03*
X173850000Y-81200000D03*
X173850000Y-82050000D03*
X173850000Y-82900000D03*
X173850000Y-83750000D03*
X173850000Y-84600000D03*
X173850000Y-85450000D03*
X173850000Y-86300000D03*
X175200000Y-86300000D03*
X175200000Y-85450000D03*
X175200000Y-84600000D03*
X175200000Y-83750000D03*
X175200000Y-82900000D03*
X175200000Y-82050000D03*
X175200000Y-81200000D03*
X175200000Y-80350000D03*
D31*
X174830000Y-79000000D03*
D32*
X178210000Y-87650000D03*
X178210000Y-79000000D03*
D31*
X174830000Y-87650000D03*
%TD*%
M02*
