%TF.GenerationSoftware,KiCad,Pcbnew,(6.0.2)*%
%TF.CreationDate,2022-11-21T22:20:46+01:00*%
%TF.ProjectId,CANap_,43414e61-70e9-42e6-9b69-6361645f7063,rev?*%
%TF.SameCoordinates,Original*%
%TF.FileFunction,Soldermask,Top*%
%TF.FilePolarity,Negative*%
%FSLAX46Y46*%
G04 Gerber Fmt 4.6, Leading zero omitted, Abs format (unit mm)*
G04 Created by KiCad (PCBNEW (6.0.2)) date 2022-11-21 22:20:46*
%MOMM*%
%LPD*%
G01*
G04 APERTURE LIST*
G04 Aperture macros list*
%AMRoundRect*
0 Rectangle with rounded corners*
0 $1 Rounding radius*
0 $2 $3 $4 $5 $6 $7 $8 $9 X,Y pos of 4 corners*
0 Add a 4 corners polygon primitive as box body*
4,1,4,$2,$3,$4,$5,$6,$7,$8,$9,$2,$3,0*
0 Add four circle primitives for the rounded corners*
1,1,$1+$1,$2,$3*
1,1,$1+$1,$4,$5*
1,1,$1+$1,$6,$7*
1,1,$1+$1,$8,$9*
0 Add four rect primitives between the rounded corners*
20,1,$1+$1,$2,$3,$4,$5,0*
20,1,$1+$1,$4,$5,$6,$7,0*
20,1,$1+$1,$6,$7,$8,$9,0*
20,1,$1+$1,$8,$9,$2,$3,0*%
G04 Aperture macros list end*
%ADD10C,0.800000*%
%ADD11C,6.400000*%
%ADD12RoundRect,0.250000X0.262500X0.450000X-0.262500X0.450000X-0.262500X-0.450000X0.262500X-0.450000X0*%
%ADD13RoundRect,0.250000X-0.450000X0.262500X-0.450000X-0.262500X0.450000X-0.262500X0.450000X0.262500X0*%
%ADD14RoundRect,0.250000X-0.262500X-0.450000X0.262500X-0.450000X0.262500X0.450000X-0.262500X0.450000X0*%
%ADD15RoundRect,0.250000X0.450000X-0.262500X0.450000X0.262500X-0.450000X0.262500X-0.450000X-0.262500X0*%
%ADD16C,4.000000*%
%ADD17R,1.600000X1.600000*%
%ADD18C,1.600000*%
%ADD19RoundRect,0.243750X-0.243750X-0.456250X0.243750X-0.456250X0.243750X0.456250X-0.243750X0.456250X0*%
%ADD20RoundRect,0.250000X-0.250000X-0.475000X0.250000X-0.475000X0.250000X0.475000X-0.250000X0.475000X0*%
%ADD21RoundRect,0.250000X0.250000X0.475000X-0.250000X0.475000X-0.250000X-0.475000X0.250000X-0.475000X0*%
%ADD22RoundRect,0.250000X-0.475000X0.250000X-0.475000X-0.250000X0.475000X-0.250000X0.475000X0.250000X0*%
%ADD23RoundRect,0.250000X0.475000X-0.250000X0.475000X0.250000X-0.475000X0.250000X-0.475000X-0.250000X0*%
%ADD24RoundRect,0.075000X-0.662500X-0.075000X0.662500X-0.075000X0.662500X0.075000X-0.662500X0.075000X0*%
%ADD25RoundRect,0.075000X-0.075000X-0.662500X0.075000X-0.662500X0.075000X0.662500X-0.075000X0.662500X0*%
%ADD26R,1.500000X1.500000*%
%ADD27RoundRect,0.400000X-0.400000X0.400000X-0.400000X-0.400000X0.400000X-0.400000X0.400000X0.400000X0*%
%ADD28RoundRect,0.150000X-0.150000X0.825000X-0.150000X-0.825000X0.150000X-0.825000X0.150000X0.825000X0*%
%ADD29RoundRect,0.150000X0.587500X0.150000X-0.587500X0.150000X-0.587500X-0.150000X0.587500X-0.150000X0*%
%ADD30R,1.300000X1.600000*%
%ADD31C,0.700000*%
%ADD32O,2.400000X0.900000*%
%ADD33O,1.700000X0.900000*%
G04 APERTURE END LIST*
D10*
%TO.C,REF\u002A\u002A*%
X184600000Y-96750000D03*
X186297056Y-96047056D03*
X187000000Y-94350000D03*
D11*
X184600000Y-94350000D03*
D10*
X182902944Y-92652944D03*
X182902944Y-96047056D03*
X186297056Y-92652944D03*
X184600000Y-91950000D03*
X182200000Y-94350000D03*
%TD*%
%TO.C,REF\u002A\u002A*%
X146700000Y-80600000D03*
X148397056Y-84697056D03*
X148397056Y-81302944D03*
X149100000Y-83000000D03*
D11*
X146700000Y-83000000D03*
D10*
X146700000Y-85400000D03*
X145002944Y-81302944D03*
X145002944Y-84697056D03*
X144300000Y-83000000D03*
%TD*%
D12*
%TO.C,R9*%
X155662500Y-95150000D03*
X153837500Y-95150000D03*
%TD*%
%TO.C,R8*%
X155512500Y-86400000D03*
X153687500Y-86400000D03*
%TD*%
D13*
%TO.C,R7*%
X174500000Y-80787500D03*
X174500000Y-82612500D03*
%TD*%
D12*
%TO.C,R6*%
X168712500Y-77800000D03*
X166887500Y-77800000D03*
%TD*%
D14*
%TO.C,R5*%
X181587500Y-77000000D03*
X183412500Y-77000000D03*
%TD*%
%TO.C,R4*%
X181587500Y-73600000D03*
X183412500Y-73600000D03*
%TD*%
D13*
%TO.C,R3*%
X184600000Y-83887500D03*
X184600000Y-85712500D03*
%TD*%
D15*
%TO.C,R2*%
X179600000Y-81812500D03*
X179600000Y-79987500D03*
%TD*%
D14*
%TO.C,R1*%
X144677500Y-77640000D03*
X146502500Y-77640000D03*
%TD*%
D16*
%TO.C,J2*%
X138460331Y-95490000D03*
X138460331Y-70490000D03*
D17*
X139880331Y-77450000D03*
D18*
X139880331Y-80220000D03*
X139880331Y-82990000D03*
X139880331Y-85760000D03*
X139880331Y-88530000D03*
X137040331Y-78835000D03*
X137040331Y-81605000D03*
X137040331Y-84375000D03*
X137040331Y-87145000D03*
%TD*%
D19*
%TO.C,D5*%
X153812500Y-93150000D03*
X155687500Y-93150000D03*
%TD*%
%TO.C,D4*%
X153662500Y-88400000D03*
X155537500Y-88400000D03*
%TD*%
%TO.C,D2*%
X185392500Y-76990000D03*
X187267500Y-76990000D03*
%TD*%
%TO.C,D1*%
X185362500Y-73600000D03*
X187237500Y-73600000D03*
%TD*%
D20*
%TO.C,C14*%
X158050000Y-90400000D03*
X159950000Y-90400000D03*
%TD*%
D21*
%TO.C,C13*%
X173150000Y-89000000D03*
X171250000Y-89000000D03*
%TD*%
D22*
%TO.C,C12*%
X171900000Y-78150000D03*
X171900000Y-80050000D03*
%TD*%
%TO.C,C11*%
X163300000Y-91250000D03*
X163300000Y-93150000D03*
%TD*%
D20*
%TO.C,C10*%
X161150000Y-78700000D03*
X163050000Y-78700000D03*
%TD*%
%TO.C,C9*%
X161150000Y-76600000D03*
X163050000Y-76600000D03*
%TD*%
D21*
%TO.C,C8*%
X159950000Y-88400000D03*
X158050000Y-88400000D03*
%TD*%
D20*
%TO.C,C7*%
X158050000Y-80700000D03*
X159950000Y-80700000D03*
%TD*%
%TO.C,C6*%
X184550000Y-81000000D03*
X186450000Y-81000000D03*
%TD*%
D22*
%TO.C,C5*%
X176500000Y-84650000D03*
X176500000Y-86550000D03*
%TD*%
D21*
%TO.C,C4*%
X155650000Y-72300000D03*
X153750000Y-72300000D03*
%TD*%
D23*
%TO.C,C3*%
X176500000Y-82650000D03*
X176500000Y-80750000D03*
%TD*%
D24*
%TO.C,U3*%
X162937500Y-81450000D03*
X162937500Y-81950000D03*
X162937500Y-82450000D03*
X162937500Y-82950000D03*
X162937500Y-83450000D03*
X162937500Y-83950000D03*
X162937500Y-84450000D03*
X162937500Y-84950000D03*
X162937500Y-85450000D03*
X162937500Y-85950000D03*
X162937500Y-86450000D03*
X162937500Y-86950000D03*
D25*
X164350000Y-88362500D03*
X164850000Y-88362500D03*
X165350000Y-88362500D03*
X165850000Y-88362500D03*
X166350000Y-88362500D03*
X166850000Y-88362500D03*
X167350000Y-88362500D03*
X167850000Y-88362500D03*
X168350000Y-88362500D03*
X168850000Y-88362500D03*
X169350000Y-88362500D03*
X169850000Y-88362500D03*
D24*
X171262500Y-86950000D03*
X171262500Y-86450000D03*
X171262500Y-85950000D03*
X171262500Y-85450000D03*
X171262500Y-84950000D03*
X171262500Y-84450000D03*
X171262500Y-83950000D03*
X171262500Y-83450000D03*
X171262500Y-82950000D03*
X171262500Y-82450000D03*
X171262500Y-81950000D03*
X171262500Y-81450000D03*
D25*
X169850000Y-80037500D03*
X169350000Y-80037500D03*
X168850000Y-80037500D03*
X168350000Y-80037500D03*
X167850000Y-80037500D03*
X167350000Y-80037500D03*
X166850000Y-80037500D03*
X166350000Y-80037500D03*
X165850000Y-80037500D03*
X165350000Y-80037500D03*
X164850000Y-80037500D03*
X164350000Y-80037500D03*
%TD*%
D26*
%TO.C,SW3*%
X174400000Y-74700000D03*
X166600000Y-74700000D03*
%TD*%
D18*
%TO.C,SW2*%
X144510000Y-70460000D03*
X149590000Y-70460000D03*
D27*
X144510000Y-75540000D03*
D18*
X147050000Y-75540000D03*
X149590000Y-75540000D03*
%TD*%
D28*
%TO.C,U2*%
X156570000Y-74550000D03*
X155300000Y-74550000D03*
X154030000Y-74550000D03*
X152760000Y-74550000D03*
X152760000Y-79500000D03*
X154030000Y-79500000D03*
X155300000Y-79500000D03*
X156570000Y-79500000D03*
%TD*%
D29*
%TO.C,D3*%
X154737500Y-83950000D03*
X154737500Y-82050000D03*
X152862500Y-83000000D03*
%TD*%
D26*
%TO.C,SW4*%
X173200000Y-92200000D03*
X165400000Y-92200000D03*
%TD*%
D30*
%TO.C,Y1*%
X158000000Y-82850000D03*
X158000000Y-86150000D03*
X160000000Y-86150000D03*
X160000000Y-82850000D03*
%TD*%
D31*
%TO.C,J1*%
X181600000Y-80200000D03*
X181600000Y-81050000D03*
X181600000Y-81900000D03*
X181600000Y-82750000D03*
X181600000Y-83600000D03*
X181600000Y-84450000D03*
X181600000Y-85300000D03*
X181600000Y-86150000D03*
X182950000Y-86150000D03*
X182950000Y-85300000D03*
X182950000Y-84450000D03*
X182950000Y-83600000D03*
X182950000Y-82750000D03*
X182950000Y-81900000D03*
X182950000Y-81050000D03*
X182950000Y-80200000D03*
D32*
X182580000Y-78850000D03*
D33*
X185960000Y-87500000D03*
X185960000Y-78850000D03*
D32*
X182580000Y-87500000D03*
%TD*%
M02*
