%TF.GenerationSoftware,KiCad,Pcbnew,(6.0.2)*%
%TF.CreationDate,2022-11-21T22:20:46+01:00*%
%TF.ProjectId,CANap_,43414e61-70e9-42e6-9b69-6361645f7063,rev?*%
%TF.SameCoordinates,Original*%
%TF.FileFunction,Copper,L3,Inr*%
%TF.FilePolarity,Positive*%
%FSLAX46Y46*%
G04 Gerber Fmt 4.6, Leading zero omitted, Abs format (unit mm)*
G04 Created by KiCad (PCBNEW (6.0.2)) date 2022-11-21 22:20:46*
%MOMM*%
%LPD*%
G01*
G04 APERTURE LIST*
G04 Aperture macros list*
%AMRoundRect*
0 Rectangle with rounded corners*
0 $1 Rounding radius*
0 $2 $3 $4 $5 $6 $7 $8 $9 X,Y pos of 4 corners*
0 Add a 4 corners polygon primitive as box body*
4,1,4,$2,$3,$4,$5,$6,$7,$8,$9,$2,$3,0*
0 Add four circle primitives for the rounded corners*
1,1,$1+$1,$2,$3*
1,1,$1+$1,$4,$5*
1,1,$1+$1,$6,$7*
1,1,$1+$1,$8,$9*
0 Add four rect primitives between the rounded corners*
20,1,$1+$1,$2,$3,$4,$5,0*
20,1,$1+$1,$4,$5,$6,$7,0*
20,1,$1+$1,$6,$7,$8,$9,0*
20,1,$1+$1,$8,$9,$2,$3,0*%
G04 Aperture macros list end*
%TA.AperFunction,ComponentPad*%
%ADD10C,0.800000*%
%TD*%
%TA.AperFunction,ComponentPad*%
%ADD11C,6.400000*%
%TD*%
%TA.AperFunction,ComponentPad*%
%ADD12C,4.000000*%
%TD*%
%TA.AperFunction,ComponentPad*%
%ADD13R,1.600000X1.600000*%
%TD*%
%TA.AperFunction,ComponentPad*%
%ADD14C,1.600000*%
%TD*%
%TA.AperFunction,ComponentPad*%
%ADD15RoundRect,0.400000X-0.400000X0.400000X-0.400000X-0.400000X0.400000X-0.400000X0.400000X0.400000X0*%
%TD*%
%TA.AperFunction,ComponentPad*%
%ADD16C,0.700000*%
%TD*%
%TA.AperFunction,ComponentPad*%
%ADD17O,2.400000X0.900000*%
%TD*%
%TA.AperFunction,ComponentPad*%
%ADD18O,1.700000X0.900000*%
%TD*%
%TA.AperFunction,ViaPad*%
%ADD19C,0.600000*%
%TD*%
%TA.AperFunction,ViaPad*%
%ADD20C,0.900000*%
%TD*%
G04 APERTURE END LIST*
D10*
%TO.N,N/C*%
%TO.C,REF\u002A\u002A*%
X184600000Y-96750000D03*
X186297056Y-96047056D03*
X187000000Y-94350000D03*
D11*
%TO.N,GND*%
X184600000Y-94350000D03*
D10*
%TO.N,N/C*%
X182902944Y-92652944D03*
X182902944Y-96047056D03*
X186297056Y-92652944D03*
X184600000Y-91950000D03*
X182200000Y-94350000D03*
%TD*%
%TO.N,N/C*%
%TO.C,REF\u002A\u002A*%
X146700000Y-80600000D03*
X148397056Y-84697056D03*
X148397056Y-81302944D03*
X149100000Y-83000000D03*
D11*
%TO.N,GND*%
X146700000Y-83000000D03*
D10*
%TO.N,N/C*%
X146700000Y-85400000D03*
X145002944Y-81302944D03*
X145002944Y-84697056D03*
X144300000Y-83000000D03*
%TD*%
D12*
%TO.N,GND*%
%TO.C,J2*%
X138460331Y-95490000D03*
X138460331Y-70490000D03*
D13*
%TO.N,unconnected-(J2-Pad1)*%
X139880331Y-77450000D03*
D14*
%TO.N,CANL*%
X139880331Y-80220000D03*
%TO.N,GND*%
X139880331Y-82990000D03*
%TO.N,unconnected-(J2-Pad4)*%
X139880331Y-85760000D03*
%TO.N,GND*%
X139880331Y-88530000D03*
X137040331Y-78835000D03*
%TO.N,CANH*%
X137040331Y-81605000D03*
%TO.N,unconnected-(J2-Pad8)*%
X137040331Y-84375000D03*
%TO.N,unconnected-(J2-Pad9)*%
X137040331Y-87145000D03*
%TD*%
%TO.N,*%
%TO.C,SW2*%
X144510000Y-70460000D03*
X149590000Y-70460000D03*
D15*
%TO.N,CANL*%
X144510000Y-75540000D03*
D14*
%TO.N,Net-(R1-Pad2)*%
X147050000Y-75540000D03*
%TO.N,unconnected-(SW2-Pad3)*%
X149590000Y-75540000D03*
%TD*%
D16*
%TO.N,GND*%
%TO.C,J1*%
X181600000Y-80200000D03*
%TO.N,+5V*%
X181600000Y-81050000D03*
%TO.N,Net-(J1-PadA5)*%
X181600000Y-81900000D03*
%TO.N,/USB+*%
X181600000Y-82750000D03*
%TO.N,/USB-*%
X181600000Y-83600000D03*
%TO.N,unconnected-(J1-PadA8)*%
X181600000Y-84450000D03*
%TO.N,+5V*%
X181600000Y-85300000D03*
%TO.N,GND*%
X181600000Y-86150000D03*
X182950000Y-86150000D03*
%TO.N,+5V*%
X182950000Y-85300000D03*
%TO.N,Net-(J1-PadB5)*%
X182950000Y-84450000D03*
%TO.N,/USB+*%
X182950000Y-83600000D03*
%TO.N,/USB-*%
X182950000Y-82750000D03*
%TO.N,unconnected-(J1-PadB8)*%
X182950000Y-81900000D03*
%TO.N,+5V*%
X182950000Y-81050000D03*
%TO.N,GND*%
X182950000Y-80200000D03*
D17*
X182580000Y-78850000D03*
D18*
X185960000Y-87500000D03*
X185960000Y-78850000D03*
D17*
X182580000Y-87500000D03*
%TD*%
D19*
%TO.N,GND*%
X170450000Y-78100000D03*
X155750000Y-96450000D03*
D20*
X159350000Y-78700000D03*
D19*
X179650000Y-78800000D03*
X174600000Y-88950000D03*
X186550000Y-82350000D03*
X176500000Y-87800000D03*
D20*
X169350000Y-90100000D03*
X161600000Y-80550000D03*
X161600000Y-93300000D03*
D19*
X161109114Y-85153237D03*
D20*
X155650000Y-70950000D03*
D19*
X180300000Y-73600000D03*
X164850000Y-81600000D03*
X180300000Y-77000000D03*
X155600000Y-85100000D03*
X176500000Y-79450000D03*
D20*
X159300000Y-76600000D03*
D19*
X186050000Y-85800000D03*
X154750000Y-83000000D03*
D20*
%TO.N,+3V3*%
X176100000Y-74700000D03*
X168900000Y-83300000D03*
X170950000Y-90350000D03*
X153750000Y-70900000D03*
X161700000Y-90400000D03*
X177550000Y-81750000D03*
X163092657Y-75349500D03*
X173200000Y-80350000D03*
X173000000Y-81900000D03*
D19*
%TO.N,Net-(D4-Pad2)*%
X161600000Y-92200000D03*
X166350000Y-90400000D03*
%TD*%
%TA.AperFunction,Conductor*%
%TO.N,+3V3*%
G36*
X154768565Y-70320002D02*
G01*
X154815058Y-70373658D01*
X154825162Y-70443932D01*
X154810859Y-70486700D01*
X154764746Y-70570580D01*
X154707909Y-70749752D01*
X154686956Y-70936552D01*
X154702685Y-71123865D01*
X154728591Y-71214210D01*
X154751424Y-71293837D01*
X154754497Y-71304555D01*
X154757312Y-71310032D01*
X154757313Y-71310035D01*
X154837603Y-71466263D01*
X154840418Y-71471740D01*
X154844241Y-71476564D01*
X154844244Y-71476568D01*
X154870625Y-71509852D01*
X154957177Y-71619052D01*
X155100324Y-71740880D01*
X155105702Y-71743886D01*
X155105704Y-71743887D01*
X155182367Y-71786732D01*
X155264409Y-71832584D01*
X155443180Y-71890670D01*
X155629830Y-71912927D01*
X155635965Y-71912455D01*
X155635967Y-71912455D01*
X155811105Y-71898979D01*
X155811109Y-71898978D01*
X155817247Y-71898506D01*
X155902378Y-71874737D01*
X155992350Y-71849616D01*
X155992353Y-71849615D01*
X155998294Y-71847956D01*
X156003798Y-71845176D01*
X156003800Y-71845175D01*
X156160574Y-71765983D01*
X156160576Y-71765982D01*
X156166075Y-71763204D01*
X156314199Y-71647477D01*
X156318225Y-71642813D01*
X156432994Y-71509852D01*
X156432995Y-71509850D01*
X156437023Y-71505184D01*
X156529870Y-71341744D01*
X156589203Y-71163382D01*
X156612762Y-70976892D01*
X156613138Y-70950000D01*
X156594795Y-70762926D01*
X156592514Y-70755369D01*
X156542246Y-70588877D01*
X156540465Y-70582977D01*
X156488451Y-70485152D01*
X156474131Y-70415616D01*
X156499679Y-70349375D01*
X156556983Y-70307463D01*
X156599702Y-70300000D01*
X175603208Y-70300000D01*
X175614695Y-70300525D01*
X175779046Y-70315571D01*
X175801629Y-70319740D01*
X175954960Y-70362815D01*
X175976413Y-70371017D01*
X175998721Y-70381971D01*
X176119368Y-70441214D01*
X176138978Y-70453175D01*
X176266820Y-70548168D01*
X176283925Y-70563486D01*
X176396326Y-70684338D01*
X176403757Y-70693098D01*
X179282757Y-74418862D01*
X179290716Y-74430444D01*
X179395529Y-74602872D01*
X179407351Y-74628349D01*
X179469101Y-74812971D01*
X179474987Y-74840439D01*
X179495003Y-75041224D01*
X179495614Y-75055277D01*
X179487533Y-75709848D01*
X179460224Y-77921836D01*
X179439383Y-77989705D01*
X179385157Y-78035532D01*
X179374840Y-78039559D01*
X179303579Y-78063818D01*
X179297575Y-78067512D01*
X179155095Y-78155166D01*
X179155092Y-78155168D01*
X179149088Y-78158862D01*
X179144053Y-78163793D01*
X179144050Y-78163795D01*
X179029630Y-78275844D01*
X179019493Y-78285771D01*
X178921235Y-78438238D01*
X178918826Y-78444858D01*
X178918824Y-78444861D01*
X178861606Y-78602066D01*
X178859197Y-78608685D01*
X178836463Y-78788640D01*
X178854163Y-78969160D01*
X178911418Y-79141273D01*
X178915065Y-79147295D01*
X178915066Y-79147297D01*
X178989223Y-79269745D01*
X179005380Y-79296424D01*
X179010269Y-79301487D01*
X179010270Y-79301488D01*
X179079374Y-79373047D01*
X179131382Y-79426902D01*
X179283159Y-79526222D01*
X179289756Y-79528675D01*
X179289761Y-79528678D01*
X179356533Y-79553510D01*
X179413409Y-79596002D01*
X179438283Y-79662499D01*
X179438603Y-79673157D01*
X179417785Y-81359408D01*
X179412269Y-81806199D01*
X179411521Y-81818443D01*
X179393965Y-81977773D01*
X179392239Y-81993434D01*
X179387200Y-82017412D01*
X179336258Y-82179477D01*
X179326672Y-82202027D01*
X179261031Y-82322364D01*
X179245324Y-82351160D01*
X179231552Y-82371431D01*
X179212084Y-82394820D01*
X179133170Y-82489627D01*
X179122874Y-82501996D01*
X179105438Y-82519218D01*
X178973546Y-82626272D01*
X178953107Y-82639792D01*
X178802979Y-82719294D01*
X178780308Y-82728603D01*
X178617635Y-82777538D01*
X178593593Y-82782282D01*
X178472562Y-82794109D01*
X178418377Y-82799403D01*
X178406126Y-82800000D01*
X174300000Y-82800000D01*
X173700000Y-83400000D01*
X173694480Y-83806239D01*
X173665337Y-85950874D01*
X173609852Y-90034049D01*
X173609094Y-90046246D01*
X173590276Y-90215675D01*
X173589733Y-90220562D01*
X173584700Y-90244446D01*
X173533929Y-90405892D01*
X173524386Y-90428355D01*
X173443434Y-90576976D01*
X173429739Y-90597176D01*
X173321642Y-90727400D01*
X173304306Y-90744582D01*
X173173127Y-90851511D01*
X173152798Y-90865030D01*
X173003470Y-90944649D01*
X172980916Y-90953995D01*
X172819027Y-91003324D01*
X172795095Y-91008144D01*
X172741304Y-91013634D01*
X172620614Y-91025951D01*
X172608428Y-91026601D01*
X172119954Y-91028883D01*
X170265183Y-91037550D01*
X170072283Y-91038451D01*
X170004069Y-91018767D01*
X169957326Y-90965329D01*
X169946894Y-90895103D01*
X169976085Y-90830385D01*
X169994117Y-90813167D01*
X170014199Y-90797477D01*
X170018225Y-90792813D01*
X170132994Y-90659852D01*
X170132995Y-90659850D01*
X170137023Y-90655184D01*
X170229870Y-90491744D01*
X170289203Y-90313382D01*
X170312762Y-90126892D01*
X170313138Y-90100000D01*
X170294795Y-89912926D01*
X170288385Y-89891693D01*
X170251919Y-89770915D01*
X170240465Y-89732977D01*
X170152218Y-89567008D01*
X170033415Y-89421340D01*
X169979603Y-89376823D01*
X169893329Y-89305450D01*
X169893324Y-89305447D01*
X169888580Y-89301522D01*
X169883161Y-89298592D01*
X169883158Y-89298590D01*
X169813671Y-89261019D01*
X169723231Y-89212119D01*
X169543666Y-89156534D01*
X169537541Y-89155890D01*
X169537540Y-89155890D01*
X169362852Y-89137529D01*
X169362851Y-89137529D01*
X169356724Y-89136885D01*
X169279673Y-89143897D01*
X169175665Y-89153363D01*
X169175662Y-89153364D01*
X169169526Y-89153922D01*
X169163620Y-89155660D01*
X169163616Y-89155661D01*
X169030278Y-89194905D01*
X168989202Y-89206994D01*
X168822621Y-89294080D01*
X168676128Y-89411864D01*
X168672170Y-89416582D01*
X168672167Y-89416584D01*
X168624844Y-89472982D01*
X168555302Y-89555859D01*
X168552338Y-89561251D01*
X168552335Y-89561255D01*
X168493920Y-89667512D01*
X168464746Y-89720580D01*
X168462885Y-89726447D01*
X168462884Y-89726449D01*
X168451037Y-89763795D01*
X168407909Y-89899752D01*
X168386956Y-90086552D01*
X168387472Y-90092696D01*
X168400215Y-90244446D01*
X168402685Y-90273865D01*
X168428591Y-90364210D01*
X168445368Y-90422717D01*
X168454497Y-90454555D01*
X168457312Y-90460032D01*
X168457313Y-90460035D01*
X168527794Y-90597176D01*
X168540418Y-90621740D01*
X168544241Y-90626564D01*
X168544244Y-90626568D01*
X168631642Y-90736835D01*
X168657177Y-90769052D01*
X168661871Y-90773047D01*
X168720791Y-90823192D01*
X168759704Y-90882575D01*
X168760335Y-90953569D01*
X168722483Y-91013634D01*
X168658167Y-91043699D01*
X168639718Y-91045145D01*
X167979856Y-91048228D01*
X167122969Y-91052232D01*
X167054755Y-91032548D01*
X167008012Y-90979110D01*
X166997580Y-90908884D01*
X167017431Y-90856509D01*
X167073643Y-90771902D01*
X167116207Y-90659852D01*
X167135555Y-90608920D01*
X167135556Y-90608918D01*
X167138055Y-90602338D01*
X167139035Y-90595366D01*
X167162748Y-90426639D01*
X167162748Y-90426636D01*
X167163299Y-90422717D01*
X167163616Y-90400000D01*
X167143397Y-90219745D01*
X167141080Y-90213091D01*
X167086064Y-90055106D01*
X167086062Y-90055103D01*
X167083745Y-90048448D01*
X166987626Y-89894624D01*
X166973941Y-89880843D01*
X166864778Y-89770915D01*
X166864774Y-89770912D01*
X166859815Y-89765918D01*
X166848697Y-89758862D01*
X166797622Y-89726449D01*
X166706666Y-89668727D01*
X166677463Y-89658328D01*
X166542425Y-89610243D01*
X166542420Y-89610242D01*
X166535790Y-89607881D01*
X166528802Y-89607048D01*
X166528799Y-89607047D01*
X166405698Y-89592368D01*
X166355680Y-89586404D01*
X166348677Y-89587140D01*
X166348676Y-89587140D01*
X166182288Y-89604628D01*
X166182286Y-89604629D01*
X166175288Y-89605364D01*
X166003579Y-89663818D01*
X165997575Y-89667512D01*
X165855095Y-89755166D01*
X165855092Y-89755168D01*
X165849088Y-89758862D01*
X165844053Y-89763793D01*
X165844050Y-89763795D01*
X165724525Y-89880843D01*
X165719493Y-89885771D01*
X165621235Y-90038238D01*
X165618826Y-90044858D01*
X165618824Y-90044861D01*
X165600031Y-90096495D01*
X165559197Y-90208685D01*
X165536463Y-90388640D01*
X165554163Y-90569160D01*
X165611418Y-90741273D01*
X165615065Y-90747295D01*
X165615066Y-90747297D01*
X165688267Y-90868167D01*
X165706446Y-90936797D01*
X165684635Y-91004360D01*
X165629759Y-91049406D01*
X165581081Y-91059437D01*
X157423582Y-91097554D01*
X157411565Y-91097035D01*
X157353857Y-91091778D01*
X157239626Y-91081371D01*
X157216015Y-91076920D01*
X157055974Y-91030571D01*
X157033630Y-91021713D01*
X156885312Y-90945823D01*
X156865058Y-90932885D01*
X156733845Y-90830211D01*
X156716415Y-90813661D01*
X156649606Y-90736835D01*
X156603109Y-90683366D01*
X156595669Y-90673937D01*
X153232675Y-85965744D01*
X152606172Y-85088640D01*
X154786463Y-85088640D01*
X154804163Y-85269160D01*
X154861418Y-85441273D01*
X154865065Y-85447295D01*
X154865066Y-85447297D01*
X154912209Y-85525139D01*
X154955380Y-85596424D01*
X155081382Y-85726902D01*
X155087278Y-85730760D01*
X155187660Y-85796448D01*
X155233159Y-85826222D01*
X155239763Y-85828678D01*
X155239765Y-85828679D01*
X155396558Y-85886990D01*
X155396560Y-85886990D01*
X155403168Y-85889448D01*
X155486995Y-85900633D01*
X155575980Y-85912507D01*
X155575984Y-85912507D01*
X155582961Y-85913438D01*
X155589972Y-85912800D01*
X155589976Y-85912800D01*
X155732459Y-85899832D01*
X155763600Y-85896998D01*
X155770302Y-85894820D01*
X155770304Y-85894820D01*
X155929409Y-85843124D01*
X155929412Y-85843123D01*
X155936108Y-85840947D01*
X156091912Y-85748069D01*
X156223266Y-85622982D01*
X156323643Y-85471902D01*
X156388055Y-85302338D01*
X156389035Y-85295366D01*
X156410606Y-85141877D01*
X160295577Y-85141877D01*
X160313277Y-85322397D01*
X160370532Y-85494510D01*
X160374179Y-85500532D01*
X160374180Y-85500534D01*
X160448337Y-85622982D01*
X160464494Y-85649661D01*
X160590496Y-85780139D01*
X160742273Y-85879459D01*
X160748877Y-85881915D01*
X160748879Y-85881916D01*
X160905672Y-85940227D01*
X160905674Y-85940227D01*
X160912282Y-85942685D01*
X160996109Y-85953870D01*
X161085094Y-85965744D01*
X161085098Y-85965744D01*
X161092075Y-85966675D01*
X161099086Y-85966037D01*
X161099090Y-85966037D01*
X161241573Y-85953069D01*
X161272714Y-85950235D01*
X161279416Y-85948057D01*
X161279418Y-85948057D01*
X161438523Y-85896361D01*
X161438526Y-85896360D01*
X161445222Y-85894184D01*
X161541627Y-85836715D01*
X161594974Y-85804914D01*
X161594976Y-85804913D01*
X161601026Y-85801306D01*
X161732380Y-85676219D01*
X161832757Y-85525139D01*
X161897169Y-85355575D01*
X161898149Y-85348603D01*
X161921862Y-85179876D01*
X161921862Y-85179873D01*
X161922413Y-85175954D01*
X161922730Y-85153237D01*
X161902511Y-84972982D01*
X161900194Y-84966328D01*
X161845178Y-84808343D01*
X161845176Y-84808340D01*
X161842859Y-84801685D01*
X161832776Y-84785549D01*
X161750473Y-84653835D01*
X161746740Y-84647861D01*
X161699806Y-84600598D01*
X161623892Y-84524152D01*
X161623888Y-84524149D01*
X161618929Y-84519155D01*
X161607811Y-84512099D01*
X161542915Y-84470915D01*
X161465780Y-84421964D01*
X161436577Y-84411565D01*
X161301539Y-84363480D01*
X161301534Y-84363479D01*
X161294904Y-84361118D01*
X161287916Y-84360285D01*
X161287913Y-84360284D01*
X161164812Y-84345605D01*
X161114794Y-84339641D01*
X161107791Y-84340377D01*
X161107790Y-84340377D01*
X160941402Y-84357865D01*
X160941400Y-84357866D01*
X160934402Y-84358601D01*
X160762693Y-84417055D01*
X160756689Y-84420749D01*
X160614209Y-84508403D01*
X160614206Y-84508405D01*
X160608202Y-84512099D01*
X160603167Y-84517030D01*
X160603164Y-84517032D01*
X160529033Y-84589627D01*
X160478607Y-84639008D01*
X160380349Y-84791475D01*
X160377940Y-84798095D01*
X160377938Y-84798098D01*
X160333662Y-84919745D01*
X160318311Y-84961922D01*
X160295577Y-85141877D01*
X156410606Y-85141877D01*
X156412748Y-85126639D01*
X156412748Y-85126636D01*
X156413299Y-85122717D01*
X156413616Y-85100000D01*
X156393397Y-84919745D01*
X156391080Y-84913091D01*
X156336064Y-84755106D01*
X156336062Y-84755103D01*
X156333745Y-84748448D01*
X156237626Y-84594624D01*
X156223941Y-84580843D01*
X156114778Y-84470915D01*
X156114774Y-84470912D01*
X156109815Y-84465918D01*
X156098697Y-84458862D01*
X156029240Y-84414784D01*
X155956666Y-84368727D01*
X155926162Y-84357865D01*
X155792425Y-84310243D01*
X155792420Y-84310242D01*
X155785790Y-84307881D01*
X155778802Y-84307048D01*
X155778799Y-84307047D01*
X155655698Y-84292368D01*
X155605680Y-84286404D01*
X155598677Y-84287140D01*
X155598676Y-84287140D01*
X155432288Y-84304628D01*
X155432286Y-84304629D01*
X155425288Y-84305364D01*
X155253579Y-84363818D01*
X155247575Y-84367512D01*
X155105095Y-84455166D01*
X155105092Y-84455168D01*
X155099088Y-84458862D01*
X155094053Y-84463793D01*
X155094050Y-84463795D01*
X155032416Y-84524152D01*
X154969493Y-84585771D01*
X154871235Y-84738238D01*
X154868826Y-84744858D01*
X154868824Y-84744861D01*
X154811606Y-84902066D01*
X154809197Y-84908685D01*
X154786463Y-85088640D01*
X152606172Y-85088640D01*
X151590057Y-83666078D01*
X151583047Y-83655107D01*
X151490740Y-83492715D01*
X151480291Y-83468903D01*
X151425286Y-83297264D01*
X151419948Y-83271813D01*
X151419426Y-83266776D01*
X151400673Y-83086022D01*
X151400000Y-83073020D01*
X151400000Y-82988640D01*
X153936463Y-82988640D01*
X153954163Y-83169160D01*
X154011418Y-83341273D01*
X154015065Y-83347295D01*
X154015066Y-83347297D01*
X154088713Y-83468903D01*
X154105380Y-83496424D01*
X154231382Y-83626902D01*
X154383159Y-83726222D01*
X154389763Y-83728678D01*
X154389765Y-83728679D01*
X154546558Y-83786990D01*
X154546560Y-83786990D01*
X154553168Y-83789448D01*
X154636995Y-83800633D01*
X154725980Y-83812507D01*
X154725984Y-83812507D01*
X154732961Y-83813438D01*
X154739972Y-83812800D01*
X154739976Y-83812800D01*
X154882459Y-83799832D01*
X154913600Y-83796998D01*
X154920302Y-83794820D01*
X154920304Y-83794820D01*
X155079409Y-83743124D01*
X155079412Y-83743123D01*
X155086108Y-83740947D01*
X155241912Y-83648069D01*
X155373266Y-83522982D01*
X155473643Y-83371902D01*
X155538055Y-83202338D01*
X155539035Y-83195366D01*
X155562748Y-83026639D01*
X155562748Y-83026636D01*
X155563299Y-83022717D01*
X155563616Y-83000000D01*
X155543397Y-82819745D01*
X155541080Y-82813091D01*
X155486064Y-82655106D01*
X155486062Y-82655103D01*
X155483745Y-82648448D01*
X155402994Y-82519218D01*
X155391359Y-82500598D01*
X155387626Y-82494624D01*
X155307005Y-82413438D01*
X155264778Y-82370915D01*
X155264774Y-82370912D01*
X155259815Y-82365918D01*
X155248697Y-82358862D01*
X155191185Y-82322364D01*
X155106666Y-82268727D01*
X155058784Y-82251677D01*
X154942425Y-82210243D01*
X154942420Y-82210242D01*
X154935790Y-82207881D01*
X154928802Y-82207048D01*
X154928799Y-82207047D01*
X154805698Y-82192368D01*
X154755680Y-82186404D01*
X154748677Y-82187140D01*
X154748676Y-82187140D01*
X154582288Y-82204628D01*
X154582286Y-82204629D01*
X154575288Y-82205364D01*
X154403579Y-82263818D01*
X154397575Y-82267512D01*
X154255095Y-82355166D01*
X154255092Y-82355168D01*
X154249088Y-82358862D01*
X154244053Y-82363793D01*
X154244050Y-82363795D01*
X154124525Y-82480843D01*
X154119493Y-82485771D01*
X154021235Y-82638238D01*
X154018826Y-82644858D01*
X154018824Y-82644861D01*
X153968807Y-82782282D01*
X153959197Y-82808685D01*
X153936463Y-82988640D01*
X151400000Y-82988640D01*
X151400000Y-81588640D01*
X164036463Y-81588640D01*
X164054163Y-81769160D01*
X164111418Y-81941273D01*
X164115065Y-81947295D01*
X164115066Y-81947297D01*
X164143008Y-81993434D01*
X164205380Y-82096424D01*
X164331382Y-82226902D01*
X164483159Y-82326222D01*
X164489763Y-82328678D01*
X164489765Y-82328679D01*
X164646558Y-82386990D01*
X164646560Y-82386990D01*
X164653168Y-82389448D01*
X164736995Y-82400633D01*
X164825980Y-82412507D01*
X164825984Y-82412507D01*
X164832961Y-82413438D01*
X164839972Y-82412800D01*
X164839976Y-82412800D01*
X164982459Y-82399832D01*
X165013600Y-82396998D01*
X165020302Y-82394820D01*
X165020304Y-82394820D01*
X165179409Y-82343124D01*
X165179412Y-82343123D01*
X165186108Y-82340947D01*
X165309296Y-82267512D01*
X165335860Y-82251677D01*
X165335862Y-82251676D01*
X165341912Y-82248069D01*
X165473266Y-82122982D01*
X165573643Y-81971902D01*
X165638055Y-81802338D01*
X165639035Y-81795366D01*
X165662748Y-81626639D01*
X165662748Y-81626636D01*
X165663299Y-81622717D01*
X165663616Y-81600000D01*
X165643397Y-81419745D01*
X165641080Y-81413091D01*
X165586064Y-81255106D01*
X165586062Y-81255103D01*
X165583745Y-81248448D01*
X165487626Y-81094624D01*
X165464901Y-81071740D01*
X165364778Y-80970915D01*
X165364774Y-80970912D01*
X165359815Y-80965918D01*
X165348697Y-80958862D01*
X165253787Y-80898631D01*
X165206666Y-80868727D01*
X165177463Y-80858328D01*
X165042425Y-80810243D01*
X165042420Y-80810242D01*
X165035790Y-80807881D01*
X165028802Y-80807048D01*
X165028799Y-80807047D01*
X164905698Y-80792368D01*
X164855680Y-80786404D01*
X164848677Y-80787140D01*
X164848676Y-80787140D01*
X164682288Y-80804628D01*
X164682286Y-80804629D01*
X164675288Y-80805364D01*
X164503579Y-80863818D01*
X164497575Y-80867512D01*
X164355095Y-80955166D01*
X164355092Y-80955168D01*
X164349088Y-80958862D01*
X164344053Y-80963793D01*
X164344050Y-80963795D01*
X164224525Y-81080843D01*
X164219493Y-81085771D01*
X164121235Y-81238238D01*
X164118826Y-81244858D01*
X164118824Y-81244861D01*
X164077132Y-81359408D01*
X164059197Y-81408685D01*
X164036463Y-81588640D01*
X151400000Y-81588640D01*
X151400000Y-80536552D01*
X160636956Y-80536552D01*
X160652685Y-80723865D01*
X160670618Y-80786404D01*
X160692165Y-80861547D01*
X160704497Y-80904555D01*
X160707312Y-80910032D01*
X160707313Y-80910035D01*
X160730507Y-80955166D01*
X160790418Y-81071740D01*
X160794241Y-81076564D01*
X160794244Y-81076568D01*
X160820625Y-81109852D01*
X160907177Y-81219052D01*
X161050324Y-81340880D01*
X161055702Y-81343886D01*
X161055704Y-81343887D01*
X161132366Y-81386732D01*
X161214409Y-81432584D01*
X161393180Y-81490670D01*
X161579830Y-81512927D01*
X161585965Y-81512455D01*
X161585967Y-81512455D01*
X161761105Y-81498979D01*
X161761109Y-81498978D01*
X161767247Y-81498506D01*
X161852378Y-81474737D01*
X161942350Y-81449616D01*
X161942353Y-81449615D01*
X161948294Y-81447956D01*
X161953798Y-81445176D01*
X161953800Y-81445175D01*
X162110574Y-81365983D01*
X162110576Y-81365982D01*
X162116075Y-81363204D01*
X162264199Y-81247477D01*
X162277289Y-81232312D01*
X162382994Y-81109852D01*
X162382995Y-81109850D01*
X162387023Y-81105184D01*
X162479870Y-80941744D01*
X162539203Y-80763382D01*
X162562762Y-80576892D01*
X162563138Y-80550000D01*
X162544795Y-80362926D01*
X162490465Y-80182977D01*
X162402218Y-80017008D01*
X162283415Y-79871340D01*
X162215691Y-79815314D01*
X162143329Y-79755450D01*
X162143324Y-79755447D01*
X162138580Y-79751522D01*
X162133161Y-79748592D01*
X162133158Y-79748590D01*
X162063671Y-79711019D01*
X161973231Y-79662119D01*
X161793666Y-79606534D01*
X161787541Y-79605890D01*
X161787540Y-79605890D01*
X161612852Y-79587529D01*
X161612851Y-79587529D01*
X161606724Y-79586885D01*
X161529673Y-79593897D01*
X161425665Y-79603363D01*
X161425662Y-79603364D01*
X161419526Y-79603922D01*
X161413620Y-79605660D01*
X161413616Y-79605661D01*
X161280278Y-79644905D01*
X161239202Y-79656994D01*
X161072621Y-79744080D01*
X160926128Y-79861864D01*
X160922170Y-79866582D01*
X160922167Y-79866584D01*
X160860228Y-79940401D01*
X160805302Y-80005859D01*
X160802338Y-80011251D01*
X160802335Y-80011255D01*
X160796176Y-80022459D01*
X160714746Y-80170580D01*
X160712885Y-80176447D01*
X160712884Y-80176449D01*
X160693679Y-80236990D01*
X160657909Y-80349752D01*
X160636956Y-80536552D01*
X151400000Y-80536552D01*
X151400000Y-76586552D01*
X158336956Y-76586552D01*
X158337472Y-76592696D01*
X158342154Y-76648448D01*
X158352685Y-76773865D01*
X158404497Y-76954555D01*
X158407312Y-76960032D01*
X158407313Y-76960035D01*
X158427852Y-77000000D01*
X158490418Y-77121740D01*
X158494241Y-77126564D01*
X158494244Y-77126568D01*
X158597904Y-77257352D01*
X158607177Y-77269052D01*
X158611871Y-77273047D01*
X158728735Y-77372506D01*
X158750324Y-77390880D01*
X158755702Y-77393886D01*
X158755704Y-77393887D01*
X158832367Y-77436732D01*
X158914409Y-77482584D01*
X159086728Y-77538574D01*
X159145333Y-77578646D01*
X159172970Y-77644043D01*
X159160863Y-77714000D01*
X159112857Y-77766306D01*
X159083366Y-77779280D01*
X159048818Y-77789448D01*
X158989202Y-77806994D01*
X158822621Y-77894080D01*
X158676128Y-78011864D01*
X158672170Y-78016582D01*
X158672167Y-78016584D01*
X158602173Y-78100000D01*
X158555302Y-78155859D01*
X158552338Y-78161251D01*
X158552335Y-78161255D01*
X158493014Y-78269160D01*
X158464746Y-78320580D01*
X158407909Y-78499752D01*
X158386956Y-78686552D01*
X158387472Y-78692696D01*
X158400104Y-78843124D01*
X158402685Y-78873865D01*
X158454497Y-79054555D01*
X158457312Y-79060032D01*
X158457313Y-79060035D01*
X158514805Y-79171902D01*
X158540418Y-79221740D01*
X158544241Y-79226564D01*
X158544244Y-79226568D01*
X158584014Y-79276744D01*
X158657177Y-79369052D01*
X158661871Y-79373047D01*
X158778983Y-79472717D01*
X158800324Y-79490880D01*
X158805702Y-79493886D01*
X158805704Y-79493887D01*
X158882366Y-79536732D01*
X158964409Y-79582584D01*
X159143180Y-79640670D01*
X159329830Y-79662927D01*
X159335965Y-79662455D01*
X159335967Y-79662455D01*
X159511105Y-79648979D01*
X159511109Y-79648978D01*
X159517247Y-79648506D01*
X159642845Y-79613438D01*
X159692350Y-79599616D01*
X159692353Y-79599615D01*
X159698294Y-79597956D01*
X159703798Y-79595176D01*
X159703800Y-79595175D01*
X159860574Y-79515983D01*
X159860576Y-79515982D01*
X159866075Y-79513204D01*
X159961513Y-79438640D01*
X175686463Y-79438640D01*
X175704163Y-79619160D01*
X175761418Y-79791273D01*
X175765065Y-79797295D01*
X175765066Y-79797297D01*
X175807028Y-79866584D01*
X175855380Y-79946424D01*
X175981382Y-80076902D01*
X175987278Y-80080760D01*
X176116293Y-80165185D01*
X176133159Y-80176222D01*
X176139763Y-80178678D01*
X176139765Y-80178679D01*
X176296558Y-80236990D01*
X176296560Y-80236990D01*
X176303168Y-80239448D01*
X176386995Y-80250633D01*
X176475980Y-80262507D01*
X176475984Y-80262507D01*
X176482961Y-80263438D01*
X176489972Y-80262800D01*
X176489976Y-80262800D01*
X176632459Y-80249832D01*
X176663600Y-80246998D01*
X176670302Y-80244820D01*
X176670304Y-80244820D01*
X176829409Y-80193124D01*
X176829412Y-80193123D01*
X176836108Y-80190947D01*
X176991912Y-80098069D01*
X177123266Y-79972982D01*
X177223643Y-79821902D01*
X177284212Y-79662455D01*
X177285555Y-79658920D01*
X177285556Y-79658918D01*
X177288055Y-79652338D01*
X177289035Y-79645366D01*
X177312748Y-79476639D01*
X177312748Y-79476636D01*
X177313299Y-79472717D01*
X177313616Y-79450000D01*
X177293397Y-79269745D01*
X177289952Y-79259852D01*
X177236064Y-79105106D01*
X177236062Y-79105103D01*
X177233745Y-79098448D01*
X177137626Y-78944624D01*
X177106657Y-78913438D01*
X177014778Y-78820915D01*
X177014774Y-78820912D01*
X177009815Y-78815918D01*
X176998697Y-78808862D01*
X176908587Y-78751677D01*
X176856666Y-78718727D01*
X176813965Y-78703522D01*
X176692425Y-78660243D01*
X176692420Y-78660242D01*
X176685790Y-78657881D01*
X176678802Y-78657048D01*
X176678799Y-78657047D01*
X176555698Y-78642368D01*
X176505680Y-78636404D01*
X176498677Y-78637140D01*
X176498676Y-78637140D01*
X176332288Y-78654628D01*
X176332286Y-78654629D01*
X176325288Y-78655364D01*
X176153579Y-78713818D01*
X176105802Y-78743211D01*
X176005095Y-78805166D01*
X176005092Y-78805168D01*
X175999088Y-78808862D01*
X175994053Y-78813793D01*
X175994050Y-78813795D01*
X175886380Y-78919234D01*
X175869493Y-78935771D01*
X175771235Y-79088238D01*
X175768826Y-79094858D01*
X175768824Y-79094861D01*
X175724637Y-79216263D01*
X175709197Y-79258685D01*
X175686463Y-79438640D01*
X159961513Y-79438640D01*
X160014199Y-79397477D01*
X160018225Y-79392813D01*
X160132994Y-79259852D01*
X160132995Y-79259850D01*
X160137023Y-79255184D01*
X160229870Y-79091744D01*
X160289203Y-78913382D01*
X160312762Y-78726892D01*
X160313138Y-78700000D01*
X160294795Y-78512926D01*
X160240465Y-78332977D01*
X160152218Y-78167008D01*
X160088303Y-78088640D01*
X169636463Y-78088640D01*
X169654163Y-78269160D01*
X169711418Y-78441273D01*
X169715065Y-78447295D01*
X169715066Y-78447297D01*
X169750540Y-78505871D01*
X169805380Y-78596424D01*
X169810269Y-78601487D01*
X169810270Y-78601488D01*
X169844699Y-78637140D01*
X169931382Y-78726902D01*
X169937278Y-78730760D01*
X170064169Y-78813795D01*
X170083159Y-78826222D01*
X170089763Y-78828678D01*
X170089765Y-78828679D01*
X170246558Y-78886990D01*
X170246560Y-78886990D01*
X170253168Y-78889448D01*
X170336995Y-78900633D01*
X170425980Y-78912507D01*
X170425984Y-78912507D01*
X170432961Y-78913438D01*
X170439972Y-78912800D01*
X170439976Y-78912800D01*
X170582459Y-78899832D01*
X170613600Y-78896998D01*
X170620302Y-78894820D01*
X170620304Y-78894820D01*
X170779409Y-78843124D01*
X170779412Y-78843123D01*
X170786108Y-78840947D01*
X170941912Y-78748069D01*
X171073266Y-78622982D01*
X171173643Y-78471902D01*
X171226416Y-78332977D01*
X171235555Y-78308920D01*
X171235556Y-78308918D01*
X171238055Y-78302338D01*
X171241076Y-78280843D01*
X171262748Y-78126639D01*
X171262748Y-78126636D01*
X171263299Y-78122717D01*
X171263616Y-78100000D01*
X171243397Y-77919745D01*
X171241080Y-77913091D01*
X171186064Y-77755106D01*
X171186062Y-77755103D01*
X171183745Y-77748448D01*
X171087626Y-77594624D01*
X171071759Y-77578646D01*
X170964778Y-77470915D01*
X170964774Y-77470912D01*
X170959815Y-77465918D01*
X170948697Y-77458862D01*
X170870769Y-77409408D01*
X170806666Y-77368727D01*
X170777463Y-77358328D01*
X170642425Y-77310243D01*
X170642420Y-77310242D01*
X170635790Y-77307881D01*
X170628802Y-77307048D01*
X170628799Y-77307047D01*
X170505698Y-77292368D01*
X170455680Y-77286404D01*
X170448677Y-77287140D01*
X170448676Y-77287140D01*
X170282288Y-77304628D01*
X170282286Y-77304629D01*
X170275288Y-77305364D01*
X170103579Y-77363818D01*
X170097575Y-77367512D01*
X169955095Y-77455166D01*
X169955092Y-77455168D01*
X169949088Y-77458862D01*
X169944053Y-77463793D01*
X169944050Y-77463795D01*
X169824525Y-77580843D01*
X169819493Y-77585771D01*
X169721235Y-77738238D01*
X169718826Y-77744858D01*
X169718824Y-77744861D01*
X169664513Y-77894080D01*
X169659197Y-77908685D01*
X169636463Y-78088640D01*
X160088303Y-78088640D01*
X160033415Y-78021340D01*
X159979603Y-77976823D01*
X159893329Y-77905450D01*
X159893324Y-77905447D01*
X159888580Y-77901522D01*
X159883161Y-77898592D01*
X159883158Y-77898590D01*
X159813671Y-77861019D01*
X159723231Y-77812119D01*
X159563055Y-77762536D01*
X159503895Y-77723285D01*
X159475348Y-77658280D01*
X159486477Y-77588161D01*
X159533748Y-77535190D01*
X159566429Y-77520814D01*
X159591496Y-77513815D01*
X159642350Y-77499616D01*
X159642353Y-77499615D01*
X159648294Y-77497956D01*
X159653798Y-77495176D01*
X159653800Y-77495175D01*
X159810574Y-77415983D01*
X159810576Y-77415982D01*
X159816075Y-77413204D01*
X159947859Y-77310243D01*
X159959343Y-77301271D01*
X159964199Y-77297477D01*
X159973757Y-77286404D01*
X160082994Y-77159852D01*
X160082995Y-77159850D01*
X160087023Y-77155184D01*
X160179870Y-76991744D01*
X160239203Y-76813382D01*
X160262762Y-76626892D01*
X160263138Y-76600000D01*
X160244795Y-76412926D01*
X160190465Y-76232977D01*
X160102218Y-76067008D01*
X159983415Y-75921340D01*
X159929603Y-75876823D01*
X159843329Y-75805450D01*
X159843324Y-75805447D01*
X159838580Y-75801522D01*
X159833161Y-75798592D01*
X159833158Y-75798590D01*
X159763671Y-75761019D01*
X159673231Y-75712119D01*
X159493666Y-75656534D01*
X159487541Y-75655890D01*
X159487540Y-75655890D01*
X159312852Y-75637529D01*
X159312851Y-75637529D01*
X159306724Y-75636885D01*
X159229673Y-75643897D01*
X159125665Y-75653363D01*
X159125662Y-75653364D01*
X159119526Y-75653922D01*
X159113620Y-75655660D01*
X159113616Y-75655661D01*
X158980278Y-75694905D01*
X158939202Y-75706994D01*
X158772621Y-75794080D01*
X158626128Y-75911864D01*
X158622170Y-75916582D01*
X158622167Y-75916584D01*
X158534797Y-76020708D01*
X158505302Y-76055859D01*
X158502338Y-76061251D01*
X158502335Y-76061255D01*
X158496176Y-76072459D01*
X158414746Y-76220580D01*
X158357909Y-76399752D01*
X158336956Y-76586552D01*
X151400000Y-76586552D01*
X151400000Y-71306187D01*
X151400607Y-71293837D01*
X151417999Y-71117260D01*
X151422815Y-71093043D01*
X151472518Y-70929190D01*
X151481971Y-70906371D01*
X151561799Y-70757023D01*
X151562683Y-70755369D01*
X151576399Y-70734842D01*
X151685026Y-70602479D01*
X151702479Y-70585026D01*
X151834842Y-70476399D01*
X151855369Y-70462683D01*
X152006371Y-70381971D01*
X152029191Y-70372518D01*
X152050896Y-70365934D01*
X152193043Y-70322815D01*
X152217260Y-70317999D01*
X152393837Y-70300607D01*
X152406187Y-70300000D01*
X154700444Y-70300000D01*
X154768565Y-70320002D01*
G37*
%TD.AperFunction*%
%TD*%
%TA.AperFunction,Conductor*%
%TO.N,GND*%
G36*
X137923068Y-67820002D02*
G01*
X137969561Y-67873658D01*
X137979665Y-67943932D01*
X137950171Y-68008512D01*
X137886282Y-68048041D01*
X137687627Y-68099047D01*
X137680101Y-68101492D01*
X137394038Y-68214753D01*
X137386903Y-68218110D01*
X137117292Y-68366330D01*
X137110612Y-68370570D01*
X136887508Y-68532664D01*
X136879085Y-68543587D01*
X136885989Y-68556448D01*
X138447519Y-70117978D01*
X138461463Y-70125592D01*
X138463296Y-70125461D01*
X138469911Y-70121210D01*
X140034997Y-68556124D01*
X140041610Y-68544013D01*
X140032783Y-68532395D01*
X139810050Y-68370570D01*
X139803370Y-68366330D01*
X139533759Y-68218110D01*
X139526624Y-68214753D01*
X139240561Y-68101492D01*
X139233035Y-68099047D01*
X139034380Y-68048041D01*
X138973374Y-68011727D01*
X138941685Y-67948194D01*
X138949375Y-67877616D01*
X138994002Y-67822398D01*
X139065715Y-67800000D01*
X188124000Y-67800000D01*
X188192121Y-67820002D01*
X188238614Y-67873658D01*
X188250000Y-67926000D01*
X188250000Y-92831832D01*
X188229998Y-92899953D01*
X188176342Y-92946446D01*
X188106068Y-92956550D01*
X188041488Y-92927056D01*
X188006369Y-92876986D01*
X187993260Y-92842836D01*
X187990578Y-92836811D01*
X187817128Y-92496397D01*
X187813831Y-92490687D01*
X187605747Y-92170265D01*
X187601877Y-92164939D01*
X187408522Y-91926165D01*
X187396267Y-91917700D01*
X187385176Y-91924034D01*
X187018329Y-92290881D01*
X186956017Y-92324907D01*
X186885202Y-92319842D01*
X186825395Y-92273155D01*
X186792891Y-92225863D01*
X186792890Y-92225862D01*
X186788587Y-92219601D01*
X186671032Y-92114863D01*
X186672409Y-92113318D01*
X186634491Y-92066220D01*
X186626936Y-91995627D01*
X186661828Y-91928962D01*
X187025100Y-91565690D01*
X187032241Y-91552614D01*
X187024784Y-91542247D01*
X186785065Y-91348126D01*
X186779728Y-91344249D01*
X186459315Y-91136170D01*
X186453606Y-91132873D01*
X186113189Y-90959422D01*
X186107164Y-90956740D01*
X185750498Y-90819829D01*
X185744216Y-90817788D01*
X185375184Y-90718906D01*
X185368734Y-90717535D01*
X184991371Y-90657766D01*
X184984833Y-90657080D01*
X184603301Y-90637084D01*
X184596699Y-90637084D01*
X184215167Y-90657080D01*
X184208629Y-90657766D01*
X183831266Y-90717535D01*
X183824816Y-90718906D01*
X183455784Y-90817788D01*
X183449502Y-90819829D01*
X183092836Y-90956740D01*
X183086811Y-90959422D01*
X182746397Y-91132872D01*
X182740687Y-91136169D01*
X182420265Y-91344253D01*
X182414939Y-91348123D01*
X182176165Y-91541478D01*
X182167700Y-91553733D01*
X182174034Y-91564824D01*
X182538354Y-91929144D01*
X182572380Y-91991456D01*
X182567315Y-92062271D01*
X182532089Y-92113187D01*
X182415978Y-92214477D01*
X182411608Y-92220694D01*
X182411606Y-92220697D01*
X182373925Y-92274310D01*
X182318391Y-92318542D01*
X182247758Y-92325727D01*
X182181744Y-92290954D01*
X181815690Y-91924900D01*
X181802614Y-91917759D01*
X181792247Y-91925216D01*
X181598123Y-92164939D01*
X181594253Y-92170265D01*
X181386169Y-92490687D01*
X181382872Y-92496397D01*
X181209422Y-92836811D01*
X181206740Y-92842836D01*
X181069829Y-93199502D01*
X181067788Y-93205784D01*
X180968906Y-93574816D01*
X180967535Y-93581266D01*
X180907766Y-93958629D01*
X180907080Y-93965167D01*
X180887084Y-94346699D01*
X180887084Y-94353301D01*
X180907080Y-94734833D01*
X180907766Y-94741371D01*
X180967535Y-95118734D01*
X180968906Y-95125184D01*
X181067788Y-95494216D01*
X181069829Y-95500498D01*
X181206740Y-95857164D01*
X181209422Y-95863189D01*
X181382872Y-96203603D01*
X181386169Y-96209313D01*
X181594253Y-96529735D01*
X181598123Y-96535061D01*
X181791478Y-96773835D01*
X181803733Y-96782300D01*
X181814824Y-96775966D01*
X182181538Y-96409252D01*
X182243850Y-96375226D01*
X182314665Y-96380291D01*
X182375212Y-96428069D01*
X182406902Y-96475228D01*
X182523354Y-96581191D01*
X182523938Y-96581508D01*
X182566052Y-96634950D01*
X182572871Y-96705618D01*
X182538219Y-96770991D01*
X182174900Y-97134310D01*
X182167759Y-97147386D01*
X182175216Y-97157753D01*
X182414935Y-97351874D01*
X182420272Y-97355751D01*
X182740685Y-97563830D01*
X182746394Y-97567126D01*
X183030200Y-97711733D01*
X183081815Y-97760481D01*
X183098881Y-97829396D01*
X183075980Y-97896598D01*
X183020383Y-97940750D01*
X182972997Y-97950000D01*
X139682326Y-97950000D01*
X139614205Y-97929998D01*
X139567712Y-97876342D01*
X139557608Y-97806068D01*
X139587102Y-97741488D01*
X139621625Y-97713585D01*
X139803370Y-97613670D01*
X139810050Y-97609430D01*
X140033154Y-97447336D01*
X140041577Y-97436413D01*
X140034673Y-97423552D01*
X138473143Y-95862022D01*
X138459199Y-95854408D01*
X138457366Y-95854539D01*
X138450751Y-95858790D01*
X136885665Y-97423876D01*
X136879052Y-97435987D01*
X136887879Y-97447605D01*
X137110612Y-97609430D01*
X137117292Y-97613670D01*
X137299037Y-97713585D01*
X137349096Y-97763931D01*
X137363989Y-97833348D01*
X137338988Y-97899797D01*
X137282031Y-97942181D01*
X137238336Y-97950000D01*
X129726000Y-97950000D01*
X129657879Y-97929998D01*
X129611386Y-97876342D01*
X129600000Y-97824000D01*
X129600000Y-95493958D01*
X135947621Y-95493958D01*
X135966938Y-95800994D01*
X135967931Y-95808855D01*
X136025577Y-96111046D01*
X136027548Y-96118723D01*
X136122615Y-96411309D01*
X136125530Y-96418672D01*
X136256520Y-96697041D01*
X136260332Y-96703974D01*
X136425182Y-96963736D01*
X136429826Y-96970129D01*
X136504828Y-97060790D01*
X136517345Y-97069245D01*
X136528083Y-97063038D01*
X138088309Y-95502812D01*
X138094687Y-95491132D01*
X138824739Y-95491132D01*
X138824870Y-95492965D01*
X138829121Y-95499580D01*
X140391476Y-97061935D01*
X140404738Y-97069177D01*
X140414843Y-97061988D01*
X140490836Y-96970129D01*
X140495480Y-96963736D01*
X140660330Y-96703974D01*
X140664142Y-96697041D01*
X140795132Y-96418672D01*
X140798047Y-96411309D01*
X140893114Y-96118723D01*
X140895085Y-96111046D01*
X140952731Y-95808855D01*
X140953724Y-95800994D01*
X140973041Y-95493958D01*
X140973041Y-95486042D01*
X140953724Y-95179006D01*
X140952731Y-95171145D01*
X140895085Y-94868954D01*
X140893114Y-94861277D01*
X140798047Y-94568691D01*
X140795132Y-94561328D01*
X140664142Y-94282959D01*
X140660330Y-94276026D01*
X140495480Y-94016264D01*
X140490836Y-94009871D01*
X140415834Y-93919210D01*
X140403317Y-93910755D01*
X140392579Y-93916962D01*
X138832353Y-95477188D01*
X138824739Y-95491132D01*
X138094687Y-95491132D01*
X138095923Y-95488868D01*
X138095792Y-95487035D01*
X138091541Y-95480420D01*
X136529186Y-93918065D01*
X136515924Y-93910823D01*
X136505819Y-93918012D01*
X136429826Y-94009871D01*
X136425182Y-94016264D01*
X136260332Y-94276026D01*
X136256520Y-94282959D01*
X136125530Y-94561328D01*
X136122615Y-94568691D01*
X136027548Y-94861277D01*
X136025577Y-94868954D01*
X135967931Y-95171145D01*
X135966938Y-95179006D01*
X135947621Y-95486042D01*
X135947621Y-95493958D01*
X129600000Y-95493958D01*
X129600000Y-93543587D01*
X136879085Y-93543587D01*
X136885989Y-93556448D01*
X138447519Y-95117978D01*
X138461463Y-95125592D01*
X138463296Y-95125461D01*
X138469911Y-95121210D01*
X140034997Y-93556124D01*
X140041610Y-93544013D01*
X140032783Y-93532395D01*
X139810050Y-93370570D01*
X139803370Y-93366330D01*
X139533759Y-93218110D01*
X139526624Y-93214753D01*
X139240561Y-93101492D01*
X139233035Y-93099047D01*
X138935052Y-93022538D01*
X138927281Y-93021055D01*
X138622053Y-92982497D01*
X138614162Y-92982000D01*
X138306500Y-92982000D01*
X138298609Y-92982497D01*
X137993381Y-93021055D01*
X137985610Y-93022538D01*
X137687627Y-93099047D01*
X137680101Y-93101492D01*
X137394038Y-93214753D01*
X137386903Y-93218110D01*
X137117292Y-93366330D01*
X137110612Y-93370570D01*
X136887508Y-93532664D01*
X136879085Y-93543587D01*
X129600000Y-93543587D01*
X129600000Y-89616062D01*
X139158824Y-89616062D01*
X139168120Y-89628077D01*
X139219325Y-89663931D01*
X139228820Y-89669414D01*
X139426278Y-89761490D01*
X139436570Y-89765236D01*
X139647019Y-89821625D01*
X139657812Y-89823528D01*
X139874856Y-89842517D01*
X139885806Y-89842517D01*
X140102850Y-89823528D01*
X140113643Y-89821625D01*
X140324092Y-89765236D01*
X140334384Y-89761490D01*
X140531842Y-89669414D01*
X140541337Y-89663931D01*
X140593379Y-89627491D01*
X140601755Y-89617012D01*
X140594687Y-89603566D01*
X139893143Y-88902022D01*
X139879199Y-88894408D01*
X139877366Y-88894539D01*
X139870751Y-88898790D01*
X139165254Y-89604287D01*
X139158824Y-89616062D01*
X129600000Y-89616062D01*
X129600000Y-88535475D01*
X138567814Y-88535475D01*
X138586803Y-88752519D01*
X138588706Y-88763312D01*
X138645095Y-88973761D01*
X138648841Y-88984053D01*
X138740917Y-89181511D01*
X138746400Y-89191006D01*
X138782840Y-89243048D01*
X138793319Y-89251424D01*
X138806765Y-89244356D01*
X139508309Y-88542812D01*
X139514687Y-88531132D01*
X140244739Y-88531132D01*
X140244870Y-88532965D01*
X140249121Y-88539580D01*
X140954618Y-89245077D01*
X140966393Y-89251507D01*
X140978408Y-89242211D01*
X141014262Y-89191006D01*
X141019745Y-89181511D01*
X141111821Y-88984053D01*
X141115567Y-88973761D01*
X141171956Y-88763312D01*
X141173859Y-88752519D01*
X141192848Y-88535475D01*
X141192848Y-88524525D01*
X141173859Y-88307481D01*
X141171956Y-88296688D01*
X141115567Y-88086239D01*
X141111821Y-88075947D01*
X141019745Y-87878489D01*
X141014262Y-87868994D01*
X140977822Y-87816952D01*
X140967343Y-87808576D01*
X140953897Y-87815644D01*
X140252353Y-88517188D01*
X140244739Y-88531132D01*
X139514687Y-88531132D01*
X139515923Y-88528868D01*
X139515792Y-88527035D01*
X139511541Y-88520420D01*
X138806044Y-87814923D01*
X138794269Y-87808493D01*
X138782254Y-87817789D01*
X138746400Y-87868994D01*
X138740917Y-87878489D01*
X138648841Y-88075947D01*
X138645095Y-88086239D01*
X138588706Y-88296688D01*
X138586803Y-88307481D01*
X138567814Y-88524525D01*
X138567814Y-88535475D01*
X129600000Y-88535475D01*
X129600000Y-87130262D01*
X135984851Y-87130262D01*
X136002090Y-87335553D01*
X136003789Y-87341478D01*
X136029724Y-87431923D01*
X136058875Y-87533586D01*
X136061690Y-87539063D01*
X136061691Y-87539066D01*
X136082578Y-87579707D01*
X136153043Y-87716818D01*
X136281008Y-87878270D01*
X136285701Y-87882264D01*
X136285702Y-87882265D01*
X136429399Y-88004560D01*
X136437895Y-88011791D01*
X136617729Y-88112297D01*
X136712569Y-88143113D01*
X136807802Y-88174056D01*
X136807806Y-88174057D01*
X136813660Y-88175959D01*
X137018225Y-88200351D01*
X137024360Y-88199879D01*
X137024362Y-88199879D01*
X137080370Y-88195569D01*
X137223631Y-88184546D01*
X137229561Y-88182890D01*
X137229563Y-88182890D01*
X137416128Y-88130800D01*
X137416127Y-88130800D01*
X137422056Y-88129145D01*
X137427545Y-88126372D01*
X137427551Y-88126370D01*
X137600447Y-88039033D01*
X137605941Y-88036258D01*
X137768282Y-87909424D01*
X137837287Y-87829481D01*
X137898871Y-87758134D01*
X137898871Y-87758133D01*
X137902895Y-87753472D01*
X137923718Y-87716818D01*
X138001607Y-87579707D01*
X138004654Y-87574344D01*
X138048350Y-87442988D01*
X139158907Y-87442988D01*
X139165975Y-87456434D01*
X139867519Y-88157978D01*
X139881463Y-88165592D01*
X139883296Y-88165461D01*
X139889911Y-88161210D01*
X140595408Y-87455713D01*
X140601838Y-87443938D01*
X140592542Y-87431923D01*
X140541337Y-87396069D01*
X140531842Y-87390586D01*
X140334384Y-87298510D01*
X140324092Y-87294764D01*
X140113643Y-87238375D01*
X140102850Y-87236472D01*
X139885806Y-87217483D01*
X139874856Y-87217483D01*
X139657812Y-87236472D01*
X139647019Y-87238375D01*
X139436570Y-87294764D01*
X139426278Y-87298510D01*
X139228820Y-87390586D01*
X139219325Y-87396069D01*
X139167283Y-87432509D01*
X139158907Y-87442988D01*
X138048350Y-87442988D01*
X138069682Y-87378863D01*
X138095502Y-87174474D01*
X138095914Y-87145000D01*
X138075811Y-86939970D01*
X138016266Y-86742749D01*
X137919549Y-86560849D01*
X137804769Y-86420115D01*
X137793237Y-86405975D01*
X137793234Y-86405972D01*
X137789342Y-86401200D01*
X137782504Y-86395543D01*
X137635356Y-86273811D01*
X137635352Y-86273809D01*
X137630606Y-86269882D01*
X137470829Y-86183491D01*
X137454805Y-86174827D01*
X137449386Y-86171897D01*
X137252585Y-86110977D01*
X137246460Y-86110333D01*
X137246459Y-86110333D01*
X137053829Y-86090087D01*
X137053827Y-86090087D01*
X137047700Y-86089443D01*
X136960860Y-86097346D01*
X136848673Y-86107555D01*
X136848670Y-86107556D01*
X136842534Y-86108114D01*
X136644903Y-86166280D01*
X136462333Y-86261726D01*
X136457532Y-86265586D01*
X136457529Y-86265588D01*
X136369151Y-86336646D01*
X136301778Y-86390815D01*
X136169355Y-86548630D01*
X136166387Y-86554028D01*
X136166384Y-86554033D01*
X136079038Y-86712916D01*
X136070107Y-86729162D01*
X136007815Y-86925532D01*
X136007129Y-86931649D01*
X136007128Y-86931653D01*
X135990055Y-87083864D01*
X135984851Y-87130262D01*
X129600000Y-87130262D01*
X129600000Y-85745262D01*
X138824851Y-85745262D01*
X138825367Y-85751406D01*
X138838232Y-85904604D01*
X138842090Y-85950553D01*
X138843789Y-85956478D01*
X138891601Y-86123217D01*
X138898875Y-86148586D01*
X138901690Y-86154063D01*
X138901691Y-86154066D01*
X138988412Y-86322807D01*
X138993043Y-86331818D01*
X139121008Y-86493270D01*
X139125701Y-86497264D01*
X139125702Y-86497265D01*
X139253406Y-86605949D01*
X139277895Y-86626791D01*
X139457729Y-86727297D01*
X139523444Y-86748649D01*
X139647802Y-86789056D01*
X139647806Y-86789057D01*
X139653660Y-86790959D01*
X139858225Y-86815351D01*
X139864360Y-86814879D01*
X139864362Y-86814879D01*
X139920370Y-86810569D01*
X140063631Y-86799546D01*
X140069561Y-86797890D01*
X140069563Y-86797890D01*
X140256128Y-86745800D01*
X140256127Y-86745800D01*
X140262056Y-86744145D01*
X140267545Y-86741372D01*
X140267551Y-86741370D01*
X140400283Y-86674322D01*
X140445941Y-86651258D01*
X140608282Y-86524424D01*
X140628511Y-86500989D01*
X140738871Y-86373134D01*
X140738871Y-86373133D01*
X140742895Y-86368472D01*
X140763718Y-86331818D01*
X140841607Y-86194707D01*
X140844654Y-86189344D01*
X140909682Y-85993863D01*
X140935502Y-85789474D01*
X140935914Y-85760000D01*
X140915811Y-85554970D01*
X140856266Y-85357749D01*
X140759549Y-85175849D01*
X140682803Y-85081750D01*
X140633237Y-85020975D01*
X140633234Y-85020972D01*
X140629342Y-85016200D01*
X140624593Y-85012271D01*
X140475356Y-84888811D01*
X140475352Y-84888809D01*
X140470606Y-84884882D01*
X140323903Y-84805560D01*
X140294805Y-84789827D01*
X140289386Y-84786897D01*
X140092585Y-84725977D01*
X140086460Y-84725333D01*
X140086459Y-84725333D01*
X139893829Y-84705087D01*
X139893827Y-84705087D01*
X139887700Y-84704443D01*
X139800860Y-84712346D01*
X139688673Y-84722555D01*
X139688670Y-84722556D01*
X139682534Y-84723114D01*
X139484903Y-84781280D01*
X139479438Y-84784137D01*
X139430528Y-84809707D01*
X139302333Y-84876726D01*
X139297532Y-84880586D01*
X139297529Y-84880588D01*
X139192069Y-84965380D01*
X139141778Y-85005815D01*
X139009355Y-85163630D01*
X139006387Y-85169028D01*
X139006384Y-85169033D01*
X138934385Y-85300000D01*
X138910107Y-85344162D01*
X138847815Y-85540532D01*
X138847129Y-85546649D01*
X138847128Y-85546653D01*
X138826943Y-85726610D01*
X138824851Y-85745262D01*
X129600000Y-85745262D01*
X129600000Y-84360262D01*
X135984851Y-84360262D01*
X136002090Y-84565553D01*
X136003789Y-84571478D01*
X136047769Y-84724853D01*
X136058875Y-84763586D01*
X136061690Y-84769063D01*
X136061691Y-84769066D01*
X136136649Y-84914919D01*
X136153043Y-84946818D01*
X136281008Y-85108270D01*
X136285701Y-85112264D01*
X136285702Y-85112265D01*
X136418206Y-85225034D01*
X136437895Y-85241791D01*
X136617729Y-85342297D01*
X136679006Y-85362207D01*
X136807802Y-85404056D01*
X136807806Y-85404057D01*
X136813660Y-85405959D01*
X137018225Y-85430351D01*
X137024360Y-85429879D01*
X137024362Y-85429879D01*
X137090575Y-85424784D01*
X137223631Y-85414546D01*
X137229561Y-85412890D01*
X137229563Y-85412890D01*
X137416128Y-85360800D01*
X137416127Y-85360800D01*
X137422056Y-85359145D01*
X137427545Y-85356372D01*
X137427551Y-85356370D01*
X137568937Y-85284950D01*
X137605941Y-85266258D01*
X137657366Y-85226081D01*
X137730384Y-85169033D01*
X137768282Y-85139424D01*
X137793822Y-85109836D01*
X137898871Y-84988134D01*
X137898871Y-84988133D01*
X137902895Y-84983472D01*
X137910931Y-84969327D01*
X137950900Y-84898968D01*
X138004654Y-84804344D01*
X138069682Y-84608863D01*
X138095502Y-84404474D01*
X138095914Y-84375000D01*
X138075811Y-84169970D01*
X138047458Y-84076062D01*
X139158824Y-84076062D01*
X139168120Y-84088077D01*
X139219325Y-84123931D01*
X139228820Y-84129414D01*
X139426278Y-84221490D01*
X139436570Y-84225236D01*
X139647019Y-84281625D01*
X139657812Y-84283528D01*
X139874856Y-84302517D01*
X139885806Y-84302517D01*
X140102850Y-84283528D01*
X140113643Y-84281625D01*
X140324092Y-84225236D01*
X140334384Y-84221490D01*
X140531842Y-84129414D01*
X140541337Y-84123931D01*
X140593379Y-84087491D01*
X140601755Y-84077012D01*
X140594687Y-84063566D01*
X139893143Y-83362022D01*
X139879199Y-83354408D01*
X139877366Y-83354539D01*
X139870751Y-83358790D01*
X139165254Y-84064287D01*
X139158824Y-84076062D01*
X138047458Y-84076062D01*
X138016266Y-83972749D01*
X137919549Y-83790849D01*
X137841658Y-83695345D01*
X137793237Y-83635975D01*
X137793234Y-83635972D01*
X137789342Y-83631200D01*
X137762824Y-83609262D01*
X137635356Y-83503811D01*
X137635352Y-83503809D01*
X137630606Y-83499882D01*
X137449386Y-83401897D01*
X137252585Y-83340977D01*
X137246460Y-83340333D01*
X137246459Y-83340333D01*
X137053829Y-83320087D01*
X137053827Y-83320087D01*
X137047700Y-83319443D01*
X136960860Y-83327346D01*
X136848673Y-83337555D01*
X136848670Y-83337556D01*
X136842534Y-83338114D01*
X136644903Y-83396280D01*
X136462333Y-83491726D01*
X136457532Y-83495586D01*
X136457529Y-83495588D01*
X136306585Y-83616950D01*
X136301778Y-83620815D01*
X136169355Y-83778630D01*
X136166387Y-83784028D01*
X136166384Y-83784033D01*
X136097467Y-83909394D01*
X136070107Y-83959162D01*
X136067522Y-83967310D01*
X136030094Y-84085301D01*
X136007815Y-84155532D01*
X136007129Y-84161649D01*
X136007128Y-84161653D01*
X135989674Y-84317267D01*
X135984851Y-84360262D01*
X129600000Y-84360262D01*
X129600000Y-82995475D01*
X138567814Y-82995475D01*
X138586803Y-83212519D01*
X138588706Y-83223312D01*
X138645095Y-83433761D01*
X138648841Y-83444053D01*
X138740917Y-83641511D01*
X138746400Y-83651006D01*
X138782840Y-83703048D01*
X138793319Y-83711424D01*
X138806765Y-83704356D01*
X139508309Y-83002812D01*
X139514687Y-82991132D01*
X140244739Y-82991132D01*
X140244870Y-82992965D01*
X140249121Y-82999580D01*
X140954618Y-83705077D01*
X140966393Y-83711507D01*
X140978408Y-83702211D01*
X141014262Y-83651006D01*
X141019745Y-83641511D01*
X141111821Y-83444053D01*
X141115567Y-83433761D01*
X141171956Y-83223312D01*
X141173859Y-83212519D01*
X141192163Y-83003301D01*
X142987084Y-83003301D01*
X143007080Y-83384833D01*
X143007766Y-83391371D01*
X143067535Y-83768734D01*
X143068906Y-83775184D01*
X143167788Y-84144216D01*
X143169829Y-84150498D01*
X143306740Y-84507164D01*
X143309422Y-84513189D01*
X143482872Y-84853603D01*
X143486169Y-84859313D01*
X143694253Y-85179735D01*
X143698123Y-85185061D01*
X143891478Y-85423835D01*
X143903733Y-85432300D01*
X143914824Y-85425966D01*
X144281538Y-85059252D01*
X144343850Y-85025226D01*
X144414665Y-85030291D01*
X144475212Y-85078069D01*
X144506902Y-85125228D01*
X144623354Y-85231191D01*
X144623938Y-85231508D01*
X144666052Y-85284950D01*
X144672871Y-85355618D01*
X144638219Y-85420991D01*
X144274900Y-85784310D01*
X144267759Y-85797386D01*
X144275216Y-85807753D01*
X144514935Y-86001874D01*
X144520272Y-86005751D01*
X144840685Y-86213830D01*
X144846394Y-86217127D01*
X145186811Y-86390578D01*
X145192836Y-86393260D01*
X145549502Y-86530171D01*
X145555784Y-86532212D01*
X145924816Y-86631094D01*
X145931266Y-86632465D01*
X146308629Y-86692234D01*
X146315167Y-86692920D01*
X146696699Y-86712916D01*
X146703301Y-86712916D01*
X147084833Y-86692920D01*
X147091371Y-86692234D01*
X147468734Y-86632465D01*
X147475184Y-86631094D01*
X147844216Y-86532212D01*
X147850498Y-86530171D01*
X148207164Y-86393260D01*
X148213189Y-86390578D01*
X148553606Y-86217127D01*
X148559315Y-86213830D01*
X148879728Y-86005751D01*
X148885065Y-86001874D01*
X149123835Y-85808522D01*
X149132300Y-85796267D01*
X149125966Y-85785176D01*
X148761116Y-85420326D01*
X148727090Y-85358014D01*
X148732155Y-85287199D01*
X148768380Y-85235421D01*
X148823412Y-85188420D01*
X148873630Y-85145530D01*
X148873632Y-85145527D01*
X148879404Y-85140598D01*
X148926826Y-85074603D01*
X148982821Y-85030955D01*
X149053524Y-85024509D01*
X149118244Y-85059034D01*
X149484310Y-85425100D01*
X149497386Y-85432241D01*
X149507753Y-85424784D01*
X149701877Y-85185061D01*
X149705747Y-85179735D01*
X149913831Y-84859313D01*
X149917128Y-84853603D01*
X150090578Y-84513189D01*
X150093260Y-84507164D01*
X150230171Y-84150498D01*
X150232212Y-84144216D01*
X150331094Y-83775184D01*
X150332465Y-83768734D01*
X150392234Y-83391371D01*
X150392920Y-83384833D01*
X150412916Y-83003301D01*
X150412916Y-82996699D01*
X150392920Y-82615167D01*
X150392234Y-82608629D01*
X150332465Y-82231266D01*
X150331094Y-82224816D01*
X150232212Y-81855784D01*
X150230171Y-81849502D01*
X150093260Y-81492836D01*
X150090578Y-81486811D01*
X149917128Y-81146397D01*
X149913831Y-81140687D01*
X149705747Y-80820265D01*
X149701877Y-80814939D01*
X149508522Y-80576165D01*
X149496267Y-80567700D01*
X149485176Y-80574034D01*
X149118329Y-80940881D01*
X149056017Y-80974907D01*
X148985202Y-80969842D01*
X148925395Y-80923155D01*
X148892891Y-80875863D01*
X148892890Y-80875862D01*
X148888587Y-80869601D01*
X148771032Y-80764863D01*
X148772409Y-80763318D01*
X148734491Y-80716220D01*
X148726936Y-80645627D01*
X148761828Y-80578962D01*
X149125100Y-80215690D01*
X149132241Y-80202614D01*
X149124784Y-80192247D01*
X148885065Y-79998126D01*
X148879728Y-79994249D01*
X148559315Y-79786170D01*
X148553606Y-79782873D01*
X148213189Y-79609422D01*
X148207164Y-79606740D01*
X147850498Y-79469829D01*
X147844216Y-79467788D01*
X147475184Y-79368906D01*
X147468734Y-79367535D01*
X147091371Y-79307766D01*
X147084833Y-79307080D01*
X146703301Y-79287084D01*
X146696699Y-79287084D01*
X146315167Y-79307080D01*
X146308629Y-79307766D01*
X145931266Y-79367535D01*
X145924816Y-79368906D01*
X145555784Y-79467788D01*
X145549502Y-79469829D01*
X145192836Y-79606740D01*
X145186811Y-79609422D01*
X144846397Y-79782872D01*
X144840687Y-79786169D01*
X144520265Y-79994253D01*
X144514939Y-79998123D01*
X144276165Y-80191478D01*
X144267700Y-80203733D01*
X144274034Y-80214824D01*
X144638354Y-80579144D01*
X144672380Y-80641456D01*
X144667315Y-80712271D01*
X144632089Y-80763187D01*
X144515978Y-80864477D01*
X144511608Y-80870694D01*
X144511606Y-80870697D01*
X144473925Y-80924310D01*
X144418391Y-80968542D01*
X144347758Y-80975727D01*
X144281744Y-80940954D01*
X143915690Y-80574900D01*
X143902614Y-80567759D01*
X143892247Y-80575216D01*
X143698123Y-80814939D01*
X143694253Y-80820265D01*
X143486169Y-81140687D01*
X143482872Y-81146397D01*
X143309422Y-81486811D01*
X143306740Y-81492836D01*
X143169829Y-81849502D01*
X143167788Y-81855784D01*
X143068906Y-82224816D01*
X143067535Y-82231266D01*
X143007766Y-82608629D01*
X143007080Y-82615167D01*
X142987084Y-82996699D01*
X142987084Y-83003301D01*
X141192163Y-83003301D01*
X141192848Y-82995475D01*
X141192848Y-82984525D01*
X141173859Y-82767481D01*
X141171956Y-82756688D01*
X141115567Y-82546239D01*
X141111821Y-82535947D01*
X141019745Y-82338489D01*
X141014262Y-82328994D01*
X140977822Y-82276952D01*
X140967343Y-82268576D01*
X140953897Y-82275644D01*
X140252353Y-82977188D01*
X140244739Y-82991132D01*
X139514687Y-82991132D01*
X139515923Y-82988868D01*
X139515792Y-82987035D01*
X139511541Y-82980420D01*
X138806044Y-82274923D01*
X138794269Y-82268493D01*
X138782254Y-82277789D01*
X138746400Y-82328994D01*
X138740917Y-82338489D01*
X138648841Y-82535947D01*
X138645095Y-82546239D01*
X138588706Y-82756688D01*
X138586803Y-82767481D01*
X138567814Y-82984525D01*
X138567814Y-82995475D01*
X129600000Y-82995475D01*
X129600000Y-81590262D01*
X135984851Y-81590262D01*
X135985367Y-81596406D01*
X135998385Y-81751426D01*
X136002090Y-81795553D01*
X136003789Y-81801478D01*
X136034388Y-81908188D01*
X136058875Y-81993586D01*
X136061690Y-81999063D01*
X136061691Y-81999066D01*
X136149407Y-82169744D01*
X136153043Y-82176818D01*
X136281008Y-82338270D01*
X136285701Y-82342264D01*
X136285702Y-82342265D01*
X136417918Y-82454789D01*
X136437895Y-82471791D01*
X136617729Y-82572297D01*
X136707379Y-82601426D01*
X136807802Y-82634056D01*
X136807806Y-82634057D01*
X136813660Y-82635959D01*
X137018225Y-82660351D01*
X137024360Y-82659879D01*
X137024362Y-82659879D01*
X137080370Y-82655569D01*
X137223631Y-82644546D01*
X137229561Y-82642890D01*
X137229563Y-82642890D01*
X137416128Y-82590800D01*
X137416127Y-82590800D01*
X137422056Y-82589145D01*
X137427545Y-82586372D01*
X137427551Y-82586370D01*
X137600447Y-82499033D01*
X137605941Y-82496258D01*
X137672975Y-82443886D01*
X137728166Y-82400766D01*
X137768282Y-82369424D01*
X137785856Y-82349065D01*
X137898871Y-82218134D01*
X137898871Y-82218133D01*
X137902895Y-82213472D01*
X137923718Y-82176818D01*
X137954923Y-82121887D01*
X138004654Y-82034344D01*
X138048350Y-81902988D01*
X139158907Y-81902988D01*
X139165975Y-81916434D01*
X139867519Y-82617978D01*
X139881463Y-82625592D01*
X139883296Y-82625461D01*
X139889911Y-82621210D01*
X140595408Y-81915713D01*
X140601838Y-81903938D01*
X140592542Y-81891923D01*
X140541337Y-81856069D01*
X140531842Y-81850586D01*
X140334384Y-81758510D01*
X140324092Y-81754764D01*
X140113643Y-81698375D01*
X140102850Y-81696472D01*
X139885806Y-81677483D01*
X139874856Y-81677483D01*
X139657812Y-81696472D01*
X139647019Y-81698375D01*
X139436570Y-81754764D01*
X139426278Y-81758510D01*
X139228820Y-81850586D01*
X139219325Y-81856069D01*
X139167283Y-81892509D01*
X139158907Y-81902988D01*
X138048350Y-81902988D01*
X138069682Y-81838863D01*
X138095502Y-81634474D01*
X138095724Y-81618627D01*
X138095865Y-81608522D01*
X138095865Y-81608518D01*
X138095914Y-81605000D01*
X138075811Y-81399970D01*
X138016266Y-81202749D01*
X137919549Y-81020849D01*
X137840813Y-80924310D01*
X137793237Y-80865975D01*
X137793234Y-80865972D01*
X137789342Y-80861200D01*
X137743304Y-80823114D01*
X137635356Y-80733811D01*
X137635352Y-80733809D01*
X137630606Y-80729882D01*
X137449386Y-80631897D01*
X137252585Y-80570977D01*
X137246460Y-80570333D01*
X137246459Y-80570333D01*
X137053829Y-80550087D01*
X137053827Y-80550087D01*
X137047700Y-80549443D01*
X136968781Y-80556625D01*
X136848673Y-80567555D01*
X136848670Y-80567556D01*
X136842534Y-80568114D01*
X136644903Y-80626280D01*
X136639438Y-80629137D01*
X136606454Y-80646381D01*
X136462333Y-80721726D01*
X136457532Y-80725586D01*
X136457529Y-80725588D01*
X136339725Y-80820305D01*
X136301778Y-80850815D01*
X136169355Y-81008630D01*
X136166387Y-81014028D01*
X136166384Y-81014033D01*
X136115018Y-81107469D01*
X136070107Y-81189162D01*
X136007815Y-81385532D01*
X136007129Y-81391649D01*
X136007128Y-81391653D01*
X135991274Y-81532996D01*
X135984851Y-81590262D01*
X129600000Y-81590262D01*
X129600000Y-80205262D01*
X138824851Y-80205262D01*
X138825367Y-80211406D01*
X138839314Y-80377491D01*
X138842090Y-80410553D01*
X138843789Y-80416478D01*
X138893890Y-80591200D01*
X138898875Y-80608586D01*
X138901690Y-80614063D01*
X138901691Y-80614066D01*
X138989150Y-80784243D01*
X138993043Y-80791818D01*
X139121008Y-80953270D01*
X139125701Y-80957264D01*
X139125702Y-80957265D01*
X139244287Y-81058188D01*
X139277895Y-81086791D01*
X139457729Y-81187297D01*
X139517636Y-81206762D01*
X139647802Y-81249056D01*
X139647806Y-81249057D01*
X139653660Y-81250959D01*
X139858225Y-81275351D01*
X139864360Y-81274879D01*
X139864362Y-81274879D01*
X139920370Y-81270569D01*
X140063631Y-81259546D01*
X140069561Y-81257890D01*
X140069563Y-81257890D01*
X140217669Y-81216538D01*
X140262056Y-81204145D01*
X140267545Y-81201372D01*
X140267551Y-81201370D01*
X140440447Y-81114033D01*
X140445941Y-81111258D01*
X140608282Y-80984424D01*
X140621893Y-80968656D01*
X140738871Y-80833134D01*
X140738871Y-80833133D01*
X140742895Y-80828472D01*
X140763718Y-80791818D01*
X140813159Y-80704785D01*
X140844654Y-80649344D01*
X140909682Y-80453863D01*
X140935502Y-80249474D01*
X140935819Y-80226783D01*
X140935865Y-80223522D01*
X140935865Y-80223518D01*
X140935914Y-80220000D01*
X140915811Y-80014970D01*
X140856266Y-79817749D01*
X140759549Y-79635849D01*
X140686190Y-79545902D01*
X140633237Y-79480975D01*
X140633234Y-79480972D01*
X140629342Y-79476200D01*
X140609565Y-79459839D01*
X140475356Y-79348811D01*
X140475352Y-79348809D01*
X140470606Y-79344882D01*
X140289386Y-79246897D01*
X140092585Y-79185977D01*
X140086460Y-79185333D01*
X140086459Y-79185333D01*
X139893829Y-79165087D01*
X139893827Y-79165087D01*
X139887700Y-79164443D01*
X139806880Y-79171798D01*
X139688673Y-79182555D01*
X139688670Y-79182556D01*
X139682534Y-79183114D01*
X139484903Y-79241280D01*
X139302333Y-79336726D01*
X139297532Y-79340586D01*
X139297529Y-79340588D01*
X139167119Y-79445440D01*
X139141778Y-79465815D01*
X139009355Y-79623630D01*
X139006387Y-79629028D01*
X139006384Y-79629033D01*
X138939287Y-79751083D01*
X138910107Y-79804162D01*
X138847815Y-80000532D01*
X138847129Y-80006649D01*
X138847128Y-80006653D01*
X138826516Y-80190420D01*
X138824851Y-80205262D01*
X129600000Y-80205262D01*
X129600000Y-79921062D01*
X136318824Y-79921062D01*
X136328120Y-79933077D01*
X136379325Y-79968931D01*
X136388820Y-79974414D01*
X136586278Y-80066490D01*
X136596570Y-80070236D01*
X136807019Y-80126625D01*
X136817812Y-80128528D01*
X137034856Y-80147517D01*
X137045806Y-80147517D01*
X137262850Y-80128528D01*
X137273643Y-80126625D01*
X137484092Y-80070236D01*
X137494384Y-80066490D01*
X137691842Y-79974414D01*
X137701337Y-79968931D01*
X137753379Y-79932491D01*
X137761755Y-79922012D01*
X137754687Y-79908566D01*
X137053143Y-79207022D01*
X137039199Y-79199408D01*
X137037366Y-79199539D01*
X137030751Y-79203790D01*
X136325254Y-79909287D01*
X136318824Y-79921062D01*
X129600000Y-79921062D01*
X129600000Y-78840475D01*
X135727814Y-78840475D01*
X135746803Y-79057519D01*
X135748706Y-79068312D01*
X135805095Y-79278761D01*
X135808841Y-79289053D01*
X135900917Y-79486511D01*
X135906400Y-79496006D01*
X135942840Y-79548048D01*
X135953319Y-79556424D01*
X135966765Y-79549356D01*
X136668309Y-78847812D01*
X136674687Y-78836132D01*
X137404739Y-78836132D01*
X137404870Y-78837965D01*
X137409121Y-78844580D01*
X138114618Y-79550077D01*
X138126393Y-79556507D01*
X138138408Y-79547211D01*
X138174262Y-79496006D01*
X138179745Y-79486511D01*
X138271821Y-79289053D01*
X138275567Y-79278761D01*
X138331956Y-79068312D01*
X138333859Y-79057519D01*
X138352848Y-78840475D01*
X138352848Y-78829525D01*
X138333859Y-78612481D01*
X138331956Y-78601688D01*
X138275567Y-78391239D01*
X138271821Y-78380947D01*
X138222265Y-78274674D01*
X138829831Y-78274674D01*
X138844365Y-78347740D01*
X138851259Y-78358057D01*
X138851259Y-78358058D01*
X138863621Y-78376559D01*
X138899730Y-78430601D01*
X138910045Y-78437493D01*
X138953024Y-78466210D01*
X138982591Y-78485966D01*
X139055657Y-78500500D01*
X140705005Y-78500500D01*
X140778071Y-78485966D01*
X140807639Y-78466210D01*
X140850617Y-78437493D01*
X140860932Y-78430601D01*
X140897041Y-78376559D01*
X140909403Y-78358058D01*
X140909403Y-78358057D01*
X140916297Y-78347740D01*
X140930831Y-78274674D01*
X140930831Y-76625326D01*
X140916297Y-76552260D01*
X140906575Y-76537709D01*
X140867824Y-76479714D01*
X140860932Y-76469399D01*
X140778071Y-76414034D01*
X140705005Y-76399500D01*
X139055657Y-76399500D01*
X138982591Y-76414034D01*
X138899730Y-76469399D01*
X138892838Y-76479714D01*
X138854088Y-76537709D01*
X138844365Y-76552260D01*
X138829831Y-76625326D01*
X138829831Y-78274674D01*
X138222265Y-78274674D01*
X138179745Y-78183489D01*
X138174262Y-78173994D01*
X138137822Y-78121952D01*
X138127343Y-78113576D01*
X138113897Y-78120644D01*
X137412353Y-78822188D01*
X137404739Y-78836132D01*
X136674687Y-78836132D01*
X136675923Y-78833868D01*
X136675792Y-78832035D01*
X136671541Y-78825420D01*
X135966044Y-78119923D01*
X135954269Y-78113493D01*
X135942254Y-78122789D01*
X135906400Y-78173994D01*
X135900917Y-78183489D01*
X135808841Y-78380947D01*
X135805095Y-78391239D01*
X135748706Y-78601688D01*
X135746803Y-78612481D01*
X135727814Y-78829525D01*
X135727814Y-78840475D01*
X129600000Y-78840475D01*
X129600000Y-77747988D01*
X136318907Y-77747988D01*
X136325975Y-77761434D01*
X137027519Y-78462978D01*
X137041463Y-78470592D01*
X137043296Y-78470461D01*
X137049911Y-78466210D01*
X137755408Y-77760713D01*
X137761838Y-77748938D01*
X137752542Y-77736923D01*
X137701337Y-77701069D01*
X137691842Y-77695586D01*
X137494384Y-77603510D01*
X137484092Y-77599764D01*
X137273643Y-77543375D01*
X137262850Y-77541472D01*
X137045806Y-77522483D01*
X137034856Y-77522483D01*
X136817812Y-77541472D01*
X136807019Y-77543375D01*
X136596570Y-77599764D01*
X136586278Y-77603510D01*
X136388820Y-77695586D01*
X136379325Y-77701069D01*
X136327283Y-77737509D01*
X136318907Y-77747988D01*
X129600000Y-77747988D01*
X129600000Y-76005694D01*
X143459500Y-76005694D01*
X143459692Y-76008140D01*
X143459693Y-76008153D01*
X143461367Y-76029416D01*
X143462402Y-76042569D01*
X143464199Y-76048754D01*
X143493558Y-76149806D01*
X143508256Y-76200398D01*
X143512291Y-76207220D01*
X143512291Y-76207221D01*
X143572017Y-76308213D01*
X143591919Y-76341865D01*
X143708135Y-76458081D01*
X143714956Y-76462115D01*
X143820216Y-76524365D01*
X143849602Y-76541744D01*
X143857214Y-76543955D01*
X143857215Y-76543956D01*
X143927690Y-76564431D01*
X144007431Y-76587598D01*
X144020584Y-76588633D01*
X144041847Y-76590307D01*
X144041860Y-76590308D01*
X144044306Y-76590500D01*
X144975694Y-76590500D01*
X144978140Y-76590308D01*
X144978153Y-76590307D01*
X144999416Y-76588633D01*
X145012569Y-76587598D01*
X145092310Y-76564431D01*
X145162785Y-76543956D01*
X145162786Y-76543955D01*
X145170398Y-76541744D01*
X145199785Y-76524365D01*
X145305044Y-76462115D01*
X145311865Y-76458081D01*
X145428081Y-76341865D01*
X145447983Y-76308213D01*
X145507709Y-76207221D01*
X145507709Y-76207220D01*
X145511744Y-76200398D01*
X145526443Y-76149806D01*
X145555801Y-76048754D01*
X145557598Y-76042569D01*
X145558633Y-76029416D01*
X145560307Y-76008153D01*
X145560308Y-76008140D01*
X145560500Y-76005694D01*
X145560500Y-75525262D01*
X145994520Y-75525262D01*
X146011759Y-75730553D01*
X146068544Y-75928586D01*
X146071359Y-75934063D01*
X146071360Y-75934066D01*
X146159897Y-76106341D01*
X146162712Y-76111818D01*
X146290677Y-76273270D01*
X146447564Y-76406791D01*
X146452942Y-76409797D01*
X146452944Y-76409798D01*
X146496308Y-76434033D01*
X146627398Y-76507297D01*
X146720996Y-76537709D01*
X146817471Y-76569056D01*
X146817475Y-76569057D01*
X146823329Y-76570959D01*
X147027894Y-76595351D01*
X147034029Y-76594879D01*
X147034031Y-76594879D01*
X147093447Y-76590307D01*
X147233300Y-76579546D01*
X147239230Y-76577890D01*
X147239232Y-76577890D01*
X147425797Y-76525800D01*
X147425796Y-76525800D01*
X147431725Y-76524145D01*
X147437214Y-76521372D01*
X147437220Y-76521370D01*
X147610116Y-76434033D01*
X147615610Y-76431258D01*
X147777951Y-76304424D01*
X147793834Y-76286024D01*
X147908540Y-76153134D01*
X147908540Y-76153133D01*
X147912564Y-76148472D01*
X147933387Y-76111818D01*
X148011276Y-75974707D01*
X148014323Y-75969344D01*
X148079351Y-75773863D01*
X148105171Y-75569474D01*
X148105583Y-75540000D01*
X148104138Y-75525262D01*
X148534520Y-75525262D01*
X148551759Y-75730553D01*
X148608544Y-75928586D01*
X148611359Y-75934063D01*
X148611360Y-75934066D01*
X148699897Y-76106341D01*
X148702712Y-76111818D01*
X148830677Y-76273270D01*
X148987564Y-76406791D01*
X148992942Y-76409797D01*
X148992944Y-76409798D01*
X149036308Y-76434033D01*
X149167398Y-76507297D01*
X149260996Y-76537709D01*
X149357471Y-76569056D01*
X149357475Y-76569057D01*
X149363329Y-76570959D01*
X149567894Y-76595351D01*
X149574029Y-76594879D01*
X149574031Y-76594879D01*
X149633447Y-76590307D01*
X149773300Y-76579546D01*
X149779230Y-76577890D01*
X149779232Y-76577890D01*
X149965797Y-76525800D01*
X149965796Y-76525800D01*
X149971725Y-76524145D01*
X149977214Y-76521372D01*
X149977220Y-76521370D01*
X150150116Y-76434033D01*
X150155610Y-76431258D01*
X150317951Y-76304424D01*
X150333834Y-76286024D01*
X150448540Y-76153134D01*
X150448540Y-76153133D01*
X150452564Y-76148472D01*
X150473387Y-76111818D01*
X150551276Y-75974707D01*
X150554323Y-75969344D01*
X150619351Y-75773863D01*
X150640994Y-75602539D01*
X150664201Y-75549328D01*
X150867021Y-75549328D01*
X150890392Y-75598265D01*
X150892000Y-75618331D01*
X150892000Y-83073020D01*
X150892679Y-83099280D01*
X150893352Y-83112282D01*
X150895385Y-83138445D01*
X150898090Y-83164516D01*
X150914130Y-83319127D01*
X150914132Y-83319141D01*
X150914654Y-83324178D01*
X150914906Y-83325791D01*
X150914908Y-83325806D01*
X150920961Y-83364539D01*
X150922766Y-83376090D01*
X150928104Y-83401541D01*
X150928525Y-83403133D01*
X150928526Y-83403138D01*
X150931605Y-83414785D01*
X150941520Y-83452296D01*
X150953241Y-83488869D01*
X150994287Y-83616950D01*
X150996525Y-83623935D01*
X150997103Y-83625462D01*
X151007030Y-83651688D01*
X151015108Y-83673031D01*
X151025557Y-83696843D01*
X151049101Y-83743752D01*
X151066968Y-83775184D01*
X151139531Y-83902841D01*
X151141408Y-83906144D01*
X151154971Y-83928630D01*
X151161981Y-83939601D01*
X151176680Y-83961347D01*
X152192795Y-85383909D01*
X152819298Y-86261013D01*
X156182292Y-90969206D01*
X156196867Y-90988613D01*
X156204307Y-90998042D01*
X156219777Y-91016714D01*
X156220252Y-91017261D01*
X156220262Y-91017272D01*
X156254952Y-91057163D01*
X156266274Y-91070183D01*
X156266276Y-91070185D01*
X156333085Y-91147011D01*
X156334137Y-91148110D01*
X156354976Y-91169880D01*
X156366625Y-91182050D01*
X156384055Y-91198600D01*
X156385168Y-91199560D01*
X156385179Y-91199570D01*
X156408805Y-91219949D01*
X156420788Y-91230285D01*
X156421973Y-91231213D01*
X156421980Y-91231218D01*
X156550813Y-91332030D01*
X156550829Y-91332042D01*
X156552001Y-91332959D01*
X156553225Y-91333826D01*
X156553240Y-91333837D01*
X156580618Y-91353226D01*
X156591587Y-91360994D01*
X156592843Y-91361796D01*
X156592847Y-91361799D01*
X156605584Y-91369935D01*
X156611841Y-91373932D01*
X156633565Y-91386391D01*
X156652610Y-91397313D01*
X156652623Y-91397320D01*
X156653915Y-91398061D01*
X156655232Y-91398735D01*
X156655247Y-91398743D01*
X156800882Y-91473260D01*
X156800891Y-91473264D01*
X156802233Y-91473951D01*
X156846415Y-91493957D01*
X156861045Y-91499757D01*
X156865750Y-91501622D01*
X156868759Y-91502815D01*
X156870206Y-91503310D01*
X156913239Y-91518034D01*
X156913246Y-91518036D01*
X156914660Y-91518520D01*
X156916091Y-91518934D01*
X156916096Y-91518936D01*
X157034198Y-91553139D01*
X157074701Y-91564869D01*
X157076162Y-91565217D01*
X157076168Y-91565219D01*
X157084085Y-91567107D01*
X157121908Y-91576127D01*
X157145519Y-91580578D01*
X157146983Y-91580782D01*
X157147000Y-91580785D01*
X157168925Y-91583843D01*
X157193536Y-91587276D01*
X157307767Y-91597683D01*
X157307771Y-91597683D01*
X157347455Y-91601298D01*
X157364697Y-91602869D01*
X157364716Y-91602871D01*
X157365479Y-91602940D01*
X157378759Y-91603831D01*
X157388867Y-91604510D01*
X157388891Y-91604511D01*
X157389646Y-91604562D01*
X157390382Y-91604594D01*
X157390404Y-91604595D01*
X157399525Y-91604989D01*
X157401663Y-91605081D01*
X157425956Y-91605548D01*
X161015679Y-91588775D01*
X161123232Y-91588272D01*
X161191446Y-91607956D01*
X161238189Y-91661394D01*
X161248621Y-91731620D01*
X161219430Y-91796338D01*
X161213673Y-91802550D01*
X161207379Y-91807379D01*
X161119139Y-91922375D01*
X161063670Y-92056291D01*
X161044750Y-92200000D01*
X161063670Y-92343709D01*
X161119139Y-92477625D01*
X161207379Y-92592621D01*
X161322375Y-92680861D01*
X161456291Y-92736330D01*
X161600000Y-92755250D01*
X161743709Y-92736330D01*
X161877625Y-92680861D01*
X161992621Y-92592621D01*
X162080861Y-92477625D01*
X162136330Y-92343709D01*
X162155250Y-92200000D01*
X162136330Y-92056291D01*
X162080861Y-91922375D01*
X161992621Y-91807379D01*
X161986071Y-91802353D01*
X161982655Y-91798937D01*
X161948629Y-91736625D01*
X161953694Y-91665810D01*
X161996241Y-91608974D01*
X162062761Y-91584163D01*
X162071161Y-91583843D01*
X165580334Y-91567446D01*
X165580342Y-91567446D01*
X165583455Y-91567431D01*
X165586560Y-91567107D01*
X165586562Y-91567107D01*
X165615367Y-91564102D01*
X165683610Y-91556983D01*
X165687303Y-91556222D01*
X165729217Y-91547585D01*
X165729220Y-91547584D01*
X165732288Y-91546952D01*
X165782177Y-91531384D01*
X165821113Y-91519234D01*
X165821115Y-91519233D01*
X165828396Y-91516961D01*
X165834921Y-91513009D01*
X165834924Y-91513008D01*
X165948226Y-91444390D01*
X165952075Y-91442059D01*
X165974930Y-91423298D01*
X166003471Y-91399870D01*
X166003474Y-91399867D01*
X166006951Y-91397013D01*
X166009984Y-91393696D01*
X166009989Y-91393691D01*
X166098436Y-91296953D01*
X166104518Y-91290301D01*
X166168069Y-91160424D01*
X166189880Y-91092861D01*
X166195988Y-91057163D01*
X166227192Y-90993391D01*
X166287920Y-90956613D01*
X166336626Y-90953490D01*
X166341807Y-90954172D01*
X166341812Y-90954172D01*
X166350000Y-90955250D01*
X166365744Y-90953177D01*
X166435892Y-90964115D01*
X166488991Y-91011243D01*
X166505018Y-91050334D01*
X166505526Y-91053754D01*
X166510434Y-91070185D01*
X166544156Y-91183079D01*
X166546909Y-91192296D01*
X166551815Y-91199853D01*
X166551816Y-91199854D01*
X166571574Y-91230285D01*
X166625649Y-91313569D01*
X166672392Y-91367007D01*
X166675802Y-91369934D01*
X166675803Y-91369935D01*
X166757356Y-91439936D01*
X166782108Y-91461182D01*
X166913912Y-91520633D01*
X166918224Y-91521877D01*
X166918226Y-91521878D01*
X166977807Y-91539071D01*
X166977811Y-91539072D01*
X166982126Y-91540317D01*
X167062578Y-91551501D01*
X167120894Y-91559608D01*
X167120899Y-91559608D01*
X167125342Y-91560226D01*
X167982229Y-91556222D01*
X168642091Y-91553139D01*
X168679412Y-91551592D01*
X168687233Y-91550979D01*
X168696744Y-91550234D01*
X168696768Y-91550232D01*
X168697861Y-91550146D01*
X168734924Y-91545867D01*
X168740339Y-91544225D01*
X168740342Y-91544224D01*
X168868984Y-91505207D01*
X168868989Y-91505205D01*
X168873292Y-91503900D01*
X168937608Y-91473835D01*
X168941374Y-91471367D01*
X168941378Y-91471365D01*
X168990456Y-91439205D01*
X169058548Y-91394586D01*
X169124619Y-91316954D01*
X169149344Y-91287903D01*
X169149346Y-91287900D01*
X169152262Y-91284474D01*
X169154657Y-91280673D01*
X169154661Y-91280668D01*
X169187717Y-91228213D01*
X169187718Y-91228211D01*
X169190114Y-91224409D01*
X169201192Y-91199570D01*
X169243159Y-91105471D01*
X169289173Y-91051404D01*
X169357113Y-91030797D01*
X169425409Y-91050193D01*
X169472377Y-91103433D01*
X169478962Y-91120729D01*
X169496223Y-91178515D01*
X169501129Y-91186072D01*
X169501130Y-91186073D01*
X169510078Y-91199854D01*
X169574963Y-91299788D01*
X169621706Y-91353226D01*
X169625116Y-91356153D01*
X169625117Y-91356154D01*
X169721873Y-91439205D01*
X169731422Y-91447401D01*
X169863226Y-91506852D01*
X169867538Y-91508096D01*
X169867540Y-91508097D01*
X169927121Y-91525290D01*
X169927125Y-91525291D01*
X169931440Y-91526536D01*
X170012719Y-91537835D01*
X170070208Y-91545827D01*
X170070213Y-91545827D01*
X170074656Y-91546445D01*
X170267556Y-91545544D01*
X172122327Y-91536877D01*
X172610039Y-91534599D01*
X172610073Y-91534598D01*
X172610801Y-91534595D01*
X172622763Y-91534249D01*
X172634666Y-91533904D01*
X172634686Y-91533903D01*
X172635486Y-91533880D01*
X172642901Y-91533484D01*
X172646870Y-91533273D01*
X172646888Y-91533272D01*
X172647672Y-91533230D01*
X172672190Y-91531326D01*
X172672925Y-91531251D01*
X172672936Y-91531250D01*
X172697722Y-91528720D01*
X172792880Y-91519009D01*
X172792883Y-91519009D01*
X172807840Y-91517482D01*
X172845150Y-91513675D01*
X172845169Y-91513673D01*
X172846674Y-91513519D01*
X172859794Y-91511533D01*
X172893889Y-91506372D01*
X172893896Y-91506371D01*
X172895394Y-91506144D01*
X172896873Y-91505846D01*
X172896885Y-91505844D01*
X172904828Y-91504244D01*
X172919326Y-91501324D01*
X172967098Y-91489265D01*
X173128987Y-91439936D01*
X173130428Y-91439419D01*
X173130447Y-91439413D01*
X173173915Y-91423826D01*
X173173921Y-91423824D01*
X173175387Y-91423298D01*
X173197941Y-91413952D01*
X173199303Y-91413309D01*
X173199311Y-91413305D01*
X173241096Y-91393564D01*
X173241097Y-91393563D01*
X173242476Y-91392912D01*
X173391804Y-91313293D01*
X173393112Y-91312512D01*
X173432792Y-91288817D01*
X173432802Y-91288811D01*
X173434101Y-91288035D01*
X173439456Y-91284474D01*
X173453142Y-91275373D01*
X173453155Y-91275364D01*
X173454430Y-91274516D01*
X173494093Y-91245268D01*
X173625272Y-91138339D01*
X173661910Y-91105391D01*
X173670240Y-91097135D01*
X173678160Y-91089286D01*
X173678173Y-91089272D01*
X173679246Y-91088209D01*
X173707671Y-91057163D01*
X173711482Y-91053000D01*
X173711484Y-91052998D01*
X173712522Y-91051864D01*
X173820619Y-90921640D01*
X173850214Y-90882246D01*
X173863909Y-90862046D01*
X173889549Y-90819969D01*
X173962393Y-90686234D01*
X173969779Y-90672674D01*
X173969783Y-90672666D01*
X173970501Y-90671348D01*
X173991942Y-90626988D01*
X173992522Y-90625624D01*
X173992526Y-90625614D01*
X173999914Y-90608222D01*
X174001485Y-90604525D01*
X174018531Y-90558288D01*
X174069302Y-90396842D01*
X174081783Y-90349195D01*
X174086816Y-90325311D01*
X174094626Y-90276661D01*
X174095169Y-90271774D01*
X174095171Y-90271752D01*
X174095738Y-90266655D01*
X174113907Y-90103062D01*
X174113908Y-90103056D01*
X174113989Y-90102323D01*
X174114738Y-90093679D01*
X174116048Y-90078542D01*
X174116048Y-90078538D01*
X174116116Y-90077756D01*
X174116874Y-90065559D01*
X174117805Y-90040951D01*
X174118031Y-90024366D01*
X174148745Y-87764075D01*
X180906363Y-87764075D01*
X180962310Y-87916136D01*
X180967877Y-87927549D01*
X181063708Y-88082108D01*
X181071460Y-88092174D01*
X181196408Y-88224303D01*
X181206026Y-88232605D01*
X181354987Y-88336908D01*
X181366081Y-88343108D01*
X181532980Y-88415332D01*
X181545083Y-88419171D01*
X181724600Y-88456675D01*
X181734152Y-88457915D01*
X181737384Y-88458000D01*
X182307885Y-88458000D01*
X182323124Y-88453525D01*
X182324329Y-88452135D01*
X182326000Y-88444452D01*
X182326000Y-88439885D01*
X182834000Y-88439885D01*
X182838475Y-88455124D01*
X182839865Y-88456329D01*
X182847548Y-88458000D01*
X183375447Y-88458000D01*
X183381822Y-88457677D01*
X183517277Y-88443918D01*
X183529717Y-88441364D01*
X183703244Y-88386984D01*
X183714932Y-88381975D01*
X183873979Y-88293813D01*
X183884412Y-88286562D01*
X184022491Y-88168215D01*
X184031244Y-88159024D01*
X184142711Y-88015320D01*
X184149435Y-88004560D01*
X184229732Y-87841375D01*
X184234155Y-87829481D01*
X184249251Y-87771530D01*
X184249021Y-87764075D01*
X184636363Y-87764075D01*
X184692310Y-87916136D01*
X184697877Y-87927549D01*
X184793708Y-88082108D01*
X184801460Y-88092174D01*
X184926408Y-88224303D01*
X184936026Y-88232605D01*
X185084987Y-88336908D01*
X185096081Y-88343108D01*
X185262980Y-88415332D01*
X185275083Y-88419171D01*
X185454600Y-88456675D01*
X185464152Y-88457915D01*
X185467384Y-88458000D01*
X185687885Y-88458000D01*
X185703124Y-88453525D01*
X185704329Y-88452135D01*
X185706000Y-88444452D01*
X185706000Y-88439885D01*
X186214000Y-88439885D01*
X186218475Y-88455124D01*
X186219865Y-88456329D01*
X186227548Y-88458000D01*
X186405447Y-88458000D01*
X186411822Y-88457677D01*
X186547277Y-88443918D01*
X186559717Y-88441364D01*
X186733244Y-88386984D01*
X186744932Y-88381975D01*
X186903979Y-88293813D01*
X186914412Y-88286562D01*
X187052491Y-88168215D01*
X187061244Y-88159024D01*
X187172711Y-88015320D01*
X187179435Y-88004560D01*
X187259732Y-87841375D01*
X187264155Y-87829481D01*
X187279251Y-87771530D01*
X187278817Y-87757436D01*
X187270636Y-87754000D01*
X186232115Y-87754000D01*
X186216876Y-87758475D01*
X186215671Y-87759865D01*
X186214000Y-87767548D01*
X186214000Y-88439885D01*
X185706000Y-88439885D01*
X185706000Y-87772115D01*
X185701525Y-87756876D01*
X185700135Y-87755671D01*
X185692452Y-87754000D01*
X184650771Y-87754000D01*
X184637240Y-87757973D01*
X184636363Y-87764075D01*
X184249021Y-87764075D01*
X184248817Y-87757436D01*
X184240636Y-87754000D01*
X182852115Y-87754000D01*
X182836876Y-87758475D01*
X182835671Y-87759865D01*
X182834000Y-87767548D01*
X182834000Y-88439885D01*
X182326000Y-88439885D01*
X182326000Y-87772115D01*
X182321525Y-87756876D01*
X182320135Y-87755671D01*
X182312452Y-87754000D01*
X180920771Y-87754000D01*
X180907240Y-87757973D01*
X180906363Y-87764075D01*
X174148745Y-87764075D01*
X174170589Y-86156565D01*
X180737964Y-86156565D01*
X180755437Y-86322807D01*
X180758167Y-86335650D01*
X180809819Y-86494617D01*
X180815165Y-86506625D01*
X180831363Y-86534680D01*
X180841569Y-86544411D01*
X180849590Y-86541200D01*
X181227978Y-86162812D01*
X181235592Y-86148868D01*
X181235461Y-86147035D01*
X181231210Y-86140420D01*
X181015422Y-85924632D01*
X181002983Y-85901852D01*
X180990159Y-85897242D01*
X180975368Y-85884578D01*
X180853233Y-85762443D01*
X180840853Y-85755683D01*
X180833938Y-85760859D01*
X180815165Y-85793375D01*
X180809819Y-85805383D01*
X180758167Y-85964350D01*
X180755437Y-85977193D01*
X180737964Y-86143435D01*
X180737964Y-86156565D01*
X174170589Y-86156565D01*
X174173290Y-85957776D01*
X174202433Y-83813141D01*
X174202801Y-83786073D01*
X174204453Y-83664456D01*
X174225378Y-83596614D01*
X174241346Y-83577074D01*
X174473515Y-83344905D01*
X174535827Y-83310879D01*
X174562610Y-83308000D01*
X178406126Y-83308000D01*
X178430852Y-83307398D01*
X178443103Y-83306801D01*
X178460139Y-83305555D01*
X178466970Y-83305055D01*
X178466979Y-83305054D01*
X178467775Y-83304996D01*
X178521960Y-83299702D01*
X178521968Y-83299701D01*
X178642999Y-83287874D01*
X178644517Y-83287651D01*
X178644530Y-83287649D01*
X178690401Y-83280898D01*
X178690405Y-83280897D01*
X178691936Y-83280672D01*
X178693451Y-83280373D01*
X178693463Y-83280371D01*
X178714478Y-83276224D01*
X178714479Y-83276224D01*
X178715978Y-83275928D01*
X178763973Y-83264004D01*
X178926646Y-83215069D01*
X178973266Y-83198530D01*
X178974652Y-83197961D01*
X178974670Y-83197954D01*
X178987926Y-83192510D01*
X178995937Y-83189221D01*
X178997324Y-83188571D01*
X178997335Y-83188566D01*
X179039330Y-83168881D01*
X179039342Y-83168875D01*
X179040718Y-83168230D01*
X179190846Y-83088728D01*
X179233372Y-83063485D01*
X179234666Y-83062629D01*
X179234682Y-83062619D01*
X179252502Y-83050831D01*
X179252505Y-83050829D01*
X179253811Y-83049965D01*
X179293692Y-83020696D01*
X179307071Y-83009837D01*
X179424378Y-82914621D01*
X179424381Y-82914619D01*
X179425584Y-82913642D01*
X179426740Y-82912607D01*
X179426751Y-82912597D01*
X179461274Y-82881668D01*
X179462423Y-82880639D01*
X179479859Y-82863417D01*
X179513309Y-82826995D01*
X179523605Y-82814626D01*
X179523612Y-82814617D01*
X179602526Y-82719810D01*
X179602528Y-82719809D01*
X179616397Y-82703147D01*
X179620995Y-82697623D01*
X179621001Y-82697615D01*
X179621996Y-82696420D01*
X179651749Y-82656910D01*
X179665521Y-82636639D01*
X179666302Y-82635360D01*
X179666314Y-82635341D01*
X179690499Y-82595720D01*
X179691294Y-82594418D01*
X179706998Y-82565628D01*
X179772639Y-82445291D01*
X179794183Y-82400766D01*
X179803769Y-82378216D01*
X179814518Y-82349065D01*
X179820345Y-82333264D01*
X179820351Y-82333245D01*
X179820881Y-82331809D01*
X179868082Y-82181646D01*
X179871360Y-82171218D01*
X179871363Y-82171206D01*
X179871823Y-82169744D01*
X179884341Y-82121887D01*
X179889380Y-82097909D01*
X179897182Y-82049084D01*
X179898807Y-82034344D01*
X179898908Y-82033423D01*
X179898909Y-82033411D01*
X179913280Y-81902988D01*
X179916465Y-81874081D01*
X179918007Y-81856069D01*
X179918515Y-81850137D01*
X179918517Y-81850107D01*
X179918576Y-81849420D01*
X179919324Y-81837176D01*
X179920230Y-81812470D01*
X179920450Y-81794695D01*
X179925746Y-81365679D01*
X179930240Y-81001655D01*
X179940056Y-80206565D01*
X180737964Y-80206565D01*
X180755437Y-80372807D01*
X180758167Y-80385650D01*
X180809819Y-80544617D01*
X180815165Y-80556625D01*
X180831363Y-80584680D01*
X180841569Y-80594411D01*
X180849590Y-80591200D01*
X180975368Y-80465422D01*
X180998148Y-80452983D01*
X181002758Y-80440159D01*
X181015422Y-80425368D01*
X181227978Y-80212812D01*
X181235592Y-80198868D01*
X181235461Y-80197035D01*
X181231210Y-80190420D01*
X180853233Y-79812443D01*
X180840853Y-79805683D01*
X180833938Y-79810859D01*
X180815165Y-79843375D01*
X180809819Y-79855383D01*
X180758167Y-80014350D01*
X180755437Y-80027193D01*
X180737964Y-80193435D01*
X180737964Y-80206565D01*
X179940056Y-80206565D01*
X179946564Y-79679428D01*
X179946374Y-79657911D01*
X179946054Y-79647253D01*
X179944954Y-79625778D01*
X179936751Y-79588242D01*
X179915048Y-79488925D01*
X179915047Y-79488920D01*
X179914085Y-79484520D01*
X179889211Y-79418023D01*
X179819793Y-79291180D01*
X179717453Y-79189036D01*
X179660577Y-79146544D01*
X179656620Y-79144388D01*
X179600980Y-79114075D01*
X180906363Y-79114075D01*
X180962310Y-79266136D01*
X180967877Y-79277549D01*
X181063708Y-79432109D01*
X181068491Y-79438319D01*
X181080708Y-79445440D01*
X181095053Y-79444816D01*
X181140828Y-79432065D01*
X181208664Y-79453014D01*
X181228168Y-79468958D01*
X181870115Y-80110905D01*
X181904141Y-80173217D01*
X181899076Y-80244032D01*
X181870115Y-80289095D01*
X181745463Y-80413747D01*
X181683151Y-80447773D01*
X181639923Y-80449574D01*
X181600000Y-80444318D01*
X181534182Y-80452983D01*
X181465137Y-80462073D01*
X181443238Y-80464956D01*
X181297159Y-80525464D01*
X181238660Y-80570352D01*
X181181221Y-80614426D01*
X181173390Y-80617453D01*
X181164426Y-80631221D01*
X181152795Y-80646379D01*
X181075464Y-80747159D01*
X181014956Y-80893238D01*
X180994318Y-81050000D01*
X180995396Y-81058188D01*
X181011998Y-81184290D01*
X181014956Y-81206762D01*
X181075464Y-81352841D01*
X181100549Y-81385532D01*
X181110343Y-81398296D01*
X181135944Y-81464516D01*
X181121679Y-81534065D01*
X181110344Y-81551703D01*
X181075464Y-81597159D01*
X181014956Y-81743238D01*
X180994318Y-81900000D01*
X181014956Y-82056762D01*
X181075464Y-82202841D01*
X181110343Y-82248296D01*
X181135944Y-82314516D01*
X181121679Y-82384065D01*
X181110344Y-82401703D01*
X181075464Y-82447159D01*
X181014956Y-82593238D01*
X180994318Y-82750000D01*
X181014956Y-82906762D01*
X181075464Y-83052841D01*
X181092627Y-83075208D01*
X181110343Y-83098296D01*
X181135944Y-83164516D01*
X181121679Y-83234065D01*
X181110344Y-83251703D01*
X181075464Y-83297159D01*
X181032080Y-83401897D01*
X181018882Y-83433761D01*
X181014956Y-83443238D01*
X180994318Y-83600000D01*
X181014956Y-83756762D01*
X181075464Y-83902841D01*
X181094730Y-83927949D01*
X181110343Y-83948296D01*
X181135944Y-84014516D01*
X181121679Y-84084065D01*
X181110344Y-84101703D01*
X181075464Y-84147159D01*
X181014956Y-84293238D01*
X180994318Y-84450000D01*
X181014956Y-84606762D01*
X181075464Y-84752841D01*
X181109791Y-84797577D01*
X181110343Y-84798296D01*
X181135944Y-84864516D01*
X181121679Y-84934065D01*
X181110344Y-84951703D01*
X181075464Y-84997159D01*
X181014956Y-85143238D01*
X181013878Y-85151426D01*
X181005714Y-85213439D01*
X180994318Y-85300000D01*
X180999491Y-85339290D01*
X181013876Y-85448555D01*
X181014956Y-85456762D01*
X181075464Y-85602841D01*
X181080491Y-85609392D01*
X181164426Y-85718779D01*
X181167453Y-85726610D01*
X181181221Y-85735574D01*
X181193847Y-85745262D01*
X181297159Y-85824536D01*
X181443238Y-85885044D01*
X181600000Y-85905682D01*
X181639922Y-85900426D01*
X181710070Y-85911365D01*
X181745463Y-85936253D01*
X181870115Y-86060905D01*
X181904141Y-86123217D01*
X181899076Y-86194032D01*
X181870115Y-86239095D01*
X181226037Y-86883173D01*
X181163725Y-86917199D01*
X181092910Y-86912134D01*
X181082200Y-86907243D01*
X181070923Y-86915535D01*
X181017289Y-86984680D01*
X181010565Y-86995440D01*
X180930268Y-87158625D01*
X180925845Y-87170519D01*
X180910749Y-87228470D01*
X180911183Y-87242564D01*
X180919364Y-87246000D01*
X182307885Y-87246000D01*
X182323124Y-87241525D01*
X182324329Y-87240135D01*
X182326000Y-87232452D01*
X182326000Y-86628000D01*
X182346002Y-86559879D01*
X182399658Y-86513386D01*
X182452000Y-86502000D01*
X182708000Y-86502000D01*
X182776121Y-86522002D01*
X182822614Y-86575658D01*
X182834000Y-86628000D01*
X182834000Y-87227885D01*
X182838475Y-87243124D01*
X182839865Y-87244329D01*
X182847548Y-87246000D01*
X184239229Y-87246000D01*
X184252760Y-87242027D01*
X184253637Y-87235925D01*
X184250894Y-87228470D01*
X184640749Y-87228470D01*
X184641183Y-87242564D01*
X184649364Y-87246000D01*
X185687885Y-87246000D01*
X185703124Y-87241525D01*
X185704329Y-87240135D01*
X185706000Y-87232452D01*
X185706000Y-87227885D01*
X186214000Y-87227885D01*
X186218475Y-87243124D01*
X186219865Y-87244329D01*
X186227548Y-87246000D01*
X187269229Y-87246000D01*
X187282760Y-87242027D01*
X187283637Y-87235925D01*
X187227690Y-87083864D01*
X187222123Y-87072451D01*
X187126292Y-86917892D01*
X187118540Y-86907826D01*
X186993592Y-86775697D01*
X186983974Y-86767395D01*
X186835013Y-86663092D01*
X186823919Y-86656892D01*
X186657020Y-86584668D01*
X186644917Y-86580829D01*
X186465400Y-86543325D01*
X186455848Y-86542085D01*
X186452616Y-86542000D01*
X186232115Y-86542000D01*
X186216876Y-86546475D01*
X186215671Y-86547865D01*
X186214000Y-86555548D01*
X186214000Y-87227885D01*
X185706000Y-87227885D01*
X185706000Y-86560115D01*
X185701525Y-86544876D01*
X185700135Y-86543671D01*
X185692452Y-86542000D01*
X185514553Y-86542000D01*
X185508178Y-86542323D01*
X185372723Y-86556082D01*
X185360283Y-86558636D01*
X185186756Y-86613016D01*
X185175068Y-86618025D01*
X185016021Y-86706187D01*
X185005588Y-86713438D01*
X184867509Y-86831785D01*
X184858756Y-86840976D01*
X184747289Y-86984680D01*
X184740565Y-86995440D01*
X184660268Y-87158625D01*
X184655845Y-87170519D01*
X184640749Y-87228470D01*
X184250894Y-87228470D01*
X184197690Y-87083864D01*
X184192123Y-87072451D01*
X184096292Y-86917892D01*
X184088540Y-86907826D01*
X183963592Y-86775697D01*
X183953974Y-86767395D01*
X183805017Y-86663095D01*
X183793470Y-86656642D01*
X183743763Y-86605949D01*
X183729353Y-86536431D01*
X183738406Y-86500989D01*
X183738139Y-86500902D01*
X183739489Y-86496748D01*
X183739833Y-86495400D01*
X183740180Y-86494621D01*
X183791833Y-86335650D01*
X183794563Y-86322807D01*
X183812036Y-86156565D01*
X183812036Y-86143435D01*
X183794563Y-85977193D01*
X183791833Y-85964350D01*
X183740181Y-85805383D01*
X183734835Y-85793375D01*
X183718637Y-85765320D01*
X183708431Y-85755589D01*
X183700410Y-85758800D01*
X183574632Y-85884578D01*
X183551852Y-85897017D01*
X183547242Y-85909841D01*
X183534578Y-85924632D01*
X183039095Y-86420115D01*
X182976783Y-86454141D01*
X182905968Y-86449076D01*
X182860905Y-86420115D01*
X182679885Y-86239095D01*
X182645859Y-86176783D01*
X182650924Y-86105968D01*
X182679885Y-86060905D01*
X182804537Y-85936253D01*
X182866849Y-85902227D01*
X182910077Y-85900426D01*
X182950000Y-85905682D01*
X182958188Y-85904604D01*
X183014109Y-85897242D01*
X183106762Y-85885044D01*
X183252841Y-85824536D01*
X183356153Y-85745262D01*
X183368779Y-85735574D01*
X183376610Y-85732547D01*
X183385574Y-85718779D01*
X183469509Y-85609392D01*
X183474536Y-85602841D01*
X183535044Y-85456762D01*
X183536125Y-85448555D01*
X183550509Y-85339290D01*
X183555682Y-85300000D01*
X183544286Y-85213439D01*
X183536122Y-85151426D01*
X183535044Y-85143238D01*
X183474536Y-84997159D01*
X183439657Y-84951704D01*
X183414056Y-84885484D01*
X183428321Y-84815935D01*
X183439657Y-84798296D01*
X183440209Y-84797577D01*
X183474536Y-84752841D01*
X183535044Y-84606762D01*
X183555682Y-84450000D01*
X183535044Y-84293238D01*
X183474536Y-84147159D01*
X183439657Y-84101704D01*
X183414056Y-84035484D01*
X183428321Y-83965935D01*
X183439657Y-83948296D01*
X183455270Y-83927949D01*
X183474536Y-83902841D01*
X183535044Y-83756762D01*
X183555682Y-83600000D01*
X183535044Y-83443238D01*
X183531119Y-83433761D01*
X183517920Y-83401897D01*
X183474536Y-83297159D01*
X183439657Y-83251704D01*
X183414056Y-83185484D01*
X183428321Y-83115935D01*
X183439657Y-83098296D01*
X183457373Y-83075208D01*
X183474536Y-83052841D01*
X183535044Y-82906762D01*
X183555682Y-82750000D01*
X183535044Y-82593238D01*
X183474536Y-82447159D01*
X183439657Y-82401704D01*
X183414056Y-82335484D01*
X183428321Y-82265935D01*
X183439657Y-82248296D01*
X183474536Y-82202841D01*
X183535044Y-82056762D01*
X183555682Y-81900000D01*
X183535044Y-81743238D01*
X183474536Y-81597159D01*
X183439657Y-81551704D01*
X183414056Y-81485484D01*
X183428321Y-81415935D01*
X183439657Y-81398296D01*
X183449451Y-81385532D01*
X183474536Y-81352841D01*
X183535044Y-81206762D01*
X183538003Y-81184290D01*
X183554604Y-81058188D01*
X183555682Y-81050000D01*
X183535044Y-80893238D01*
X183474536Y-80747159D01*
X183397205Y-80646379D01*
X183385574Y-80631221D01*
X183382547Y-80623390D01*
X183368779Y-80614426D01*
X183311340Y-80570352D01*
X183252841Y-80525464D01*
X183106762Y-80464956D01*
X183084864Y-80462073D01*
X183015818Y-80452983D01*
X182950000Y-80444318D01*
X182910078Y-80449574D01*
X182839930Y-80438635D01*
X182804537Y-80413747D01*
X182679885Y-80289095D01*
X182645859Y-80226783D01*
X182650924Y-80155968D01*
X182679885Y-80110905D01*
X182860905Y-79929885D01*
X182923217Y-79895859D01*
X182994032Y-79900924D01*
X183039095Y-79929885D01*
X183534578Y-80425368D01*
X183547017Y-80448148D01*
X183559841Y-80452758D01*
X183574632Y-80465422D01*
X183696767Y-80587557D01*
X183709147Y-80594317D01*
X183716062Y-80589141D01*
X183734835Y-80556625D01*
X183740181Y-80544617D01*
X183791833Y-80385650D01*
X183794563Y-80372807D01*
X183812036Y-80206565D01*
X183812036Y-80193435D01*
X183794563Y-80027193D01*
X183791833Y-80014350D01*
X183740181Y-79855383D01*
X183738076Y-79850655D01*
X183728641Y-79780288D01*
X183758746Y-79715990D01*
X183792096Y-79689202D01*
X183873979Y-79643813D01*
X183884412Y-79636562D01*
X184022491Y-79518215D01*
X184031244Y-79509024D01*
X184142711Y-79365320D01*
X184149435Y-79354560D01*
X184229732Y-79191375D01*
X184234155Y-79179481D01*
X184249251Y-79121530D01*
X184249021Y-79114075D01*
X184636363Y-79114075D01*
X184692310Y-79266136D01*
X184697877Y-79277549D01*
X184793708Y-79432108D01*
X184801460Y-79442174D01*
X184926408Y-79574303D01*
X184936026Y-79582605D01*
X185084987Y-79686908D01*
X185096081Y-79693108D01*
X185262980Y-79765332D01*
X185275083Y-79769171D01*
X185454600Y-79806675D01*
X185464152Y-79807915D01*
X185467384Y-79808000D01*
X185687885Y-79808000D01*
X185703124Y-79803525D01*
X185704329Y-79802135D01*
X185706000Y-79794452D01*
X185706000Y-79789885D01*
X186214000Y-79789885D01*
X186218475Y-79805124D01*
X186219865Y-79806329D01*
X186227548Y-79808000D01*
X186405447Y-79808000D01*
X186411822Y-79807677D01*
X186547277Y-79793918D01*
X186559717Y-79791364D01*
X186733244Y-79736984D01*
X186744932Y-79731975D01*
X186903979Y-79643813D01*
X186914412Y-79636562D01*
X187052491Y-79518215D01*
X187061244Y-79509024D01*
X187172711Y-79365320D01*
X187179435Y-79354560D01*
X187259732Y-79191375D01*
X187264155Y-79179481D01*
X187279251Y-79121530D01*
X187278817Y-79107436D01*
X187270636Y-79104000D01*
X186232115Y-79104000D01*
X186216876Y-79108475D01*
X186215671Y-79109865D01*
X186214000Y-79117548D01*
X186214000Y-79789885D01*
X185706000Y-79789885D01*
X185706000Y-79122115D01*
X185701525Y-79106876D01*
X185700135Y-79105671D01*
X185692452Y-79104000D01*
X184650771Y-79104000D01*
X184637240Y-79107973D01*
X184636363Y-79114075D01*
X184249021Y-79114075D01*
X184248817Y-79107436D01*
X184240636Y-79104000D01*
X182852115Y-79104000D01*
X182836876Y-79108475D01*
X182835671Y-79109865D01*
X182834000Y-79117548D01*
X182834000Y-79722000D01*
X182813998Y-79790121D01*
X182760342Y-79836614D01*
X182708000Y-79848000D01*
X182452000Y-79848000D01*
X182383879Y-79827998D01*
X182337386Y-79774342D01*
X182326000Y-79722000D01*
X182326000Y-79122115D01*
X182321525Y-79106876D01*
X182320135Y-79105671D01*
X182312452Y-79104000D01*
X180920771Y-79104000D01*
X180907240Y-79107973D01*
X180906363Y-79114075D01*
X179600980Y-79114075D01*
X179537564Y-79079526D01*
X179537560Y-79079524D01*
X179533606Y-79077370D01*
X179526885Y-79074870D01*
X179501816Y-79062207D01*
X179494652Y-79057519D01*
X179469046Y-79040763D01*
X179447404Y-79022858D01*
X179444796Y-79020158D01*
X179444790Y-79020152D01*
X179444791Y-79020151D01*
X179420204Y-78994691D01*
X179403065Y-78972436D01*
X179382781Y-78938943D01*
X179370999Y-78913445D01*
X179359088Y-78877640D01*
X179358640Y-78876292D01*
X179352800Y-78848818D01*
X179348978Y-78809835D01*
X179349370Y-78781757D01*
X179354279Y-78742902D01*
X179360883Y-78715606D01*
X179374278Y-78678806D01*
X179386766Y-78653649D01*
X179405638Y-78624365D01*
X179407979Y-78620734D01*
X179425731Y-78598967D01*
X179446662Y-78578470D01*
X180910749Y-78578470D01*
X180911183Y-78592564D01*
X180919364Y-78596000D01*
X182307885Y-78596000D01*
X182323124Y-78591525D01*
X182324329Y-78590135D01*
X182326000Y-78582452D01*
X182326000Y-78577885D01*
X182834000Y-78577885D01*
X182838475Y-78593124D01*
X182839865Y-78594329D01*
X182847548Y-78596000D01*
X184239229Y-78596000D01*
X184252760Y-78592027D01*
X184253637Y-78585925D01*
X184250894Y-78578470D01*
X184640749Y-78578470D01*
X184641183Y-78592564D01*
X184649364Y-78596000D01*
X185687885Y-78596000D01*
X185703124Y-78591525D01*
X185704329Y-78590135D01*
X185706000Y-78582452D01*
X185706000Y-78577885D01*
X186214000Y-78577885D01*
X186218475Y-78593124D01*
X186219865Y-78594329D01*
X186227548Y-78596000D01*
X187269229Y-78596000D01*
X187282760Y-78592027D01*
X187283637Y-78585925D01*
X187227690Y-78433864D01*
X187222123Y-78422451D01*
X187126292Y-78267892D01*
X187118540Y-78257826D01*
X186993592Y-78125697D01*
X186983974Y-78117395D01*
X186835013Y-78013092D01*
X186823919Y-78006892D01*
X186657020Y-77934668D01*
X186644917Y-77930829D01*
X186465400Y-77893325D01*
X186455848Y-77892085D01*
X186452616Y-77892000D01*
X186232115Y-77892000D01*
X186216876Y-77896475D01*
X186215671Y-77897865D01*
X186214000Y-77905548D01*
X186214000Y-78577885D01*
X185706000Y-78577885D01*
X185706000Y-77910115D01*
X185701525Y-77894876D01*
X185700135Y-77893671D01*
X185692452Y-77892000D01*
X185514553Y-77892000D01*
X185508178Y-77892323D01*
X185372723Y-77906082D01*
X185360283Y-77908636D01*
X185186756Y-77963016D01*
X185175068Y-77968025D01*
X185016021Y-78056187D01*
X185005588Y-78063438D01*
X184867509Y-78181785D01*
X184858756Y-78190976D01*
X184747289Y-78334680D01*
X184740565Y-78345440D01*
X184660268Y-78508625D01*
X184655845Y-78520519D01*
X184640749Y-78578470D01*
X184250894Y-78578470D01*
X184197690Y-78433864D01*
X184192123Y-78422451D01*
X184096292Y-78267892D01*
X184088540Y-78257826D01*
X183963592Y-78125697D01*
X183953974Y-78117395D01*
X183805013Y-78013092D01*
X183793919Y-78006892D01*
X183627020Y-77934668D01*
X183614917Y-77930829D01*
X183435400Y-77893325D01*
X183425848Y-77892085D01*
X183422616Y-77892000D01*
X182852115Y-77892000D01*
X182836876Y-77896475D01*
X182835671Y-77897865D01*
X182834000Y-77905548D01*
X182834000Y-78577885D01*
X182326000Y-78577885D01*
X182326000Y-77910115D01*
X182321525Y-77894876D01*
X182320135Y-77893671D01*
X182312452Y-77892000D01*
X181784553Y-77892000D01*
X181778178Y-77892323D01*
X181642723Y-77906082D01*
X181630283Y-77908636D01*
X181456756Y-77963016D01*
X181445068Y-77968025D01*
X181286021Y-78056187D01*
X181275588Y-78063438D01*
X181137509Y-78181785D01*
X181128756Y-78190976D01*
X181017289Y-78334680D01*
X181010565Y-78345440D01*
X180930268Y-78508625D01*
X180925845Y-78520519D01*
X180910749Y-78578470D01*
X179446662Y-78578470D01*
X179453707Y-78571571D01*
X179475840Y-78554279D01*
X179509195Y-78533758D01*
X179534623Y-78521794D01*
X179538550Y-78520457D01*
X179556534Y-78513890D01*
X179558957Y-78513005D01*
X179559554Y-78512787D01*
X179564565Y-78510831D01*
X179569196Y-78509024D01*
X179569236Y-78509008D01*
X179569871Y-78508760D01*
X179571671Y-78508012D01*
X179585662Y-78502194D01*
X179585669Y-78502191D01*
X179590465Y-78500196D01*
X179713060Y-78423532D01*
X179751272Y-78391239D01*
X179763849Y-78380610D01*
X179763852Y-78380607D01*
X179767286Y-78377705D01*
X179770271Y-78374345D01*
X179770275Y-78374341D01*
X179832635Y-78304142D01*
X179863319Y-78269602D01*
X179872559Y-78250014D01*
X179923082Y-78142901D01*
X179923083Y-78142899D01*
X179925003Y-78138828D01*
X179945844Y-78070959D01*
X179960255Y-77978815D01*
X179967490Y-77932554D01*
X179967491Y-77932547D01*
X179968185Y-77928107D01*
X179968408Y-77910115D01*
X179995494Y-75716119D01*
X180003564Y-75062454D01*
X180003564Y-75062441D01*
X180003575Y-75061548D01*
X180003135Y-75033211D01*
X180002524Y-75019158D01*
X180000497Y-74990832D01*
X179997010Y-74955849D01*
X179980656Y-74791798D01*
X179980654Y-74791782D01*
X179980481Y-74790047D01*
X179971711Y-74733998D01*
X179965825Y-74706530D01*
X179954436Y-74664882D01*
X179951341Y-74653564D01*
X179951337Y-74653549D01*
X179950868Y-74651836D01*
X179889118Y-74467214D01*
X179868157Y-74414523D01*
X179856335Y-74389046D01*
X179855513Y-74387506D01*
X179855506Y-74387492D01*
X179830448Y-74340549D01*
X179830444Y-74340543D01*
X179829622Y-74339002D01*
X179724809Y-74166574D01*
X179709390Y-74142736D01*
X179701431Y-74131154D01*
X179684730Y-74108247D01*
X178027608Y-71963736D01*
X176806198Y-70383088D01*
X176806177Y-70383062D01*
X176805730Y-70382483D01*
X176791149Y-70364478D01*
X176783718Y-70355718D01*
X176776846Y-70347982D01*
X176768821Y-70338947D01*
X176768796Y-70338920D01*
X176768307Y-70338369D01*
X176655906Y-70217517D01*
X176629246Y-70191355D01*
X176623862Y-70186071D01*
X176623849Y-70186058D01*
X176622823Y-70185052D01*
X176605718Y-70169734D01*
X176601847Y-70166573D01*
X176570938Y-70141339D01*
X176569803Y-70140412D01*
X176441961Y-70045419D01*
X176403506Y-70019483D01*
X176402260Y-70018723D01*
X176385146Y-70008284D01*
X176385132Y-70008276D01*
X176383896Y-70007522D01*
X176343280Y-69985223D01*
X176249847Y-69939343D01*
X176222745Y-69926035D01*
X176222629Y-69925978D01*
X176201606Y-69915655D01*
X176201607Y-69915655D01*
X176200321Y-69915024D01*
X176157827Y-69896514D01*
X176136374Y-69888312D01*
X176092353Y-69873747D01*
X176056340Y-69863630D01*
X175940436Y-69831069D01*
X175940427Y-69831067D01*
X175939022Y-69830672D01*
X175926204Y-69827695D01*
X175895265Y-69820509D01*
X175895248Y-69820505D01*
X175893851Y-69820181D01*
X175892439Y-69819920D01*
X175892423Y-69819917D01*
X175883781Y-69818322D01*
X175871268Y-69816012D01*
X175825359Y-69809686D01*
X175823959Y-69809558D01*
X175823943Y-69809556D01*
X175665519Y-69795053D01*
X175661008Y-69794640D01*
X175637888Y-69793055D01*
X175633718Y-69792864D01*
X175627112Y-69792562D01*
X175627070Y-69792561D01*
X175626401Y-69792530D01*
X175625688Y-69792514D01*
X175625667Y-69792513D01*
X175603959Y-69792017D01*
X175603945Y-69792017D01*
X175603208Y-69792000D01*
X156599702Y-69792000D01*
X156596994Y-69792235D01*
X156596989Y-69792235D01*
X156514988Y-69799344D01*
X156514985Y-69799344D01*
X156512279Y-69799579D01*
X156469560Y-69807042D01*
X156448705Y-69812577D01*
X156391742Y-69827695D01*
X156391739Y-69827696D01*
X156384754Y-69829550D01*
X156330898Y-69858186D01*
X156273130Y-69888901D01*
X156257087Y-69897431D01*
X156199783Y-69939343D01*
X156096409Y-70040445D01*
X156092001Y-70048308D01*
X156092000Y-70048310D01*
X156088802Y-70054015D01*
X156025709Y-70166573D01*
X156000161Y-70232814D01*
X155999158Y-70237191D01*
X155999156Y-70237197D01*
X155969985Y-70364478D01*
X155967859Y-70373752D01*
X155968402Y-70382749D01*
X155968402Y-70382750D01*
X155970130Y-70411373D01*
X155976572Y-70518082D01*
X155990892Y-70587618D01*
X155992419Y-70591856D01*
X155992421Y-70591862D01*
X156019465Y-70666902D01*
X156039913Y-70723642D01*
X156042027Y-70727618D01*
X156042028Y-70727620D01*
X156062743Y-70766579D01*
X156072114Y-70789315D01*
X156090508Y-70850240D01*
X156095284Y-70874360D01*
X156101943Y-70942265D01*
X156101552Y-70970345D01*
X156092999Y-71038050D01*
X156087554Y-71062014D01*
X156067464Y-71122407D01*
X156057463Y-71144869D01*
X156028853Y-71195233D01*
X156026026Y-71200209D01*
X156011853Y-71220301D01*
X156005024Y-71228213D01*
X155970266Y-71268480D01*
X155952458Y-71285437D01*
X155902301Y-71324624D01*
X155881538Y-71337801D01*
X155824731Y-71366496D01*
X155801805Y-71375388D01*
X155765769Y-71385449D01*
X155765767Y-71385450D01*
X155740504Y-71392504D01*
X155716295Y-71396772D01*
X155680601Y-71399519D01*
X155652836Y-71401655D01*
X155628251Y-71401140D01*
X155565055Y-71393604D01*
X155541040Y-71388323D01*
X155480516Y-71368658D01*
X155457981Y-71358813D01*
X155430212Y-71343294D01*
X155430192Y-71343283D01*
X155402421Y-71327763D01*
X155382229Y-71313730D01*
X155333761Y-71272480D01*
X155316680Y-71254792D01*
X155307546Y-71243268D01*
X155277147Y-71204914D01*
X155263827Y-71184246D01*
X155234736Y-71127640D01*
X155225684Y-71104777D01*
X155216913Y-71074191D01*
X155216910Y-71074182D01*
X155208139Y-71043589D01*
X155203701Y-71019410D01*
X155203598Y-71018175D01*
X155198376Y-70955992D01*
X155198719Y-70931404D01*
X155205813Y-70868158D01*
X155210926Y-70844104D01*
X155230171Y-70783437D01*
X155239858Y-70760835D01*
X155256024Y-70731429D01*
X155292631Y-70647820D01*
X155306934Y-70605052D01*
X155327991Y-70516227D01*
X155327991Y-70371635D01*
X155317887Y-70301361D01*
X155301166Y-70244413D01*
X155279690Y-70171275D01*
X155277151Y-70162628D01*
X155198979Y-70040990D01*
X155193046Y-70034142D01*
X155155426Y-69990727D01*
X155152486Y-69987334D01*
X155043210Y-69892645D01*
X154911684Y-69832579D01*
X154885685Y-69824945D01*
X154847886Y-69813846D01*
X154847882Y-69813845D01*
X154843563Y-69812577D01*
X154839115Y-69811937D01*
X154839108Y-69811936D01*
X154704892Y-69792639D01*
X154704885Y-69792638D01*
X154700444Y-69792000D01*
X152406187Y-69792000D01*
X152405458Y-69792018D01*
X152405449Y-69792018D01*
X152386407Y-69792485D01*
X152381249Y-69792612D01*
X152380442Y-69792652D01*
X152380433Y-69792652D01*
X152377407Y-69792801D01*
X152368899Y-69793219D01*
X152344042Y-69795053D01*
X152343287Y-69795127D01*
X152343268Y-69795129D01*
X152169017Y-69812292D01*
X152169012Y-69812293D01*
X152167465Y-69812445D01*
X152165936Y-69812672D01*
X152165918Y-69812674D01*
X152119718Y-69819527D01*
X152119713Y-69819528D01*
X152118175Y-69819756D01*
X152093958Y-69824572D01*
X152092474Y-69824944D01*
X152092468Y-69824945D01*
X152047073Y-69836314D01*
X152047061Y-69836317D01*
X152045581Y-69836688D01*
X151903434Y-69879807D01*
X151881729Y-69886391D01*
X151880271Y-69886913D01*
X151880261Y-69886916D01*
X151836234Y-69902670D01*
X151836224Y-69902674D01*
X151834776Y-69903192D01*
X151811956Y-69912645D01*
X151810577Y-69913297D01*
X151810564Y-69913303D01*
X151806926Y-69915024D01*
X151766902Y-69933955D01*
X151615900Y-70014667D01*
X151573135Y-70040299D01*
X151552608Y-70054015D01*
X151512571Y-70083709D01*
X151511377Y-70084689D01*
X151511373Y-70084692D01*
X151389084Y-70185052D01*
X151380208Y-70192336D01*
X151343269Y-70225816D01*
X151325816Y-70243269D01*
X151292336Y-70280208D01*
X151291361Y-70281396D01*
X151291355Y-70281403D01*
X151208401Y-70382483D01*
X151183709Y-70412571D01*
X151154015Y-70452608D01*
X151140299Y-70473135D01*
X151139523Y-70474430D01*
X151139514Y-70474444D01*
X151128414Y-70492965D01*
X151114658Y-70515917D01*
X151113933Y-70517274D01*
X151113783Y-70517554D01*
X151039527Y-70656478D01*
X151033955Y-70666902D01*
X151012648Y-70711949D01*
X151003195Y-70734768D01*
X150986391Y-70781729D01*
X150985940Y-70783216D01*
X150940989Y-70931404D01*
X150936688Y-70945582D01*
X150924572Y-70993958D01*
X150919756Y-71018175D01*
X150919528Y-71019713D01*
X150919527Y-71019718D01*
X150914992Y-71050296D01*
X150912445Y-71067465D01*
X150912293Y-71069012D01*
X150912292Y-71069017D01*
X150898907Y-71204917D01*
X150895053Y-71244042D01*
X150893219Y-71268899D01*
X150892612Y-71281249D01*
X150892000Y-71306187D01*
X150892000Y-75476894D01*
X150871998Y-75545015D01*
X150867021Y-75549328D01*
X150664201Y-75549328D01*
X150666077Y-75545026D01*
X150645104Y-75512392D01*
X150640601Y-75489189D01*
X150625480Y-75334970D01*
X150565935Y-75137749D01*
X150469218Y-74955849D01*
X150395859Y-74865902D01*
X150342906Y-74800975D01*
X150342903Y-74800972D01*
X150339011Y-74796200D01*
X150332173Y-74790543D01*
X150185025Y-74668811D01*
X150185021Y-74668809D01*
X150180275Y-74664882D01*
X149999055Y-74566897D01*
X149802254Y-74505977D01*
X149796129Y-74505333D01*
X149796128Y-74505333D01*
X149603498Y-74485087D01*
X149603496Y-74485087D01*
X149597369Y-74484443D01*
X149515461Y-74491897D01*
X149398342Y-74502555D01*
X149398339Y-74502556D01*
X149392203Y-74503114D01*
X149194572Y-74561280D01*
X149012002Y-74656726D01*
X149007201Y-74660586D01*
X149007198Y-74660588D01*
X148856254Y-74781950D01*
X148851447Y-74785815D01*
X148719024Y-74943630D01*
X148716056Y-74949028D01*
X148716053Y-74949033D01*
X148654684Y-75060664D01*
X148619776Y-75124162D01*
X148557484Y-75320532D01*
X148556798Y-75326649D01*
X148556797Y-75326653D01*
X148539945Y-75476894D01*
X148534520Y-75525262D01*
X148104138Y-75525262D01*
X148085480Y-75334970D01*
X148025935Y-75137749D01*
X147929218Y-74955849D01*
X147855859Y-74865902D01*
X147802906Y-74800975D01*
X147802903Y-74800972D01*
X147799011Y-74796200D01*
X147792173Y-74790543D01*
X147645025Y-74668811D01*
X147645021Y-74668809D01*
X147640275Y-74664882D01*
X147459055Y-74566897D01*
X147262254Y-74505977D01*
X147256129Y-74505333D01*
X147256128Y-74505333D01*
X147063498Y-74485087D01*
X147063496Y-74485087D01*
X147057369Y-74484443D01*
X146975461Y-74491897D01*
X146858342Y-74502555D01*
X146858339Y-74502556D01*
X146852203Y-74503114D01*
X146654572Y-74561280D01*
X146472002Y-74656726D01*
X146467201Y-74660586D01*
X146467198Y-74660588D01*
X146316254Y-74781950D01*
X146311447Y-74785815D01*
X146179024Y-74943630D01*
X146176056Y-74949028D01*
X146176053Y-74949033D01*
X146114684Y-75060664D01*
X146079776Y-75124162D01*
X146017484Y-75320532D01*
X146016798Y-75326649D01*
X146016797Y-75326653D01*
X145999945Y-75476894D01*
X145994520Y-75525262D01*
X145560500Y-75525262D01*
X145560500Y-75074306D01*
X145560308Y-75071860D01*
X145560307Y-75071847D01*
X145558103Y-75043850D01*
X145557598Y-75037431D01*
X145533896Y-74955849D01*
X145513956Y-74887215D01*
X145513955Y-74887214D01*
X145511744Y-74879602D01*
X145428081Y-74738135D01*
X145311865Y-74621919D01*
X145223782Y-74569827D01*
X145177221Y-74542291D01*
X145177220Y-74542291D01*
X145170398Y-74538256D01*
X145162786Y-74536045D01*
X145162785Y-74536044D01*
X145049440Y-74503114D01*
X145012569Y-74492402D01*
X144999416Y-74491367D01*
X144978153Y-74489693D01*
X144978140Y-74489692D01*
X144975694Y-74489500D01*
X144044306Y-74489500D01*
X144041860Y-74489692D01*
X144041847Y-74489693D01*
X144020584Y-74491367D01*
X144007431Y-74492402D01*
X143970560Y-74503114D01*
X143857215Y-74536044D01*
X143857214Y-74536045D01*
X143849602Y-74538256D01*
X143842780Y-74542291D01*
X143842779Y-74542291D01*
X143796218Y-74569827D01*
X143708135Y-74621919D01*
X143591919Y-74738135D01*
X143508256Y-74879602D01*
X143506045Y-74887214D01*
X143506044Y-74887215D01*
X143486104Y-74955849D01*
X143462402Y-75037431D01*
X143461897Y-75043850D01*
X143459693Y-75071847D01*
X143459692Y-75071860D01*
X143459500Y-75074306D01*
X143459500Y-76005694D01*
X129600000Y-76005694D01*
X129600000Y-72435987D01*
X136879052Y-72435987D01*
X136887879Y-72447605D01*
X137110612Y-72609430D01*
X137117292Y-72613670D01*
X137386903Y-72761890D01*
X137394038Y-72765247D01*
X137680101Y-72878508D01*
X137687627Y-72880953D01*
X137985610Y-72957462D01*
X137993381Y-72958945D01*
X138298609Y-72997503D01*
X138306500Y-72998000D01*
X138614162Y-72998000D01*
X138622053Y-72997503D01*
X138927281Y-72958945D01*
X138935052Y-72957462D01*
X139233035Y-72880953D01*
X139240561Y-72878508D01*
X139526624Y-72765247D01*
X139533759Y-72761890D01*
X139803370Y-72613670D01*
X139810050Y-72609430D01*
X140033154Y-72447336D01*
X140041577Y-72436413D01*
X140034673Y-72423552D01*
X138473143Y-70862022D01*
X138459199Y-70854408D01*
X138457366Y-70854539D01*
X138450751Y-70858790D01*
X136885665Y-72423876D01*
X136879052Y-72435987D01*
X129600000Y-72435987D01*
X129600000Y-70493958D01*
X135947621Y-70493958D01*
X135966938Y-70800994D01*
X135967931Y-70808855D01*
X136025577Y-71111046D01*
X136027548Y-71118723D01*
X136122615Y-71411309D01*
X136125530Y-71418672D01*
X136256520Y-71697041D01*
X136260332Y-71703974D01*
X136425182Y-71963736D01*
X136429826Y-71970129D01*
X136504828Y-72060790D01*
X136517345Y-72069245D01*
X136528083Y-72063038D01*
X138088309Y-70502812D01*
X138094687Y-70491132D01*
X138824739Y-70491132D01*
X138824870Y-70492965D01*
X138829121Y-70499580D01*
X140391476Y-72061935D01*
X140404738Y-72069177D01*
X140414843Y-72061988D01*
X140490836Y-71970129D01*
X140495480Y-71963736D01*
X140660330Y-71703974D01*
X140664142Y-71697041D01*
X140795132Y-71418672D01*
X140798047Y-71411309D01*
X140893114Y-71118723D01*
X140895085Y-71111046D01*
X140952731Y-70808855D01*
X140953724Y-70800994D01*
X140973041Y-70493958D01*
X140973041Y-70486042D01*
X140970475Y-70445262D01*
X143454520Y-70445262D01*
X143455463Y-70456494D01*
X143466831Y-70591862D01*
X143471759Y-70650553D01*
X143473458Y-70656478D01*
X143493858Y-70727620D01*
X143528544Y-70848586D01*
X143531359Y-70854063D01*
X143531360Y-70854066D01*
X143604025Y-70995457D01*
X143622712Y-71031818D01*
X143750677Y-71193270D01*
X143755370Y-71197264D01*
X143755371Y-71197265D01*
X143843749Y-71272480D01*
X143907564Y-71326791D01*
X143912942Y-71329797D01*
X143912944Y-71329798D01*
X143978608Y-71366496D01*
X144087398Y-71427297D01*
X144182238Y-71458113D01*
X144277471Y-71489056D01*
X144277475Y-71489057D01*
X144283329Y-71490959D01*
X144487894Y-71515351D01*
X144494029Y-71514879D01*
X144494031Y-71514879D01*
X144550039Y-71510569D01*
X144693300Y-71499546D01*
X144699230Y-71497890D01*
X144699232Y-71497890D01*
X144885797Y-71445800D01*
X144885796Y-71445800D01*
X144891725Y-71444145D01*
X144897214Y-71441372D01*
X144897220Y-71441370D01*
X145048722Y-71364840D01*
X145075610Y-71351258D01*
X145105683Y-71327763D01*
X145181025Y-71268899D01*
X145237951Y-71224424D01*
X145272632Y-71184246D01*
X145368540Y-71073134D01*
X145368540Y-71073133D01*
X145372564Y-71068472D01*
X145376231Y-71062018D01*
X145436271Y-70956327D01*
X145474323Y-70889344D01*
X145539351Y-70693863D01*
X145565171Y-70489474D01*
X145565583Y-70460000D01*
X145564138Y-70445262D01*
X148534520Y-70445262D01*
X148535463Y-70456494D01*
X148546831Y-70591862D01*
X148551759Y-70650553D01*
X148553458Y-70656478D01*
X148573858Y-70727620D01*
X148608544Y-70848586D01*
X148611359Y-70854063D01*
X148611360Y-70854066D01*
X148684025Y-70995457D01*
X148702712Y-71031818D01*
X148830677Y-71193270D01*
X148835370Y-71197264D01*
X148835371Y-71197265D01*
X148923749Y-71272480D01*
X148987564Y-71326791D01*
X148992942Y-71329797D01*
X148992944Y-71329798D01*
X149058608Y-71366496D01*
X149167398Y-71427297D01*
X149262238Y-71458113D01*
X149357471Y-71489056D01*
X149357475Y-71489057D01*
X149363329Y-71490959D01*
X149567894Y-71515351D01*
X149574029Y-71514879D01*
X149574031Y-71514879D01*
X149630039Y-71510569D01*
X149773300Y-71499546D01*
X149779230Y-71497890D01*
X149779232Y-71497890D01*
X149965797Y-71445800D01*
X149965796Y-71445800D01*
X149971725Y-71444145D01*
X149977214Y-71441372D01*
X149977220Y-71441370D01*
X150128722Y-71364840D01*
X150155610Y-71351258D01*
X150185683Y-71327763D01*
X150261025Y-71268899D01*
X150317951Y-71224424D01*
X150352632Y-71184246D01*
X150448540Y-71073134D01*
X150448540Y-71073133D01*
X150452564Y-71068472D01*
X150456231Y-71062018D01*
X150516271Y-70956327D01*
X150554323Y-70889344D01*
X150619351Y-70693863D01*
X150645171Y-70489474D01*
X150645583Y-70460000D01*
X150625480Y-70254970D01*
X150565935Y-70057749D01*
X150469218Y-69875849D01*
X150395859Y-69785902D01*
X150342906Y-69720975D01*
X150342903Y-69720972D01*
X150339011Y-69716200D01*
X150321786Y-69701950D01*
X150185025Y-69588811D01*
X150185021Y-69588809D01*
X150180275Y-69584882D01*
X149999055Y-69486897D01*
X149802254Y-69425977D01*
X149796129Y-69425333D01*
X149796128Y-69425333D01*
X149603498Y-69405087D01*
X149603496Y-69405087D01*
X149597369Y-69404443D01*
X149510529Y-69412346D01*
X149398342Y-69422555D01*
X149398339Y-69422556D01*
X149392203Y-69423114D01*
X149194572Y-69481280D01*
X149012002Y-69576726D01*
X149007201Y-69580586D01*
X149007198Y-69580588D01*
X148996971Y-69588811D01*
X148851447Y-69705815D01*
X148719024Y-69863630D01*
X148716056Y-69869028D01*
X148716053Y-69869033D01*
X148623388Y-70037592D01*
X148619776Y-70044162D01*
X148557484Y-70240532D01*
X148556798Y-70246649D01*
X148556797Y-70246653D01*
X148541562Y-70382483D01*
X148534520Y-70445262D01*
X145564138Y-70445262D01*
X145545480Y-70254970D01*
X145485935Y-70057749D01*
X145389218Y-69875849D01*
X145315859Y-69785902D01*
X145262906Y-69720975D01*
X145262903Y-69720972D01*
X145259011Y-69716200D01*
X145241786Y-69701950D01*
X145105025Y-69588811D01*
X145105021Y-69588809D01*
X145100275Y-69584882D01*
X144919055Y-69486897D01*
X144722254Y-69425977D01*
X144716129Y-69425333D01*
X144716128Y-69425333D01*
X144523498Y-69405087D01*
X144523496Y-69405087D01*
X144517369Y-69404443D01*
X144430529Y-69412346D01*
X144318342Y-69422555D01*
X144318339Y-69422556D01*
X144312203Y-69423114D01*
X144114572Y-69481280D01*
X143932002Y-69576726D01*
X143927201Y-69580586D01*
X143927198Y-69580588D01*
X143916971Y-69588811D01*
X143771447Y-69705815D01*
X143639024Y-69863630D01*
X143636056Y-69869028D01*
X143636053Y-69869033D01*
X143543388Y-70037592D01*
X143539776Y-70044162D01*
X143477484Y-70240532D01*
X143476798Y-70246649D01*
X143476797Y-70246653D01*
X143461562Y-70382483D01*
X143454520Y-70445262D01*
X140970475Y-70445262D01*
X140953724Y-70179006D01*
X140952731Y-70171145D01*
X140895085Y-69868954D01*
X140893114Y-69861277D01*
X140798047Y-69568691D01*
X140795132Y-69561328D01*
X140664142Y-69282959D01*
X140660330Y-69276026D01*
X140495480Y-69016264D01*
X140490836Y-69009871D01*
X140415834Y-68919210D01*
X140403317Y-68910755D01*
X140392579Y-68916962D01*
X138832353Y-70477188D01*
X138824739Y-70491132D01*
X138094687Y-70491132D01*
X138095923Y-70488868D01*
X138095792Y-70487035D01*
X138091541Y-70480420D01*
X136529186Y-68918065D01*
X136515924Y-68910823D01*
X136505819Y-68918012D01*
X136429826Y-69009871D01*
X136425182Y-69016264D01*
X136260332Y-69276026D01*
X136256520Y-69282959D01*
X136125530Y-69561328D01*
X136122615Y-69568691D01*
X136027548Y-69861277D01*
X136025577Y-69868954D01*
X135967931Y-70171145D01*
X135966938Y-70179006D01*
X135947621Y-70486042D01*
X135947621Y-70493958D01*
X129600000Y-70493958D01*
X129600000Y-67926000D01*
X129620002Y-67857879D01*
X129673658Y-67811386D01*
X129726000Y-67800000D01*
X137854947Y-67800000D01*
X137923068Y-67820002D01*
G37*
%TD.AperFunction*%
%TA.AperFunction,Conductor*%
G36*
X169365439Y-89648599D02*
G01*
X169414636Y-89653770D01*
X169428743Y-89655253D01*
X169452829Y-89660198D01*
X169513630Y-89679019D01*
X169536293Y-89688545D01*
X169572056Y-89707882D01*
X169592281Y-89718817D01*
X169612663Y-89732564D01*
X169655789Y-89768242D01*
X169655792Y-89768244D01*
X169656004Y-89768420D01*
X169661705Y-89773136D01*
X169679030Y-89790581D01*
X169719260Y-89839908D01*
X169732861Y-89860381D01*
X169760437Y-89912242D01*
X169762744Y-89916581D01*
X169772115Y-89939316D01*
X169790510Y-90000241D01*
X169795287Y-90024366D01*
X169801944Y-90092266D01*
X169801552Y-90120345D01*
X169792999Y-90188050D01*
X169787554Y-90212014D01*
X169767464Y-90272407D01*
X169757465Y-90294865D01*
X169728853Y-90345232D01*
X169726026Y-90350209D01*
X169711851Y-90370302D01*
X169662794Y-90427135D01*
X169649813Y-90440126D01*
X169643295Y-90445760D01*
X169625263Y-90462978D01*
X169590614Y-90499513D01*
X169587355Y-90504637D01*
X169587354Y-90504638D01*
X169523819Y-90604525D01*
X169513011Y-90621516D01*
X169483820Y-90686234D01*
X169482573Y-90690556D01*
X169477323Y-90708749D01*
X169439219Y-90768654D01*
X169374777Y-90798449D01*
X169304457Y-90788674D01*
X169250584Y-90742433D01*
X169242118Y-90727176D01*
X169186511Y-90608222D01*
X169186510Y-90608220D01*
X169184604Y-90604143D01*
X169145691Y-90544760D01*
X169142712Y-90541383D01*
X169142708Y-90541378D01*
X169058354Y-90445760D01*
X169050036Y-90436331D01*
X169046613Y-90433418D01*
X169046606Y-90433411D01*
X169033761Y-90422479D01*
X169016682Y-90404794D01*
X168989343Y-90370302D01*
X168977144Y-90354910D01*
X168963827Y-90334245D01*
X168934737Y-90277642D01*
X168925684Y-90254777D01*
X168916912Y-90224183D01*
X168916911Y-90224183D01*
X168908140Y-90193596D01*
X168903701Y-90169408D01*
X168898376Y-90105993D01*
X168898719Y-90081404D01*
X168905814Y-90018153D01*
X168910927Y-89994101D01*
X168930169Y-89933441D01*
X168939856Y-89910838D01*
X168970518Y-89855064D01*
X168984408Y-89834778D01*
X169013995Y-89799518D01*
X169013996Y-89799516D01*
X169013997Y-89799515D01*
X169014010Y-89799501D01*
X169025319Y-89786023D01*
X169042887Y-89768818D01*
X169092492Y-89728934D01*
X169113063Y-89715472D01*
X169169468Y-89685984D01*
X169192263Y-89676775D01*
X169235902Y-89663931D01*
X169253324Y-89658803D01*
X169277477Y-89654196D01*
X169325717Y-89649806D01*
X169340853Y-89648428D01*
X169365439Y-89648599D01*
G37*
%TD.AperFunction*%
%TA.AperFunction,Conductor*%
G36*
X161125260Y-84852488D02*
G01*
X161164143Y-84857125D01*
X161191489Y-84863539D01*
X161228374Y-84876673D01*
X161253621Y-84888986D01*
X161270715Y-84899834D01*
X161270717Y-84899835D01*
X161286687Y-84909970D01*
X161308577Y-84927571D01*
X161336165Y-84955352D01*
X161353614Y-84977367D01*
X161374367Y-85010579D01*
X161386505Y-85035913D01*
X161399380Y-85072887D01*
X161405602Y-85100274D01*
X161410244Y-85141649D01*
X161409804Y-85173229D01*
X161405753Y-85202056D01*
X161404011Y-85214450D01*
X161397024Y-85241657D01*
X161383115Y-85278271D01*
X161370277Y-85303252D01*
X161350498Y-85333023D01*
X161348613Y-85335860D01*
X161330556Y-85357379D01*
X161302196Y-85384386D01*
X161279821Y-85401370D01*
X161246190Y-85421418D01*
X161220610Y-85433022D01*
X161183366Y-85445123D01*
X161155852Y-85450771D01*
X161116857Y-85454320D01*
X161088774Y-85453732D01*
X161063300Y-85450333D01*
X161063299Y-85450333D01*
X161056978Y-85449490D01*
X161049964Y-85448554D01*
X161022705Y-85441758D01*
X160986002Y-85428108D01*
X160960930Y-85415443D01*
X160928163Y-85394001D01*
X160906520Y-85376097D01*
X160879320Y-85347931D01*
X160862180Y-85325675D01*
X160860474Y-85322857D01*
X160841893Y-85292178D01*
X160830112Y-85266679D01*
X160828551Y-85261987D01*
X160817755Y-85229531D01*
X160811914Y-85202056D01*
X160808092Y-85163074D01*
X160808484Y-85134994D01*
X160813393Y-85096139D01*
X160819996Y-85068849D01*
X160833393Y-85032041D01*
X160845881Y-85006885D01*
X160867090Y-84973974D01*
X160884845Y-84952204D01*
X160912821Y-84924808D01*
X160934956Y-84907515D01*
X160968309Y-84886996D01*
X160993725Y-84875035D01*
X161030793Y-84862416D01*
X161058228Y-84856384D01*
X161070642Y-84855079D01*
X161097173Y-84852291D01*
X161125260Y-84852488D01*
G37*
%TD.AperFunction*%
%TA.AperFunction,Conductor*%
G36*
X155616147Y-84799251D02*
G01*
X155655027Y-84803888D01*
X155682368Y-84810300D01*
X155696271Y-84815250D01*
X155719266Y-84823438D01*
X155744514Y-84835753D01*
X155757039Y-84843702D01*
X155757043Y-84843705D01*
X155757061Y-84843716D01*
X155757071Y-84843723D01*
X155777575Y-84856735D01*
X155799468Y-84874337D01*
X155827051Y-84902113D01*
X155844500Y-84924128D01*
X155865254Y-84957342D01*
X155877391Y-84982676D01*
X155890266Y-85019650D01*
X155896488Y-85047037D01*
X155901130Y-85088412D01*
X155900690Y-85119992D01*
X155895478Y-85157077D01*
X155894897Y-85161213D01*
X155887910Y-85188420D01*
X155874001Y-85225034D01*
X155861163Y-85250015D01*
X155841181Y-85280092D01*
X155839499Y-85282623D01*
X155821442Y-85304142D01*
X155793081Y-85331150D01*
X155770708Y-85348133D01*
X155747098Y-85362207D01*
X155737075Y-85368182D01*
X155711496Y-85379785D01*
X155674252Y-85391886D01*
X155646738Y-85397534D01*
X155607743Y-85401083D01*
X155579660Y-85400495D01*
X155554186Y-85397096D01*
X155554185Y-85397096D01*
X155547864Y-85396253D01*
X155540850Y-85395317D01*
X155513590Y-85388521D01*
X155476891Y-85374872D01*
X155451819Y-85362207D01*
X155419045Y-85340760D01*
X155397404Y-85322857D01*
X155370207Y-85294695D01*
X155353065Y-85272436D01*
X155346737Y-85261987D01*
X155346736Y-85261985D01*
X155346734Y-85261980D01*
X155332780Y-85238939D01*
X155320997Y-85213439D01*
X155308640Y-85176292D01*
X155302800Y-85148816D01*
X155298978Y-85109836D01*
X155299370Y-85081757D01*
X155304279Y-85042902D01*
X155310882Y-85015608D01*
X155324277Y-84978806D01*
X155336766Y-84953649D01*
X155357977Y-84920736D01*
X155375730Y-84898968D01*
X155387844Y-84887105D01*
X155387849Y-84887101D01*
X155403710Y-84871569D01*
X155425845Y-84854275D01*
X155459195Y-84833758D01*
X155484611Y-84821798D01*
X155521679Y-84809179D01*
X155549114Y-84803147D01*
X155559623Y-84802042D01*
X155588058Y-84799054D01*
X155616147Y-84799251D01*
G37*
%TD.AperFunction*%
%TA.AperFunction,Conductor*%
G36*
X154766144Y-82699250D02*
G01*
X154785585Y-82701568D01*
X154805024Y-82703886D01*
X154832372Y-82710301D01*
X154869268Y-82723439D01*
X154894510Y-82735750D01*
X154918986Y-82751283D01*
X154918991Y-82751286D01*
X154927578Y-82756736D01*
X154949464Y-82774334D01*
X154977051Y-82802114D01*
X154994499Y-82824127D01*
X155015252Y-82857338D01*
X155027391Y-82882674D01*
X155040266Y-82919648D01*
X155046488Y-82947035D01*
X155051130Y-82988412D01*
X155050690Y-83019992D01*
X155045153Y-83059394D01*
X155044897Y-83061213D01*
X155037910Y-83088420D01*
X155024001Y-83125034D01*
X155011163Y-83150015D01*
X154994564Y-83175000D01*
X154989499Y-83182623D01*
X154971442Y-83204142D01*
X154943081Y-83231150D01*
X154920708Y-83248133D01*
X154887075Y-83268182D01*
X154861496Y-83279785D01*
X154824252Y-83291886D01*
X154796738Y-83297534D01*
X154757743Y-83301083D01*
X154729660Y-83300495D01*
X154704186Y-83297096D01*
X154704185Y-83297096D01*
X154697864Y-83296253D01*
X154690850Y-83295317D01*
X154663591Y-83288521D01*
X154626888Y-83274871D01*
X154601816Y-83262206D01*
X154569049Y-83240764D01*
X154547406Y-83222860D01*
X154524401Y-83199038D01*
X154520205Y-83194693D01*
X154503066Y-83172438D01*
X154482780Y-83138942D01*
X154470998Y-83113442D01*
X154465960Y-83098296D01*
X154458641Y-83076294D01*
X154452800Y-83048819D01*
X154448978Y-83009837D01*
X154449370Y-82981757D01*
X154454278Y-82942903D01*
X154460881Y-82915613D01*
X154474276Y-82878809D01*
X154486764Y-82853653D01*
X154507978Y-82820734D01*
X154525732Y-82798965D01*
X154550884Y-82774334D01*
X154553709Y-82771568D01*
X154575833Y-82754282D01*
X154609203Y-82733753D01*
X154634611Y-82721798D01*
X154671681Y-82709179D01*
X154699114Y-82703147D01*
X154714276Y-82701553D01*
X154738059Y-82699054D01*
X154766144Y-82699250D01*
G37*
%TD.AperFunction*%
%TA.AperFunction,Conductor*%
G36*
X164866146Y-81299251D02*
G01*
X164905029Y-81303888D01*
X164932375Y-81310302D01*
X164969260Y-81323436D01*
X164994508Y-81335750D01*
X165027572Y-81356733D01*
X165049463Y-81374334D01*
X165077052Y-81402116D01*
X165094500Y-81424128D01*
X165112277Y-81452577D01*
X165115253Y-81457340D01*
X165127391Y-81482676D01*
X165140266Y-81519651D01*
X165146488Y-81547037D01*
X165151130Y-81588412D01*
X165150690Y-81619992D01*
X165146639Y-81648819D01*
X165144897Y-81661213D01*
X165137910Y-81688420D01*
X165124001Y-81725034D01*
X165111163Y-81750015D01*
X165096266Y-81772438D01*
X165089499Y-81782623D01*
X165071442Y-81804142D01*
X165043081Y-81831150D01*
X165020708Y-81848133D01*
X165016593Y-81850586D01*
X164987075Y-81868182D01*
X164961496Y-81879785D01*
X164924252Y-81891886D01*
X164896738Y-81897534D01*
X164857743Y-81901083D01*
X164829660Y-81900495D01*
X164804186Y-81897096D01*
X164804185Y-81897096D01*
X164797864Y-81896253D01*
X164790850Y-81895317D01*
X164763591Y-81888521D01*
X164726888Y-81874871D01*
X164701816Y-81862206D01*
X164669049Y-81840764D01*
X164647406Y-81822860D01*
X164620207Y-81794695D01*
X164603067Y-81772438D01*
X164582779Y-81738938D01*
X164570997Y-81713439D01*
X164558641Y-81676296D01*
X164552800Y-81648819D01*
X164548978Y-81609838D01*
X164549371Y-81581749D01*
X164554279Y-81542904D01*
X164560883Y-81515606D01*
X164574272Y-81478818D01*
X164586762Y-81453656D01*
X164607979Y-81420733D01*
X164625732Y-81398965D01*
X164639449Y-81385532D01*
X164653709Y-81371568D01*
X164675833Y-81354282D01*
X164709203Y-81333753D01*
X164734611Y-81321798D01*
X164771681Y-81309179D01*
X164799114Y-81303147D01*
X164811528Y-81301842D01*
X164838059Y-81299054D01*
X164866146Y-81299251D01*
G37*
%TD.AperFunction*%
%TA.AperFunction,Conductor*%
G36*
X161615439Y-80098599D02*
G01*
X161664636Y-80103770D01*
X161678743Y-80105253D01*
X161702829Y-80110198D01*
X161763630Y-80129019D01*
X161786293Y-80138545D01*
X161822056Y-80157882D01*
X161838286Y-80166657D01*
X161842279Y-80168816D01*
X161862667Y-80182568D01*
X161891876Y-80206732D01*
X161891879Y-80206735D01*
X161911706Y-80223137D01*
X161929030Y-80240581D01*
X161969256Y-80289904D01*
X161982860Y-80310380D01*
X162012745Y-80366585D01*
X162022116Y-80389322D01*
X162040509Y-80450244D01*
X162045286Y-80474365D01*
X162051944Y-80542265D01*
X162051552Y-80570345D01*
X162042999Y-80638050D01*
X162037554Y-80662014D01*
X162017464Y-80722407D01*
X162007461Y-80744873D01*
X161976023Y-80800212D01*
X161961849Y-80820305D01*
X161920268Y-80868477D01*
X161902461Y-80885435D01*
X161852302Y-80924624D01*
X161831538Y-80937801D01*
X161774731Y-80966496D01*
X161751806Y-80975388D01*
X161743427Y-80977727D01*
X161715769Y-80985449D01*
X161715767Y-80985450D01*
X161690504Y-80992504D01*
X161666295Y-80996772D01*
X161632718Y-80999356D01*
X161602836Y-81001655D01*
X161578253Y-81001140D01*
X161541627Y-80996773D01*
X161515053Y-80993604D01*
X161491048Y-80988326D01*
X161430506Y-80968655D01*
X161407977Y-80958812D01*
X161404501Y-80956870D01*
X161380198Y-80943287D01*
X161352421Y-80927764D01*
X161332231Y-80913731D01*
X161308152Y-80893238D01*
X161283761Y-80872480D01*
X161266680Y-80854792D01*
X161260465Y-80846950D01*
X161227147Y-80804914D01*
X161213825Y-80784243D01*
X161203005Y-80763188D01*
X161187907Y-80733811D01*
X161184739Y-80727647D01*
X161175688Y-80704785D01*
X161158940Y-80646381D01*
X161158938Y-80646377D01*
X161158140Y-80643594D01*
X161153701Y-80619407D01*
X161148376Y-80555993D01*
X161148719Y-80531405D01*
X161155814Y-80468152D01*
X161160927Y-80444098D01*
X161161056Y-80443694D01*
X161177899Y-80390596D01*
X161180169Y-80383440D01*
X161189856Y-80360839D01*
X161220518Y-80305064D01*
X161234406Y-80284781D01*
X161249378Y-80266938D01*
X161249381Y-80266935D01*
X161249399Y-80266914D01*
X161275325Y-80236017D01*
X161292893Y-80218813D01*
X161342494Y-80178933D01*
X161363066Y-80165471D01*
X161419463Y-80135987D01*
X161442263Y-80126775D01*
X161443505Y-80126409D01*
X161503324Y-80108803D01*
X161527477Y-80104196D01*
X161575717Y-80099806D01*
X161590853Y-80098428D01*
X161615439Y-80098599D01*
G37*
%TD.AperFunction*%
%TA.AperFunction,Conductor*%
G36*
X176516143Y-79149250D02*
G01*
X176555031Y-79153887D01*
X176582372Y-79160300D01*
X176619268Y-79173438D01*
X176644505Y-79185748D01*
X176673698Y-79204274D01*
X176677573Y-79206733D01*
X176699462Y-79224333D01*
X176727052Y-79252116D01*
X176744500Y-79274128D01*
X176765091Y-79307080D01*
X176765253Y-79307340D01*
X176777391Y-79332676D01*
X176790266Y-79369651D01*
X176796488Y-79397037D01*
X176801130Y-79438412D01*
X176800690Y-79469992D01*
X176796639Y-79498818D01*
X176794897Y-79511216D01*
X176787912Y-79538419D01*
X176774004Y-79575031D01*
X176761169Y-79600006D01*
X176739494Y-79632630D01*
X176721442Y-79654142D01*
X176693081Y-79681150D01*
X176670708Y-79698133D01*
X176640752Y-79715990D01*
X176637075Y-79718182D01*
X176611496Y-79729785D01*
X176574252Y-79741886D01*
X176546738Y-79747534D01*
X176507743Y-79751083D01*
X176479660Y-79750495D01*
X176454186Y-79747096D01*
X176454179Y-79747095D01*
X176440846Y-79745316D01*
X176413592Y-79738521D01*
X176376892Y-79724873D01*
X176351818Y-79712208D01*
X176319049Y-79690765D01*
X176297408Y-79672862D01*
X176270204Y-79644692D01*
X176253064Y-79622435D01*
X176252035Y-79620735D01*
X176241555Y-79603430D01*
X176241552Y-79603425D01*
X176241375Y-79603131D01*
X176232780Y-79588939D01*
X176220999Y-79563443D01*
X176208641Y-79526295D01*
X176202800Y-79498818D01*
X176198978Y-79459839D01*
X176199371Y-79431749D01*
X176204279Y-79392904D01*
X176210883Y-79365605D01*
X176214903Y-79354560D01*
X176224275Y-79328812D01*
X176236762Y-79303655D01*
X176248904Y-79284814D01*
X176257978Y-79270734D01*
X176275730Y-79248967D01*
X176277844Y-79246897D01*
X176303709Y-79221568D01*
X176325833Y-79204282D01*
X176359203Y-79183753D01*
X176384611Y-79171798D01*
X176421681Y-79159179D01*
X176449114Y-79153147D01*
X176463309Y-79151655D01*
X176488059Y-79149054D01*
X176516143Y-79149250D01*
G37*
%TD.AperFunction*%
%TA.AperFunction,Conductor*%
G36*
X159400892Y-78242151D02*
G01*
X159405363Y-78244272D01*
X159412835Y-78247817D01*
X159509988Y-78277891D01*
X159513626Y-78279017D01*
X159536294Y-78288546D01*
X159565139Y-78304142D01*
X159572056Y-78307882D01*
X159592281Y-78318817D01*
X159612663Y-78332564D01*
X159655789Y-78368242D01*
X159655792Y-78368244D01*
X159655978Y-78368399D01*
X159661707Y-78373138D01*
X159679033Y-78390585D01*
X159694623Y-78409700D01*
X159694631Y-78409711D01*
X159719258Y-78439908D01*
X159732864Y-78460388D01*
X159762744Y-78516583D01*
X159772115Y-78539319D01*
X159790509Y-78600243D01*
X159795286Y-78624365D01*
X159801944Y-78692265D01*
X159801552Y-78720345D01*
X159792999Y-78788050D01*
X159787554Y-78812014D01*
X159769378Y-78866654D01*
X159767464Y-78872407D01*
X159757465Y-78894865D01*
X159726026Y-78950209D01*
X159711851Y-78970302D01*
X159670264Y-79018481D01*
X159652464Y-79035433D01*
X159648763Y-79038325D01*
X159648742Y-79038342D01*
X159602307Y-79074620D01*
X159581547Y-79087795D01*
X159524733Y-79116495D01*
X159501808Y-79125387D01*
X159440509Y-79142503D01*
X159416296Y-79146772D01*
X159386644Y-79149054D01*
X159352836Y-79151655D01*
X159328253Y-79151140D01*
X159291627Y-79146773D01*
X159265053Y-79143604D01*
X159241048Y-79138326D01*
X159180506Y-79118655D01*
X159157977Y-79108812D01*
X159149367Y-79104000D01*
X159130198Y-79093287D01*
X159102428Y-79077767D01*
X159082236Y-79063733D01*
X159033762Y-79022479D01*
X159016679Y-79004790D01*
X158982129Y-78961199D01*
X158982121Y-78961190D01*
X158977144Y-78954910D01*
X158963826Y-78934243D01*
X158934737Y-78877640D01*
X158925686Y-78854779D01*
X158908141Y-78793596D01*
X158903701Y-78769407D01*
X158898376Y-78705992D01*
X158898719Y-78681404D01*
X158905813Y-78618158D01*
X158910926Y-78594104D01*
X158930172Y-78533433D01*
X158939857Y-78510837D01*
X158970520Y-78455060D01*
X158984410Y-78434775D01*
X158991326Y-78426533D01*
X159025317Y-78386024D01*
X159042887Y-78368817D01*
X159056269Y-78358058D01*
X159092496Y-78328931D01*
X159113063Y-78315472D01*
X159169465Y-78285986D01*
X159192261Y-78276776D01*
X159224865Y-78267180D01*
X159224864Y-78267180D01*
X159226795Y-78266612D01*
X159272217Y-78250014D01*
X159286026Y-78244968D01*
X159286033Y-78244965D01*
X159287930Y-78244272D01*
X159289772Y-78243462D01*
X159289796Y-78243452D01*
X159296146Y-78240658D01*
X159366554Y-78231535D01*
X159400892Y-78242151D01*
G37*
%TD.AperFunction*%
%TA.AperFunction,Conductor*%
G36*
X170466147Y-77799251D02*
G01*
X170505029Y-77803888D01*
X170532371Y-77810300D01*
X170569264Y-77823438D01*
X170591733Y-77834397D01*
X170591780Y-77834312D01*
X170591800Y-77834323D01*
X170592828Y-77834931D01*
X170594505Y-77835749D01*
X170598539Y-77838309D01*
X170598569Y-77838327D01*
X170598571Y-77838328D01*
X170627575Y-77856734D01*
X170649462Y-77874333D01*
X170677052Y-77902116D01*
X170694501Y-77924130D01*
X170715253Y-77957340D01*
X170727391Y-77982676D01*
X170740266Y-78019651D01*
X170746488Y-78047037D01*
X170751130Y-78088412D01*
X170750690Y-78119992D01*
X170748648Y-78134522D01*
X170744897Y-78161214D01*
X170737910Y-78188423D01*
X170724003Y-78225032D01*
X170711164Y-78250014D01*
X170689498Y-78282624D01*
X170671442Y-78304142D01*
X170643081Y-78331150D01*
X170620708Y-78348133D01*
X170587075Y-78368182D01*
X170561496Y-78379785D01*
X170524252Y-78391886D01*
X170496738Y-78397534D01*
X170457743Y-78401083D01*
X170429660Y-78400495D01*
X170404186Y-78397096D01*
X170404179Y-78397095D01*
X170390846Y-78395316D01*
X170363592Y-78388521D01*
X170326892Y-78374873D01*
X170301818Y-78362208D01*
X170269049Y-78340765D01*
X170247405Y-78322859D01*
X170220208Y-78294696D01*
X170203067Y-78272438D01*
X170185082Y-78242739D01*
X170185058Y-78242702D01*
X170182773Y-78238928D01*
X170170999Y-78213443D01*
X170163525Y-78190976D01*
X170158640Y-78176293D01*
X170152800Y-78148817D01*
X170148978Y-78109836D01*
X170149371Y-78081748D01*
X170154278Y-78042908D01*
X170160882Y-78015608D01*
X170161798Y-78013092D01*
X170174276Y-77978810D01*
X170186763Y-77953653D01*
X170205789Y-77924130D01*
X170207980Y-77920731D01*
X170225732Y-77898965D01*
X170228275Y-77896475D01*
X170253709Y-77871568D01*
X170275833Y-77854282D01*
X170309203Y-77833753D01*
X170334611Y-77821798D01*
X170371681Y-77809179D01*
X170399114Y-77803147D01*
X170411528Y-77801842D01*
X170438059Y-77799054D01*
X170466147Y-77799251D01*
G37*
%TD.AperFunction*%
%TA.AperFunction,Conductor*%
G36*
X159315439Y-76148599D02*
G01*
X159358585Y-76153134D01*
X159378743Y-76155253D01*
X159402829Y-76160198D01*
X159463630Y-76179019D01*
X159486293Y-76188545D01*
X159522056Y-76207882D01*
X159542281Y-76218817D01*
X159562663Y-76232564D01*
X159605789Y-76268242D01*
X159605792Y-76268244D01*
X159606004Y-76268420D01*
X159611705Y-76273136D01*
X159629037Y-76290589D01*
X159669253Y-76339900D01*
X159682860Y-76360380D01*
X159712745Y-76416585D01*
X159722116Y-76439322D01*
X159740509Y-76500244D01*
X159745286Y-76524365D01*
X159751944Y-76592265D01*
X159751552Y-76620345D01*
X159742999Y-76688050D01*
X159737554Y-76712014D01*
X159719379Y-76766651D01*
X159717464Y-76772407D01*
X159707463Y-76794869D01*
X159676025Y-76850210D01*
X159661855Y-76870298D01*
X159641057Y-76894393D01*
X159620261Y-76918485D01*
X159602453Y-76935442D01*
X159552305Y-76974622D01*
X159531546Y-76987797D01*
X159474728Y-77016498D01*
X159451807Y-77025387D01*
X159429815Y-77031528D01*
X159427715Y-77032279D01*
X159427708Y-77032281D01*
X159404979Y-77040407D01*
X159361881Y-77055815D01*
X159353599Y-77059458D01*
X159283191Y-77068573D01*
X159252080Y-77058714D01*
X159251917Y-77059115D01*
X159247750Y-77057424D01*
X159243709Y-77055437D01*
X159130507Y-77018655D01*
X159107980Y-77008813D01*
X159080201Y-76993288D01*
X159080197Y-76993286D01*
X159052422Y-76977763D01*
X159032235Y-76963733D01*
X158983758Y-76922476D01*
X158966677Y-76904788D01*
X158927147Y-76854914D01*
X158913826Y-76834243D01*
X158884739Y-76777646D01*
X158875686Y-76754783D01*
X158858141Y-76693598D01*
X158853702Y-76669411D01*
X158850520Y-76631513D01*
X158848376Y-76605979D01*
X158848719Y-76581402D01*
X158855813Y-76518157D01*
X158860926Y-76494104D01*
X158870949Y-76462507D01*
X158880171Y-76433435D01*
X158889858Y-76410834D01*
X158920519Y-76355062D01*
X158934412Y-76334772D01*
X158975316Y-76286024D01*
X158992886Y-76268818D01*
X158994941Y-76267166D01*
X159042496Y-76228931D01*
X159063063Y-76215472D01*
X159119468Y-76185984D01*
X159142263Y-76176775D01*
X159143505Y-76176409D01*
X159203324Y-76158803D01*
X159227477Y-76154196D01*
X159275717Y-76149806D01*
X159290853Y-76148428D01*
X159315439Y-76148599D01*
G37*
%TD.AperFunction*%
%TA.AperFunction,Conductor*%
G36*
X145724132Y-81664922D02*
G01*
X146687188Y-82627978D01*
X146701132Y-82635592D01*
X146702965Y-82635461D01*
X146709580Y-82631210D01*
X147675650Y-81665140D01*
X147737962Y-81631114D01*
X147808777Y-81636179D01*
X147869324Y-81683957D01*
X147901014Y-81731116D01*
X148017466Y-81837079D01*
X148018050Y-81837396D01*
X148060164Y-81890838D01*
X148066983Y-81961506D01*
X148032331Y-82026879D01*
X147072022Y-82987188D01*
X147064408Y-83001132D01*
X147064539Y-83002965D01*
X147068790Y-83009580D01*
X148032466Y-83973256D01*
X148066492Y-84035568D01*
X148061427Y-84106383D01*
X148026201Y-84157299D01*
X147910090Y-84258589D01*
X147905720Y-84264806D01*
X147905718Y-84264809D01*
X147868037Y-84318422D01*
X147812503Y-84362654D01*
X147741870Y-84369839D01*
X147675856Y-84335066D01*
X146712812Y-83372022D01*
X146698868Y-83364408D01*
X146697035Y-83364539D01*
X146690420Y-83368790D01*
X145724217Y-84334993D01*
X145661905Y-84369019D01*
X145591090Y-84363954D01*
X145531283Y-84317267D01*
X145498779Y-84269975D01*
X145498778Y-84269974D01*
X145494475Y-84263713D01*
X145376920Y-84158975D01*
X145378297Y-84157430D01*
X145340379Y-84110332D01*
X145332824Y-84039739D01*
X145367716Y-83973074D01*
X146327978Y-83012812D01*
X146335592Y-82998868D01*
X146335461Y-82997035D01*
X146331210Y-82990420D01*
X145367004Y-82026214D01*
X145332978Y-81963902D01*
X145338043Y-81893087D01*
X145374268Y-81841309D01*
X145427842Y-81795553D01*
X145479518Y-81751418D01*
X145479520Y-81751415D01*
X145485292Y-81746486D01*
X145532714Y-81680491D01*
X145588709Y-81636843D01*
X145659412Y-81630397D01*
X145724132Y-81664922D01*
G37*
%TD.AperFunction*%
%TA.AperFunction,Conductor*%
G36*
X188185435Y-95758160D02*
G01*
X188235157Y-95808838D01*
X188250000Y-95868168D01*
X188250000Y-97824000D01*
X188229998Y-97892121D01*
X188176342Y-97938614D01*
X188124000Y-97950000D01*
X186227003Y-97950000D01*
X186158882Y-97929998D01*
X186112389Y-97876342D01*
X186102285Y-97806068D01*
X186131779Y-97741488D01*
X186169800Y-97711733D01*
X186453606Y-97567126D01*
X186459315Y-97563830D01*
X186779728Y-97355751D01*
X186785065Y-97351874D01*
X187023835Y-97158522D01*
X187032300Y-97146267D01*
X187025966Y-97135176D01*
X186661116Y-96770326D01*
X186627090Y-96708014D01*
X186632155Y-96637199D01*
X186668380Y-96585421D01*
X186719119Y-96542087D01*
X186773630Y-96495530D01*
X186773632Y-96495527D01*
X186779404Y-96490598D01*
X186826826Y-96424603D01*
X186882821Y-96380955D01*
X186953524Y-96374509D01*
X187018244Y-96409034D01*
X187384310Y-96775100D01*
X187397386Y-96782241D01*
X187407753Y-96774784D01*
X187601877Y-96535061D01*
X187605747Y-96529735D01*
X187813831Y-96209313D01*
X187817128Y-96203603D01*
X187990578Y-95863189D01*
X187993260Y-95857164D01*
X188006369Y-95823014D01*
X188049454Y-95766586D01*
X188116208Y-95742409D01*
X188185435Y-95758160D01*
G37*
%TD.AperFunction*%
%TA.AperFunction,Conductor*%
G36*
X183624132Y-93014922D02*
G01*
X184587188Y-93977978D01*
X184601132Y-93985592D01*
X184602965Y-93985461D01*
X184609580Y-93981210D01*
X185575650Y-93015140D01*
X185637962Y-92981114D01*
X185708777Y-92986179D01*
X185769324Y-93033957D01*
X185801014Y-93081116D01*
X185917466Y-93187079D01*
X185918050Y-93187396D01*
X185960164Y-93240838D01*
X185966983Y-93311506D01*
X185932331Y-93376879D01*
X184972022Y-94337188D01*
X184964408Y-94351132D01*
X184964539Y-94352965D01*
X184968790Y-94359580D01*
X185932466Y-95323256D01*
X185966492Y-95385568D01*
X185961427Y-95456383D01*
X185926201Y-95507299D01*
X185810090Y-95608589D01*
X185805720Y-95614806D01*
X185805718Y-95614809D01*
X185768037Y-95668422D01*
X185712503Y-95712654D01*
X185641870Y-95719839D01*
X185575856Y-95685066D01*
X184612812Y-94722022D01*
X184598868Y-94714408D01*
X184597035Y-94714539D01*
X184590420Y-94718790D01*
X183624217Y-95684993D01*
X183561905Y-95719019D01*
X183491090Y-95713954D01*
X183431283Y-95667267D01*
X183398779Y-95619975D01*
X183398778Y-95619974D01*
X183394475Y-95613713D01*
X183276920Y-95508975D01*
X183278297Y-95507430D01*
X183240379Y-95460332D01*
X183232824Y-95389739D01*
X183267716Y-95323074D01*
X184227978Y-94362812D01*
X184235592Y-94348868D01*
X184235461Y-94347035D01*
X184231210Y-94340420D01*
X183267004Y-93376214D01*
X183232978Y-93313902D01*
X183238043Y-93243087D01*
X183274268Y-93191309D01*
X183379431Y-93101492D01*
X183379518Y-93101418D01*
X183379520Y-93101415D01*
X183385292Y-93096486D01*
X183432714Y-93030491D01*
X183488709Y-92986843D01*
X183559412Y-92980397D01*
X183624132Y-93014922D01*
G37*
%TD.AperFunction*%
%TD*%
M02*
