%TF.GenerationSoftware,KiCad,Pcbnew,(6.0.2)*%
%TF.CreationDate,2022-11-22T23:48:31+01:00*%
%TF.ProjectId,CANap_,43414e61-70e9-42e6-9b69-6361645f7063,rev?*%
%TF.SameCoordinates,Original*%
%TF.FileFunction,Copper,L4,Bot*%
%TF.FilePolarity,Positive*%
%FSLAX46Y46*%
G04 Gerber Fmt 4.6, Leading zero omitted, Abs format (unit mm)*
G04 Created by KiCad (PCBNEW (6.0.2)) date 2022-11-22 23:48:31*
%MOMM*%
%LPD*%
G01*
G04 APERTURE LIST*
G04 Aperture macros list*
%AMRoundRect*
0 Rectangle with rounded corners*
0 $1 Rounding radius*
0 $2 $3 $4 $5 $6 $7 $8 $9 X,Y pos of 4 corners*
0 Add a 4 corners polygon primitive as box body*
4,1,4,$2,$3,$4,$5,$6,$7,$8,$9,$2,$3,0*
0 Add four circle primitives for the rounded corners*
1,1,$1+$1,$2,$3*
1,1,$1+$1,$4,$5*
1,1,$1+$1,$6,$7*
1,1,$1+$1,$8,$9*
0 Add four rect primitives between the rounded corners*
20,1,$1+$1,$2,$3,$4,$5,0*
20,1,$1+$1,$4,$5,$6,$7,0*
20,1,$1+$1,$6,$7,$8,$9,0*
20,1,$1+$1,$8,$9,$2,$3,0*%
G04 Aperture macros list end*
%TA.AperFunction,ComponentPad*%
%ADD10C,4.000000*%
%TD*%
%TA.AperFunction,ComponentPad*%
%ADD11R,1.600000X1.600000*%
%TD*%
%TA.AperFunction,ComponentPad*%
%ADD12C,1.600000*%
%TD*%
%TA.AperFunction,ComponentPad*%
%ADD13RoundRect,0.400000X-0.400000X0.400000X-0.400000X-0.400000X0.400000X-0.400000X0.400000X0.400000X0*%
%TD*%
%TA.AperFunction,ComponentPad*%
%ADD14C,0.700000*%
%TD*%
%TA.AperFunction,ComponentPad*%
%ADD15O,2.400000X0.900000*%
%TD*%
%TA.AperFunction,ComponentPad*%
%ADD16O,1.700000X0.900000*%
%TD*%
%TA.AperFunction,SMDPad,CuDef*%
%ADD17RoundRect,0.250000X-0.475000X0.250000X-0.475000X-0.250000X0.475000X-0.250000X0.475000X0.250000X0*%
%TD*%
%TA.AperFunction,SMDPad,CuDef*%
%ADD18R,2.000000X1.500000*%
%TD*%
%TA.AperFunction,SMDPad,CuDef*%
%ADD19R,2.000000X3.800000*%
%TD*%
%TA.AperFunction,SMDPad,CuDef*%
%ADD20RoundRect,0.250000X0.475000X-0.250000X0.475000X0.250000X-0.475000X0.250000X-0.475000X-0.250000X0*%
%TD*%
%TA.AperFunction,ViaPad*%
%ADD21C,0.600000*%
%TD*%
%TA.AperFunction,ViaPad*%
%ADD22C,0.900000*%
%TD*%
%TA.AperFunction,Conductor*%
%ADD23C,0.600000*%
%TD*%
%TA.AperFunction,Conductor*%
%ADD24C,0.400000*%
%TD*%
%TA.AperFunction,Conductor*%
%ADD25C,0.150000*%
%TD*%
%TA.AperFunction,Conductor*%
%ADD26C,0.300000*%
%TD*%
G04 APERTURE END LIST*
D10*
%TO.P,J2,0,PAD*%
%TO.N,GND*%
X138460331Y-70490000D03*
X138460331Y-95490000D03*
D11*
%TO.P,J2,1,1*%
%TO.N,unconnected-(J2-Pad1)*%
X139880331Y-77450000D03*
D12*
%TO.P,J2,2,2*%
%TO.N,CANL*%
X139880331Y-80220000D03*
%TO.P,J2,3,3*%
%TO.N,GND*%
X139880331Y-82990000D03*
%TO.P,J2,4,4*%
%TO.N,unconnected-(J2-Pad4)*%
X139880331Y-85760000D03*
%TO.P,J2,5,5*%
%TO.N,GND*%
X139880331Y-88530000D03*
%TO.P,J2,6,6*%
X137040331Y-78835000D03*
%TO.P,J2,7,7*%
%TO.N,CANH*%
X137040331Y-81605000D03*
%TO.P,J2,8,8*%
%TO.N,unconnected-(J2-Pad8)*%
X137040331Y-84375000D03*
%TO.P,J2,9,9*%
%TO.N,unconnected-(J2-Pad9)*%
X137040331Y-87145000D03*
%TD*%
%TO.P,SW2,*%
%TO.N,*%
X143560000Y-70410000D03*
X148640000Y-70410000D03*
D13*
%TO.P,SW2,1,A*%
%TO.N,CANL*%
X143560000Y-75490000D03*
D12*
%TO.P,SW2,2,B*%
%TO.N,Net-(R1-Pad2)*%
X146100000Y-75490000D03*
%TO.P,SW2,3,C*%
%TO.N,unconnected-(SW2-Pad3)*%
X148640000Y-75490000D03*
%TD*%
D14*
%TO.P,J1,A1,GND*%
%TO.N,GND*%
X173850000Y-80350000D03*
%TO.P,J1,A4,VBUS*%
%TO.N,+5V*%
X173850000Y-81200000D03*
%TO.P,J1,A5,CC1*%
%TO.N,Net-(J1-PadA5)*%
X173850000Y-82050000D03*
%TO.P,J1,A6,D+*%
%TO.N,/USB+*%
X173850000Y-82900000D03*
%TO.P,J1,A7,D-*%
%TO.N,/USB-*%
X173850000Y-83750000D03*
%TO.P,J1,A8,SBU1*%
%TO.N,unconnected-(J1-PadA8)*%
X173850000Y-84600000D03*
%TO.P,J1,A9,VBUS*%
%TO.N,+5V*%
X173850000Y-85450000D03*
%TO.P,J1,A12,GND*%
%TO.N,GND*%
X173850000Y-86300000D03*
%TO.P,J1,B1,GND*%
X175200000Y-86300000D03*
%TO.P,J1,B4,VBUS*%
%TO.N,+5V*%
X175200000Y-85450000D03*
%TO.P,J1,B5,CC2*%
%TO.N,Net-(J1-PadB5)*%
X175200000Y-84600000D03*
%TO.P,J1,B6,D+*%
%TO.N,/USB+*%
X175200000Y-83750000D03*
%TO.P,J1,B7,D-*%
%TO.N,/USB-*%
X175200000Y-82900000D03*
%TO.P,J1,B8,SBU2*%
%TO.N,unconnected-(J1-PadB8)*%
X175200000Y-82050000D03*
%TO.P,J1,B9,VBUS*%
%TO.N,+5V*%
X175200000Y-81200000D03*
%TO.P,J1,B12,GND*%
%TO.N,GND*%
X175200000Y-80350000D03*
D15*
%TO.P,J1,S1,SHIELD*%
%TO.N,unconnected-(J1-PadS1)*%
X174830000Y-79000000D03*
D16*
X178210000Y-87650000D03*
X178210000Y-79000000D03*
D15*
X174830000Y-87650000D03*
%TD*%
D17*
%TO.P,C2,1*%
%TO.N,GND*%
X171018750Y-79468750D03*
%TO.P,C2,2*%
%TO.N,+3V3*%
X171018750Y-81368750D03*
%TD*%
D18*
%TO.P,U1,1,GND*%
%TO.N,GND*%
X168768750Y-79818750D03*
%TO.P,U1,2,VO*%
%TO.N,+3V3*%
X168768750Y-82118750D03*
D19*
X162468750Y-82118750D03*
D18*
%TO.P,U1,3,VI*%
%TO.N,+5V*%
X168768750Y-84418750D03*
%TD*%
D20*
%TO.P,C1,2*%
%TO.N,+5V*%
X171018750Y-83368750D03*
%TO.P,C1,1*%
%TO.N,GND*%
X171018750Y-85268750D03*
%TD*%
D21*
%TO.N,GND*%
X166250000Y-81300000D03*
X171600000Y-92200000D03*
X143300000Y-92350000D03*
X147050000Y-92350000D03*
X147050000Y-89250000D03*
X143300000Y-89100000D03*
X166350000Y-76200000D03*
X166350000Y-74250000D03*
X168750000Y-74300000D03*
X168750000Y-76150000D03*
X170250000Y-78100000D03*
%TO.N,+3V3*%
X176850000Y-72350000D03*
X167300000Y-80050000D03*
%TO.N,GND*%
X155750000Y-96450000D03*
D22*
X155925000Y-78675000D03*
D21*
X172768750Y-79018750D03*
X171175000Y-88925000D03*
X172500000Y-86300000D03*
D22*
X165925000Y-90075000D03*
X158175000Y-80525000D03*
X158175000Y-93275000D03*
D21*
X157684114Y-85128237D03*
D22*
X151300000Y-76350000D03*
D21*
X176950000Y-69350000D03*
X160871925Y-81737669D03*
X176875000Y-76975000D03*
D22*
X155875000Y-76575000D03*
D21*
X145400000Y-83200000D03*
D22*
%TO.N,+3V3*%
X171000000Y-73050000D03*
X162018750Y-83518750D03*
X167525000Y-90325000D03*
X150050000Y-76200000D03*
X158275000Y-90375000D03*
X159667657Y-75324500D03*
X164050000Y-82093750D03*
D21*
%TO.N,Net-(D4-Pad2)*%
X158175000Y-92175000D03*
X162925000Y-90375000D03*
%TD*%
D23*
%TO.N,+3V3*%
X164075000Y-82118750D02*
X168768750Y-82118750D01*
X164050000Y-82093750D02*
X164075000Y-82118750D01*
D24*
%TO.N,GND*%
X170150000Y-78000000D02*
X170250000Y-78100000D01*
X169050000Y-78000000D02*
X170150000Y-78000000D01*
X168768750Y-78281250D02*
X169050000Y-78000000D01*
X168768750Y-79818750D02*
X168768750Y-78281250D01*
X171000000Y-85287500D02*
X171018750Y-85268750D01*
X171000000Y-86300000D02*
X171000000Y-85287500D01*
X173850000Y-86300000D02*
X171000000Y-86300000D01*
X175200000Y-86300000D02*
X176650000Y-86300000D01*
X173850000Y-86300000D02*
X175200000Y-86300000D01*
D23*
%TO.N,+5V*%
X173601847Y-81200000D02*
X175200000Y-81200000D01*
X173018750Y-81783097D02*
X173601847Y-81200000D01*
X173018750Y-83118750D02*
X173018750Y-81783097D01*
X173050000Y-83150000D02*
X173018750Y-83118750D01*
X173050000Y-83350000D02*
X173050000Y-83150000D01*
X170950000Y-83350000D02*
X173050000Y-83350000D01*
X169881250Y-84418750D02*
X170950000Y-83350000D01*
X168768750Y-84418750D02*
X169881250Y-84418750D01*
X173018750Y-85218750D02*
X173250000Y-85450000D01*
X173250000Y-85450000D02*
X175200000Y-85450000D01*
X173018750Y-83118750D02*
X173018750Y-85218750D01*
D25*
%TO.N,/USB-*%
X174350000Y-83750000D02*
X175200000Y-82900000D01*
X173850000Y-83750000D02*
X174350000Y-83750000D01*
D23*
%TO.N,+3V3*%
X166168750Y-82118750D02*
X162568750Y-82118750D01*
X170356250Y-82118750D02*
X171018750Y-81456250D01*
X168768750Y-82118750D02*
X170356250Y-82118750D01*
D26*
%TO.N,Net-(D4-Pad2)*%
X158175000Y-92175000D02*
X161125000Y-92175000D01*
X161125000Y-92175000D02*
X162925000Y-90375000D01*
%TD*%
%TA.AperFunction,Conductor*%
%TO.N,GND*%
G36*
X137923068Y-67820002D02*
G01*
X137969561Y-67873658D01*
X137979665Y-67943932D01*
X137950171Y-68008512D01*
X137886282Y-68048041D01*
X137687627Y-68099047D01*
X137680101Y-68101492D01*
X137394038Y-68214753D01*
X137386903Y-68218110D01*
X137117292Y-68366330D01*
X137110612Y-68370570D01*
X136887508Y-68532664D01*
X136879085Y-68543587D01*
X136885989Y-68556448D01*
X138447519Y-70117978D01*
X138461463Y-70125592D01*
X138463296Y-70125461D01*
X138469911Y-70121210D01*
X140034997Y-68556124D01*
X140041610Y-68544013D01*
X140032783Y-68532395D01*
X139810050Y-68370570D01*
X139803370Y-68366330D01*
X139533759Y-68218110D01*
X139526624Y-68214753D01*
X139240561Y-68101492D01*
X139233035Y-68099047D01*
X139034380Y-68048041D01*
X138973374Y-68011727D01*
X138941685Y-67948194D01*
X138949375Y-67877616D01*
X138994002Y-67822398D01*
X139065715Y-67800000D01*
X179174000Y-67800000D01*
X179242121Y-67820002D01*
X179288614Y-67873658D01*
X179300000Y-67926000D01*
X179300000Y-78389967D01*
X179279998Y-78458088D01*
X179226342Y-78504581D01*
X179156068Y-78514685D01*
X179089689Y-78483603D01*
X179087162Y-78481328D01*
X179082169Y-78475604D01*
X179003459Y-78420286D01*
X178949670Y-78382482D01*
X178949668Y-78382481D01*
X178943453Y-78378113D01*
X178785487Y-78316524D01*
X178777954Y-78315532D01*
X178777953Y-78315532D01*
X178660261Y-78300038D01*
X178660260Y-78300038D01*
X178656174Y-78299500D01*
X177767484Y-78299500D01*
X177641680Y-78314724D01*
X177483077Y-78374655D01*
X177476819Y-78378956D01*
X177351298Y-78465225D01*
X177343349Y-78470688D01*
X177338297Y-78476358D01*
X177338296Y-78476359D01*
X177235612Y-78591608D01*
X177235610Y-78591612D01*
X177230560Y-78597279D01*
X177227008Y-78603988D01*
X177227007Y-78603989D01*
X177220648Y-78615999D01*
X177151224Y-78747119D01*
X177109919Y-78911559D01*
X177109031Y-79081105D01*
X177110805Y-79088492D01*
X177110805Y-79088496D01*
X177136768Y-79196635D01*
X177148612Y-79245968D01*
X177152093Y-79252712D01*
X177152094Y-79252715D01*
X177199665Y-79344882D01*
X177226375Y-79396631D01*
X177231367Y-79402353D01*
X177231368Y-79402355D01*
X177280114Y-79458234D01*
X177337831Y-79524396D01*
X177396351Y-79565525D01*
X177470330Y-79617518D01*
X177470332Y-79617519D01*
X177476547Y-79621887D01*
X177634513Y-79683476D01*
X177642046Y-79684468D01*
X177642047Y-79684468D01*
X177759739Y-79699962D01*
X177763826Y-79700500D01*
X178652516Y-79700500D01*
X178778320Y-79685276D01*
X178936923Y-79625345D01*
X179023301Y-79565979D01*
X179070392Y-79533614D01*
X179070393Y-79533613D01*
X179076651Y-79529312D01*
X179081704Y-79523641D01*
X179087401Y-79518618D01*
X179088744Y-79520142D01*
X179140166Y-79488085D01*
X179211156Y-79489060D01*
X179270349Y-79528261D01*
X179298952Y-79593241D01*
X179300000Y-79609457D01*
X179300000Y-87039967D01*
X179279998Y-87108088D01*
X179226342Y-87154581D01*
X179156068Y-87164685D01*
X179089689Y-87133603D01*
X179087162Y-87131328D01*
X179082169Y-87125604D01*
X178960320Y-87039967D01*
X178949670Y-87032482D01*
X178949668Y-87032481D01*
X178943453Y-87028113D01*
X178785487Y-86966524D01*
X178777954Y-86965532D01*
X178777953Y-86965532D01*
X178660261Y-86950038D01*
X178660260Y-86950038D01*
X178656174Y-86949500D01*
X177767484Y-86949500D01*
X177641680Y-86964724D01*
X177483077Y-87024655D01*
X177343349Y-87120688D01*
X177338297Y-87126358D01*
X177338296Y-87126359D01*
X177235612Y-87241608D01*
X177235610Y-87241612D01*
X177230560Y-87247279D01*
X177227008Y-87253988D01*
X177227007Y-87253989D01*
X177205418Y-87294764D01*
X177151224Y-87397119D01*
X177109919Y-87561559D01*
X177109031Y-87731105D01*
X177110805Y-87738492D01*
X177110805Y-87738496D01*
X177129842Y-87817789D01*
X177148612Y-87895968D01*
X177152093Y-87902712D01*
X177152094Y-87902715D01*
X177206332Y-88007798D01*
X177226375Y-88046631D01*
X177231367Y-88052353D01*
X177231368Y-88052355D01*
X177251949Y-88075947D01*
X177337831Y-88174396D01*
X177344045Y-88178763D01*
X177470330Y-88267518D01*
X177470332Y-88267519D01*
X177476547Y-88271887D01*
X177634513Y-88333476D01*
X177642046Y-88334468D01*
X177642047Y-88334468D01*
X177759739Y-88349962D01*
X177763826Y-88350500D01*
X178652516Y-88350500D01*
X178778320Y-88335276D01*
X178936923Y-88275345D01*
X178983634Y-88243241D01*
X179070392Y-88183614D01*
X179070393Y-88183613D01*
X179076651Y-88179312D01*
X179081704Y-88173641D01*
X179087401Y-88168618D01*
X179088744Y-88170142D01*
X179140166Y-88138085D01*
X179211156Y-88139060D01*
X179270349Y-88178261D01*
X179298952Y-88243241D01*
X179300000Y-88259457D01*
X179300000Y-97924000D01*
X179279998Y-97992121D01*
X179226342Y-98038614D01*
X179174000Y-98050000D01*
X139467937Y-98050000D01*
X139399816Y-98029998D01*
X139353323Y-97976342D01*
X139343219Y-97906068D01*
X139372713Y-97841488D01*
X139421553Y-97806848D01*
X139526624Y-97765247D01*
X139533759Y-97761890D01*
X139803370Y-97613670D01*
X139810050Y-97609430D01*
X140033154Y-97447336D01*
X140041577Y-97436413D01*
X140034673Y-97423552D01*
X138473143Y-95862022D01*
X138459199Y-95854408D01*
X138457366Y-95854539D01*
X138450751Y-95858790D01*
X136885665Y-97423876D01*
X136879052Y-97435987D01*
X136887879Y-97447605D01*
X137110612Y-97609430D01*
X137117292Y-97613670D01*
X137386903Y-97761890D01*
X137394038Y-97765247D01*
X137499109Y-97806848D01*
X137555083Y-97850523D01*
X137578559Y-97917526D01*
X137562083Y-97986584D01*
X137510887Y-98035773D01*
X137452725Y-98050000D01*
X130026000Y-98050000D01*
X129957879Y-98029998D01*
X129911386Y-97976342D01*
X129900000Y-97924000D01*
X129900000Y-95493958D01*
X135947621Y-95493958D01*
X135966938Y-95800994D01*
X135967931Y-95808855D01*
X136025577Y-96111046D01*
X136027548Y-96118723D01*
X136122615Y-96411309D01*
X136125530Y-96418672D01*
X136256520Y-96697041D01*
X136260332Y-96703974D01*
X136425182Y-96963736D01*
X136429826Y-96970129D01*
X136504828Y-97060790D01*
X136517345Y-97069245D01*
X136528083Y-97063038D01*
X138088309Y-95502812D01*
X138094687Y-95491132D01*
X138824739Y-95491132D01*
X138824870Y-95492965D01*
X138829121Y-95499580D01*
X140391476Y-97061935D01*
X140404738Y-97069177D01*
X140414843Y-97061988D01*
X140490836Y-96970129D01*
X140495480Y-96963736D01*
X140660330Y-96703974D01*
X140664142Y-96697041D01*
X140795132Y-96418672D01*
X140798047Y-96411309D01*
X140893114Y-96118723D01*
X140895085Y-96111046D01*
X140952731Y-95808855D01*
X140953724Y-95800994D01*
X140973041Y-95493958D01*
X140973041Y-95486042D01*
X140953724Y-95179006D01*
X140952731Y-95171145D01*
X140895085Y-94868954D01*
X140893114Y-94861277D01*
X140798047Y-94568691D01*
X140795132Y-94561328D01*
X140664142Y-94282959D01*
X140660330Y-94276026D01*
X140495480Y-94016264D01*
X140490836Y-94009871D01*
X140415834Y-93919210D01*
X140403317Y-93910755D01*
X140392579Y-93916962D01*
X138832353Y-95477188D01*
X138824739Y-95491132D01*
X138094687Y-95491132D01*
X138095923Y-95488868D01*
X138095792Y-95487035D01*
X138091541Y-95480420D01*
X136529186Y-93918065D01*
X136515924Y-93910823D01*
X136505819Y-93918012D01*
X136429826Y-94009871D01*
X136425182Y-94016264D01*
X136260332Y-94276026D01*
X136256520Y-94282959D01*
X136125530Y-94561328D01*
X136122615Y-94568691D01*
X136027548Y-94861277D01*
X136025577Y-94868954D01*
X135967931Y-95171145D01*
X135966938Y-95179006D01*
X135947621Y-95486042D01*
X135947621Y-95493958D01*
X129900000Y-95493958D01*
X129900000Y-93543587D01*
X136879085Y-93543587D01*
X136885989Y-93556448D01*
X138447519Y-95117978D01*
X138461463Y-95125592D01*
X138463296Y-95125461D01*
X138469911Y-95121210D01*
X140034997Y-93556124D01*
X140041610Y-93544013D01*
X140032783Y-93532395D01*
X139810050Y-93370570D01*
X139803370Y-93366330D01*
X139533759Y-93218110D01*
X139526624Y-93214753D01*
X139240561Y-93101492D01*
X139233035Y-93099047D01*
X138935052Y-93022538D01*
X138927281Y-93021055D01*
X138622053Y-92982497D01*
X138614162Y-92982000D01*
X138306500Y-92982000D01*
X138298609Y-92982497D01*
X137993381Y-93021055D01*
X137985610Y-93022538D01*
X137687627Y-93099047D01*
X137680101Y-93101492D01*
X137394038Y-93214753D01*
X137386903Y-93218110D01*
X137117292Y-93366330D01*
X137110612Y-93370570D01*
X136887508Y-93532664D01*
X136879085Y-93543587D01*
X129900000Y-93543587D01*
X129900000Y-92175000D01*
X157619750Y-92175000D01*
X157638670Y-92318709D01*
X157694139Y-92452625D01*
X157782379Y-92567621D01*
X157897375Y-92655861D01*
X158031291Y-92711330D01*
X158175000Y-92730250D01*
X158318709Y-92711330D01*
X158452625Y-92655861D01*
X158523420Y-92601538D01*
X158589640Y-92575937D01*
X158600124Y-92575500D01*
X161188433Y-92575500D01*
X161197864Y-92572436D01*
X161197868Y-92572435D01*
X161209353Y-92568703D01*
X161228578Y-92564087D01*
X161240512Y-92562197D01*
X161240513Y-92562197D01*
X161250304Y-92560646D01*
X161259137Y-92556145D01*
X161259141Y-92556144D01*
X161269906Y-92550659D01*
X161288166Y-92543095D01*
X161309090Y-92536296D01*
X161326893Y-92523361D01*
X161343745Y-92513035D01*
X161354502Y-92507554D01*
X161363342Y-92503050D01*
X161385905Y-92480487D01*
X161385909Y-92480484D01*
X162907587Y-90958805D01*
X162969899Y-90924780D01*
X162980230Y-90922979D01*
X163068709Y-90911330D01*
X163202625Y-90855861D01*
X163317621Y-90767621D01*
X163405861Y-90652625D01*
X163461330Y-90518709D01*
X163480250Y-90375000D01*
X163472694Y-90317611D01*
X166819394Y-90317611D01*
X166837999Y-90486135D01*
X166896266Y-90645356D01*
X166900502Y-90651659D01*
X166900502Y-90651660D01*
X166913574Y-90671113D01*
X166990830Y-90786083D01*
X166996442Y-90791190D01*
X166996445Y-90791193D01*
X167110612Y-90895077D01*
X167110616Y-90895080D01*
X167116233Y-90900191D01*
X167122906Y-90903814D01*
X167122910Y-90903817D01*
X167258558Y-90977467D01*
X167258560Y-90977468D01*
X167265235Y-90981092D01*
X167272584Y-90983020D01*
X167421883Y-91022188D01*
X167421885Y-91022188D01*
X167429233Y-91024116D01*
X167515609Y-91025473D01*
X167591161Y-91026660D01*
X167591164Y-91026660D01*
X167598760Y-91026779D01*
X167606165Y-91025083D01*
X167606166Y-91025083D01*
X167666586Y-91011245D01*
X167764029Y-90988928D01*
X167915498Y-90912747D01*
X167994713Y-90845090D01*
X168038651Y-90807564D01*
X168038652Y-90807563D01*
X168044423Y-90802634D01*
X168143361Y-90664947D01*
X168146194Y-90657900D01*
X168203766Y-90514687D01*
X168203767Y-90514685D01*
X168206601Y-90507634D01*
X168224889Y-90379135D01*
X168229909Y-90343862D01*
X168229909Y-90343859D01*
X168230490Y-90339778D01*
X168230645Y-90325000D01*
X168230012Y-90319765D01*
X168216371Y-90207047D01*
X168210276Y-90156680D01*
X168150345Y-89998077D01*
X168084884Y-89902831D01*
X168058614Y-89864608D01*
X168058613Y-89864607D01*
X168054312Y-89858349D01*
X168015230Y-89823528D01*
X167933392Y-89750612D01*
X167933388Y-89750610D01*
X167927721Y-89745560D01*
X167879024Y-89719776D01*
X167792701Y-89674071D01*
X167777881Y-89666224D01*
X167613441Y-89624919D01*
X167605843Y-89624879D01*
X167605841Y-89624879D01*
X167528668Y-89624475D01*
X167443895Y-89624031D01*
X167436508Y-89625805D01*
X167436504Y-89625805D01*
X167293162Y-89660220D01*
X167279032Y-89663612D01*
X167272288Y-89667093D01*
X167272285Y-89667094D01*
X167170216Y-89719776D01*
X167128369Y-89741375D01*
X167122647Y-89746367D01*
X167122645Y-89746368D01*
X167101016Y-89765236D01*
X167000604Y-89852831D01*
X166965137Y-89903295D01*
X166913089Y-89977353D01*
X166903113Y-89991547D01*
X166841524Y-90149513D01*
X166840532Y-90157046D01*
X166840532Y-90157047D01*
X166831763Y-90223660D01*
X166819394Y-90317611D01*
X163472694Y-90317611D01*
X163461330Y-90231291D01*
X163405861Y-90097375D01*
X163317621Y-89982379D01*
X163202625Y-89894139D01*
X163068709Y-89838670D01*
X162925000Y-89819750D01*
X162781291Y-89838670D01*
X162647375Y-89894139D01*
X162532379Y-89982379D01*
X162444139Y-90097375D01*
X162388670Y-90231291D01*
X162377306Y-90317611D01*
X162377022Y-90319765D01*
X162348299Y-90384692D01*
X162341195Y-90392413D01*
X160996012Y-91737595D01*
X160933700Y-91771621D01*
X160906917Y-91774500D01*
X158600124Y-91774500D01*
X158532003Y-91754498D01*
X158523420Y-91748462D01*
X158509258Y-91737595D01*
X158452625Y-91694139D01*
X158318709Y-91638670D01*
X158175000Y-91619750D01*
X158031291Y-91638670D01*
X157897375Y-91694139D01*
X157782379Y-91782379D01*
X157694139Y-91897375D01*
X157638670Y-92031291D01*
X157619750Y-92175000D01*
X129900000Y-92175000D01*
X129900000Y-90367611D01*
X157569394Y-90367611D01*
X157587999Y-90536135D01*
X157595867Y-90557634D01*
X157633027Y-90659178D01*
X157646266Y-90695356D01*
X157650502Y-90701659D01*
X157650502Y-90701660D01*
X157663574Y-90721113D01*
X157740830Y-90836083D01*
X157746442Y-90841190D01*
X157746445Y-90841193D01*
X157860612Y-90945077D01*
X157860616Y-90945080D01*
X157866233Y-90950191D01*
X157872906Y-90953814D01*
X157872910Y-90953817D01*
X158008558Y-91027467D01*
X158008560Y-91027468D01*
X158015235Y-91031092D01*
X158022584Y-91033020D01*
X158171883Y-91072188D01*
X158171885Y-91072188D01*
X158179233Y-91074116D01*
X158265609Y-91075473D01*
X158341161Y-91076660D01*
X158341164Y-91076660D01*
X158348760Y-91076779D01*
X158356165Y-91075083D01*
X158356166Y-91075083D01*
X158416586Y-91061245D01*
X158514029Y-91038928D01*
X158665498Y-90962747D01*
X158794423Y-90852634D01*
X158893361Y-90714947D01*
X158901237Y-90695356D01*
X158953766Y-90564687D01*
X158953767Y-90564685D01*
X158956601Y-90557634D01*
X158980490Y-90389778D01*
X158980645Y-90375000D01*
X158978840Y-90360080D01*
X158963254Y-90231291D01*
X158960276Y-90206680D01*
X158900345Y-90048077D01*
X158861493Y-89991547D01*
X158808614Y-89914608D01*
X158808613Y-89914607D01*
X158804312Y-89908349D01*
X158792514Y-89897837D01*
X158683392Y-89800612D01*
X158683388Y-89800610D01*
X158677721Y-89795560D01*
X158527881Y-89716224D01*
X158363441Y-89674919D01*
X158355843Y-89674879D01*
X158355841Y-89674879D01*
X158278668Y-89674475D01*
X158193895Y-89674031D01*
X158186508Y-89675805D01*
X158186504Y-89675805D01*
X158043162Y-89710220D01*
X158029032Y-89713612D01*
X158022288Y-89717093D01*
X158022285Y-89717094D01*
X157936270Y-89761490D01*
X157878369Y-89791375D01*
X157872647Y-89796367D01*
X157872645Y-89796368D01*
X157813645Y-89847837D01*
X157750604Y-89902831D01*
X157746237Y-89909045D01*
X157683278Y-89998627D01*
X157653113Y-90041547D01*
X157591524Y-90199513D01*
X157590532Y-90207046D01*
X157590532Y-90207047D01*
X157572521Y-90343862D01*
X157569394Y-90367611D01*
X129900000Y-90367611D01*
X129900000Y-89616062D01*
X139158824Y-89616062D01*
X139168120Y-89628077D01*
X139219325Y-89663931D01*
X139228820Y-89669414D01*
X139426278Y-89761490D01*
X139436570Y-89765236D01*
X139647019Y-89821625D01*
X139657812Y-89823528D01*
X139874856Y-89842517D01*
X139885806Y-89842517D01*
X140102850Y-89823528D01*
X140113643Y-89821625D01*
X140324092Y-89765236D01*
X140334384Y-89761490D01*
X140531842Y-89669414D01*
X140541337Y-89663931D01*
X140593379Y-89627491D01*
X140601755Y-89617012D01*
X140594687Y-89603566D01*
X139893143Y-88902022D01*
X139879199Y-88894408D01*
X139877366Y-88894539D01*
X139870751Y-88898790D01*
X139165254Y-89604287D01*
X139158824Y-89616062D01*
X129900000Y-89616062D01*
X129900000Y-88535475D01*
X138567814Y-88535475D01*
X138586803Y-88752519D01*
X138588706Y-88763312D01*
X138645095Y-88973761D01*
X138648841Y-88984053D01*
X138740917Y-89181511D01*
X138746400Y-89191006D01*
X138782840Y-89243048D01*
X138793319Y-89251424D01*
X138806765Y-89244356D01*
X139508309Y-88542812D01*
X139514687Y-88531132D01*
X140244739Y-88531132D01*
X140244870Y-88532965D01*
X140249121Y-88539580D01*
X140954618Y-89245077D01*
X140966393Y-89251507D01*
X140978408Y-89242211D01*
X141014262Y-89191006D01*
X141019745Y-89181511D01*
X141111821Y-88984053D01*
X141115567Y-88973761D01*
X141171956Y-88763312D01*
X141173859Y-88752519D01*
X141192848Y-88535475D01*
X141192848Y-88524525D01*
X141173859Y-88307481D01*
X141171956Y-88296688D01*
X141115567Y-88086239D01*
X141111821Y-88075947D01*
X141019745Y-87878489D01*
X141014262Y-87868994D01*
X140977822Y-87816952D01*
X140967343Y-87808576D01*
X140953897Y-87815644D01*
X140252353Y-88517188D01*
X140244739Y-88531132D01*
X139514687Y-88531132D01*
X139515923Y-88528868D01*
X139515792Y-88527035D01*
X139511541Y-88520420D01*
X138806044Y-87814923D01*
X138794269Y-87808493D01*
X138782254Y-87817789D01*
X138746400Y-87868994D01*
X138740917Y-87878489D01*
X138648841Y-88075947D01*
X138645095Y-88086239D01*
X138588706Y-88296688D01*
X138586803Y-88307481D01*
X138567814Y-88524525D01*
X138567814Y-88535475D01*
X129900000Y-88535475D01*
X129900000Y-87130262D01*
X135984851Y-87130262D01*
X136002090Y-87335553D01*
X136003789Y-87341478D01*
X136029724Y-87431923D01*
X136058875Y-87533586D01*
X136061690Y-87539063D01*
X136061691Y-87539066D01*
X136080927Y-87576495D01*
X136153043Y-87716818D01*
X136281008Y-87878270D01*
X136437895Y-88011791D01*
X136443273Y-88014797D01*
X136443275Y-88014798D01*
X136527812Y-88062044D01*
X136617729Y-88112297D01*
X136697096Y-88138085D01*
X136807802Y-88174056D01*
X136807806Y-88174057D01*
X136813660Y-88175959D01*
X137018225Y-88200351D01*
X137024360Y-88199879D01*
X137024362Y-88199879D01*
X137080370Y-88195569D01*
X137223631Y-88184546D01*
X137229561Y-88182890D01*
X137229563Y-88182890D01*
X137416128Y-88130800D01*
X137416127Y-88130800D01*
X137422056Y-88129145D01*
X137427545Y-88126372D01*
X137427551Y-88126370D01*
X137586633Y-88046011D01*
X137605941Y-88036258D01*
X137768282Y-87909424D01*
X137780286Y-87895518D01*
X137898871Y-87758134D01*
X137898871Y-87758133D01*
X137902895Y-87753472D01*
X137923718Y-87716818D01*
X138001607Y-87579707D01*
X138004654Y-87574344D01*
X138048350Y-87442988D01*
X139158907Y-87442988D01*
X139165975Y-87456434D01*
X139867519Y-88157978D01*
X139881463Y-88165592D01*
X139883296Y-88165461D01*
X139889911Y-88161210D01*
X140320016Y-87731105D01*
X173379031Y-87731105D01*
X173380805Y-87738492D01*
X173380805Y-87738496D01*
X173399842Y-87817789D01*
X173418612Y-87895968D01*
X173422093Y-87902712D01*
X173422094Y-87902715D01*
X173476332Y-88007798D01*
X173496375Y-88046631D01*
X173501367Y-88052353D01*
X173501368Y-88052355D01*
X173521949Y-88075947D01*
X173607831Y-88174396D01*
X173614045Y-88178763D01*
X173740330Y-88267518D01*
X173740332Y-88267519D01*
X173746547Y-88271887D01*
X173904513Y-88333476D01*
X173912046Y-88334468D01*
X173912047Y-88334468D01*
X174029739Y-88349962D01*
X174033826Y-88350500D01*
X175622516Y-88350500D01*
X175748320Y-88335276D01*
X175906923Y-88275345D01*
X175953634Y-88243241D01*
X176040392Y-88183614D01*
X176040393Y-88183613D01*
X176046651Y-88179312D01*
X176051704Y-88173641D01*
X176154388Y-88058392D01*
X176154390Y-88058388D01*
X176159440Y-88052721D01*
X176166238Y-88039883D01*
X176195254Y-87985080D01*
X176238776Y-87902881D01*
X176280081Y-87738441D01*
X176280969Y-87568895D01*
X176241388Y-87404032D01*
X176228398Y-87378863D01*
X176167108Y-87260117D01*
X176167108Y-87260116D01*
X176163625Y-87253369D01*
X176158313Y-87247279D01*
X176077447Y-87154581D01*
X176052169Y-87125604D01*
X175930320Y-87039967D01*
X175919670Y-87032482D01*
X175919668Y-87032481D01*
X175913453Y-87028113D01*
X175755487Y-86966524D01*
X175747954Y-86965532D01*
X175747953Y-86965532D01*
X175630261Y-86950038D01*
X175630260Y-86950038D01*
X175626174Y-86949500D01*
X174037484Y-86949500D01*
X173911680Y-86964724D01*
X173753077Y-87024655D01*
X173613349Y-87120688D01*
X173608297Y-87126358D01*
X173608296Y-87126359D01*
X173505612Y-87241608D01*
X173505610Y-87241612D01*
X173500560Y-87247279D01*
X173497008Y-87253988D01*
X173497007Y-87253989D01*
X173475418Y-87294764D01*
X173421224Y-87397119D01*
X173379919Y-87561559D01*
X173379031Y-87731105D01*
X140320016Y-87731105D01*
X140595408Y-87455713D01*
X140601838Y-87443938D01*
X140592542Y-87431923D01*
X140541337Y-87396069D01*
X140531842Y-87390586D01*
X140334384Y-87298510D01*
X140324092Y-87294764D01*
X140157029Y-87250000D01*
X153700000Y-87250000D01*
X157500000Y-87250000D01*
X157500000Y-84043424D01*
X161218250Y-84043424D01*
X161232784Y-84116490D01*
X161288149Y-84199351D01*
X161371010Y-84254716D01*
X161444076Y-84269250D01*
X163493424Y-84269250D01*
X163566490Y-84254716D01*
X163649351Y-84199351D01*
X163704716Y-84116490D01*
X163719250Y-84043424D01*
X163719250Y-82894539D01*
X163739252Y-82826418D01*
X163792908Y-82779925D01*
X163863182Y-82769821D01*
X163877223Y-82772663D01*
X163946883Y-82790938D01*
X163946885Y-82790938D01*
X163954233Y-82792866D01*
X164040609Y-82794223D01*
X164116161Y-82795410D01*
X164116164Y-82795410D01*
X164123760Y-82795529D01*
X164131165Y-82793833D01*
X164131166Y-82793833D01*
X164223600Y-82772663D01*
X164289029Y-82757678D01*
X164438136Y-82682685D01*
X164494750Y-82669250D01*
X167392250Y-82669250D01*
X167460371Y-82689252D01*
X167506864Y-82742908D01*
X167518250Y-82795250D01*
X167518250Y-82893424D01*
X167532784Y-82966490D01*
X167539678Y-82976807D01*
X167539678Y-82976808D01*
X167544834Y-82984525D01*
X167588149Y-83049351D01*
X167671010Y-83104716D01*
X167744076Y-83119250D01*
X169793424Y-83119250D01*
X169866490Y-83104716D01*
X169872554Y-83100665D01*
X169939623Y-83093454D01*
X170003110Y-83125234D01*
X170039336Y-83186293D01*
X170043250Y-83217451D01*
X170043251Y-83320047D01*
X170023250Y-83388168D01*
X169969594Y-83434661D01*
X169899321Y-83444766D01*
X169874045Y-83437832D01*
X169866490Y-83432784D01*
X169793424Y-83418250D01*
X167744076Y-83418250D01*
X167671010Y-83432784D01*
X167588149Y-83488149D01*
X167532784Y-83571010D01*
X167518250Y-83644076D01*
X167518250Y-85193424D01*
X167532784Y-85266490D01*
X167588149Y-85349351D01*
X167671010Y-85404716D01*
X167744076Y-85419250D01*
X169659751Y-85419250D01*
X169727872Y-85439252D01*
X169774365Y-85492908D01*
X169785751Y-85545250D01*
X169785751Y-85565845D01*
X169786088Y-85572364D01*
X169796007Y-85667956D01*
X169798899Y-85681350D01*
X169850338Y-85835534D01*
X169856511Y-85848712D01*
X169941813Y-85986557D01*
X169950849Y-85997958D01*
X170065579Y-86112489D01*
X170076990Y-86121501D01*
X170214993Y-86206566D01*
X170228174Y-86212713D01*
X170382460Y-86263888D01*
X170395836Y-86266755D01*
X170490188Y-86276422D01*
X170496604Y-86276750D01*
X170746635Y-86276750D01*
X170761874Y-86272275D01*
X170763079Y-86270885D01*
X170764750Y-86263202D01*
X170764750Y-85140750D01*
X170784752Y-85072629D01*
X170838408Y-85026136D01*
X170890750Y-85014750D01*
X171146750Y-85014750D01*
X171214871Y-85034752D01*
X171261364Y-85088408D01*
X171272750Y-85140750D01*
X171272750Y-86258634D01*
X171277225Y-86273873D01*
X171278615Y-86275078D01*
X171286298Y-86276749D01*
X171540845Y-86276749D01*
X171547364Y-86276412D01*
X171642956Y-86266493D01*
X171656350Y-86263601D01*
X171810534Y-86212162D01*
X171823712Y-86205989D01*
X171961557Y-86120687D01*
X171972958Y-86111651D01*
X172087489Y-85996921D01*
X172096501Y-85985510D01*
X172181566Y-85847507D01*
X172187713Y-85834326D01*
X172238888Y-85680040D01*
X172241755Y-85666664D01*
X172251422Y-85572312D01*
X172251750Y-85565896D01*
X172251750Y-85447801D01*
X172271752Y-85379680D01*
X172325408Y-85333187D01*
X172395682Y-85323083D01*
X172460262Y-85352577D01*
X172495381Y-85402647D01*
X172498021Y-85409525D01*
X172499982Y-85417886D01*
X172504118Y-85425409D01*
X172504120Y-85425415D01*
X172520945Y-85456018D01*
X172526161Y-85466663D01*
X172543445Y-85506605D01*
X172552908Y-85518291D01*
X172565395Y-85536875D01*
X172572643Y-85550058D01*
X172579647Y-85558172D01*
X172604183Y-85582708D01*
X172613008Y-85592509D01*
X172632955Y-85617141D01*
X172638364Y-85623820D01*
X172653704Y-85634722D01*
X172669801Y-85648326D01*
X172850120Y-85828645D01*
X172853772Y-85832453D01*
X172895799Y-85878156D01*
X172932802Y-85901099D01*
X172942552Y-85907800D01*
X172977217Y-85934112D01*
X172991195Y-85939646D01*
X173011199Y-85949707D01*
X173023986Y-85957635D01*
X173032237Y-85960032D01*
X173032239Y-85960033D01*
X173065772Y-85969775D01*
X173077002Y-85973620D01*
X173117453Y-85989636D01*
X173125994Y-85990534D01*
X173125995Y-85990534D01*
X173132408Y-85991208D01*
X173154383Y-85995520D01*
X173168825Y-85999715D01*
X173176308Y-86000265D01*
X173177208Y-86000331D01*
X173177219Y-86000331D01*
X173179515Y-86000500D01*
X173214217Y-86000500D01*
X173227387Y-86001190D01*
X173267454Y-86005401D01*
X173275919Y-86003969D01*
X173275928Y-86003969D01*
X173286000Y-86002265D01*
X173307013Y-86000500D01*
X173584779Y-86000500D01*
X173632995Y-86010090D01*
X173693238Y-86035044D01*
X173850000Y-86055682D01*
X173858188Y-86054604D01*
X173998574Y-86036122D01*
X174006762Y-86035044D01*
X174067005Y-86010090D01*
X174115221Y-86000500D01*
X174934779Y-86000500D01*
X174982995Y-86010090D01*
X175043238Y-86035044D01*
X175200000Y-86055682D01*
X175208188Y-86054604D01*
X175348574Y-86036122D01*
X175356762Y-86035044D01*
X175502841Y-85974536D01*
X175628282Y-85878282D01*
X175724536Y-85752841D01*
X175785044Y-85606762D01*
X175805682Y-85450000D01*
X175785044Y-85293238D01*
X175724536Y-85147159D01*
X175689657Y-85101704D01*
X175664056Y-85035484D01*
X175678321Y-84965935D01*
X175689657Y-84948296D01*
X175690791Y-84946818D01*
X175724536Y-84902841D01*
X175785044Y-84756762D01*
X175805682Y-84600000D01*
X175785044Y-84443238D01*
X175754200Y-84368773D01*
X175746611Y-84298186D01*
X175773961Y-84239839D01*
X175778554Y-84235465D01*
X175871731Y-84095223D01*
X175874446Y-84088077D01*
X175916013Y-83978649D01*
X175931521Y-83937823D01*
X175954955Y-83771088D01*
X175955249Y-83750000D01*
X175943080Y-83641511D01*
X175937266Y-83589672D01*
X175937265Y-83589669D01*
X175936481Y-83582676D01*
X175881108Y-83423668D01*
X175862131Y-83393298D01*
X175842996Y-83324929D01*
X175864038Y-83256802D01*
X175867830Y-83251095D01*
X175867831Y-83251093D01*
X175871731Y-83245223D01*
X175931521Y-83087823D01*
X175954955Y-82921088D01*
X175955249Y-82900000D01*
X175946996Y-82826418D01*
X175937266Y-82739672D01*
X175937265Y-82739669D01*
X175936481Y-82732676D01*
X175881108Y-82573668D01*
X175791884Y-82430879D01*
X175782089Y-82421015D01*
X175780648Y-82419564D01*
X175746841Y-82357133D01*
X175753646Y-82282563D01*
X175753647Y-82282562D01*
X175785044Y-82206762D01*
X175805682Y-82050000D01*
X175785044Y-81893238D01*
X175724536Y-81747159D01*
X175689657Y-81701704D01*
X175664056Y-81635484D01*
X175678321Y-81565935D01*
X175689657Y-81548296D01*
X175689694Y-81548248D01*
X175724536Y-81502841D01*
X175785044Y-81356762D01*
X175805682Y-81200000D01*
X175785044Y-81043238D01*
X175724536Y-80897159D01*
X175628282Y-80771718D01*
X175502841Y-80675464D01*
X175364717Y-80618251D01*
X175364391Y-80618116D01*
X175356762Y-80614956D01*
X175200000Y-80594318D01*
X175043238Y-80614956D01*
X174982995Y-80639910D01*
X174934779Y-80649500D01*
X174115221Y-80649500D01*
X174067005Y-80639910D01*
X174006762Y-80614956D01*
X173850000Y-80594318D01*
X173841812Y-80595396D01*
X173701424Y-80613878D01*
X173701422Y-80613879D01*
X173693238Y-80614956D01*
X173685609Y-80618116D01*
X173635941Y-80638689D01*
X173582446Y-80648169D01*
X173549553Y-80646790D01*
X173541188Y-80648752D01*
X173507185Y-80656727D01*
X173495514Y-80658890D01*
X173480618Y-80660931D01*
X173452415Y-80664794D01*
X173444531Y-80668206D01*
X173444530Y-80668206D01*
X173438617Y-80670765D01*
X173417348Y-80677799D01*
X173402711Y-80681232D01*
X173395186Y-80685369D01*
X173395183Y-80685370D01*
X173364579Y-80702195D01*
X173353934Y-80707411D01*
X173313992Y-80724695D01*
X173302306Y-80734158D01*
X173283722Y-80746645D01*
X173270539Y-80753893D01*
X173262425Y-80760897D01*
X173237889Y-80785433D01*
X173228088Y-80794258D01*
X173203455Y-80814206D01*
X173196777Y-80819614D01*
X173191803Y-80826613D01*
X173191802Y-80826614D01*
X173185881Y-80834946D01*
X173172271Y-80851051D01*
X172640095Y-81383228D01*
X172636286Y-81386880D01*
X172590594Y-81428896D01*
X172567651Y-81465899D01*
X172560950Y-81475649D01*
X172534638Y-81510314D01*
X172531056Y-81519362D01*
X172529104Y-81524292D01*
X172519043Y-81544296D01*
X172511115Y-81557083D01*
X172508718Y-81565334D01*
X172508717Y-81565336D01*
X172498975Y-81598869D01*
X172495130Y-81610099D01*
X172479114Y-81650550D01*
X172478216Y-81659091D01*
X172478216Y-81659092D01*
X172477542Y-81665505D01*
X172473230Y-81687480D01*
X172469035Y-81701922D01*
X172468250Y-81712612D01*
X172468250Y-81747314D01*
X172467560Y-81760484D01*
X172463349Y-81800551D01*
X172464781Y-81809016D01*
X172464781Y-81809025D01*
X172466485Y-81819097D01*
X172468250Y-81840110D01*
X172468250Y-82673500D01*
X172448248Y-82741621D01*
X172394592Y-82788114D01*
X172342250Y-82799500D01*
X171939984Y-82799500D01*
X171871863Y-82779498D01*
X171854552Y-82765548D01*
X171851296Y-82761204D01*
X171784711Y-82711301D01*
X171743756Y-82680606D01*
X171743753Y-82680604D01*
X171736574Y-82675224D01*
X171626757Y-82634056D01*
X171609725Y-82627671D01*
X171609723Y-82627671D01*
X171602330Y-82624899D01*
X171594480Y-82624046D01*
X171594479Y-82624046D01*
X171544524Y-82618619D01*
X171544523Y-82618619D01*
X171541127Y-82618250D01*
X171531910Y-82618250D01*
X170939463Y-82618251D01*
X170871343Y-82598249D01*
X170824850Y-82544593D01*
X170814746Y-82474320D01*
X170844239Y-82409739D01*
X170850369Y-82403156D01*
X171097371Y-82156154D01*
X171159683Y-82122128D01*
X171186466Y-82119249D01*
X171541126Y-82119249D01*
X171544520Y-82118880D01*
X171544526Y-82118880D01*
X171594472Y-82113455D01*
X171594476Y-82113454D01*
X171602330Y-82112601D01*
X171736574Y-82062276D01*
X171743753Y-82056896D01*
X171743756Y-82056894D01*
X171844115Y-81981678D01*
X171851296Y-81976296D01*
X171856678Y-81969115D01*
X171931894Y-81868756D01*
X171931896Y-81868753D01*
X171937276Y-81861574D01*
X171977633Y-81753919D01*
X171984829Y-81734725D01*
X171984829Y-81734723D01*
X171987601Y-81727330D01*
X171994250Y-81666127D01*
X171994249Y-81071374D01*
X171993880Y-81067974D01*
X171988455Y-81018028D01*
X171988454Y-81018024D01*
X171987601Y-81010170D01*
X171937276Y-80875926D01*
X171931896Y-80868747D01*
X171931894Y-80868744D01*
X171856678Y-80768385D01*
X171851296Y-80761204D01*
X171837294Y-80750710D01*
X171743756Y-80680606D01*
X171743753Y-80680604D01*
X171736574Y-80675224D01*
X171728172Y-80672074D01*
X171720295Y-80667762D01*
X171721663Y-80665263D01*
X171676512Y-80631344D01*
X171651815Y-80564781D01*
X171667025Y-80495433D01*
X171717312Y-80445317D01*
X171737634Y-80436483D01*
X171810532Y-80412163D01*
X171823712Y-80405989D01*
X171961557Y-80320687D01*
X171972958Y-80311651D01*
X172087489Y-80196921D01*
X172096501Y-80185510D01*
X172181566Y-80047507D01*
X172187713Y-80034326D01*
X172238888Y-79880040D01*
X172241755Y-79866664D01*
X172251422Y-79772312D01*
X172251750Y-79765896D01*
X172251750Y-79740865D01*
X172247275Y-79725626D01*
X172245885Y-79724421D01*
X172238202Y-79722750D01*
X170890750Y-79722750D01*
X170822629Y-79702748D01*
X170776136Y-79649092D01*
X170764750Y-79596750D01*
X170764750Y-79196635D01*
X171272750Y-79196635D01*
X171277225Y-79211874D01*
X171278615Y-79213079D01*
X171286298Y-79214750D01*
X172233634Y-79214750D01*
X172248873Y-79210275D01*
X172250078Y-79208885D01*
X172251749Y-79201202D01*
X172251749Y-79171655D01*
X172251411Y-79165130D01*
X172242693Y-79081105D01*
X173379031Y-79081105D01*
X173380805Y-79088492D01*
X173380805Y-79088496D01*
X173406768Y-79196635D01*
X173418612Y-79245968D01*
X173422093Y-79252712D01*
X173422094Y-79252715D01*
X173469665Y-79344882D01*
X173496375Y-79396631D01*
X173501367Y-79402353D01*
X173501368Y-79402355D01*
X173550114Y-79458234D01*
X173607831Y-79524396D01*
X173666351Y-79565525D01*
X173740330Y-79617518D01*
X173740332Y-79617519D01*
X173746547Y-79621887D01*
X173904513Y-79683476D01*
X173912046Y-79684468D01*
X173912047Y-79684468D01*
X174029739Y-79699962D01*
X174033826Y-79700500D01*
X175622516Y-79700500D01*
X175748320Y-79685276D01*
X175906923Y-79625345D01*
X175993301Y-79565979D01*
X176040392Y-79533614D01*
X176040393Y-79533613D01*
X176046651Y-79529312D01*
X176051704Y-79523641D01*
X176154388Y-79408392D01*
X176154390Y-79408388D01*
X176159440Y-79402721D01*
X176166238Y-79389883D01*
X176235224Y-79259589D01*
X176238776Y-79252881D01*
X176280081Y-79088441D01*
X176280187Y-79068312D01*
X176280929Y-78926495D01*
X176280969Y-78918895D01*
X176260556Y-78833868D01*
X176243161Y-78761417D01*
X176241388Y-78754032D01*
X176233910Y-78739542D01*
X176167108Y-78610117D01*
X176167108Y-78610116D01*
X176163625Y-78603369D01*
X176158313Y-78597279D01*
X176057163Y-78481329D01*
X176052169Y-78475604D01*
X175973459Y-78420286D01*
X175919670Y-78382482D01*
X175919668Y-78382481D01*
X175913453Y-78378113D01*
X175755487Y-78316524D01*
X175747954Y-78315532D01*
X175747953Y-78315532D01*
X175630261Y-78300038D01*
X175630260Y-78300038D01*
X175626174Y-78299500D01*
X174037484Y-78299500D01*
X173911680Y-78314724D01*
X173753077Y-78374655D01*
X173746819Y-78378956D01*
X173621298Y-78465225D01*
X173613349Y-78470688D01*
X173608297Y-78476358D01*
X173608296Y-78476359D01*
X173505612Y-78591608D01*
X173505610Y-78591612D01*
X173500560Y-78597279D01*
X173497008Y-78603988D01*
X173497007Y-78603989D01*
X173490648Y-78615999D01*
X173421224Y-78747119D01*
X173379919Y-78911559D01*
X173379031Y-79081105D01*
X172242693Y-79081105D01*
X172241493Y-79069544D01*
X172238601Y-79056150D01*
X172187162Y-78901966D01*
X172180989Y-78888788D01*
X172095687Y-78750943D01*
X172086651Y-78739542D01*
X171971921Y-78625011D01*
X171960510Y-78615999D01*
X171822507Y-78530934D01*
X171809326Y-78524787D01*
X171655040Y-78473612D01*
X171641664Y-78470745D01*
X171547312Y-78461078D01*
X171540895Y-78460750D01*
X171290865Y-78460750D01*
X171275626Y-78465225D01*
X171274421Y-78466615D01*
X171272750Y-78474298D01*
X171272750Y-79196635D01*
X170764750Y-79196635D01*
X170764750Y-78478866D01*
X170760275Y-78463627D01*
X170758885Y-78462422D01*
X170751202Y-78460751D01*
X170496655Y-78460751D01*
X170490136Y-78461088D01*
X170394544Y-78471007D01*
X170381150Y-78473899D01*
X170226966Y-78525338D01*
X170213788Y-78531512D01*
X170103862Y-78599536D01*
X170035410Y-78618374D01*
X169993330Y-78610374D01*
X169886359Y-78570272D01*
X169871101Y-78566645D01*
X169820236Y-78561119D01*
X169813422Y-78560750D01*
X169040865Y-78560750D01*
X169025626Y-78565225D01*
X169024421Y-78566615D01*
X169022750Y-78574298D01*
X169022750Y-79946750D01*
X169002748Y-80014871D01*
X168949092Y-80061364D01*
X168896750Y-80072750D01*
X168640750Y-80072750D01*
X168572629Y-80052748D01*
X168526136Y-79999092D01*
X168514750Y-79946750D01*
X168514750Y-78578866D01*
X168510275Y-78563627D01*
X168508885Y-78562422D01*
X168501202Y-78560751D01*
X167724081Y-78560751D01*
X167717260Y-78561121D01*
X167666398Y-78566645D01*
X167651146Y-78570271D01*
X167530696Y-78615426D01*
X167515101Y-78623964D01*
X167413026Y-78700465D01*
X167400465Y-78713026D01*
X167323964Y-78815101D01*
X167315426Y-78830696D01*
X167270272Y-78951144D01*
X167266645Y-78966399D01*
X167261119Y-79017264D01*
X167260750Y-79024078D01*
X167260750Y-79390113D01*
X167240748Y-79458234D01*
X167187092Y-79504727D01*
X167167361Y-79511820D01*
X167164481Y-79512592D01*
X167156291Y-79513670D01*
X167022375Y-79569139D01*
X166907379Y-79657379D01*
X166819139Y-79772375D01*
X166763670Y-79906291D01*
X166744750Y-80050000D01*
X166763670Y-80193709D01*
X166819139Y-80327625D01*
X166907379Y-80442621D01*
X167022375Y-80530861D01*
X167156291Y-80586330D01*
X167164480Y-80587408D01*
X167172455Y-80589545D01*
X167172038Y-80591103D01*
X167228275Y-80615984D01*
X167267365Y-80675250D01*
X167269481Y-80683033D01*
X167270270Y-80686351D01*
X167315426Y-80806804D01*
X167323964Y-80822399D01*
X167400465Y-80924474D01*
X167413026Y-80937035D01*
X167515107Y-81013540D01*
X167533291Y-81023496D01*
X167583437Y-81073755D01*
X167598450Y-81143146D01*
X167577547Y-81204016D01*
X167547453Y-81249056D01*
X167532784Y-81271010D01*
X167518250Y-81344076D01*
X167518250Y-81442250D01*
X167498248Y-81510371D01*
X167444592Y-81556864D01*
X167392250Y-81568250D01*
X164561250Y-81568250D01*
X164493129Y-81548248D01*
X164477431Y-81536326D01*
X164458392Y-81519362D01*
X164458389Y-81519360D01*
X164452721Y-81514310D01*
X164443437Y-81509394D01*
X164361256Y-81465882D01*
X164302881Y-81434974D01*
X164138441Y-81393669D01*
X164130843Y-81393629D01*
X164130841Y-81393629D01*
X164053668Y-81393225D01*
X163968895Y-81392781D01*
X163961508Y-81394555D01*
X163961504Y-81394555D01*
X163874665Y-81415404D01*
X163803757Y-81411858D01*
X163746023Y-81370538D01*
X163719792Y-81304565D01*
X163719250Y-81292886D01*
X163719250Y-80194076D01*
X163704716Y-80121010D01*
X163649351Y-80038149D01*
X163590897Y-79999092D01*
X163576808Y-79989678D01*
X163576807Y-79989678D01*
X163566490Y-79982784D01*
X163493424Y-79968250D01*
X161444076Y-79968250D01*
X161371010Y-79982784D01*
X161360693Y-79989678D01*
X161360692Y-79989678D01*
X161346603Y-79999092D01*
X161288149Y-80038149D01*
X161232784Y-80121010D01*
X161218250Y-80194076D01*
X161218250Y-84043424D01*
X157500000Y-84043424D01*
X157500000Y-81750000D01*
X153700000Y-81750000D01*
X153700000Y-87250000D01*
X140157029Y-87250000D01*
X140113643Y-87238375D01*
X140102850Y-87236472D01*
X139885806Y-87217483D01*
X139874856Y-87217483D01*
X139657812Y-87236472D01*
X139647019Y-87238375D01*
X139436570Y-87294764D01*
X139426278Y-87298510D01*
X139228820Y-87390586D01*
X139219325Y-87396069D01*
X139167283Y-87432509D01*
X139158907Y-87442988D01*
X138048350Y-87442988D01*
X138069682Y-87378863D01*
X138095502Y-87174474D01*
X138095914Y-87145000D01*
X138075811Y-86939970D01*
X138016266Y-86742749D01*
X137919549Y-86560849D01*
X137846190Y-86470902D01*
X137793237Y-86405975D01*
X137793234Y-86405972D01*
X137789342Y-86401200D01*
X137705474Y-86331818D01*
X137635356Y-86273811D01*
X137635352Y-86273809D01*
X137630606Y-86269882D01*
X137449386Y-86171897D01*
X137252585Y-86110977D01*
X137246460Y-86110333D01*
X137246459Y-86110333D01*
X137053829Y-86090087D01*
X137053827Y-86090087D01*
X137047700Y-86089443D01*
X136960860Y-86097346D01*
X136848673Y-86107555D01*
X136848670Y-86107556D01*
X136842534Y-86108114D01*
X136644903Y-86166280D01*
X136462333Y-86261726D01*
X136457532Y-86265586D01*
X136457529Y-86265588D01*
X136369151Y-86336646D01*
X136301778Y-86390815D01*
X136169355Y-86548630D01*
X136166387Y-86554028D01*
X136166384Y-86554033D01*
X136115018Y-86647469D01*
X136070107Y-86729162D01*
X136007815Y-86925532D01*
X136007129Y-86931649D01*
X136007128Y-86931653D01*
X135994979Y-87039967D01*
X135984851Y-87130262D01*
X129900000Y-87130262D01*
X129900000Y-85745262D01*
X138824851Y-85745262D01*
X138825367Y-85751406D01*
X138841522Y-85943785D01*
X138842090Y-85950553D01*
X138843789Y-85956478D01*
X138891109Y-86121501D01*
X138898875Y-86148586D01*
X138901690Y-86154063D01*
X138901691Y-86154066D01*
X138964742Y-86276750D01*
X138993043Y-86331818D01*
X139121008Y-86493270D01*
X139277895Y-86626791D01*
X139457729Y-86727297D01*
X139523444Y-86748649D01*
X139647802Y-86789056D01*
X139647806Y-86789057D01*
X139653660Y-86790959D01*
X139858225Y-86815351D01*
X139864360Y-86814879D01*
X139864362Y-86814879D01*
X139920370Y-86810569D01*
X140063631Y-86799546D01*
X140069561Y-86797890D01*
X140069563Y-86797890D01*
X140256128Y-86745800D01*
X140256127Y-86745800D01*
X140262056Y-86744145D01*
X140267545Y-86741372D01*
X140267551Y-86741370D01*
X140440447Y-86654033D01*
X140445941Y-86651258D01*
X140608282Y-86524424D01*
X140742895Y-86368472D01*
X140763718Y-86331818D01*
X140796670Y-86273811D01*
X140844654Y-86189344D01*
X140909682Y-85993863D01*
X140935502Y-85789474D01*
X140935914Y-85760000D01*
X140915811Y-85554970D01*
X140856266Y-85357749D01*
X140759549Y-85175849D01*
X140637446Y-85026136D01*
X140633237Y-85020975D01*
X140633234Y-85020972D01*
X140629342Y-85016200D01*
X140583304Y-84978114D01*
X140475356Y-84888811D01*
X140475352Y-84888809D01*
X140470606Y-84884882D01*
X140289386Y-84786897D01*
X140092585Y-84725977D01*
X140086460Y-84725333D01*
X140086459Y-84725333D01*
X139893829Y-84705087D01*
X139893827Y-84705087D01*
X139887700Y-84704443D01*
X139800860Y-84712346D01*
X139688673Y-84722555D01*
X139688670Y-84722556D01*
X139682534Y-84723114D01*
X139484903Y-84781280D01*
X139302333Y-84876726D01*
X139297532Y-84880586D01*
X139297529Y-84880588D01*
X139209151Y-84951646D01*
X139141778Y-85005815D01*
X139009355Y-85163630D01*
X139006387Y-85169028D01*
X139006384Y-85169033D01*
X138933601Y-85301426D01*
X138910107Y-85344162D01*
X138847815Y-85540532D01*
X138847129Y-85546649D01*
X138847128Y-85546653D01*
X138840386Y-85606762D01*
X138824851Y-85745262D01*
X129900000Y-85745262D01*
X129900000Y-84360262D01*
X135984851Y-84360262D01*
X136002090Y-84565553D01*
X136003789Y-84571478D01*
X136047769Y-84724853D01*
X136058875Y-84763586D01*
X136061690Y-84769063D01*
X136061691Y-84769066D01*
X136128725Y-84899500D01*
X136153043Y-84946818D01*
X136281008Y-85108270D01*
X136285701Y-85112264D01*
X136285702Y-85112265D01*
X136388193Y-85199491D01*
X136437895Y-85241791D01*
X136443273Y-85244797D01*
X136443275Y-85244798D01*
X136486639Y-85269033D01*
X136617729Y-85342297D01*
X136683444Y-85363649D01*
X136807802Y-85404056D01*
X136807806Y-85404057D01*
X136813660Y-85405959D01*
X137018225Y-85430351D01*
X137024360Y-85429879D01*
X137024362Y-85429879D01*
X137080370Y-85425569D01*
X137223631Y-85414546D01*
X137229561Y-85412890D01*
X137229563Y-85412890D01*
X137416128Y-85360800D01*
X137416127Y-85360800D01*
X137422056Y-85359145D01*
X137427545Y-85356372D01*
X137427551Y-85356370D01*
X137560283Y-85289322D01*
X137605941Y-85266258D01*
X137621223Y-85254319D01*
X137730384Y-85169033D01*
X137768282Y-85139424D01*
X137812318Y-85088408D01*
X137898871Y-84988134D01*
X137898871Y-84988133D01*
X137902895Y-84983472D01*
X137912858Y-84965935D01*
X137953691Y-84894055D01*
X138004654Y-84804344D01*
X138069682Y-84608863D01*
X138095502Y-84404474D01*
X138095914Y-84375000D01*
X138075811Y-84169970D01*
X138047458Y-84076062D01*
X139158824Y-84076062D01*
X139168120Y-84088077D01*
X139219325Y-84123931D01*
X139228820Y-84129414D01*
X139426278Y-84221490D01*
X139436570Y-84225236D01*
X139647019Y-84281625D01*
X139657812Y-84283528D01*
X139874856Y-84302517D01*
X139885806Y-84302517D01*
X140102850Y-84283528D01*
X140113643Y-84281625D01*
X140324092Y-84225236D01*
X140334384Y-84221490D01*
X140531842Y-84129414D01*
X140541337Y-84123931D01*
X140593379Y-84087491D01*
X140601755Y-84077012D01*
X140594687Y-84063566D01*
X139893143Y-83362022D01*
X139879199Y-83354408D01*
X139877366Y-83354539D01*
X139870751Y-83358790D01*
X139165254Y-84064287D01*
X139158824Y-84076062D01*
X138047458Y-84076062D01*
X138016266Y-83972749D01*
X137919549Y-83790849D01*
X137846190Y-83700902D01*
X137793237Y-83635975D01*
X137793234Y-83635972D01*
X137789342Y-83631200D01*
X137772117Y-83616950D01*
X137635356Y-83503811D01*
X137635352Y-83503809D01*
X137630606Y-83499882D01*
X137449386Y-83401897D01*
X137252585Y-83340977D01*
X137246460Y-83340333D01*
X137246459Y-83340333D01*
X137053829Y-83320087D01*
X137053827Y-83320087D01*
X137047700Y-83319443D01*
X136960860Y-83327346D01*
X136848673Y-83337555D01*
X136848670Y-83337556D01*
X136842534Y-83338114D01*
X136644903Y-83396280D01*
X136462333Y-83491726D01*
X136457532Y-83495586D01*
X136457529Y-83495588D01*
X136348585Y-83583181D01*
X136301778Y-83620815D01*
X136169355Y-83778630D01*
X136166387Y-83784028D01*
X136166384Y-83784033D01*
X136074630Y-83950935D01*
X136070107Y-83959162D01*
X136007815Y-84155532D01*
X136007129Y-84161649D01*
X136007128Y-84161653D01*
X135992547Y-84291651D01*
X135984851Y-84360262D01*
X129900000Y-84360262D01*
X129900000Y-82995475D01*
X138567814Y-82995475D01*
X138586803Y-83212519D01*
X138588706Y-83223312D01*
X138645095Y-83433761D01*
X138648841Y-83444053D01*
X138740917Y-83641511D01*
X138746400Y-83651006D01*
X138782840Y-83703048D01*
X138793319Y-83711424D01*
X138806765Y-83704356D01*
X139508309Y-83002812D01*
X139514687Y-82991132D01*
X140244739Y-82991132D01*
X140244870Y-82992965D01*
X140249121Y-82999580D01*
X140954618Y-83705077D01*
X140966393Y-83711507D01*
X140978408Y-83702211D01*
X141014262Y-83651006D01*
X141019745Y-83641511D01*
X141111821Y-83444053D01*
X141115567Y-83433761D01*
X141171956Y-83223312D01*
X141173859Y-83212519D01*
X141192848Y-82995475D01*
X141192848Y-82984525D01*
X141173859Y-82767481D01*
X141171956Y-82756688D01*
X141115567Y-82546239D01*
X141111821Y-82535947D01*
X141019745Y-82338489D01*
X141014262Y-82328994D01*
X140977822Y-82276952D01*
X140967343Y-82268576D01*
X140953897Y-82275644D01*
X140252353Y-82977188D01*
X140244739Y-82991132D01*
X139514687Y-82991132D01*
X139515923Y-82988868D01*
X139515792Y-82987035D01*
X139511541Y-82980420D01*
X138806044Y-82274923D01*
X138794269Y-82268493D01*
X138782254Y-82277789D01*
X138746400Y-82328994D01*
X138740917Y-82338489D01*
X138648841Y-82535947D01*
X138645095Y-82546239D01*
X138588706Y-82756688D01*
X138586803Y-82767481D01*
X138567814Y-82984525D01*
X138567814Y-82995475D01*
X129900000Y-82995475D01*
X129900000Y-81590262D01*
X135984851Y-81590262D01*
X135985367Y-81596406D01*
X135998641Y-81754475D01*
X136002090Y-81795553D01*
X136003789Y-81801478D01*
X136032449Y-81901426D01*
X136058875Y-81993586D01*
X136061690Y-81999063D01*
X136061691Y-81999066D01*
X136124936Y-82122128D01*
X136153043Y-82176818D01*
X136281008Y-82338270D01*
X136285701Y-82342264D01*
X136285702Y-82342265D01*
X136383950Y-82425880D01*
X136437895Y-82471791D01*
X136443273Y-82474797D01*
X136443275Y-82474798D01*
X136474894Y-82492469D01*
X136617729Y-82572297D01*
X136684693Y-82594055D01*
X136807802Y-82634056D01*
X136807806Y-82634057D01*
X136813660Y-82635959D01*
X137018225Y-82660351D01*
X137024360Y-82659879D01*
X137024362Y-82659879D01*
X137080370Y-82655569D01*
X137223631Y-82644546D01*
X137229561Y-82642890D01*
X137229563Y-82642890D01*
X137416128Y-82590800D01*
X137416127Y-82590800D01*
X137422056Y-82589145D01*
X137427545Y-82586372D01*
X137427551Y-82586370D01*
X137560283Y-82519322D01*
X137605941Y-82496258D01*
X137632919Y-82475181D01*
X137763432Y-82373213D01*
X137768282Y-82369424D01*
X137778892Y-82357133D01*
X137898871Y-82218134D01*
X137898871Y-82218133D01*
X137902895Y-82213472D01*
X137914569Y-82192923D01*
X137988786Y-82062276D01*
X138004654Y-82034344D01*
X138048350Y-81902988D01*
X139158907Y-81902988D01*
X139165975Y-81916434D01*
X139867519Y-82617978D01*
X139881463Y-82625592D01*
X139883296Y-82625461D01*
X139889911Y-82621210D01*
X140595408Y-81915713D01*
X140601838Y-81903938D01*
X140592542Y-81891923D01*
X140541337Y-81856069D01*
X140531842Y-81850586D01*
X140334384Y-81758510D01*
X140324092Y-81754764D01*
X140113643Y-81698375D01*
X140102850Y-81696472D01*
X139885806Y-81677483D01*
X139874856Y-81677483D01*
X139657812Y-81696472D01*
X139647019Y-81698375D01*
X139436570Y-81754764D01*
X139426278Y-81758510D01*
X139228820Y-81850586D01*
X139219325Y-81856069D01*
X139167283Y-81892509D01*
X139158907Y-81902988D01*
X138048350Y-81902988D01*
X138069682Y-81838863D01*
X138095502Y-81634474D01*
X138095914Y-81605000D01*
X138075811Y-81399970D01*
X138016266Y-81202749D01*
X137919549Y-81020849D01*
X137840947Y-80924474D01*
X137793237Y-80865975D01*
X137793234Y-80865972D01*
X137789342Y-80861200D01*
X137768030Y-80843569D01*
X137635356Y-80733811D01*
X137635352Y-80733809D01*
X137630606Y-80729882D01*
X137449386Y-80631897D01*
X137252585Y-80570977D01*
X137246460Y-80570333D01*
X137246459Y-80570333D01*
X137053829Y-80550087D01*
X137053827Y-80550087D01*
X137047700Y-80549443D01*
X136960860Y-80557346D01*
X136848673Y-80567555D01*
X136848670Y-80567556D01*
X136842534Y-80568114D01*
X136644903Y-80626280D01*
X136639438Y-80629137D01*
X136601918Y-80648752D01*
X136462333Y-80721726D01*
X136457532Y-80725586D01*
X136457529Y-80725588D01*
X136336231Y-80823114D01*
X136301778Y-80850815D01*
X136169355Y-81008630D01*
X136166387Y-81014028D01*
X136166384Y-81014033D01*
X136115018Y-81107469D01*
X136070107Y-81189162D01*
X136007815Y-81385532D01*
X136007129Y-81391649D01*
X136007128Y-81391653D01*
X135989558Y-81548296D01*
X135984851Y-81590262D01*
X129900000Y-81590262D01*
X129900000Y-80205262D01*
X138824851Y-80205262D01*
X138825367Y-80211406D01*
X138835677Y-80334178D01*
X138842090Y-80410553D01*
X138843789Y-80416478D01*
X138894784Y-80594318D01*
X138898875Y-80608586D01*
X138901690Y-80614063D01*
X138901691Y-80614066D01*
X138990228Y-80786341D01*
X138993043Y-80791818D01*
X139121008Y-80953270D01*
X139125701Y-80957264D01*
X139125702Y-80957265D01*
X139262578Y-81073755D01*
X139277895Y-81086791D01*
X139457729Y-81187297D01*
X139522025Y-81208188D01*
X139647802Y-81249056D01*
X139647806Y-81249057D01*
X139653660Y-81250959D01*
X139858225Y-81275351D01*
X139864360Y-81274879D01*
X139864362Y-81274879D01*
X139920370Y-81270569D01*
X140063631Y-81259546D01*
X140069561Y-81257890D01*
X140069563Y-81257890D01*
X140245924Y-81208649D01*
X140262056Y-81204145D01*
X140267545Y-81201372D01*
X140267551Y-81201370D01*
X140440447Y-81114033D01*
X140445941Y-81111258D01*
X140496991Y-81071374D01*
X140561660Y-81020849D01*
X140608282Y-80984424D01*
X140677021Y-80904789D01*
X140738871Y-80833134D01*
X140738871Y-80833133D01*
X140742895Y-80828472D01*
X140763718Y-80791818D01*
X140801341Y-80725588D01*
X140844654Y-80649344D01*
X140909682Y-80453863D01*
X140935502Y-80249474D01*
X140935914Y-80220000D01*
X140915811Y-80014970D01*
X140856266Y-79817749D01*
X140759549Y-79635849D01*
X140672659Y-79529312D01*
X140633237Y-79480975D01*
X140633234Y-79480972D01*
X140629342Y-79476200D01*
X140607625Y-79458234D01*
X140475356Y-79348811D01*
X140475352Y-79348809D01*
X140470606Y-79344882D01*
X140289386Y-79246897D01*
X140092585Y-79185977D01*
X140086460Y-79185333D01*
X140086459Y-79185333D01*
X139893829Y-79165087D01*
X139893827Y-79165087D01*
X139887700Y-79164443D01*
X139808451Y-79171655D01*
X139688673Y-79182555D01*
X139688670Y-79182556D01*
X139682534Y-79183114D01*
X139484903Y-79241280D01*
X139479438Y-79244137D01*
X139475936Y-79245968D01*
X139302333Y-79336726D01*
X139297532Y-79340586D01*
X139297529Y-79340588D01*
X139220251Y-79402721D01*
X139141778Y-79465815D01*
X139009355Y-79623630D01*
X139006387Y-79629028D01*
X139006384Y-79629033D01*
X138931144Y-79765896D01*
X138910107Y-79804162D01*
X138847815Y-80000532D01*
X138847129Y-80006649D01*
X138847128Y-80006653D01*
X138827065Y-80185520D01*
X138824851Y-80205262D01*
X129900000Y-80205262D01*
X129900000Y-79921062D01*
X136318824Y-79921062D01*
X136328120Y-79933077D01*
X136379325Y-79968931D01*
X136388820Y-79974414D01*
X136586278Y-80066490D01*
X136596570Y-80070236D01*
X136807019Y-80126625D01*
X136817812Y-80128528D01*
X137034856Y-80147517D01*
X137045806Y-80147517D01*
X137262850Y-80128528D01*
X137273643Y-80126625D01*
X137484092Y-80070236D01*
X137494384Y-80066490D01*
X137691842Y-79974414D01*
X137701337Y-79968931D01*
X137753379Y-79932491D01*
X137761755Y-79922012D01*
X137754687Y-79908566D01*
X137053143Y-79207022D01*
X137039199Y-79199408D01*
X137037366Y-79199539D01*
X137030751Y-79203790D01*
X136325254Y-79909287D01*
X136318824Y-79921062D01*
X129900000Y-79921062D01*
X129900000Y-78840475D01*
X135727814Y-78840475D01*
X135746803Y-79057519D01*
X135748706Y-79068312D01*
X135805095Y-79278761D01*
X135808841Y-79289053D01*
X135900917Y-79486511D01*
X135906400Y-79496006D01*
X135942840Y-79548048D01*
X135953319Y-79556424D01*
X135966765Y-79549356D01*
X136668309Y-78847812D01*
X136674687Y-78836132D01*
X137404739Y-78836132D01*
X137404870Y-78837965D01*
X137409121Y-78844580D01*
X138114618Y-79550077D01*
X138126393Y-79556507D01*
X138138408Y-79547211D01*
X138174262Y-79496006D01*
X138179745Y-79486511D01*
X138271821Y-79289053D01*
X138275567Y-79278761D01*
X138331956Y-79068312D01*
X138333859Y-79057519D01*
X138352848Y-78840475D01*
X138352848Y-78829525D01*
X138333859Y-78612481D01*
X138331956Y-78601688D01*
X138275567Y-78391239D01*
X138271821Y-78380947D01*
X138222265Y-78274674D01*
X138829831Y-78274674D01*
X138844365Y-78347740D01*
X138851259Y-78358057D01*
X138851259Y-78358058D01*
X138866553Y-78380947D01*
X138899730Y-78430601D01*
X138910045Y-78437493D01*
X138964102Y-78473612D01*
X138982591Y-78485966D01*
X139055657Y-78500500D01*
X140705005Y-78500500D01*
X140778071Y-78485966D01*
X140796561Y-78473612D01*
X140850617Y-78437493D01*
X140860932Y-78430601D01*
X140894109Y-78380947D01*
X140909403Y-78358058D01*
X140909403Y-78358057D01*
X140916297Y-78347740D01*
X140930831Y-78274674D01*
X140930831Y-76625326D01*
X140916297Y-76552260D01*
X140908311Y-76540307D01*
X140867824Y-76479714D01*
X140860932Y-76469399D01*
X140778071Y-76414034D01*
X140705005Y-76399500D01*
X139055657Y-76399500D01*
X138982591Y-76414034D01*
X138899730Y-76469399D01*
X138892838Y-76479714D01*
X138852352Y-76540307D01*
X138844365Y-76552260D01*
X138829831Y-76625326D01*
X138829831Y-78274674D01*
X138222265Y-78274674D01*
X138179745Y-78183489D01*
X138174262Y-78173994D01*
X138137822Y-78121952D01*
X138127343Y-78113576D01*
X138113897Y-78120644D01*
X137412353Y-78822188D01*
X137404739Y-78836132D01*
X136674687Y-78836132D01*
X136675923Y-78833868D01*
X136675792Y-78832035D01*
X136671541Y-78825420D01*
X135966044Y-78119923D01*
X135954269Y-78113493D01*
X135942254Y-78122789D01*
X135906400Y-78173994D01*
X135900917Y-78183489D01*
X135808841Y-78380947D01*
X135805095Y-78391239D01*
X135748706Y-78601688D01*
X135746803Y-78612481D01*
X135727814Y-78829525D01*
X135727814Y-78840475D01*
X129900000Y-78840475D01*
X129900000Y-77747988D01*
X136318907Y-77747988D01*
X136325975Y-77761434D01*
X137027519Y-78462978D01*
X137041463Y-78470592D01*
X137043296Y-78470461D01*
X137049911Y-78466210D01*
X137755408Y-77760713D01*
X137761838Y-77748938D01*
X137752542Y-77736923D01*
X137701337Y-77701069D01*
X137691842Y-77695586D01*
X137494384Y-77603510D01*
X137484092Y-77599764D01*
X137273643Y-77543375D01*
X137262850Y-77541472D01*
X137045806Y-77522483D01*
X137034856Y-77522483D01*
X136817812Y-77541472D01*
X136807019Y-77543375D01*
X136596570Y-77599764D01*
X136586278Y-77603510D01*
X136388820Y-77695586D01*
X136379325Y-77701069D01*
X136327283Y-77737509D01*
X136318907Y-77747988D01*
X129900000Y-77747988D01*
X129900000Y-75955694D01*
X142509500Y-75955694D01*
X142509692Y-75958140D01*
X142509693Y-75958153D01*
X142511174Y-75976967D01*
X142512402Y-75992569D01*
X142558256Y-76150398D01*
X142562291Y-76157220D01*
X142562291Y-76157221D01*
X142622017Y-76258213D01*
X142641919Y-76291865D01*
X142758135Y-76408081D01*
X142764956Y-76412115D01*
X142869844Y-76474145D01*
X142899602Y-76491744D01*
X142907214Y-76493955D01*
X142907215Y-76493956D01*
X142973529Y-76513222D01*
X143057431Y-76537598D01*
X143070584Y-76538633D01*
X143091847Y-76540307D01*
X143091860Y-76540308D01*
X143094306Y-76540500D01*
X144025694Y-76540500D01*
X144028140Y-76540308D01*
X144028153Y-76540307D01*
X144049416Y-76538633D01*
X144062569Y-76537598D01*
X144146471Y-76513222D01*
X144212785Y-76493956D01*
X144212786Y-76493955D01*
X144220398Y-76491744D01*
X144250157Y-76474145D01*
X144355044Y-76412115D01*
X144361865Y-76408081D01*
X144478081Y-76291865D01*
X144497983Y-76258213D01*
X144557709Y-76157221D01*
X144557709Y-76157220D01*
X144561744Y-76150398D01*
X144607598Y-75992569D01*
X144608826Y-75976967D01*
X144610307Y-75958153D01*
X144610308Y-75958140D01*
X144610500Y-75955694D01*
X144610500Y-75475262D01*
X145044520Y-75475262D01*
X145045036Y-75481406D01*
X145060407Y-75664447D01*
X145061759Y-75680553D01*
X145118544Y-75878586D01*
X145121359Y-75884063D01*
X145121360Y-75884066D01*
X145197223Y-76031680D01*
X145212712Y-76061818D01*
X145340677Y-76223270D01*
X145497564Y-76356791D01*
X145502942Y-76359797D01*
X145502944Y-76359798D01*
X145556424Y-76389687D01*
X145677398Y-76457297D01*
X145770996Y-76487709D01*
X145867471Y-76519056D01*
X145867475Y-76519057D01*
X145873329Y-76520959D01*
X146077894Y-76545351D01*
X146084029Y-76544879D01*
X146084031Y-76544879D01*
X146143447Y-76540307D01*
X146283300Y-76529546D01*
X146289230Y-76527890D01*
X146289232Y-76527890D01*
X146475797Y-76475800D01*
X146475796Y-76475800D01*
X146481725Y-76474145D01*
X146487214Y-76471372D01*
X146487220Y-76471370D01*
X146623607Y-76402475D01*
X146665610Y-76381258D01*
X146691367Y-76361135D01*
X146823101Y-76258213D01*
X146827951Y-76254424D01*
X146862173Y-76214778D01*
X146958540Y-76103134D01*
X146958540Y-76103133D01*
X146962564Y-76098472D01*
X146983387Y-76061818D01*
X147029529Y-75980592D01*
X147064323Y-75919344D01*
X147129351Y-75723863D01*
X147155171Y-75519474D01*
X147155390Y-75503806D01*
X147155534Y-75493522D01*
X147155534Y-75493518D01*
X147155583Y-75490000D01*
X147154138Y-75475262D01*
X147584520Y-75475262D01*
X147585036Y-75481406D01*
X147600407Y-75664447D01*
X147601759Y-75680553D01*
X147658544Y-75878586D01*
X147661359Y-75884063D01*
X147661360Y-75884066D01*
X147737223Y-76031680D01*
X147752712Y-76061818D01*
X147880677Y-76223270D01*
X148037564Y-76356791D01*
X148042942Y-76359797D01*
X148042944Y-76359798D01*
X148096424Y-76389687D01*
X148217398Y-76457297D01*
X148310996Y-76487709D01*
X148407471Y-76519056D01*
X148407475Y-76519057D01*
X148413329Y-76520959D01*
X148617894Y-76545351D01*
X148624029Y-76544879D01*
X148624031Y-76544879D01*
X148683447Y-76540307D01*
X148823300Y-76529546D01*
X148829230Y-76527890D01*
X148829232Y-76527890D01*
X149015797Y-76475800D01*
X149015796Y-76475800D01*
X149021725Y-76474145D01*
X149027214Y-76471372D01*
X149027220Y-76471370D01*
X149163607Y-76402475D01*
X149205610Y-76381258D01*
X149208042Y-76379358D01*
X149275253Y-76360038D01*
X149343259Y-76380428D01*
X149389445Y-76434348D01*
X149392857Y-76442724D01*
X149421266Y-76520356D01*
X149425502Y-76526659D01*
X149425502Y-76526660D01*
X149434672Y-76540307D01*
X149515830Y-76661083D01*
X149521442Y-76666190D01*
X149521445Y-76666193D01*
X149635612Y-76770077D01*
X149635616Y-76770080D01*
X149641233Y-76775191D01*
X149647906Y-76778814D01*
X149647910Y-76778817D01*
X149783558Y-76852467D01*
X149783560Y-76852468D01*
X149790235Y-76856092D01*
X149797584Y-76858020D01*
X149946883Y-76897188D01*
X149946885Y-76897188D01*
X149954233Y-76899116D01*
X150040609Y-76900473D01*
X150116161Y-76901660D01*
X150116164Y-76901660D01*
X150123760Y-76901779D01*
X150131165Y-76900083D01*
X150131166Y-76900083D01*
X150191586Y-76886245D01*
X150289029Y-76863928D01*
X150440498Y-76787747D01*
X150569423Y-76677634D01*
X150668361Y-76539947D01*
X150671194Y-76532900D01*
X150728766Y-76389687D01*
X150728767Y-76389685D01*
X150731601Y-76382634D01*
X150748135Y-76266459D01*
X150754909Y-76218862D01*
X150754909Y-76218859D01*
X150755490Y-76214778D01*
X150755645Y-76200000D01*
X150735276Y-76031680D01*
X150675345Y-75873077D01*
X150626587Y-75802134D01*
X150583614Y-75739608D01*
X150583613Y-75739607D01*
X150579312Y-75733349D01*
X150573641Y-75728296D01*
X150458392Y-75625612D01*
X150458388Y-75625610D01*
X150452721Y-75620560D01*
X150302881Y-75541224D01*
X150138441Y-75499919D01*
X150130843Y-75499879D01*
X150130841Y-75499879D01*
X150053668Y-75499475D01*
X149968895Y-75499031D01*
X149843427Y-75529154D01*
X149772520Y-75525607D01*
X149714786Y-75484287D01*
X149688615Y-75418931D01*
X149678631Y-75317111D01*
X158962051Y-75317111D01*
X158980656Y-75485635D01*
X158994322Y-75522978D01*
X159031881Y-75625612D01*
X159038923Y-75644856D01*
X159043159Y-75651159D01*
X159043159Y-75651160D01*
X159056231Y-75670613D01*
X159133487Y-75785583D01*
X159139099Y-75790690D01*
X159139102Y-75790693D01*
X159253269Y-75894577D01*
X159253273Y-75894580D01*
X159258890Y-75899691D01*
X159265563Y-75903314D01*
X159265567Y-75903317D01*
X159401215Y-75976967D01*
X159401217Y-75976968D01*
X159407892Y-75980592D01*
X159415241Y-75982520D01*
X159564540Y-76021688D01*
X159564542Y-76021688D01*
X159571890Y-76023616D01*
X159658266Y-76024973D01*
X159733818Y-76026160D01*
X159733821Y-76026160D01*
X159741417Y-76026279D01*
X159748822Y-76024583D01*
X159748823Y-76024583D01*
X159809243Y-76010745D01*
X159906686Y-75988428D01*
X160058155Y-75912247D01*
X160187080Y-75802134D01*
X160286018Y-75664447D01*
X160293894Y-75644856D01*
X160346423Y-75514187D01*
X160346424Y-75514185D01*
X160349258Y-75507134D01*
X160373147Y-75339278D01*
X160373302Y-75324500D01*
X160371497Y-75309580D01*
X160353845Y-75163720D01*
X160352933Y-75156180D01*
X160293002Y-74997577D01*
X160196969Y-74857849D01*
X160173810Y-74837215D01*
X160076049Y-74750112D01*
X160076045Y-74750110D01*
X160070378Y-74745060D01*
X160052918Y-74735815D01*
X159952277Y-74682529D01*
X159920538Y-74665724D01*
X159756098Y-74624419D01*
X159748500Y-74624379D01*
X159748498Y-74624379D01*
X159671325Y-74623975D01*
X159586552Y-74623531D01*
X159579165Y-74625305D01*
X159579161Y-74625305D01*
X159435819Y-74659720D01*
X159421689Y-74663112D01*
X159414945Y-74666593D01*
X159414942Y-74666594D01*
X159277774Y-74737392D01*
X159271026Y-74740875D01*
X159265304Y-74745867D01*
X159265302Y-74745868D01*
X159260437Y-74750112D01*
X159143261Y-74852331D01*
X159045770Y-74991047D01*
X158984181Y-75149013D01*
X158962051Y-75317111D01*
X149678631Y-75317111D01*
X149676081Y-75291102D01*
X149675480Y-75284970D01*
X149615935Y-75087749D01*
X149519218Y-74905849D01*
X149445859Y-74815902D01*
X149392906Y-74750975D01*
X149392903Y-74750972D01*
X149389011Y-74746200D01*
X149383338Y-74741507D01*
X149235025Y-74618811D01*
X149235021Y-74618809D01*
X149230275Y-74614882D01*
X149049055Y-74516897D01*
X148852254Y-74455977D01*
X148846129Y-74455333D01*
X148846128Y-74455333D01*
X148653498Y-74435087D01*
X148653496Y-74435087D01*
X148647369Y-74434443D01*
X148565461Y-74441897D01*
X148448342Y-74452555D01*
X148448339Y-74452556D01*
X148442203Y-74453114D01*
X148244572Y-74511280D01*
X148062002Y-74606726D01*
X148057201Y-74610586D01*
X148057198Y-74610588D01*
X147906254Y-74731950D01*
X147901447Y-74735815D01*
X147769024Y-74893630D01*
X147766056Y-74899028D01*
X147766053Y-74899033D01*
X147711879Y-74997577D01*
X147669776Y-75074162D01*
X147607484Y-75270532D01*
X147606798Y-75276649D01*
X147606797Y-75276653D01*
X147599773Y-75339278D01*
X147584520Y-75475262D01*
X147154138Y-75475262D01*
X147135480Y-75284970D01*
X147075935Y-75087749D01*
X146979218Y-74905849D01*
X146905859Y-74815902D01*
X146852906Y-74750975D01*
X146852903Y-74750972D01*
X146849011Y-74746200D01*
X146843338Y-74741507D01*
X146695025Y-74618811D01*
X146695021Y-74618809D01*
X146690275Y-74614882D01*
X146509055Y-74516897D01*
X146312254Y-74455977D01*
X146306129Y-74455333D01*
X146306128Y-74455333D01*
X146113498Y-74435087D01*
X146113496Y-74435087D01*
X146107369Y-74434443D01*
X146025461Y-74441897D01*
X145908342Y-74452555D01*
X145908339Y-74452556D01*
X145902203Y-74453114D01*
X145704572Y-74511280D01*
X145522002Y-74606726D01*
X145517201Y-74610586D01*
X145517198Y-74610588D01*
X145366254Y-74731950D01*
X145361447Y-74735815D01*
X145229024Y-74893630D01*
X145226056Y-74899028D01*
X145226053Y-74899033D01*
X145171879Y-74997577D01*
X145129776Y-75074162D01*
X145067484Y-75270532D01*
X145066798Y-75276649D01*
X145066797Y-75276653D01*
X145059773Y-75339278D01*
X145044520Y-75475262D01*
X144610500Y-75475262D01*
X144610500Y-75024306D01*
X144610308Y-75021860D01*
X144610307Y-75021847D01*
X144608103Y-74993850D01*
X144607598Y-74987431D01*
X144583896Y-74905849D01*
X144563956Y-74837215D01*
X144563955Y-74837214D01*
X144561744Y-74829602D01*
X144478081Y-74688135D01*
X144361865Y-74571919D01*
X144273782Y-74519827D01*
X144227221Y-74492291D01*
X144227220Y-74492291D01*
X144220398Y-74488256D01*
X144212786Y-74486045D01*
X144212785Y-74486044D01*
X144099440Y-74453114D01*
X144062569Y-74442402D01*
X144049416Y-74441367D01*
X144028153Y-74439693D01*
X144028140Y-74439692D01*
X144025694Y-74439500D01*
X143094306Y-74439500D01*
X143091860Y-74439692D01*
X143091847Y-74439693D01*
X143070584Y-74441367D01*
X143057431Y-74442402D01*
X143020560Y-74453114D01*
X142907215Y-74486044D01*
X142907214Y-74486045D01*
X142899602Y-74488256D01*
X142892780Y-74492291D01*
X142892779Y-74492291D01*
X142846218Y-74519827D01*
X142758135Y-74571919D01*
X142641919Y-74688135D01*
X142558256Y-74829602D01*
X142556045Y-74837214D01*
X142556044Y-74837215D01*
X142536104Y-74905849D01*
X142512402Y-74987431D01*
X142511897Y-74993850D01*
X142509693Y-75021847D01*
X142509692Y-75021860D01*
X142509500Y-75024306D01*
X142509500Y-75955694D01*
X129900000Y-75955694D01*
X129900000Y-73042611D01*
X170294394Y-73042611D01*
X170312999Y-73211135D01*
X170371266Y-73370356D01*
X170375502Y-73376659D01*
X170375502Y-73376660D01*
X170388574Y-73396113D01*
X170465830Y-73511083D01*
X170471442Y-73516190D01*
X170471445Y-73516193D01*
X170585612Y-73620077D01*
X170585616Y-73620080D01*
X170591233Y-73625191D01*
X170597906Y-73628814D01*
X170597910Y-73628817D01*
X170733558Y-73702467D01*
X170733560Y-73702468D01*
X170740235Y-73706092D01*
X170747584Y-73708020D01*
X170896883Y-73747188D01*
X170896885Y-73747188D01*
X170904233Y-73749116D01*
X170990609Y-73750473D01*
X171066161Y-73751660D01*
X171066164Y-73751660D01*
X171073760Y-73751779D01*
X171081165Y-73750083D01*
X171081166Y-73750083D01*
X171141586Y-73736245D01*
X171239029Y-73713928D01*
X171390498Y-73637747D01*
X171519423Y-73527634D01*
X171618361Y-73389947D01*
X171626237Y-73370356D01*
X171678766Y-73239687D01*
X171678767Y-73239685D01*
X171681601Y-73232634D01*
X171705490Y-73064778D01*
X171705645Y-73050000D01*
X171703840Y-73035080D01*
X171694626Y-72958945D01*
X171685276Y-72881680D01*
X171625345Y-72723077D01*
X171529312Y-72583349D01*
X171419512Y-72485520D01*
X171408392Y-72475612D01*
X171408388Y-72475610D01*
X171402721Y-72470560D01*
X171359367Y-72447605D01*
X171313938Y-72423552D01*
X171252881Y-72391224D01*
X171088763Y-72350000D01*
X176294750Y-72350000D01*
X176313670Y-72493709D01*
X176369139Y-72627625D01*
X176457379Y-72742621D01*
X176572375Y-72830861D01*
X176706291Y-72886330D01*
X176850000Y-72905250D01*
X176993709Y-72886330D01*
X177127625Y-72830861D01*
X177242621Y-72742621D01*
X177330861Y-72627625D01*
X177386330Y-72493709D01*
X177405250Y-72350000D01*
X177386330Y-72206291D01*
X177330861Y-72072375D01*
X177242621Y-71957379D01*
X177127625Y-71869139D01*
X176993709Y-71813670D01*
X176850000Y-71794750D01*
X176706291Y-71813670D01*
X176572375Y-71869139D01*
X176457379Y-71957379D01*
X176369139Y-72072375D01*
X176313670Y-72206291D01*
X176294750Y-72350000D01*
X171088763Y-72350000D01*
X171088441Y-72349919D01*
X171080843Y-72349879D01*
X171080841Y-72349879D01*
X171003668Y-72349475D01*
X170918895Y-72349031D01*
X170911508Y-72350805D01*
X170911504Y-72350805D01*
X170768162Y-72385220D01*
X170754032Y-72388612D01*
X170747288Y-72392093D01*
X170747285Y-72392094D01*
X170661419Y-72436413D01*
X170603369Y-72466375D01*
X170597647Y-72471367D01*
X170597645Y-72471368D01*
X170526069Y-72533808D01*
X170475604Y-72577831D01*
X170378113Y-72716547D01*
X170316524Y-72874513D01*
X170315532Y-72882046D01*
X170315532Y-72882047D01*
X170305409Y-72958945D01*
X170294394Y-73042611D01*
X129900000Y-73042611D01*
X129900000Y-72435987D01*
X136879052Y-72435987D01*
X136887879Y-72447605D01*
X137110612Y-72609430D01*
X137117292Y-72613670D01*
X137386903Y-72761890D01*
X137394038Y-72765247D01*
X137680101Y-72878508D01*
X137687627Y-72880953D01*
X137985610Y-72957462D01*
X137993381Y-72958945D01*
X138298609Y-72997503D01*
X138306500Y-72998000D01*
X138614162Y-72998000D01*
X138622053Y-72997503D01*
X138927281Y-72958945D01*
X138935052Y-72957462D01*
X139233035Y-72880953D01*
X139240561Y-72878508D01*
X139526624Y-72765247D01*
X139533759Y-72761890D01*
X139803370Y-72613670D01*
X139810050Y-72609430D01*
X140033154Y-72447336D01*
X140041577Y-72436413D01*
X140034673Y-72423552D01*
X138473143Y-70862022D01*
X138459199Y-70854408D01*
X138457366Y-70854539D01*
X138450751Y-70858790D01*
X136885665Y-72423876D01*
X136879052Y-72435987D01*
X129900000Y-72435987D01*
X129900000Y-70493958D01*
X135947621Y-70493958D01*
X135966938Y-70800994D01*
X135967931Y-70808855D01*
X136025577Y-71111046D01*
X136027548Y-71118723D01*
X136122615Y-71411309D01*
X136125530Y-71418672D01*
X136256520Y-71697041D01*
X136260332Y-71703974D01*
X136425182Y-71963736D01*
X136429826Y-71970129D01*
X136504828Y-72060790D01*
X136517345Y-72069245D01*
X136528083Y-72063038D01*
X138088309Y-70502812D01*
X138094687Y-70491132D01*
X138824739Y-70491132D01*
X138824870Y-70492965D01*
X138829121Y-70499580D01*
X140391476Y-72061935D01*
X140404738Y-72069177D01*
X140414843Y-72061988D01*
X140490836Y-71970129D01*
X140495480Y-71963736D01*
X140660330Y-71703974D01*
X140664142Y-71697041D01*
X140795132Y-71418672D01*
X140798047Y-71411309D01*
X140893114Y-71118723D01*
X140895085Y-71111046D01*
X140952731Y-70808855D01*
X140953724Y-70800994D01*
X140973041Y-70493958D01*
X140973041Y-70486042D01*
X140967330Y-70395262D01*
X142504520Y-70395262D01*
X142505036Y-70401406D01*
X142512571Y-70491132D01*
X142521759Y-70600553D01*
X142578544Y-70798586D01*
X142581359Y-70804063D01*
X142581360Y-70804066D01*
X142669897Y-70976341D01*
X142672712Y-70981818D01*
X142800677Y-71143270D01*
X142957564Y-71276791D01*
X143137398Y-71377297D01*
X143232238Y-71408113D01*
X143327471Y-71439056D01*
X143327475Y-71439057D01*
X143333329Y-71440959D01*
X143537894Y-71465351D01*
X143544029Y-71464879D01*
X143544031Y-71464879D01*
X143600039Y-71460569D01*
X143743300Y-71449546D01*
X143749230Y-71447890D01*
X143749232Y-71447890D01*
X143935797Y-71395800D01*
X143935796Y-71395800D01*
X143941725Y-71394145D01*
X143947214Y-71391372D01*
X143947220Y-71391370D01*
X144120116Y-71304033D01*
X144125610Y-71301258D01*
X144287951Y-71174424D01*
X144336031Y-71118723D01*
X144418540Y-71023134D01*
X144418540Y-71023133D01*
X144422564Y-71018472D01*
X144443387Y-70981818D01*
X144521276Y-70844707D01*
X144524323Y-70839344D01*
X144589351Y-70643863D01*
X144615171Y-70439474D01*
X144615583Y-70410000D01*
X144614138Y-70395262D01*
X147584520Y-70395262D01*
X147585036Y-70401406D01*
X147592571Y-70491132D01*
X147601759Y-70600553D01*
X147658544Y-70798586D01*
X147661359Y-70804063D01*
X147661360Y-70804066D01*
X147749897Y-70976341D01*
X147752712Y-70981818D01*
X147880677Y-71143270D01*
X148037564Y-71276791D01*
X148217398Y-71377297D01*
X148312238Y-71408113D01*
X148407471Y-71439056D01*
X148407475Y-71439057D01*
X148413329Y-71440959D01*
X148617894Y-71465351D01*
X148624029Y-71464879D01*
X148624031Y-71464879D01*
X148680039Y-71460569D01*
X148823300Y-71449546D01*
X148829230Y-71447890D01*
X148829232Y-71447890D01*
X149015797Y-71395800D01*
X149015796Y-71395800D01*
X149021725Y-71394145D01*
X149027214Y-71391372D01*
X149027220Y-71391370D01*
X149200116Y-71304033D01*
X149205610Y-71301258D01*
X149367951Y-71174424D01*
X149416031Y-71118723D01*
X149498540Y-71023134D01*
X149498540Y-71023133D01*
X149502564Y-71018472D01*
X149523387Y-70981818D01*
X149601276Y-70844707D01*
X149604323Y-70839344D01*
X149669351Y-70643863D01*
X149695171Y-70439474D01*
X149695583Y-70410000D01*
X149675480Y-70204970D01*
X149615935Y-70007749D01*
X149519218Y-69825849D01*
X149445859Y-69735902D01*
X149392906Y-69670975D01*
X149392903Y-69670972D01*
X149389011Y-69666200D01*
X149371786Y-69651950D01*
X149235025Y-69538811D01*
X149235021Y-69538809D01*
X149230275Y-69534882D01*
X149049055Y-69436897D01*
X148852254Y-69375977D01*
X148846129Y-69375333D01*
X148846128Y-69375333D01*
X148653498Y-69355087D01*
X148653496Y-69355087D01*
X148647369Y-69354443D01*
X148560529Y-69362346D01*
X148448342Y-69372555D01*
X148448339Y-69372556D01*
X148442203Y-69373114D01*
X148244572Y-69431280D01*
X148062002Y-69526726D01*
X148057201Y-69530586D01*
X148057198Y-69530588D01*
X147906254Y-69651950D01*
X147901447Y-69655815D01*
X147769024Y-69813630D01*
X147766056Y-69819028D01*
X147766053Y-69819033D01*
X147738609Y-69868954D01*
X147669776Y-69994162D01*
X147607484Y-70190532D01*
X147606798Y-70196649D01*
X147606797Y-70196653D01*
X147585207Y-70389137D01*
X147584520Y-70395262D01*
X144614138Y-70395262D01*
X144595480Y-70204970D01*
X144535935Y-70007749D01*
X144439218Y-69825849D01*
X144365859Y-69735902D01*
X144312906Y-69670975D01*
X144312903Y-69670972D01*
X144309011Y-69666200D01*
X144291786Y-69651950D01*
X144155025Y-69538811D01*
X144155021Y-69538809D01*
X144150275Y-69534882D01*
X143969055Y-69436897D01*
X143772254Y-69375977D01*
X143766129Y-69375333D01*
X143766128Y-69375333D01*
X143573498Y-69355087D01*
X143573496Y-69355087D01*
X143567369Y-69354443D01*
X143480529Y-69362346D01*
X143368342Y-69372555D01*
X143368339Y-69372556D01*
X143362203Y-69373114D01*
X143164572Y-69431280D01*
X142982002Y-69526726D01*
X142977201Y-69530586D01*
X142977198Y-69530588D01*
X142826254Y-69651950D01*
X142821447Y-69655815D01*
X142689024Y-69813630D01*
X142686056Y-69819028D01*
X142686053Y-69819033D01*
X142658609Y-69868954D01*
X142589776Y-69994162D01*
X142527484Y-70190532D01*
X142526798Y-70196649D01*
X142526797Y-70196653D01*
X142505207Y-70389137D01*
X142504520Y-70395262D01*
X140967330Y-70395262D01*
X140953724Y-70179006D01*
X140952731Y-70171145D01*
X140895085Y-69868954D01*
X140893114Y-69861277D01*
X140798047Y-69568691D01*
X140795132Y-69561328D01*
X140664142Y-69282959D01*
X140660330Y-69276026D01*
X140495480Y-69016264D01*
X140490836Y-69009871D01*
X140415834Y-68919210D01*
X140403317Y-68910755D01*
X140392579Y-68916962D01*
X138832353Y-70477188D01*
X138824739Y-70491132D01*
X138094687Y-70491132D01*
X138095923Y-70488868D01*
X138095792Y-70487035D01*
X138091541Y-70480420D01*
X136529186Y-68918065D01*
X136515924Y-68910823D01*
X136505819Y-68918012D01*
X136429826Y-69009871D01*
X136425182Y-69016264D01*
X136260332Y-69276026D01*
X136256520Y-69282959D01*
X136125530Y-69561328D01*
X136122615Y-69568691D01*
X136027548Y-69861277D01*
X136025577Y-69868954D01*
X135967931Y-70171145D01*
X135966938Y-70179006D01*
X135947621Y-70486042D01*
X135947621Y-70493958D01*
X129900000Y-70493958D01*
X129900000Y-67926000D01*
X129920002Y-67857879D01*
X129973658Y-67811386D01*
X130026000Y-67800000D01*
X137854947Y-67800000D01*
X137923068Y-67820002D01*
G37*
%TD.AperFunction*%
%TD*%
M02*
